<?xml version="1.0" encoding="utf-8"?>
<!-- Generator: Adobe Illustrator 24.0.1, SVG Export Plug-In . SVG Version: 6.00 Build 0)  -->
<svg version="1.1" id="Lag_1" xmlns="http://www.w3.org/2000/svg" xmlns:xlink="http://www.w3.org/1999/xlink" x="0px" y="0px"
	 viewBox="0 0 375 812" style="enable-background:new 0 0 375 812;" xml:space="preserve">
<style type="text/css">
	.st0{fill:#475559;stroke:#637980;stroke-width:2;stroke-linecap:round;stroke-linejoin:round;stroke-miterlimit:10;}
	.st1{fill:#475559;stroke:#637980;stroke-width:5;stroke-linecap:round;stroke-linejoin:round;stroke-miterlimit:10;}
	.st2{fill:none;stroke:#637980;stroke-width:1.3;stroke-linecap:round;stroke-linejoin:round;stroke-miterlimit:10;}
	.st3{fill:#475559;stroke:#637980;stroke-width:1.3;stroke-linecap:round;stroke-linejoin:round;stroke-miterlimit:10;}
	.st4{fill:#E1A989;}
	.st5{fill:none;stroke:#E5E3CD;stroke-width:3;stroke-linecap:round;stroke-linejoin:round;stroke-miterlimit:10;}
	.st6{fill:none;stroke:#637980;stroke-width:4;stroke-linecap:round;stroke-linejoin:round;stroke-miterlimit:10;}
	.st7{fill:#9F8B78;}
	.st8{fill:#E5E3CD;}
	.st9{fill:none;stroke:#E5E3CD;stroke-linecap:round;stroke-miterlimit:10;}
	.st10{fill:#FFFFFF;stroke:#637980;stroke-width:1.5;stroke-linecap:round;stroke-linejoin:round;stroke-miterlimit:10;}
	.st11{fill:none;stroke:#637980;stroke-width:1.5;stroke-linecap:round;stroke-linejoin:round;stroke-miterlimit:10;}
	.st12{fill:#FFFFFF;stroke:#637980;stroke-width:1.3;stroke-linecap:round;stroke-linejoin:round;stroke-miterlimit:10;}
</style>
<g>
	<path class="st0" d="M105.68-0.92C75.73,29.93,59.66,55.02,68.03,60.77c17.11,11.75,32.52-17.63,40.22-11.75
		S80.01,79.87,94.56,87.21c14.55,7.34,29.09-15.42,42.79-18.36c16.07,4.98,45.84,83.24,67.6,71.24
		c26.05-14.36-44.5-79.31-34.23-82.99s59.05,15.01,59.9,1.06s-38.51-28.97-73.59-36.31c-0.95-5.14,58-1.88,56.48-18.36
		c-3.42-14.69-76.45-3.75-91.28-7.67C114.43-4.43,105.68-0.92,105.68-0.92z"/>
	<path class="st1" d="M113.86-2.88c6.09,9.79,6.47,18.28,11.79,22.85s19.02,12.4,21.3,17.3s1.52,9.47,1.52,9.47"/>
	<path class="st2" d="M115.76,1.69c-9.51,12.4-12.55,11.75-14.83,14.69s-31.57,28.4-31.57,28.4"/>
	<path class="st2" d="M121.51,11.78c-10.19,12-13.2,11.22-15.64,14.06c-2.44,2.84-39.93,31.67-39.93,31.67"/>
	<path class="st2" d="M116.9,6.92c-5.7,6.85-16.35,15.34-21.68,21.87S66.7,53.59,66.7,53.59"/>
	<path class="st2" d="M121.85,17.36c-11.41,13.38-33.09,29.38-41.46,36.56c-3.01,2.58-11.03,7.18-11.03,7.18"/>
	<path class="st2" d="M126.41,23.24c-5.7,2.94-13.69,10.44-16.35,15.01s-5.7,10.44-5.7,10.44"/>
	<path class="st2" d="M129.07,24.54c-5.32,5.88-13.69,18.6-14.45,20.24s-5.7,10.12-5.7,10.12"/>
	<path class="st2" d="M136.3,30.09c-13.69,11.75-36.51,42.43-36.51,42.43l-8.75,9.47"/>
	<path class="st2" d="M141.62,34.01C127.93,50,96.36,88.19,96.36,88.19"/>
	<path class="st2" d="M144.66,37.92c-3.04,6.2-11.41,13.06-12.55,15.99c-1.14,2.94-5.7,6.53-8.75,12.73
		c-2.01,4.09-5.32,13.71-5.32,13.71"/>
	<path class="st2" d="M137.44,69.91c0,0,3.04-9.14,10.65-28.4"/>
	<path class="st2" d="M150.37,83.29c0,0-2.66-11.1-3.42-17.63s-0.76-8.49,1.9-20.89"/>
	<path class="st2" d="M166.72,107.45c-2.28-4.24-14.83-46.35-17.11-64.63"/>
	<path class="st2" d="M148.47,43.15c15.59,31.33,17.11,38.19,17.88,41.78c0.76,3.59,3.42,18.93,6.85,25.46s15.59,26.44,15.59,26.44"
		/>
	<path class="st2" d="M149.23,40.86c8.75,14.36,24.34,47.33,28.14,54.18c3.8,6.85,26.62,46.02,26.62,46.02"/>
	<path class="st2" d="M149.23,39.23c12.55,16.32,46.78,77.68,46.78,77.68l11.03,21.22"/>
	<path class="st2" d="M146.95,37.27c12.17,6.85,23.77,19.83,23.77,19.83"/>
	<path class="st2" d="M140.48,30.09c42.6,18.93,62.75,31.33,62.75,31.33"/>
	<path class="st2" d="M141.62,29.76c8.37,0.33,15.59,3.26,22.06,5.55c6.47,2.28,50.58,26.44,50.58,26.44l1.9,1.31"/>
	<path class="st3" d="M129.45,22.26c19.4,4.57,47.92,11.42,54.77,14.36c6.85,2.94,46.4,20.24,46.4,20.24"/>
	<path class="st2" d="M124.51,16.06c19.4,4.57,31.19,5.22,31.19,5.22l1.33,0.57"/>
	<path class="st2" d="M121.46,9.53c31.57,7.18,84.05,2.61,84.05,2.61"/>
	<path class="st2" d="M118.8,6.59c60.85,1.96,94.32-2.94,94.32-2.94"/>
	<path class="st2" d="M115.38-0.92c57.43,2.28,92.42,0.65,92.42,0.65"/>
</g>
<g>
	<path class="st4" d="M0.64,211.52c54.99,41.79,60.7,57.62,64.22,73.46c3.52,15.84,0.44,73.9-2.64,79.18
		c-14.96-3.52-54.11-63.34-64.66-80.94C-13,265.62,0.64,211.52,0.64,211.52z"/>
	<path class="st5" d="M52.98,280.25c1.28,3.85,1.28,3.85,1.28,3.85"/>
	<path class="st5" d="M40.23,297.4c1.28,3.85,1.28,3.85,1.28,3.85"/>
	<path class="st5" d="M29.27,251.22c1.28,3.85,1.28,3.85,1.28,3.85"/>
	<path class="st5" d="M56.06,294.76c1.28,3.85,1.28,3.85,1.28,3.85"/>
	<path class="st5" d="M47.27,257.37c1.28,3.85,1.28,3.85,1.28,3.85"/>
	<path class="st5" d="M45.07,308.4c1.28,3.85,1.28,3.85,1.28,3.85"/>
	<path class="st5" d="M54.3,332.59c1.28,3.85,1.28,3.85,1.28,3.85"/>
	<path class="st5" d="M56.5,319.84c1.28,3.85,1.28,3.85,1.28,3.85"/>
	<path class="st5" d="M49.9,297.4c1.28,3.85,1.28,3.85,1.28,3.85"/>
	<path class="st5" d="M55.18,273.65c1.28,3.85,1.28,3.85,1.28,3.85"/>
	<path class="st5" d="M61.78,313.68c1.28,3.85,1.28,3.85,1.28,3.85"/>
	<path class="st5" d="M23.07,312.8c1.28,3.85,1.28,3.85,1.28,3.85"/>
	<path class="st5" d="M59.14,347.99c1.28,3.85,1.28,3.85,1.28,3.85"/>
	<path class="st5" d="M35.39,302.24c1.28,3.85,1.28,3.85,1.28,3.85"/>
	<path class="st5" d="M22.19,286.41c1.28,3.85,1.28,3.85,1.28,3.85"/>
	<path class="st5" d="M48.59,285.53c1.28,3.85,1.28,3.85,1.28,3.85"/>
	<path class="st5" d="M24.83,259.02c1.28,3.85,1.28,3.85,1.28,3.85"/>
	<path class="st5" d="M34.51,278.05c1.28,3.85,1.28,3.85,1.28,3.85"/>
	<path class="st5" d="M46.39,269.25c1.28,3.85,1.28,3.85,1.28,3.85"/>
	<path class="st5" d="M42.43,275.41c0.91,2.74,0.91,2.74,0.91,2.74"/>
	<path class="st5" d="M30.99,310.16c0.91,2.74,0.91,2.74,0.91,2.74"/>
	<path class="st5" d="M63.54,328.2c0.91,2.74,0.91,2.74,0.91,2.74"/>
	<path class="st5" d="M60.46,337.43c0.91,2.74,0.91,2.74,0.91,2.74"/>
	<path class="st5" d="M51.66,339.19c0.91,2.74,0.91,2.74,0.91,2.74"/>
	<path class="st5" d="M44.63,341.83c0.91,2.74,0.91,2.74,0.91,2.74"/>
	<path class="st5" d="M50.78,348.87c0.91,2.74,0.91,2.74,0.91,2.74"/>
	<path class="st5" d="M57.38,355.03c0.91,2.74,0.91,2.74,0.91,2.74"/>
	<path class="st5" d="M39.35,317.64c0.91,2.74,0.91,2.74,0.91,2.74"/>
	<path class="st5" d="M29.67,320.28c0.91,2.74,0.91,2.74,0.91,2.74"/>
	<path class="st5" d="M38.03,324.24c0.91,2.74,0.91,2.74,0.91,2.74"/>
	<path class="st5" d="M48.15,331.72c0.91,2.74,0.91,2.74,0.91,2.74"/>
	<path class="st5" d="M48.59,321.6c0.91,2.74,0.91,2.74,0.91,2.74"/>
	<path class="st5" d="M56.5,306.64c0.91,2.74,0.91,2.74,0.91,2.74"/>
	<path class="st5" d="M22.19,305.32c0.91,2.74,0.91,2.74,0.91,2.74"/>
	<path class="st5" d="M38.67,286.58c1.07,2.8,1.07,2.8,1.07,2.8"/>
	<path class="st5" d="M25.91,277.78c1.07,2.8,1.07,2.8,1.07,2.8"/>
	<path class="st5" d="M27.67,294.5c1.07,2.8,1.07,2.8,1.07,2.8"/>
	<path class="st5" d="M20.64,269.42c1.07,2.8,1.07,2.8,1.07,2.8"/>
	<path class="st5" d="M60.23,286.58c1.07,2.8,1.07,2.8,1.07,2.8"/>
	<path class="st5" d="M22.63,238.35c1.07,2.8,1.07,2.8,1.07,2.8"/>
	<path class="st5" d="M38.27,256.23c1.07,2.8,1.07,2.8,1.07,2.8"/>
	<path class="st5" d="M37.79,266.79c1.07,2.8,1.07,2.8,1.07,2.8"/>
	<path class="st5" d="M28.99,269.42c1.07,2.8,1.07,2.8,1.07,2.8"/>
	<path class="st5" d="M62.87,301.98c1.07,2.8,1.07,2.8,1.07,2.8"/>
	<path class="st5" d="M35.19,246.11c1.07,2.8,1.07,2.8,1.07,2.8"/>
	<path class="st5" d="M29.92,237.75c1.07,2.8,1.07,2.8,1.07,2.8"/>
	<path class="st5" d="M30.55,288.5c1.07,2.8,1.07,2.8,1.07,2.8"/>
	<path class="st5" d="M36.91,333.65c1.07,2.8,1.07,2.8,1.07,2.8"/>
	<path class="st5" d="M6.36,258.58c1.28,3.85,1.28,3.85,1.28,3.85"/>
	<path class="st5" d="M18.03,225.42c1.28,3.85,1.28,3.85,1.28,3.85"/>
	<path class="st5" d="M9.23,267.65c1.28,3.85,1.28,3.85,1.28,3.85"/>
	<path class="st5" d="M-1.76,281.29c1.28,3.85,1.28,3.85,1.28,3.85"/>
	<path class="st5" d="M3.32,279.37c1.28,3.85,1.28,3.85,1.28,3.85"/>
	<path class="st5" d="M9.67,292.72c1.28,3.85,1.28,3.85,1.28,3.85"/>
	<path class="st5" d="M3.07,270.29c1.28,3.85,1.28,3.85,1.28,3.85"/>
	<path class="st5" d="M14.95,286.56c1.28,3.85,1.28,3.85,1.28,3.85"/>
	<path class="st5" d="M13.19,230.26c1.28,3.85,1.28,3.85,1.28,3.85"/>
	<path class="st5" d="M-0.01,214.42c1.28,3.85,1.28,3.85,1.28,3.85"/>
	<path class="st5" d="M1.75,258.41c1.28,3.85,1.28,3.85,1.28,3.85"/>
	<path class="st5" d="M-1.52,240.22c1.28,3.85,1.28,3.85,1.28,3.85"/>
	<path class="st5" d="M8.79,238.18c0.91,2.74,0.91,2.74,0.91,2.74"/>
	<path class="st5" d="M16.71,301.08c0.91,2.74,0.91,2.74,0.91,2.74"/>
	<path class="st5" d="M17.15,245.66c0.91,2.74,0.91,2.74,0.91,2.74"/>
	<path class="st5" d="M7.47,248.29c0.91,2.74,0.91,2.74,0.91,2.74"/>
	<path class="st5" d="M15.83,252.25c0.91,2.74,0.91,2.74,0.91,2.74"/>
	<path class="st5" d="M-2.47,266.41c0.91,2.74,0.91,2.74,0.91,2.74"/>
	<path class="st5" d="M-5.11,251.01c0.91,2.74,0.91,2.74,0.91,2.74"/>
	<path class="st5" d="M9.67,279.53c0.91,2.74,0.91,2.74,0.91,2.74"/>
	<path class="st5" d="M21.99,249.17c0.91,2.74,0.91,2.74,0.91,2.74"/>
	<path class="st5" d="M-0.01,233.34c0.91,2.74,0.91,2.74,0.91,2.74"/>
	<path class="st5" d="M2.64,248.75c1.07,2.8,1.07,2.8,1.07,2.8"/>
	<path class="st5" d="M-0.44,223.24c1.07,2.8,1.07,2.8,1.07,2.8"/>
	<path class="st5" d="M5.48,222.51c1.07,2.8,1.07,2.8,1.07,2.8"/>
	<path class="st5" d="M13.39,259.46c1.07,2.8,1.07,2.8,1.07,2.8"/>
	<path class="st5" d="M16.03,274.86c1.07,2.8,1.07,2.8,1.07,2.8"/>
	<path class="st5" d="M8.35,216.51c1.07,2.8,1.07,2.8,1.07,2.8"/>
	<path class="st5" d="M14.71,261.66c1.07,2.8,1.07,2.8,1.07,2.8"/>
</g>
<g>
	<g>
		<g>
			<path class="st0" d="M-31.95,43.38c23.31-4.98,95.43,10.56,88.26,31.75C50.91,87.52-14.65,67.03-31.95,43.38z"/>
			<path class="st2" d="M-27.54,42.81C0.4,53.97,20.34,57.61,29.22,59.96s27.55,11.22,27.55,11.22"/>
			<path class="st2" d="M55.5,76.4c-22.93-5.59-25.84-4.04-36.6-8.87s-49.51-24.33-49.51-24.33"/>
		</g>
		<g>
			<path class="st0" d="M17.85,98.17c6.89,10.26,13.3,48,1.72,48.63C12.56,146.58,9.79,111.05,17.85,98.17z"/>
			<path class="st2" d="M18.97,100.18c0.01,15.61,2.1,25.91,2.68,30.64c0.58,4.73-0.09,15.43-0.09,15.43"/>
			<path class="st2" d="M18.79,146.65c-1.73-12.12-3.04-13.22-2.78-19.34s2.17-28.53,2.17-28.53"/>
		</g>
		<path class="st6" d="M-39.19,31.08C-21.54,56.05,2.93,82.47,6.65,87.05c3.71,4.58,49.39,47.32,49.39,47.32"/>
	</g>
	<g>
		<path class="st7" d="M43.83,136.35c2.8-3.37,5.36-6.39,7.73-9.09c13.35-15.19,20.94-20.26,32.99-19.19
			c14.19,1.27,40.48,8.76,43.08,31.78c2.61,23.03-0.68,36.7-20.28,44.7c-19.6,8-39.08,10.93-45.43,7.08s-25.49-19.27-26.23-33.98
			c-0.26-5.06,0.63-9.17,1.9-12.37C40.01,139.19,43.83,136.35,43.83,136.35z"/>
		<path class="st8" d="M74.15,153.82c1.27-5.23,3.13-5.86,8.11-6.51c4.98-0.65,6.36-2,7.36,5.66c1,7.66-2.97,10.12-4.12,10.27
			c-1.15,0.15-8.14,0.28-10.27-4.12C73.1,154.74,74.15,153.82,74.15,153.82z"/>
		<path class="st9" d="M87.45,151.31c16.09-28.97,19.21-37.94,19.21-37.94"/>
		<path class="st9" d="M88.68,151.46c28.63-16.69,36.37-19.45,36.37-19.45"/>
		<path class="st9" d="M85.75,147.25c4.33-14.59,5.51-38.5,5.51-38.5"/>
		<path class="st7" d="M89.62,152.98c8.19,0.1,40.03-3.65,40.03-3.65"/>
		<path class="st9" d="M88.05,155.91c0,0,27.14,5.04,39.75,6.12"/>
		<path class="st9" d="M77.47,109.77c1.68,12.93,6.62,37.41,6.62,37.41"/>
		<path class="st9" d="M68.18,112.44c1.27,9.77,5.23,17.72,7.15,21.27c1.92,3.55,6.93,13.61,6.93,13.61"/>
		<path class="st9" d="M77.63,149.18l-3.49-8.89c0,0-4.75-8.62-15.59-21.05"/>
		<path class="st9" d="M77.53,150.66c-4.23-5.58-25.97-23.4-25.97-23.4"/>
		<path class="st9" d="M43.83,136.35c0,0,38.34,16.78,31.15,14.93"/>
		<path class="st9" d="M85.59,151.95c9.7,0.49,43.92-3.67,43.92-3.67"/>
		<path class="st9" d="M80.7,159.3c-1.01,5.68-3.36,32.57-3.36,32.57"/>
		<path class="st9" d="M120.95,174.51c-13.51-7.3-33.43-16.68-33.43-16.68"/>
		<path class="st9" d="M85.55,158.38c8.55,6.38,13.36,11.45,16.16,14.68s11.48,8.4,11.48,8.4"/>
		<path class="st9" d="M85.27,160.75c7.1,11.93,14.87,26.69,14.87,26.69"/>
		<path class="st9" d="M85.5,163.25c2.64,17.28,4.77,26.94,4.77,26.94"/>
		<path class="st9" d="M83.74,191.62c0.84-11.5-2.23-28.34-2.23-28.34"/>
		<path class="st9" d="M69.01,192.95c3.55-8.64,9.04-31.56,9.04-31.56"/>
		<path class="st9" d="M76.89,159.21c-5.84,11.28-14.96,32.42-14.96,32.42"/>
		<path class="st9" d="M75.52,157.64c-6.42,9.01-24.87,26.61-24.87,26.61"/>
		<path class="st9" d="M45,176.8c21.39-11.73,32.07-21.41,32.07-21.41"/>
		<path class="st9" d="M39.68,169.6c15.48-7.83,36.07-15.4,36.07-15.4"/>
		<path class="st9" d="M35.7,157.66c15.17-0.9,38.45-3.83,38.45-3.83"/>
		<path class="st9" d="M76.61,152.53c-10.4-3.61-37.76-7.36-37.76-7.36"/>
	</g>
</g>
<g>
	<g>
		<path class="st0" d="M28.51,155.03c2.18,11.02-5.67,44.88-15.6,41.35C7.12,193.74,17.25,163,28.51,155.03z"/>
		<path class="st2" d="M28.75,157.11c-5.46,13.08-7.32,22.45-8.49,26.61s-5.48,12.9-5.48,12.9"/>
		<path class="st2" d="M12.32,195.99c2.8-10.76,2.09-12.14,4.45-17.18c2.35-5.03,11.82-23.15,11.82-23.15"/>
	</g>
	<path class="st6" d="M49.31,204.18c0,0-34-81.94-35.51-87.08C12.3,111.96,0.04,86.94-6.01,59.83"/>
	<g>
		<path class="st7" d="M43.6,203.01c16.5-9.72,31.64-8.54,50.18,3.27c18.54,11.81,19.94,23.31,19.94,23.31s-8.96,16.45-28.31,28.26
			s-45.98,18.44-56.57-0.05C27.48,227.61,43.6,203.01,43.6,203.01z"/>
		<path class="st9" d="M50.95,199.1c12.47,4.3,40.16,10.3,45.27,15.3c5.11,5.01,17.51,15.19,17.51,15.19"/>
		<path class="st9" d="M43.6,203.01c-5.67,20.17-12.12,38.87-11.15,47.77c0.97,8.91,2.36,14.01,2.36,14.01"/>
		<path class="st9" d="M46.88,200.32c0,0-2.14,9.43-3.85,18.26c-1.71,8.83,0.63,13.23-2.58,47.93"/>
		<path class="st9" d="M63.37,266.38c-1.39-8.23-8.84-25.38-12.4-39.71c-3.4-13.69-2.94-24.76-2.94-24.76"/>
		<path class="st9" d="M70.98,264.03c0,0-10.02-34.06-21.58-61.46"/>
		<path class="st9" d="M82.39,258.9c-19.19-34.65-36.47-64.28-36.47-64.28"/>
		<path class="st9" d="M49.19,200.29c6.64,2.44,37.2,15.95,43.36,21.85c6.15,5.9,17.24,13.63,17.24,13.63"/>
		<path class="st9" d="M47.86,199.8c10.57,7.82,32.06,23.4,37.28,28.04c5.23,4.63,16.33,16.63,16.33,16.63"/>
		<path class="st9" d="M47.02,199.05c10.95,12.2,14.82,15.11,20.2,22.74c5.38,7.63,26.1,30.28,26.1,30.28"/>
		<path class="st9" d="M51.38,269.11c-1.69-20.53-4.34-46.76-4.21-53.36s0.93-11.36,0.93-11.36"/>
	</g>
</g>
<g>
	<g>
		<path class="st10" d="M312.23,827.95c-35.11-13.9-84.13-15.36-103.88-10.97c-19.75,4.39-7.43-8.9,6.58-13.17
			c16.83-5.12,58.86,4.29,79.74,9.51C303.45,815.52,312.23,827.95,312.23,827.95z"/>
		<path class="st10" d="M326.12,762.85c13.17-1.46-13.9,65.11-13.9,65.11s2.93-46.09,2.93-51.94
			C315.15,770.16,320.26,763.5,326.12,762.85z"/>
		<path class="st10" d="M312.23,827.95c1.46-46.82,0.73-81.2-3.66-89.98c-4.39-8.78-8.78-10.24-13.9-8.05
			c-5.12,2.19,5.85,42.43,5.85,42.43L312.23,827.95z"/>
		<path class="st10" d="M312.23,827.95c-14.63-43.16-13.9-51.94-19.02-65.84c-5.12-13.9-10.97-38.04-16.09-34.38
			c-5.12,3.66-2.93,24.14-2.19,29.26S312.23,827.95,312.23,827.95z"/>
		<path class="st10" d="M312.23,827.95c-29.26-49.01-40.23-70.23-46.82-87.05c-6.58-16.83-8.05-30.72-13.17-27.07
			s0.73,31.46,8.05,40.23C267.6,762.85,312.23,827.95,312.23,827.95z"/>
		<path class="st10" d="M312.23,827.95c-41.7-57.06-83.39-105.34-93.64-108.27c-10.24-2.93-7.32-1.46-7.32,2.19
			s19.75,28.53,27.07,35.85C245.66,765.04,312.23,827.95,312.23,827.95z"/>
		<path class="st10" d="M312.23,827.95c-54.87-47.55-98.03-87.78-111.92-90.71c-13.9-2.93,1.46,14.63,8.78,17.56
			s34.38,29.99,41.7,33.65C258.09,792.11,312.23,827.95,312.23,827.95z"/>
		<path class="st10" d="M312.23,824.29c-57.06-31.46-86.32-46.82-95.1-49.74c-8.78-2.93-21.95-11.7-24.87-7.32
			c-2.93,4.39,11.7,13.17,32.92,22.68S312.23,824.29,312.23,824.29z"/>
	</g>
	<path class="st11" d="M312.47,826c7.8-38.77,8.29-56.33,10-58.77c1.71-2.44,2.44-4.39,2.44-4.39"/>
	<path class="st11" d="M310.27,826.24c-3.9-42.67,1.71-43.4-4.88-61.94c-6.58-18.53-11.95-35.11-8.53-35.11"/>
	<path class="st11" d="M310.27,822.83c-13.17-33.89-27.31-58.03-30.48-70.47c-3.17-12.44-0.24-24.14-0.24-24.14"/>
	<path class="st11" d="M307.59,820.39c-24.87-39.99-46.57-72.91-48.77-79.98s-5.36-27.31-5.36-27.31"/>
	<path class="st11" d="M306.37,820.39c-24.14-27.8-59.99-62.91-61.69-66.57c-1.71-3.66-14.14-16.09-14.14-16.09l-18.53-20"/>
	<path class="st11" d="M195.18,737c0,0,14.63,13.41,20.24,17.8c5.61,4.39,38.28,26.34,89.25,64.62"/>
	<path class="st11" d="M192.99,767.97c11.95,5.61,66.08,34.63,77.54,37.06c11.46,2.44,36.09,16.83,36.09,16.83"/>
	<path class="st11" d="M198.59,816c21.21-7.56,48.28-6.83,65.59-3.17s45.6,11.22,45.6,11.22"/>
</g>
<g>
	<g>
		<path class="st12" d="M339.47,701.73c17.31-30.5,52.77-56.17,70.19-61.82c17.42-5.65-0.09-12.07-13.17-9.15
			c-15.71,3.51-40.99,33.21-53.19,48.48C338.16,685.66,339.47,701.73,339.47,701.73z"/>
		<path class="st12" d="M288.18,647.25c-10.69,5.15,51.29,54.48,51.29,54.48s-31.18-41.99-34.86-47.51S292.94,644.96,288.18,647.25z
			"/>
		<path class="st12" d="M339.47,701.73c-30.55-43.4-51.65-76.17-53.91-86.62c-2.27-10.45,0.07-14,5.25-14.47
			c5.18-0.47,22.36,42.89,22.36,42.89L339.47,701.73z"/>
		<path class="st12" d="M339.47,701.73c-16.3-47.93-22.37-55.84-27.32-71.48c-4.95-15.64-15.8-41.29-9.69-40.38
			c6.1,0.91,17.36,21.3,20.04,26.49C325.18,621.55,339.47,701.73,339.47,701.73z"/>
		<path class="st12" d="M339.47,701.73c-9.13-60.7-14.34-86.13-20.04-105.25c-5.7-19.12-13.36-32.95-7.26-32.04
			c6.1,0.91,19.25,30.01,19.35,41.91C331.61,618.25,339.47,701.73,339.47,701.73z"/>
		<path class="st12" d="M339.47,701.73c-4.96-74.45-4.4-140.62,1.35-148.45c5.76-7.83,4.51-5,6.81-1.56
			c2.3,3.45,3.3,36.68,2.47,47.2C349.28,609.44,339.47,701.73,339.47,701.73z"/>
		<path class="st12" d="M339.47,701.73c10.79-72.01,17.5-131.32,25.98-140.96s8.12,14.52,4.53,20.9
			c-3.59,6.38-6.64,45.31-9.77,52.38C357.08,641.12,339.47,701.73,339.47,701.73z"/>
		<path class="st12" d="M337.17,698.28c22.55-57.92,34.6-86.9,39.27-94.01c4.67-7.11,8.92-21.91,13.86-19.22
			c4.93,2.69-0.4,18.21-10.16,37.69S337.17,698.28,337.17,698.28z"/>
	</g>
	<path class="st11" d="M338.06,700.01c-30.19-32.68-41.6-48.98-44.4-50.44c-2.8-1.45-4.57-2.93-4.57-2.93"/>
	<path class="st2" d="M339.84,699.15c-23.96-42.16-28.58-40.07-35.36-60.8s-13.23-39.02-15.76-37.33"/>
	<path class="st11" d="M337.69,695.94c-11.56-38.47-16.26-68.24-21.73-81.53c-5.47-13.29-15.01-22.88-15.01-22.88"/>
	<path class="st11" d="M338.15,692.31c-6.71-50.02-11.32-91.8-14.14-99.55c-2.82-7.75-13.21-28.4-13.21-28.4"/>
	<path class="st11" d="M339.05,691.7c0.42-38.16,4.93-89.02,3.89-93.32c-1.04-4.29,0.37-22.18,0.37-22.18l1.17-28.03"/>
	<path class="st11" d="M369.09,558c0,0-2.42,19.89-3.82,26.81s-11.84,43.79-25.57,105.13"/>
	<path class="st11" d="M390.21,586.1c-5.34,11.21-27.25,65.38-34.22,73.36c-6.97,7.98-16.19,33.74-16.19,33.74"/>
	<path class="st11" d="M416.28,634.16c-20.5,3.39-40.13,17.49-50.68,29.52s-26.78,33.17-26.78,33.17"/>
</g>
<path class="st12" d="M298.08,433.41c49.74,39.99,61.6,66.64,68.28,79.98c14.63,29.26,17.56,50.72,16.58,72.18
	c-19.51-2.93-59.5-27.31-71.2-61.45C297.11,478.28,298.08,433.41,298.08,433.41z"/>
<path class="st2" d="M298.08,434.87c9.75,14.63,13.66,61.94,23.41,77.54c9.75,15.61,32.19,62.42,61.45,73.15
	c0,0-15.61-36.09-19.51-46.82c-3.9-10.73-25.36-56.57-65.35-105.34"/>
<path class="st2" d="M301.01,438.29c10.73,27.31,39.99,80.96,52.67,105.34c12.68,24.38,29.26,41.94,29.26,41.94"/>
<g>
	<path class="st12" d="M42.21,786.55c37.31,6.32,51.14,16.69,58.45,21.67c16.03,10.92,23.74,21.18,29.44,32.57
		c-10.94,4.12-38.69,3.06-54.61-11.23C54.67,810.05,42.21,786.55,42.21,786.55z"/>
	<path class="st2" d="M43.46,791.15c9.28,4.75,24.14,24.27,33.7,29.53c9.56,5.26,34.7,23.01,52.95,20.11c0,0-18.51-14.17-23.63-18.6
		S77,800.24,42.21,786.55"/>
	<path class="st2" d="M45.13,788.23c13.45,11.04,44.09,30.35,57.7,39.31s27.27,13.25,27.27,13.25"/>
</g>
<g>
	<path class="st12" d="M370.63,833.32c-31.3-44.21-34.78-68.71-37.13-81.16c-5.14-27.28-2.53-45.48,3.25-62.77
		c15.24,6.92,42.21,36.13,43.82,66.71C381.86,796.93,370.63,833.32,370.63,833.32z"/>
	<path class="st2" d="M374.03,827.4c-4.56-14.21,0.19-49.01-4.14-64.01s-11.75-58.43-33.14-74c0,0,4.34,33.08,5.03,42.75
		c0.69,9.66,7.54,52.07,28.84,101.17"/>
	<path class="st2" d="M369.37,828.66c-2.41-24.79-13.81-75.37-18.49-98.23c-4.68-22.85-14.13-41.04-14.13-41.04"/>
</g>
<g>
	<path class="st0" d="M217.09,825.57c20.83-19.9,32.71-36.67,28.05-41.36c-9.52-9.57-21.33,10.3-25.57,5.57
		c-4.24-4.73,19.79-20.02,11.48-26.27c-8.3-6.25-19.06,8.97-27.67,10.11c-9.43-4.67-21.28-62.54-35.58-55.51
		c-17.11,8.42,20.78,59.66,14.2,61.56c-6.58,1.9-34.91-14.82-36.57-4.93s21.21,23.34,42.08,31.02c0.16,3.73-35.64-2.71-36.05,9.15
		c0.9,10.71,46.47,8.01,55.23,11.84C211.45,827.46,217.09,825.57,217.09,825.57z"/>
	<path class="st1" d="M211.93,826.4c-2.93-7.41-2.47-13.48-5.36-17.11c-2.89-3.63-10.63-10.17-11.63-13.82
		c-1-3.65-0.16-6.85-0.16-6.85"/>
	<path class="st2" d="M211.14,823.01c6.83-8.18,8.63-7.5,10.27-9.44c1.64-1.94,21.62-18.04,21.62-18.04"/>
	<path class="st2" d="M208.44,815.42c7.21-7.84,8.99-7.08,10.71-8.93c1.73-1.85,27.01-19.8,27.01-19.8"/>
	<path class="st2" d="M210.86,819.21c4.05-4.49,11.25-9.8,15.04-14.08c3.79-4.28,19.47-15.7,19.47-15.7"/>
	<path class="st2" d="M208.69,811.41c8.07-8.75,22.63-18.64,28.34-23.17c2.05-1.63,7.33-4.35,7.33-4.35"/>
	<path class="st2" d="M206.37,806.91c3.73-1.7,9.23-6.49,11.23-9.56c2-3.07,4.34-7.05,4.34-7.05"/>
	<path class="st2" d="M204.85,805.79c3.74-3.82,9.89-12.31,10.49-13.42c0.6-1.11,4.31-6.82,4.31-6.82"/>
	<path class="st2" d="M200.88,801.33c9.33-7.42,25.79-27.71,25.79-27.71l6.12-6.14"/>
	<path class="st2" d="M197.94,798.17c9.68-10.45,32.1-35.47,32.1-35.47"/>
	<path class="st2" d="M196.4,795.16c2.37-4.21,8.04-8.51,8.98-10.53s4.02-4.26,6.39-8.47c1.56-2.78,4.37-9.4,4.37-9.4"/>
	<path class="st2" d="M203.42,772.86c0,0-2.6,6.3-8.82,19.5"/>
	<path class="st2" d="M196.59,762.41c0,0,0.73,8.1,0.66,12.81s-0.22,6.1-2.86,14.76"/>
	<path class="st2" d="M188.55,744.05c1.05,3.18,5.31,34.08,5.22,47.27"/>
	<path class="st2" d="M194.49,791.17c-6.99-23.43-7.37-28.42-7.54-31.04c-0.17-2.61-0.56-13.74-2.12-18.63s-7.39-19.94-7.39-19.94"
		/>
	<path class="st2" d="M193.84,792.75c-4.19-10.85-11.05-35.44-12.82-40.59c-1.77-5.15-12.55-34.67-12.55-34.67"/>
	<path class="st2" d="M193.71,793.91c-6.35-12.51-22.31-58.65-22.31-58.65l-5.02-15.9"/>
	<path class="st2" d="M194.95,795.47c-6.89-5.74-12.93-15.8-12.93-15.8"/>
	<path class="st2" d="M198.32,801.04c-24.53-16.47-35.85-26.72-35.85-26.72"/>
	<path class="st2" d="M197.59,801.19c-5.09-0.82-9.28-3.41-13.05-5.49s-28.8-22.38-28.8-22.38l-1.06-1.06"/>
	<path class="st3" d="M204.43,807.39c-11.5-4.61-28.39-11.49-32.34-14.06c-3.95-2.57-26.75-17.67-26.75-17.67"/>
	<path class="st2" d="M206.95,812.16c-11.5-4.61-18.66-5.9-18.66-5.9l-0.77-0.5"/>
	<path class="st2" d="M208.28,817.03c-18.73-7.32-51.22-7.72-51.22-7.72"/>
	<path class="st2" d="M209.67,819.31c-37.08-5.64-57.95-4.49-57.95-4.49"/>
	<path class="st2" d="M211.16,824.9c-34.96-5.64-56.5-6.91-56.5-6.91"/>
</g>
<g>
	<path class="st4" d="M339.65,430.48c30.55-27.25,33.19-36.87,34.53-46.39c1.34-9.52-3.17-43.68-5.24-46.66
		c-8.67,2.77-29.02,39.94-34.44,50.83C329.08,399.15,339.65,430.48,339.65,430.48z"/>
	<path class="st8" d="M367.91,384.49c-0.26,0.02-0.49,0.2-0.55,0.47l-0.58,2.33c-0.08,0.33,0.12,0.67,0.45,0.75
		c0.33,0.08,0.67-0.12,0.75-0.45l0.58-2.33c0.08-0.33-0.12-0.67-0.45-0.75C368.04,384.49,367.97,384.48,367.91,384.49z"/>
	<path class="st8" d="M359.58,374.94c-0.26,0.02-0.49,0.2-0.55,0.47l-0.58,2.33c-0.08,0.33,0.12,0.67,0.45,0.75
		c0.33,0.08,0.67-0.12,0.75-0.45l0.58-2.33c0.08-0.33-0.12-0.67-0.45-0.75C359.71,374.94,359.64,374.94,359.58,374.94z"/>
	<path class="st8" d="M355.25,402.74c-0.26,0.02-0.49,0.2-0.55,0.47l-0.58,2.33c-0.08,0.33,0.12,0.67,0.45,0.75
		c0.33,0.08,0.67-0.12,0.75-0.45l0.58-2.33c0.08-0.33-0.12-0.67-0.45-0.75C355.38,402.74,355.31,402.74,355.25,402.74z"/>
	<path class="st8" d="M369.05,375.77c-0.26,0.02-0.49,0.2-0.55,0.47l-0.58,2.33c-0.08,0.33,0.12,0.67,0.45,0.75
		c0.33,0.08,0.67-0.12,0.75-0.45l0.58-2.33c0.08-0.33-0.12-0.67-0.45-0.75C369.19,375.77,369.12,375.76,369.05,375.77z"/>
	<path class="st8" d="M365.59,398.27c-0.26,0.02-0.49,0.2-0.55,0.47l-0.58,2.33c-0.08,0.33,0.12,0.67,0.45,0.75
		c0.33,0.08,0.67-0.12,0.75-0.45l0.58-2.33c0.08-0.33-0.12-0.67-0.45-0.75C365.73,398.27,365.66,398.26,365.59,398.27z"/>
	<path class="st8" d="M361.92,368.22c-0.26,0.02-0.49,0.2-0.55,0.47l-0.58,2.33c-0.08,0.33,0.12,0.67,0.45,0.75
		c0.33,0.08,0.67-0.12,0.75-0.45l0.58-2.33c0.08-0.33-0.12-0.67-0.45-0.75C362.05,368.22,361.99,368.22,361.92,368.22z"/>
	<path class="st8" d="M366.26,353.5c-0.26,0.02-0.49,0.2-0.55,0.47l-0.58,2.33c-0.08,0.33,0.12,0.67,0.45,0.75
		c0.33,0.08,0.67-0.12,0.75-0.45l0.58-2.33c0.08-0.33-0.12-0.67-0.45-0.75C366.39,353.5,366.32,353.49,366.26,353.5z"/>
	<path class="st8" d="M368.15,360.93c-0.26,0.02-0.49,0.2-0.55,0.47l-0.58,2.33c-0.08,0.33,0.12,0.67,0.45,0.75
		c0.33,0.08,0.67-0.12,0.75-0.45l0.58-2.33c0.08-0.33-0.12-0.67-0.45-0.75C368.28,360.93,368.21,360.93,368.15,360.93z"/>
	<path class="st8" d="M365.29,374.49c-0.26,0.02-0.49,0.2-0.55,0.47l-0.58,2.33c-0.08,0.33,0.12,0.67,0.45,0.75
		c0.33,0.08,0.67-0.12,0.75-0.45l0.58-2.33c0.08-0.33-0.12-0.67-0.45-0.75C365.42,374.49,365.36,374.49,365.29,374.49z"/>
	<path class="st8" d="M369.52,388.28c-0.26,0.02-0.49,0.2-0.55,0.47l-0.58,2.33c-0.08,0.33,0.12,0.67,0.45,0.75
		c0.33,0.08,0.67-0.12,0.75-0.45l0.58-2.33c0.08-0.33-0.12-0.67-0.45-0.75C369.65,388.28,369.58,388.28,369.52,388.28z"/>
	<path class="st8" d="M371.55,364.33c-0.26,0.02-0.49,0.2-0.55,0.47l-0.58,2.33c-0.08,0.33,0.12,0.67,0.45,0.75
		c0.33,0.08,0.67-0.12,0.75-0.45l0.58-2.33c0.08-0.33-0.12-0.67-0.45-0.75C371.69,364.33,371.62,364.32,371.55,364.33z"/>
	<path class="st8" d="M348.72,366.65c-0.26,0.02-0.49,0.2-0.55,0.47l-0.58,2.33c-0.08,0.33,0.12,0.67,0.45,0.75
		c0.33,0.08,0.67-0.12,0.75-0.45l0.58-2.33c0.08-0.33-0.12-0.67-0.45-0.75C348.86,366.65,348.79,366.64,348.72,366.65z"/>
	<path class="st8" d="M368.4,344.18c-0.26,0.02-0.49,0.2-0.55,0.47l-0.58,2.33c-0.08,0.33,0.12,0.67,0.45,0.75
		c0.33,0.08,0.67-0.12,0.75-0.45l0.58-2.33c0.08-0.33-0.12-0.67-0.45-0.75C368.53,344.18,368.46,344.17,368.4,344.18z"/>
	<path class="st8" d="M356.49,372.31c-0.26,0.02-0.49,0.2-0.55,0.47l-0.58,2.33c-0.08,0.33,0.12,0.67,0.45,0.75
		c0.33,0.08,0.67-0.12,0.75-0.45l0.58-2.33c0.08-0.33-0.12-0.67-0.45-0.75C356.62,372.31,356.56,372.31,356.49,372.31z"/>
	<path class="st8" d="M349.43,382.28c-0.26,0.02-0.49,0.2-0.55,0.47l-0.58,2.33c-0.08,0.33,0.12,0.67,0.45,0.75
		c0.33,0.08,0.67-0.12,0.75-0.45l0.58-2.33c0.08-0.33-0.12-0.67-0.45-0.75C349.56,382.28,349.5,382.27,349.43,382.28z"/>
	<path class="st8" d="M365.07,381.57c-0.26,0.02-0.49,0.2-0.55,0.47l-0.58,2.33c-0.08,0.33,0.12,0.67,0.45,0.75
		c0.33,0.08,0.67-0.12,0.75-0.45l0.58-2.33c0.08-0.33-0.12-0.67-0.45-0.75C365.2,381.57,365.13,381.57,365.07,381.57z"/>
	<path class="st8" d="M352.26,398.34c-0.26,0.02-0.49,0.2-0.55,0.47l-0.58,2.33c-0.08,0.33,0.12,0.67,0.45,0.75
		c0.33,0.08,0.67-0.12,0.75-0.45l0.58-2.33c0.08-0.33-0.12-0.67-0.45-0.75C352.39,398.34,352.33,398.33,352.26,398.34z"/>
	<path class="st8" d="M357.1,386.65c-0.26,0.02-0.49,0.2-0.55,0.47l-0.58,2.33c-0.08,0.33,0.12,0.67,0.45,0.75
		c0.33,0.08,0.67-0.12,0.75-0.45l0.58-2.33c0.08-0.33-0.12-0.67-0.45-0.75C357.23,386.65,357.16,386.64,357.1,386.65z"/>
	<path class="st8" d="M364.52,391.29c-0.26,0.02-0.49,0.2-0.55,0.47l-0.58,2.33c-0.08,0.33,0.12,0.67,0.45,0.75
		c0.33,0.08,0.67-0.12,0.75-0.45l0.58-2.33c0.08-0.33-0.12-0.67-0.45-0.75C364.65,391.29,364.59,391.29,364.52,391.29z"/>
	<path class="st8" d="M361.73,388.51c-0.26,0.02-0.49,0.2-0.55,0.47l-0.41,1.66c-0.08,0.33,0.12,0.67,0.45,0.75
		c0.33,0.08,0.67-0.12,0.75-0.45l0.41-1.66c0.08-0.33-0.12-0.67-0.45-0.75C361.86,388.51,361.8,388.51,361.73,388.51z"/>
	<path class="st8" d="M353.36,368.51c-0.26,0.02-0.49,0.2-0.55,0.47l-0.41,1.66c-0.08,0.33,0.12,0.67,0.45,0.75
		c0.33,0.08,0.67-0.12,0.75-0.45l0.41-1.66c0.08-0.33-0.12-0.67-0.45-0.75C353.49,368.51,353.42,368.51,353.36,368.51z"/>
	<path class="st8" d="M371.75,356.34c-0.26,0.02-0.49,0.2-0.55,0.47l-0.41,1.66c-0.08,0.33,0.12,0.67,0.45,0.75
		c0.33,0.08,0.67-0.12,0.75-0.45l0.41-1.66c0.08-0.33-0.12-0.67-0.45-0.75C371.88,356.34,371.82,356.34,371.75,356.34z"/>
	<path class="st8" d="M369.5,351.03c-0.26,0.02-0.49,0.2-0.55,0.47l-0.41,1.66c-0.08,0.33,0.12,0.67,0.45,0.75
		c0.33,0.08,0.67-0.12,0.75-0.45l0.41-1.66c0.08-0.33-0.12-0.67-0.45-0.75C369.64,351.03,369.57,351.02,369.5,351.03z"/>
	<path class="st8" d="M364.22,350.4c-0.26,0.02-0.49,0.2-0.55,0.47l-0.41,1.66c-0.08,0.33,0.12,0.67,0.45,0.75
		c0.33,0.08,0.67-0.12,0.75-0.45l0.41-1.66c0.08-0.33-0.12-0.67-0.45-0.75C364.36,350.4,364.29,350.39,364.22,350.4z"/>
	<path class="st8" d="M359.94,349.16c-0.26,0.02-0.49,0.2-0.55,0.47l-0.41,1.66c-0.08,0.33,0.12,0.67,0.45,0.75
		c0.33,0.08,0.67-0.12,0.75-0.45l0.41-1.66c0.08-0.33-0.12-0.67-0.45-0.75C360.07,349.16,360.01,349.16,359.94,349.16z"/>
	<path class="st8" d="M363.26,344.72c-0.26,0.02-0.49,0.2-0.55,0.47l-0.41,1.66c-0.08,0.33,0.12,0.67,0.45,0.75
		c0.33,0.08,0.67-0.12,0.75-0.45l0.41-1.66c0.08-0.33-0.12-0.67-0.45-0.75C363.39,344.72,363.32,344.72,363.26,344.72z"/>
	<path class="st8" d="M366.87,340.78c-0.26,0.02-0.49,0.2-0.55,0.47l-0.41,1.66c-0.08,0.33,0.12,0.67,0.45,0.75
		c0.33,0.08,0.67-0.12,0.75-0.45l0.41-1.66c0.08-0.33-0.12-0.67-0.45-0.75C367,340.77,366.93,340.77,366.87,340.78z"/>
	<path class="st8" d="M357.95,363.7c-0.26,0.02-0.49,0.2-0.55,0.47l-0.41,1.66c-0.08,0.33,0.12,0.67,0.45,0.75
		c0.33,0.08,0.67-0.12,0.75-0.45l0.41-1.66c0.08-0.33-0.12-0.67-0.45-0.75C358.08,363.7,358.01,363.7,357.95,363.7z"/>
	<path class="st8" d="M352.11,362.59c-0.26,0.02-0.49,0.2-0.55,0.47l-0.41,1.66c-0.08,0.33,0.12,0.67,0.45,0.75
		c0.33,0.08,0.67-0.12,0.75-0.45l0.41-1.66c0.08-0.33-0.12-0.67-0.45-0.75C352.24,362.59,352.17,362.59,352.11,362.59z"/>
	<path class="st8" d="M356.86,359.87c-0.26,0.02-0.49,0.2-0.55,0.47L355.9,362c-0.08,0.33,0.12,0.67,0.45,0.75
		c0.33,0.08,0.67-0.12,0.75-0.45l0.41-1.66c0.08-0.33-0.12-0.67-0.45-0.75C356.99,359.87,356.93,359.86,356.86,359.87z"/>
	<path class="st8" d="M362.49,354.98c-0.26,0.02-0.49,0.2-0.55,0.47l-0.41,1.66c-0.08,0.33,0.12,0.67,0.45,0.75
		c0.33,0.08,0.67-0.12,0.75-0.45l0.41-1.66c0.08-0.33-0.12-0.67-0.45-0.75C362.62,354.98,362.56,354.97,362.49,354.98z"/>
	<path class="st8" d="M363.22,360.94c-0.26,0.02-0.49,0.2-0.55,0.47l-0.41,1.66c-0.08,0.33,0.12,0.67,0.45,0.75
		c0.33,0.08,0.67-0.12,0.75-0.45l0.41-1.66c0.08-0.33-0.12-0.67-0.45-0.75C363.35,360.94,363.29,360.93,363.22,360.94z"/>
	<path class="st8" d="M368.6,369.4c-0.26,0.02-0.49,0.2-0.55,0.47l-0.41,1.66c-0.08,0.33,0.12,0.67,0.45,0.75
		c0.33,0.08,0.67-0.12,0.75-0.45l0.41-1.66c0.08-0.33-0.12-0.67-0.45-0.75C368.73,369.4,368.66,369.4,368.6,369.4z"/>
	<path class="st8" d="M348.39,371.78c-0.26,0.02-0.49,0.2-0.55,0.47l-0.41,1.66c-0.08,0.33,0.12,0.67,0.45,0.75
		c0.33,0.08,0.67-0.12,0.75-0.45l0.41-1.66c0.08-0.33-0.12-0.67-0.45-0.75C348.52,371.78,348.45,371.77,348.39,371.78z"/>
	<path class="st8" d="M359.09,382.04c-0.25,0.02-0.47,0.19-0.55,0.44l-0.51,1.7c-0.1,0.33,0.09,0.67,0.42,0.77
		c0.33,0.1,0.67-0.09,0.77-0.42l0.51-1.7c0.1-0.33-0.09-0.67-0.42-0.77C359.24,382.04,359.16,382.04,359.09,382.04z"/>
	<path class="st8" d="M351.96,387.83c-0.25,0.02-0.47,0.19-0.55,0.44l-0.51,1.7c-0.1,0.33,0.09,0.67,0.42,0.77
		c0.33,0.1,0.67-0.09,0.77-0.42l0.51-1.7c0.1-0.33-0.09-0.67-0.42-0.77C352.11,387.84,352.03,387.83,351.96,387.83z"/>
	<path class="st8" d="M352.22,377.88c-0.25,0.02-0.47,0.19-0.55,0.44l-0.51,1.7c-0.1,0.33,0.09,0.67,0.42,0.77
		c0.33,0.1,0.67-0.09,0.77-0.42l0.5-1.7c0.1-0.33-0.09-0.67-0.42-0.77C352.37,377.88,352.3,377.87,352.22,377.88z"/>
	<path class="st8" d="M349.23,393.02c-0.25,0.02-0.47,0.19-0.55,0.44l-0.51,1.7c-0.1,0.33,0.09,0.67,0.42,0.77
		c0.33,0.1,0.67-0.09,0.77-0.42l0.51-1.7c0.1-0.33-0.09-0.67-0.42-0.77C349.38,393.02,349.3,393.01,349.23,393.02z"/>
	<path class="st8" d="M371.82,381.04c-0.25,0.02-0.47,0.19-0.55,0.44l-0.51,1.7c-0.1,0.33,0.09,0.67,0.42,0.77
		c0.33,0.1,0.67-0.09,0.77-0.42l0.51-1.7c0.1-0.33-0.09-0.67-0.42-0.77C371.97,381.04,371.9,381.04,371.82,381.04z"/>
	<path class="st8" d="M351.85,411.28c-0.25,0.02-0.47,0.19-0.55,0.44l-0.51,1.7c-0.1,0.33,0.09,0.67,0.42,0.77
		c0.33,0.1,0.67-0.09,0.77-0.42l0.51-1.7c0.1-0.33-0.09-0.67-0.42-0.77C352,411.29,351.93,411.28,351.85,411.28z"/>
	<path class="st8" d="M360.26,399.99c-0.25,0.02-0.47,0.19-0.55,0.44l-0.51,1.7c-0.1,0.33,0.09,0.67,0.42,0.77
		c0.33,0.1,0.67-0.09,0.77-0.42l0.51-1.7c0.1-0.33-0.09-0.67-0.42-0.77C360.41,400,360.34,399.99,360.26,399.99z"/>
	<path class="st8" d="M359.49,393.78c-0.25,0.02-0.47,0.19-0.55,0.44l-0.51,1.7c-0.1,0.33,0.09,0.67,0.42,0.77
		c0.33,0.1,0.67-0.09,0.77-0.42l0.51-1.7c0.1-0.33-0.09-0.67-0.42-0.77C359.64,393.78,359.56,393.77,359.49,393.78z"/>
	<path class="st8" d="M354.17,392.63c-0.25,0.02-0.47,0.19-0.55,0.44l-0.51,1.7c-0.1,0.33,0.09,0.67,0.42,0.77
		c0.33,0.1,0.67-0.09,0.77-0.42l0.51-1.7c0.1-0.33-0.09-0.67-0.42-0.77C354.32,392.63,354.24,392.62,354.17,392.63z"/>
	<path class="st8" d="M372.67,371.82c-0.25,0.02-0.47,0.19-0.55,0.44l-0.51,1.7c-0.1,0.33,0.09,0.67,0.42,0.77
		c0.33,0.1,0.67-0.09,0.77-0.42l0.51-1.7c0.1-0.33-0.09-0.67-0.42-0.77C372.82,371.82,372.74,371.82,372.67,371.82z"/>
	<path class="st8" d="M358.91,406.12c-0.25,0.02-0.47,0.19-0.55,0.44l-0.51,1.7c-0.1,0.33,0.09,0.67,0.42,0.77
		c0.33,0.1,0.67-0.09,0.77-0.42l0.51-1.7c0.1-0.33-0.09-0.67-0.42-0.77C359.06,406.12,358.99,406.11,358.91,406.12z"/>
	<path class="st8" d="M356.18,411.3c-0.25,0.02-0.47,0.19-0.55,0.44l-0.51,1.7c-0.1,0.33,0.09,0.67,0.42,0.77
		c0.33,0.1,0.67-0.09,0.77-0.42l0.51-1.7c0.1-0.33-0.09-0.67-0.42-0.77C356.33,411.3,356.26,411.29,356.18,411.3z"/>
	<path class="st8" d="M354.2,381.29c-0.25,0.02-0.47,0.19-0.55,0.44l-0.51,1.7c-0.1,0.33,0.09,0.67,0.42,0.77
		c0.33,0.1,0.67-0.09,0.77-0.42l0.5-1.7c0.1-0.33-0.09-0.67-0.42-0.77C354.35,381.29,354.27,381.28,354.2,381.29z"/>
	<path class="st8" d="M355.86,354.32c-0.25,0.02-0.47,0.19-0.55,0.44l-0.5,1.7c-0.1,0.33,0.09,0.67,0.42,0.77
		c0.33,0.1,0.67-0.09,0.77-0.42l0.51-1.7c0.1-0.33-0.09-0.67-0.42-0.77C356.01,354.32,355.94,354.31,355.86,354.32z"/>
	<path class="st8" d="M341.37,399.45c-0.26,0.02-0.49,0.2-0.55,0.47l-0.58,2.33c-0.08,0.33,0.12,0.67,0.45,0.75
		c0.33,0.08,0.67-0.12,0.75-0.45l0.58-2.33c0.08-0.33-0.12-0.67-0.45-0.75C341.5,399.45,341.43,399.45,341.37,399.45z"/>
	<path class="st8" d="M349.81,418.51c-0.26,0.02-0.49,0.2-0.55,0.47l-0.58,2.33c-0.08,0.33,0.12,0.67,0.45,0.75
		c0.33,0.08,0.67-0.12,0.75-0.45l0.58-2.33c0.08-0.33-0.12-0.67-0.45-0.75C349.94,418.51,349.87,418.5,349.81,418.51z"/>
	<path class="st8" d="M342.65,393.96c-0.26,0.02-0.49,0.2-0.55,0.47l-0.58,2.33c-0.08,0.33,0.12,0.67,0.45,0.75
		c0.33,0.08,0.67-0.12,0.75-0.45l0.58-2.33c0.08-0.33-0.12-0.67-0.45-0.75C342.78,393.96,342.71,393.96,342.65,393.96z"/>
	<path class="st8" d="M335.51,386.42c-0.26,0.02-0.49,0.2-0.55,0.47l-0.58,2.33c-0.08,0.33,0.12,0.67,0.45,0.75
		c0.33,0.08,0.67-0.12,0.75-0.45l0.58-2.33c0.08-0.33-0.12-0.67-0.45-0.75C335.65,386.42,335.58,386.41,335.51,386.42z"/>
	<path class="st8" d="M338.61,387.32c-0.26,0.02-0.49,0.2-0.55,0.47l-0.58,2.33c-0.08,0.33,0.12,0.67,0.45,0.75
		c0.33,0.08,0.67-0.12,0.75-0.45l0.58-2.33c0.08-0.33-0.12-0.67-0.45-0.75C338.74,387.32,338.67,387.31,338.61,387.32z"/>
	<path class="st8" d="M341.74,379.13c-0.26,0.02-0.49,0.2-0.55,0.47l-0.58,2.33c-0.08,0.33,0.12,0.67,0.45,0.75
		c0.33,0.08,0.67-0.12,0.75-0.45l0.58-2.33c0.08-0.33-0.12-0.67-0.45-0.75C341.87,379.13,341.8,379.12,341.74,379.13z"/>
	<path class="st8" d="M338.88,392.69c-0.26,0.02-0.49,0.2-0.55,0.47l-0.58,2.33c-0.08,0.33,0.12,0.67,0.45,0.75
		c0.33,0.08,0.67-0.12,0.75-0.45l0.58-2.33c0.08-0.33-0.12-0.67-0.45-0.75C339.02,392.69,338.95,392.69,338.88,392.69z"/>
	<path class="st8" d="M345.15,382.52c-0.26,0.02-0.49,0.2-0.55,0.47l-0.58,2.33c-0.08,0.33,0.12,0.67,0.45,0.75
		c0.33,0.08,0.67-0.12,0.75-0.45l0.58-2.33c0.08-0.33-0.12-0.67-0.45-0.75C345.28,382.52,345.21,382.52,345.15,382.52z"/>
	<path class="st8" d="M346.72,415.87c-0.26,0.02-0.49,0.2-0.55,0.47l-0.58,2.33c-0.08,0.33,0.12,0.67,0.45,0.75
		c0.33,0.08,0.67-0.12,0.75-0.45l0.58-2.33c0.08-0.33-0.12-0.67-0.45-0.75C346.85,415.87,346.79,415.87,346.72,415.87z"/>
	<path class="st8" d="M339.66,425.84c-0.26,0.02-0.49,0.2-0.55,0.47l-0.58,2.33c-0.08,0.33,0.12,0.67,0.45,0.75
		c0.33,0.08,0.67-0.12,0.75-0.45l0.58-2.33c0.08-0.33-0.12-0.67-0.45-0.75C339.79,425.84,339.73,425.84,339.66,425.84z"/>
	<path class="st8" d="M338.66,399.77c-0.26,0.02-0.49,0.2-0.55,0.47l-0.58,2.33c-0.08,0.33,0.12,0.67,0.45,0.75
		c0.33,0.08,0.67-0.12,0.75-0.45l0.58-2.33c0.08-0.33-0.12-0.67-0.45-0.75C338.79,399.77,338.72,399.76,338.66,399.77z"/>
	<path class="st8" d="M337.57,410.67c-0.26,0.02-0.49,0.2-0.55,0.47l-0.58,2.33c-0.08,0.33,0.12,0.67,0.45,0.75
		c0.33,0.08,0.67-0.12,0.75-0.45l0.58-2.33c0.08-0.33-0.12-0.67-0.45-0.75C337.7,410.67,337.63,410.67,337.57,410.67z"/>
	<path class="st8" d="M343.59,412.07c-0.26,0.02-0.49,0.2-0.55,0.47l-0.41,1.66c-0.08,0.33,0.12,0.67,0.45,0.75
		c0.33,0.08,0.67-0.12,0.75-0.45l0.41-1.66c0.08-0.33-0.12-0.67-0.45-0.75C343.72,412.07,343.65,412.07,343.59,412.07z"/>
	<path class="st8" d="M345.34,374.54c-0.26,0.02-0.49,0.2-0.55,0.47l-0.41,1.66c-0.08,0.33,0.12,0.67,0.45,0.75
		c0.33,0.08,0.67-0.12,0.75-0.45l0.41-1.66c0.08-0.33-0.12-0.67-0.45-0.75C345.47,374.54,345.41,374.53,345.34,374.54z"/>
	<path class="st8" d="M348.18,407.27c-0.26,0.02-0.49,0.2-0.55,0.47l-0.41,1.66c-0.08,0.33,0.12,0.67,0.45,0.75
		c0.33,0.08,0.67-0.12,0.75-0.45l0.41-1.66c0.08-0.33-0.12-0.67-0.45-0.75C348.31,407.27,348.24,407.26,348.18,407.27z"/>
	<path class="st8" d="M342.34,406.16c-0.26,0.02-0.49,0.2-0.55,0.47l-0.41,1.66c-0.08,0.33,0.12,0.67,0.45,0.75
		c0.33,0.08,0.67-0.12,0.75-0.45l0.41-1.66c0.08-0.33-0.12-0.67-0.45-0.75C342.47,406.16,342.4,406.15,342.34,406.16z"/>
	<path class="st8" d="M347.09,403.43c-0.26,0.02-0.49,0.2-0.55,0.47l-0.41,1.66c-0.08,0.33,0.12,0.67,0.45,0.75
		c0.33,0.08,0.67-0.12,0.75-0.45l0.41-1.66c0.08-0.33-0.12-0.67-0.45-0.75C347.22,403.43,347.16,403.42,347.09,403.43z"/>
	<path class="st8" d="M335.62,395.92c-0.26,0.02-0.49,0.2-0.55,0.47l-0.41,1.66c-0.08,0.33,0.12,0.67,0.45,0.75
		c0.33,0.08,0.67-0.12,0.75-0.45l0.41-1.66c0.08-0.33-0.12-0.67-0.45-0.75C335.75,395.92,335.69,395.91,335.62,395.92z"/>
	<path class="st8" d="M334.78,405.14c-0.26,0.02-0.49,0.2-0.55,0.47l-0.41,1.66c-0.08,0.33,0.12,0.67,0.45,0.75
		c0.33,0.08,0.67-0.12,0.75-0.45l0.41-1.66c0.08-0.33-0.12-0.67-0.45-0.75C334.91,405.14,334.84,405.13,334.78,405.14z"/>
	<path class="st8" d="M342.19,387.6c-0.26,0.02-0.49,0.2-0.55,0.47l-0.41,1.66c-0.08,0.33,0.12,0.67,0.45,0.75
		c0.33,0.08,0.67-0.12,0.75-0.45l0.41-1.66c0.08-0.33-0.12-0.67-0.45-0.75C342.32,387.6,342.25,387.6,342.19,387.6z"/>
	<path class="st8" d="M350.87,404.96c-0.26,0.02-0.49,0.2-0.55,0.47l-0.41,1.66c-0.08,0.33,0.12,0.67,0.45,0.75
		c0.33,0.08,0.67-0.12,0.75-0.45l0.41-1.66c0.08-0.33-0.12-0.67-0.45-0.75C351.01,404.96,350.94,404.96,350.87,404.96z"/>
	<path class="st8" d="M338.62,415.34c-0.26,0.02-0.49,0.2-0.55,0.47l-0.41,1.66c-0.08,0.33,0.12,0.67,0.45,0.75
		c0.33,0.08,0.67-0.12,0.75-0.45l0.41-1.66c0.08-0.33-0.12-0.67-0.45-0.75C338.75,415.34,338.68,415.34,338.62,415.34z"/>
	<path class="st8" d="M339.56,406.07c-0.25,0.02-0.47,0.19-0.55,0.44l-0.51,1.7c-0.1,0.33,0.09,0.67,0.42,0.77
		c0.33,0.1,0.67-0.09,0.77-0.42l0.51-1.7c0.1-0.33-0.09-0.67-0.42-0.77C339.71,406.07,339.63,406.06,339.56,406.07z"/>
	<path class="st8" d="M338.93,421.29c-0.25,0.02-0.47,0.19-0.55,0.44l-0.5,1.7c-0.1,0.33,0.09,0.67,0.42,0.77
		c0.33,0.1,0.67-0.09,0.77-0.42l0.51-1.7c0.1-0.33-0.09-0.67-0.42-0.77C339.08,421.29,339,421.28,338.93,421.29z"/>
	<path class="st8" d="M342.45,421.44c-0.25,0.02-0.47,0.19-0.55,0.44l-0.5,1.7c-0.1,0.33,0.09,0.67,0.42,0.77
		c0.33,0.1,0.67-0.09,0.77-0.42l0.5-1.7c0.1-0.33-0.09-0.67-0.42-0.77C342.6,421.44,342.53,421.43,342.45,421.44z"/>
	<path class="st8" d="M345.41,399.24c-0.25,0.02-0.47,0.19-0.55,0.44l-0.51,1.7c-0.1,0.33,0.09,0.67,0.42,0.77
		c0.33,0.1,0.67-0.09,0.77-0.42l0.51-1.7c0.1-0.33-0.09-0.67-0.42-0.77C345.56,399.24,345.49,399.23,345.41,399.24z"/>
	<path class="st8" d="M346.26,390.02c-0.25,0.02-0.47,0.19-0.55,0.44l-0.51,1.7c-0.1,0.33,0.09,0.67,0.42,0.77
		c0.33,0.1,0.67-0.09,0.77-0.42l0.51-1.7c0.1-0.33-0.09-0.67-0.42-0.77C346.41,390.02,346.33,390.01,346.26,390.02z"/>
	<path class="st8" d="M344.43,424.85c-0.25,0.02-0.47,0.19-0.55,0.44l-0.5,1.7c-0.1,0.33,0.09,0.67,0.42,0.77
		c0.33,0.1,0.67-0.09,0.77-0.42l0.51-1.7c0.1-0.33-0.09-0.67-0.42-0.77C344.58,424.85,344.5,424.84,344.43,424.85z"/>
	<path class="st8" d="M346.09,397.88c-0.25,0.02-0.47,0.19-0.55,0.44l-0.51,1.7c-0.1,0.33,0.09,0.67,0.42,0.77
		c0.33,0.1,0.67-0.09,0.77-0.42l0.5-1.7c0.1-0.33-0.09-0.67-0.42-0.77C346.24,397.88,346.17,397.87,346.09,397.88z"/>
</g>
<g>
	<path class="st0" d="M364.65,811.42c-19.81,3.17-79.77-13.03-72.82-30.53C296.91,770.71,351.14,790.79,364.65,811.42z"/>
	<path class="st2" d="M360.92,811.71c-23-10.6-39.61-14.53-46.97-16.89s-22.68-10.63-22.68-10.63"/>
	<path class="st2" d="M292.57,779.86c19.03,5.69,21.55,4.52,30.38,9.05c8.83,4.53,40.57,22.61,40.57,22.61"/>
</g>
<g>
	<path class="st0" d="M325.9,759.74c-6.35-11.41-9.79-51.69,2.46-51.33C335.71,709.25,335.51,746.89,325.9,759.74z"/>
	<path class="st2" d="M324.89,757.53c1.36-16.43,0.06-27.46-0.13-32.49c-0.19-5.03,1.45-16.23,1.45-16.23"/>
	<path class="st2" d="M329.15,708.63c0.76,12.91,2.04,14.18,1.23,20.59c-0.8,6.41-4.79,29.84-4.79,29.84"/>
</g>
<path class="st6" d="M281.89,709.84c0,0,53.37,62.55,56.16,66.65c2.79,4.1,20.74,22.67,33.81,44.85"/>
<g>
	<path class="st0" d="M344.12,731.25c-1.04-10.76,9.7-42.45,18.88-38.12C368.3,696.21,355.67,724.69,344.12,731.25z"/>
	<path class="st2" d="M344.09,729.24c6.48-12.01,9.15-20.81,10.67-24.68c1.52-3.88,6.48-11.83,6.48-11.83"/>
	<path class="st2" d="M363.53,693.57c-3.7,10.04-3.16,11.43-5.89,16.03c-2.73,4.6-13.52,21.05-13.52,21.05"/>
</g>
<path class="st6" d="M317.94,646.69c0,0,23.85,78.69,24.77,83.56c0.92,4.88,16.17,43.61,19.26,69.17"/>
<g>
	<path class="st4" d="M323.99,644.74c-20.04,7.66-36.54,3.54-54.8-12.96c-18.27-16.5-17.68-29.46-17.68-29.46
		s12.96-16.5,36.54-25.93c23.57-9.43,54.21-11.79,62.46,10.61C346.39,620.58,323.99,644.74,323.99,644.74z"/>
	<path class="st9" d="M315.15,647.69c-12.96-7.07-42.43-18.86-47.14-25.34c-4.71-6.48-16.5-20.04-16.5-20.04"/>
	<path class="st9" d="M321.49,645.31c10.02-21.21,23.13-41.23,23.72-51.25c0.59-10.02,0-15.91,0-15.91"/>
	<path class="st9" d="M317.59,646.04c0,0,6.4-8.96,9.94-18.39c3.54-9.43,1.77-14.73,11.79-52.45"/>
	<path class="st9" d="M313.98,571.08c0,9.34,5.03,29.67,6.29,46.16c1.2,15.75-2.18,27.83-2.18,27.83"/>
	<path class="st9" d="M305.14,572.26c0,0,4.71,39.48,12.38,71.89"/>
	<path class="st9" d="M291.58,575.79c14.73,41.84,25.28,69.52,25.28,69.52"/>
	<path class="st9" d="M317.31,646.7c-6.88-3.93-38.11-24.55-43.8-32.21c-5.7-7.66-16.5-18.27-16.5-18.27"/>
	<path class="st9" d="M318.08,645.8c-10.21-10.61-30.42-30.13-35.34-36.22s-14.93-21.41-14.93-21.41"/>
	<path class="st9" d="M318.08,644.82c-9.82-15.52-12.16-15.8-16.67-25.23c-4.52-9.43-23.18-38.3-23.18-38.3"/>
	<path class="st9" d="M327.73,570.29c-1.96,22.98-3.93,52.45-5.3,59.71c-1.38,7.27-3.86,14.82-3.86,14.82"/>
</g>
<g>
	<path class="st4" d="M123.26,817.67c-11.89-2.26-18.58-9.13-22.45-22.47c-3.87-13.33,0.25-19.38,0.25-19.38s11.11-4.07,25.22-1.61
		c14.11,2.46,29.51,10.42,26.83,23.61C141.16,812.71,123.26,817.67,123.26,817.67z"/>
	<path class="st9" d="M118.14,816.46c-4.12-7.24-14.77-21.63-15.11-26.14c-0.34-4.51-1.98-14.51-1.98-14.51"/>
	<path class="st9" d="M123.26,817.67c11.1-7.21,21.95-13.4,25.2-18.03c3.25-4.63,4.72-7.63,4.72-7.63"/>
	<path class="st9" d="M120.58,817.58c0,0,4.95-3.58,9.44-7.06c4.49-3.48,5.22-6.55,21.2-21.67"/>
	<path class="st9" d="M140.29,779.35c-2.77,4.48-6.38,15.73-10.67,24.01c-4.09,7.91-8.93,12.98-8.93,12.98"/>
	<path class="st9" d="M135.7,777.3c0,0-9.44,20.34-15.38,38.17"/>
	<path class="st9" d="M128.14,774.97c-5.33,24.44-8.56,41.52-8.56,41.52"/>
	<path class="st9" d="M119.47,816.63c-2.13-3.92-11.01-23.08-11.47-28.44c-0.46-5.36-2.5-13.66-2.5-13.66"/>
	<path class="st9" d="M119.9,817.41c-1.76-8.12-5.46-24.47-6.01-28.85c-0.55-4.38-0.82-14.7-0.82-14.7"/>
	<path class="st9" d="M119.98,818.12c-0.11-10.36-0.74-13.35-0.11-19.21c0.63-5.86,0.23-25.25,0.23-25.25"/>
	<path class="st9" d="M147.12,783.05c-7.76,10.45-17.43,24-20.25,27.08s-5.18,5.01-5.18,5.01"/>
</g>
<g>
	<path class="st7" d="M299.83,718.38c-3.23,2.99-6.17,5.68-8.9,8.07c-15.29,13.41-23.52,17.5-35.4,14.86
		c-13.99-3.11-39.24-13.99-38.85-37.3s5.44-36.52,26.03-41.96s40.41-5.83,46.23-1.17s22.92,22.53,21.76,37.3
		c-0.4,5.09-1.82,9.06-3.5,12.1C304,716.04,299.83,718.38,299.83,718.38z"/>
	<path class="st8" d="M271.85,697.01c-1.94,5.05-3.89,5.44-8.94,5.44s-6.6,1.17-6.6-6.6s4.27-9.71,5.44-9.71s8.16,0.78,9.71,5.44
		S271.85,697.01,271.85,697.01z"/>
	<path class="st9" d="M258.26,697.79c-19.81,26.81-24.09,35.36-24.09,35.36"/>
	<path class="st9" d="M257.04,697.47c-30.72,12.94-38.81,14.69-38.81,14.69"/>
	<path class="st9" d="M259.42,702.06c-6.22,13.99-10.49,37.69-10.49,37.69"/>
	<path class="st7" d="M256.31,695.84c-8.16-1.17-40.41-1.55-40.41-1.55"/>
	<path class="st9" d="M258.26,693.12c0,0-26.42-8.55-38.85-11.27"/>
	<path class="st9" d="M262.82,740.52c0-13.11-1.75-38.17-1.75-38.17"/>
	<path class="st9" d="M272.44,739.07c0-9.91-2.91-18.36-4.37-22.15c-1.46-3.79-5.15-14.47-5.15-14.47"/>
	<path class="st9" d="M267.77,701.18l2.33,9.32c0,0,3.62,9.21,12.82,23.02"/>
	<path class="st9" d="M268.07,699.73c3.5,6.12,22.87,26.71,22.87,26.71"/>
	<path class="st9" d="M299.83,718.38c0,0-36.07-21.71-29.14-18.94"/>
	<path class="st9" d="M260.2,697.4c-9.62-1.75-44.29-2.04-44.29-2.04"/>
	<path class="st9" d="M266.03,690.69c1.75-5.54,7.58-32.05,7.58-32.05"/>
	<path class="st9" d="M227.85,670.3c12.53,9.03,31.18,20.98,31.18,20.98"/>
	<path class="st9" d="M261.07,690.99c-7.7-7.48-11.84-13.16-14.21-16.75c-2.37-3.59-10.36-9.87-10.36-9.87"/>
	<path class="st9" d="M261.66,688.66c-5.54-12.82-11.36-28.56-11.36-28.56"/>
	<path class="st9" d="M261.75,686.13c-0.39-17.58-1.26-27.49-1.26-27.49"/>
	<path class="st9" d="M267.19,658.06c-2.33,11.36-1.46,28.56-1.46,28.56"/>
	<path class="st9" d="M282.05,658.64c-4.66,8.16-13.11,30.3-13.11,30.3"/>
	<path class="st9" d="M269.81,691.28c7.28-10.49,19.13-30.4,19.13-30.4"/>
	<path class="st9" d="M270.98,693.03c7.58-8.16,28.26-23.31,28.26-23.31"/>
	<path class="st9" d="M303.91,677.87c-22.86,8.93-34.77,17.19-34.77,17.19"/>
	<path class="st9" d="M308.28,685.74c-16.46,5.8-37.98,10.68-37.98,10.68"/>
	<path class="st9" d="M310.71,698.17c-15.25-1.07-38.85-1.17-38.85-1.17"/>
	<path class="st9" d="M269.23,697.98c9.91,4.95,36.72,12.24,36.72,12.24"/>
</g>
</svg>
