<?xml version="1.0" encoding="utf-8"?>
<!-- Generator: Adobe Illustrator 24.0.1, SVG Export Plug-In . SVG Version: 6.00 Build 0)  -->
<svg version="1.1" id="Lag_1" xmlns="http://www.w3.org/2000/svg" xmlns:xlink="http://www.w3.org/1999/xlink" x="0px" y="0px"
	 viewBox="0 0 100 100" style="enable-background:new 0 0 100 100;" xml:space="preserve">
<style type="text/css">
	.st0{fill:#9F8B77;}
</style>
<path class="st0" d="M89.19,79.45c1.96-2.51,3.65-5.52,5.01-8.96c1.28-3.22,2.27-6.77,2.93-10.54c0.63-3.58,0.95-7.26,0.95-10.93V49
	l0-0.02c0.34-11.83-3.62-18.25-8.65-26.38l-0.11-0.18l-0.05-0.21c-0.76-3.04-2.27-5.93-4.49-8.6c-2.11-2.54-4.81-4.8-8.01-6.73
	c-3.11-1.87-6.55-3.34-10.22-4.36C62.87,1.52,59.16,1,55.52,1c-1.91,0-3.79,0.15-5.57,0.44c-4.38,0.71-8.73,1.75-12.93,3.07
	c-4.58,1.44-8.76,3.17-12.42,5.13c-4.02,2.15-7.33,4.55-9.86,7.12c-2.73,2.78-4.53,5.77-5.36,8.89l-0.06,0.21l-0.12,0.18
	c-2.27,3.49-4.02,7.24-5.19,11.13c-1.23,4.08-1.86,8.38-1.86,12.8c0,2.65,0.28,5.46,0.83,8.35c0.55,2.88,1.36,5.78,2.4,8.61
	c2.17,5.9,5.22,11.19,8.83,15.3l0.16,0.18l0.09,0.23c0.87,2.32,2.54,4.51,4.96,6.52c2.3,1.91,5.21,3.61,8.65,5.05
	c3.27,1.37,6.87,2.44,10.69,3.18c3.64,0.71,7.41,1.09,10.9,1.09l0.3-0.06c5.74-1.18,11.68-2.41,17.2-4.3
	c2.95-1.01,5.51-2.13,7.84-3.4c2.6-1.42,4.81-3,6.78-4.83l0.11-0.1l0.13-0.07C84.67,84.24,87.09,82.14,89.19,79.45z M49.17,16.73
	c10.69,0,19.35,8.66,19.35,19.35c0,10.69-8.66,19.35-19.35,19.35c-10.69,0-19.35-8.66-19.35-19.35
	C29.82,25.4,38.49,16.73,49.17,16.73z M49.22,93.49c-21.89-0.22-32.97-13.42-32.97-13.42c2.1-20.41,17.15-28.01,17.15-28.01
	s4.71,6.38,15.17,6.92c10.46,0.54,16.33-6.92,16.33-6.92c17.25,9.86,17.29,26.47,17.29,26.47S71.12,93.72,49.22,93.49z"/>
</svg>
