<?xml version="1.0" encoding="utf-8"?>
<!-- Generator: Adobe Illustrator 24.0.1, SVG Export Plug-In . SVG Version: 6.00 Build 0)  -->
<svg version="1.1" id="Lag_1" xmlns="http://www.w3.org/2000/svg" xmlns:xlink="http://www.w3.org/1999/xlink" x="0px" y="0px"
	 viewBox="0 0 100 100" style="enable-background:new 0 0 100 100;" xml:space="preserve">
<style type="text/css">
	.st0{fill:#E0A988;}
</style>
<path class="st0" d="M87.54,38.02L70.72,19.43c-0.08-0.1-7.53-8.46-10.52-11.71C57.41,4.68,55.67,3.09,49.64,3l-0.19,0
	c-5.63,0-8.76,3.8-8.79,3.83l-0.03,0.04l-0.04,0.04l-39.82,44c-1.63,2.83,0.14,5.39,0.53,5.9c0.96,0.93,1.94,1.41,2.91,1.41
	c1.49,0,2.64-1.07,2.77-1.19c1.2-1.32,36.09-39.8,39-42.98c1.21-1.33,2.54-2,3.96-2c2.2,0,3.69,1.66,4.04,2.09
	c1.45,1.59,37.8,41.5,38.88,42.64c0.91,0.96,1.85,1.44,2.79,1.44c0.96,0,2-0.51,3.07-1.52c2.53-2.37,0.57-5.68,0.18-6.29
	L87.54,38.02z"/>
<path class="st0" d="M87.92,78.39c0,0-0.48-16.18-0.52-18.25c-0.03-2.07-0.54-2.32-0.54-2.32S56.11,23.92,52.87,20.16
	c-3.23-3.76-5.63,0-5.63,0S14.32,56.52,13.41,57.53c-0.91,1.01-0.77,2.9-0.77,2.9l-0.09,32.11c0,0,0.54,6.79,7.16,6.79
	c2.34,0,10.74,0,20.6,0v-1.82V71.65c0,0,0.08-1.67,1.59-1.57c1.51,0.09,16.68,0,16.68,0s1.09,0,1.17,1.85c0.08,1.85,0,25.58,0,25.58
	l0.04,1.82c11.68,0,21.32,0,21.32,0s6.92,1.35,6.87-9.79C87.92,78.39,87.92,78.39,87.92,78.39z"/>
</svg>
