<?xml version="1.0" encoding="utf-8"?>
<!-- Generator: Adobe Illustrator 24.0.1, SVG Export Plug-In . SVG Version: 6.00 Build 0)  -->
<svg version="1.1" id="Lag_1" xmlns="http://www.w3.org/2000/svg" xmlns:xlink="http://www.w3.org/1999/xlink" x="0px" y="0px"
	 viewBox="0 0 100 100" style="enable-background:new 0 0 100 100;" xml:space="preserve">
<style type="text/css">
	.st0{fill:#9F8B77;}
</style>
<path class="st0" d="M87.53,38.06L70.69,19.45c-0.09-0.1-7.54-8.47-10.53-11.72C57.37,4.68,55.63,3.09,49.59,3L49.4,3
	c-5.64,0-8.76,3.8-8.79,3.84l-0.03,0.04l-0.04,0.04L0.68,50.96c-1.64,2.83,0.14,5.4,0.53,5.9c0.96,0.93,1.94,1.41,2.92,1.41
	c1.49,0,2.64-1.07,2.77-1.19c1.2-1.32,36.13-39.84,39.03-43.02c1.21-1.33,2.55-2,3.96-2c2.2,0,3.69,1.66,4.05,2.09
	c1.45,1.59,37.83,41.54,38.92,42.68c0.91,0.96,1.85,1.44,2.79,1.44c0.96,0,2-0.51,3.08-1.52c2.53-2.37,0.57-5.69,0.18-6.29
	L87.53,38.06z"/>
<path class="st0" d="M87.91,78.46c0,0-0.48-16.2-0.52-18.27c-0.03-2.07-0.54-2.32-0.54-2.32s-30.79-33.94-34.02-37.7
	c-3.24-3.76-5.64,0-5.64,0s-32.95,36.39-33.86,37.4c-0.91,1.01-0.77,2.91-0.77,2.91l-0.09,32.14c0,0,0.54,6.8,7.16,6.8
	c2.35,0,10.75,0,20.62,0v-1.82V71.72c0,0,0.08-1.67,1.59-1.57c1.51,0.09,16.7,0,16.7,0s1.09,0,1.17,1.86c0.08,1.85,0,25.6,0,25.6
	l0.04,1.82c11.69,0,21.33,0,21.33,0s6.93,1.35,6.88-9.8C87.91,78.46,87.91,78.46,87.91,78.46z"/>
</svg>
