<?xml version="1.0" encoding="utf-8"?>
<!-- Generator: Adobe Illustrator 24.0.1, SVG Export Plug-In . SVG Version: 6.00 Build 0)  -->
<svg version="1.1" id="Lag_1" xmlns="http://www.w3.org/2000/svg" xmlns:xlink="http://www.w3.org/1999/xlink" x="0px" y="0px"
	 viewBox="0 0 100 100" style="enable-background:new 0 0 100 100;" xml:space="preserve">
<style type="text/css">
	.st0{fill:#9F8B77;}
</style>
<path class="st0" d="M86.84,18.89c0.5,0.37,0,0.99,0,0.99S72.52,43.07,71.97,43.82c-0.55,0.74-1.17-0.05-1.17-0.05
	s-4.45-3.94-8.43-7.46c-3.99-3.53-5.99,0.8-5.99,0.8S39.5,63.97,38.84,65.03C38.18,66.08,37,65.11,37,65.11s-7.08-4.61-10.64-6.92
	c-3.56-2.32-5.5,1.68-5.5,1.68L7.7,81.8L0.25,93.98c0,0-1.11,3.17,1.84,4.97s5.26-0.63,5.26-0.63l7.37-12.06l10.4-17.63
	c0,0,0.58-0.78,1.31-0.37c0.72,0.42,9.44,5.69,9.44,5.69s3.58,3.16,5.97-0.34l18.48-28.43c0,0,0.39-0.71,1.24,0.25
	c0.88,1,7.76,6.68,7.76,6.68s3.53,2.5,6.61-1.9c3.08-4.39,17.4-27.36,17.4-27.36L86.84,18.89z"/>
<path class="st0" d="M90.08,22.02l-8.07-4.94c-0.94-0.57-0.69-1.99,0.38-2.22l5.46-1.16l7.3-1.56c0.63-0.13,1.26,0.25,1.43,0.87
	l1.93,7.21l1.44,5.39c0.28,1.06-0.87,1.92-1.81,1.35L90.08,22.02z"/>
</svg>
