<?xml version="1.0" encoding="utf-8"?>
<!-- Generator: Adobe Illustrator 24.0.1, SVG Export Plug-In . SVG Version: 6.00 Build 0)  -->
<svg version="1.1" id="Lag_1" xmlns="http://www.w3.org/2000/svg" xmlns:xlink="http://www.w3.org/1999/xlink" x="0px" y="0px"
	 viewBox="0 0 100 88.38" style="enable-background:new 0 0 100 88.38;" xml:space="preserve">
<style type="text/css">
	.st0{fill:#F6E746;}
	.st1{fill:#C2D22E;}
	.st2{fill:#563F2C;}
	.st3{fill:#543F2D;}
</style>
<path class="st0" d="M39.57,36.83c0,0-4.3-14.6,0-30.05c0,0,2.58-6.78,5.37-6.78s6.87,1.68,12.99,7.34s8.48,8.21,10.99,12.65
	c2.51,4.44-4.03,11.27-7.53,14.12c-3.5,2.86-12.08,8.2-16.34,9.04C40.79,44,41.2,41.99,39.57,36.83z"/>
<path class="st0" d="M41.25,38.28c0,0,4.31-23.84,16.62-33.33c0,0,4.42-4.64,8.87,2.33s8.01,11.01,9.28,21.46
	c0,0,0.54,4.04-2.75,6.47s-9.64,7.25-23.98,8.13h-6.1C43.19,43.34,40.04,43.48,41.25,38.28z"/>
<path class="st1" d="M41.01,40.27c0,0,0-16.07,15.52-33.83c0,0,9.33,6.69,12.04,13.76c0,0,1.95,3.8-1.78,7.93
	c-3.73,4.14-10.01,10.51-20.52,14.55C46.27,42.68,40.41,45.25,41.01,40.27z"/>
<circle class="st2" cx="64.16" cy="23.11" r="1.85"/>
<g>
	<path class="st3" d="M99.93,70.84c-0.11-0.81-0.16-1.47-0.21-2.06c-0.16-1.92-0.25-2.97-1.94-5.97c-1.88-3.33-6.03-5.48-10.56-5.48
		c-1.15,0-2.33,0.14-3.5,0.4l-0.01,0l-0.01,0c-0.06,0.01-6.1,1.17-9.62,9.38c-3.14,7.34-0.34,12.37,0.72,14.27
		c0.15,0.27,0.26,0.46,0.32,0.61c0.39,0.92,6.25,4.11,9.22,4.23l0.4,0.02c0.52,0.02,1,0.04,1.5,0.04c2.43,0,4.73-0.55,8.04-3.22
		c2.03-1.64,3.64-3.79,4.65-6.2C99.8,74.78,100.16,72.59,99.93,70.84z M95.7,72c-0.33,6.28-3.46,8.1-5.98,9.56
		c-0.42,0.24-0.82,0.47-1.19,0.72c-0.53,0.35-1.32,0.53-2.29,0.53c-2.47,0-5.8-1.17-7.67-3.8c-1.59-2.23-1.83-5.15-0.69-8.44
		c3.1-8.97,7.7-9.67,9.04-9.67c0.16,0,0.27,0.01,0.32,0.02c0.04,0,0.08,0,0.13,0c1.75,0,3.83,1.04,5.43,2.73
		C94.83,65.79,95.87,68.76,95.7,72z"/>
	<path class="st3" d="M45.05,79.07c-0.45,0-0.95,0.2-1.39,0.38c-0.23,0.09-0.45,0.18-0.65,0.24c-0.16,0.05-0.4,0.13-0.69,0.24
		c-1.12,0.42-2.98,1.13-5.4,1.13c-0.78,0-1.56-0.08-2.34-0.23c-1.82-0.35-3.33-1.67-4.36-3.8c-0.77-1.58-1.01-3.03-1.02-3.09
		l-0.08-0.52l0.52,0.09c0,0,0,0,0,0c0,0,0.11,0.02,0.36,0.02c0.63,0,2.13-0.1,5.14-0.74c4.72-1.01,10.4-3.61,10.66-4.88
		c0.04-0.19,0.1-0.41,0.16-0.63c0.5-1.85,1.33-4.95-3.57-8.73c-1.84-1.42-3.98-2.14-6.37-2.14c-3.3,0-5.9,1.39-5.93,1.4
		c-0.02,0.01-1.71,0.9-3.28,2.95c-1.26,1.65-2.68,4.37-2.76,8.34c-1.23-0.47-3.42-1.63-4.72-4.25c0.59-2.41-0.09-4.57-0.97-6.46
		c0.03-0.26,0.05-0.53,0.09-0.8c-0.01-0.09,0.05-0.74,0.04-0.83c-0.02-0.1-0.01-0.53,0-0.63c-0.01-0.47,0.13-1.9,0.26-2.35
		c0.15-1.88,0.91-3.11,1.85-4.75l2.16-2.41c0.9-0.74,3.52-2.63,7.9-3.07c-1.35,1.2-1.07,2.8-0.45,3.91c0.71,1.28,3.6,2.75,4.38,3.35
		c0.78,0.6,2.54,1.14,1.65,0.05c-0.87-1.08-1.04-2.53-1.85-5.16c-0.45-1.45-1.46-2.02-2.27-2.23c2.45-0.05,5.35,0.36,8.74,1.58
		c0,0,3.57,1.87,5.91,4.39c0,0,0.71,0.93,0.9,1.34c0.18,0.42-2.75-0.98-3.35-1.16c-0.6-0.18-0.92,0.28-1.43,1.02
		c-0.51,0.74,0.84,1.41,0.84,1.41s5.35,2.1,6.46,2.28c1.11,0.18,1.48-1.39,1.48-1.39s1.02-3.42,1.37-4.95
		c0.36-1.53-0.73-1.57-1.1-1.62c-0.37-0.05-0.87-0.16-1.28,1.04c-0.42,1.2-0.61,2.31-0.61,2.31s-0.05-0.21-0.42-0.99
		c-0.37-0.79-1.79-2.46-1.79-2.46c-0.79-0.24-3.23-4.25-13-5.36c-4.55-0.51-7.67-0.22-10.05,0.62c0.25-0.7,0.24-1.48,0.21-2.17
		c-0.06-1.44-1.69-4.56-2.06-5.5c-0.37-0.94-1.09-2.77-1.48,0.26c-0.18,1.42-1.11,2.86-1.11,5.7c0,1.74,1.01,2.61,1.79,3.03
		c-1.33,0.88-2.43,1.98-3.54,3.19c-1.91,2.09-3.06,5.46-3.47,9.26c-2.67-1.41-6.5-2.41-9.33-2.41l-0.09,0
		c-3.64,0.03-3.92,1.55-4.21,3.15c-0.02,0.09-0.03,0.19-0.05,0.28C1.29,57.19,1.26,61,1.23,65.03C1.2,68.92,1.16,73.32,1,75.95
		c-0.18,2.97-0.43,4.64-0.63,5.98c-0.16,1.09-0.3,2.03-0.36,3.35c-0.11,2.54,1.07,2.71,1.12,2.72L1.18,88l0.06,0.02
		c0.08,0.03,0.28,0.09,0.69,0.09c0.33,0,0.63-0.04,0.71-0.05c1.28-0.33,1.33-0.59,1.47-1.26c0.05-0.27,0.12-0.6,0.27-1
		c0.25-0.66,0.36-2.65,0.46-4.41c0.1-1.82,0.2-3.55,0.44-4.33c0.61-1.96,4.65-2.01,4.69-2.01c0.09,0,0.17,0,0.23,0.01
		c0.3,0.02,0.71,0.22,1.91,2.26c0.62,1.05,1.25,2.27,1.61,3c0.15,0.3,0.36,0.74,0.6,1.24c0.75,1.57,1.89,3.93,2.51,5.04
		c0.58,1.04,1.08,1.77,2.17,1.77c0.44,0,0.97-0.12,1.58-0.36c0.56-0.22,0.9-0.54,1.06-1c0.37-1.07-0.46-2.49-0.46-2.5
		c-0.05-0.09-4.1-7.62-5.87-10.34c-0.81-1.24-1.08-2.25-0.82-3c0.19-0.55,0.61-0.78,0.76-0.84c1.12-0.74,1.84-1.4,2.27-1.88
		c2.19,2.63,5.4,3.92,6.78,4.37c0.92,7.92,3.42,9.41,8.56,11.77c1.42,0.65,2.99,0.98,4.66,0.98c3.45,0,6.4-1.43,6.73-1.64
		c0.06-0.04,0.14-0.08,0.26-0.14c1.19-0.59,2.48-1.51,1.89-3.35C46.01,79.21,45.45,79.07,45.05,79.07z M14.12,65.9
		c-0.07,0.04-0.29,0.26-0.49,0.45c-0.65,0.64-1.74,1.71-3.22,2.38c-1.76,0.81-1.9,0.86-3.33,1.35c-0.33,0.11-0.74,0.25-1.25,0.43
		l-0.49,0.17l-0.01-0.52c-0.03-1.81-0.16-10.94,0.85-12.3l0.09-0.12l0.15-0.02c0.02,0,0.56-0.08,1.39-0.08c1.33,0,3.3,0.2,5.14,1.16
		c1.37,0.71,2.09,2.17,2.04,4.11C14.98,63.99,14.63,65.66,14.12,65.9z M28.67,69.5c-0.17,0-0.32-0.09-0.41-0.24
		c-0.39-0.64,0.04-3.38,0.6-4.5c0.68-1.36,5.04-4.35,8.1-4.35c0.06,0,0.12,0,0.18,0c3.23,0.13,4.92,3.63,4.92,4.82
		c0,1.4-3.31,2.86-4.17,3.02c-0.34,0.06-0.55,0.12-0.84,0.2c-0.48,0.13-1.14,0.32-2.84,0.66c-1.67,0.34-3.37,0.41-4.51,0.41
		c-0.55,0-0.91-0.02-1-0.02L28.67,69.5z"/>
	<path class="st3" d="M59.32,55.8c-2.49-0.82-4.31-1.23-5.43-1.23c-0.59,0-0.85,0.11-1.05,0.2L52.8,54.8
		c-0.51,0.22-2.17,1.22-1.99,4.67c0.11,2.22-0.05,5.3-0.18,7.77c-0.08,1.58-0.16,2.95-0.11,3.37c0.06,0.54-0.13,2.55-0.45,5.79
		c-0.28,2.82-0.6,6.02-0.61,7.45c0,0.8,0.18,1.39,0.56,1.77c0.43,0.43,0.99,0.46,1.16,0.46c0.03,0,0.05,0,0.05,0l0.04,0l0.04,0.01
		c0.01,0,0.8,0.12,2.03,0.12c0.71,0,1.42-0.04,2.12-0.11c0.3-0.03,0.55-0.05,0.78-0.07c1.59-0.14,1.72-0.15,6.35-2.3
		c5.08-2.36,6.32-7.48,6.33-7.53l0-0.02l0.01-0.02c1.45-4.08,1.35-8.23-0.28-12.34C66.94,59.51,64.67,57.56,59.32,55.8z
		 M64.87,74.78c-0.72,2.09-2.48,4.69-4.81,5.8c-1.73,0.82-2.85,0.94-3.36,0.94c-0.12,0-0.2-0.01-0.23-0.01l-1.59-0.11l0,0
		c-0.45,0-0.74-0.48-0.76-2.9c-0.01-1.38,0.16-3.77,0.34-6.08c0.16-2.11,0.31-4.1,0.28-4.99c-0.04-1.27,0.16-6.47,0.73-7.03
		c0.21-0.21,0.68-0.55,1.54-0.55c0.43,0,0.9,0.09,1.4,0.27c1.23,0.44,4.99,1.77,6.48,6.09C66.34,70.48,65.49,72.96,64.87,74.78z"/>
</g>
</svg>
