<?xml version="1.0" encoding="utf-8"?>
<!-- Generator: Adobe Illustrator 24.0.1, SVG Export Plug-In . SVG Version: 6.00 Build 0)  -->
<svg version="1.1" id="Lag_1" xmlns="http://www.w3.org/2000/svg" xmlns:xlink="http://www.w3.org/1999/xlink" x="0px" y="0px"
	 viewBox="0 0 100 100" style="enable-background:new 0 0 100 100;" xml:space="preserve">
<style type="text/css">
	.st0{fill:#E0A988;}
	.st1{fill:#9F6442;}
</style>
<path class="st0" d="M87.35,24.65c0,0-0.28-7.05-7.34-7.05c-7.05,0-59.96,0-59.96,0S13,17.6,13,24.93s0,68.99,0,68.99
	s0.56,6.07,7.05,6.07h60.53c0,0,6.91,0.71,6.77-8.75C87.21,81.79,87.35,24.65,87.35,24.65z M39.04,79.4
	c-0.25,0.26-6.88,6.89-6.88,6.89s-1.1,1.24-2.47,0.1l-1.57-1.58l-2.18-2.18c0,0-1.05-1.16,0.14-2.43c0,0,1.16-1.16,2.62,0.36
	c1.46,1.52,1.74,1.82,1.74,1.82s0.34,0.45,0.8,0.04c0.46-0.42,5.81-5.8,5.81-5.8s1.17-1.28,2.45-0.13
	C40.78,77.64,39.29,79.14,39.04,79.4z M39.04,60.68c-0.25,0.26-6.88,6.89-6.88,6.89s-1.1,1.24-2.47,0.1l-1.57-1.58l-2.18-2.18
	c0,0-1.05-1.16,0.14-2.43c0,0,1.16-1.16,2.62,0.36c1.46,1.52,1.74,1.82,1.74,1.82s0.34,0.46,0.8,0.04c0.46-0.42,5.81-5.8,5.81-5.8
	s1.17-1.28,2.45-0.13C40.78,58.92,39.29,60.42,39.04,60.68z M39.04,41.96c-0.25,0.26-6.88,6.89-6.88,6.89s-1.1,1.24-2.47,0.1
	l-1.57-1.58l-2.18-2.18c0,0-1.05-1.16,0.14-2.43c0,0,1.16-1.16,2.62,0.36c1.46,1.52,1.74,1.82,1.74,1.82s0.34,0.45,0.8,0.04
	c0.46-0.42,5.81-5.8,5.81-5.8s1.17-1.28,2.45-0.13C40.78,40.2,39.29,41.7,39.04,41.96z M74.61,83.03H47.52
	c-0.88,0-1.59-0.71-1.59-1.59c0-0.88,0.71-1.59,1.59-1.59h27.08c0.88,0,1.59,0.71,1.59,1.59C76.2,82.32,75.48,83.03,74.61,83.03z
	 M74.61,64.31H47.52c-0.87,0-1.59-0.72-1.59-1.59c0-0.87,0.72-1.59,1.59-1.59h27.08c0.87,0,1.59,0.72,1.59,1.59
	C76.2,63.59,75.48,64.31,74.61,64.31z M74.61,45.59H47.52c-0.87,0-1.59-0.72-1.59-1.59c0-0.87,0.72-1.59,1.59-1.59h27.08
	c0.87,0,1.59,0.72,1.59,1.59C76.2,44.87,75.48,45.59,74.61,45.59z"/>
<path class="st1" d="M63.02,11.17c0,0-3.41-1.27-3.81-4.92c-0.31-2.84-5.56-6.57-9.44-6.22c-3.88,0.34-7.68,2.8-8.78,5.95
	c-1.1,3.15-2.93,5.13-4.68,5.54c-1.76,0.41-6.37,1.92-7.61,7.04v4.51c0,0,1.1,3.01,6,3.08c4.9,0.07,30.64,0.03,30.64,0.03
	s5.79,0.52,6.31-3.11C72.17,19.48,71.43,12.26,63.02,11.17z M50.05,11.03c-1.38,0-2.5-1.12-2.5-2.5s1.12-2.5,2.5-2.5
	c1.38,0,2.5,1.12,2.5,2.5S51.43,11.03,50.05,11.03z"/>
</svg>
