<?xml version="1.0" encoding="utf-8"?>
<!-- Generator: Adobe Illustrator 24.0.1, SVG Export Plug-In . SVG Version: 6.00 Build 0)  -->
<svg version="1.1" id="Lag_1" xmlns="http://www.w3.org/2000/svg" xmlns:xlink="http://www.w3.org/1999/xlink" x="0px" y="0px"
	 viewBox="0 0 100 100" style="enable-background:new 0 0 100 100;" xml:space="preserve">
<style type="text/css">
	.st0{fill:#9F8B77;}
	.st1{fill:#756453;}
</style>
<path class="st0" d="M86.78,28.29c0,0-0.27-6.71-6.98-6.71c-6.71,0-57.06,0-57.06,0s-6.71,0-6.71,6.98s0,65.65,0,65.65
	s0.54,5.77,6.71,5.77h57.6c0,0,6.58,0.67,6.44-8.32C86.64,82.67,86.78,28.29,86.78,28.29z M40.8,80.4
	c-0.24,0.25-6.55,6.56-6.55,6.56s-1.05,1.18-2.35,0.09l-1.49-1.51l-2.07-2.07c0,0-1-1.1,0.13-2.31c0,0,1.1-1.1,2.49,0.34
	c1.39,1.44,1.65,1.73,1.65,1.73s0.33,0.43,0.76,0.04c0.44-0.4,5.53-5.52,5.53-5.52s1.12-1.22,2.33-0.12
	C42.45,78.72,41.04,80.15,40.8,80.4z M40.8,62.58c-0.24,0.25-6.55,6.56-6.55,6.56s-1.05,1.18-2.35,0.09l-1.49-1.51l-2.07-2.07
	c0,0-1-1.1,0.13-2.31c0,0,1.1-1.1,2.49,0.34c1.39,1.44,1.65,1.73,1.65,1.73s0.33,0.43,0.76,0.04c0.44-0.4,5.53-5.52,5.53-5.52
	s1.12-1.22,2.33-0.12C42.45,60.91,41.04,62.33,40.8,62.58z M40.8,44.76c-0.24,0.25-6.55,6.56-6.55,6.56s-1.05,1.18-2.35,0.09
	l-1.49-1.51l-2.07-2.07c0,0-1-1.1,0.13-2.31c0,0,1.1-1.1,2.49,0.34c1.39,1.44,1.65,1.73,1.65,1.73s0.33,0.43,0.76,0.04
	c0.44-0.4,5.53-5.52,5.53-5.52s1.12-1.22,2.33-0.12C42.45,43.09,41.04,44.51,40.8,44.76z M74.65,83.85H48.87
	c-0.84,0-1.51-0.68-1.51-1.51c0-0.84,0.68-1.51,1.51-1.51h25.77c0.84,0,1.51,0.68,1.51,1.51C76.16,83.18,75.48,83.85,74.65,83.85z
	 M74.65,66.04H48.87c-0.83,0-1.51-0.68-1.51-1.51c0-0.83,0.68-1.51,1.51-1.51h25.77c0.83,0,1.51,0.68,1.51,1.51
	C76.16,65.35,75.48,66.04,74.65,66.04z M74.65,48.22H48.87c-0.83,0-1.51-0.68-1.51-1.51c0-0.83,0.68-1.51,1.51-1.51h25.77
	c0.83,0,1.51,0.68,1.51,1.51C76.16,47.54,75.48,48.22,74.65,48.22z"/>
<path class="st1" d="M63.62,15.47c0,0-3.24-1.21-3.62-4.69c-0.29-2.71-5.29-6.25-8.98-5.92c-3.69,0.33-7.31,2.67-8.36,5.66
	c-1.04,2.99-2.79,4.88-4.46,5.27c-1.67,0.39-6.06,1.82-7.24,6.7v4.3c0,0,1.04,2.86,5.71,2.93c4.67,0.07,29.16,0.03,29.16,0.03
	s5.51,0.49,6.01-2.96C72.33,23.37,71.63,16.51,63.62,15.47z M51.28,15.33c-1.31,0-2.38-1.06-2.38-2.38s1.06-2.38,2.38-2.38
	s2.38,1.06,2.38,2.38S52.59,15.33,51.28,15.33z"/>
</svg>
