<?xml version="1.0" encoding="utf-8"?>
<!-- Generator: Adobe Illustrator 24.0.1, SVG Export Plug-In . SVG Version: 6.00 Build 0)  -->
<svg version="1.1" id="Lag_1" xmlns="http://www.w3.org/2000/svg" xmlns:xlink="http://www.w3.org/1999/xlink" x="0px" y="0px"
	 viewBox="0 0 100 100" style="enable-background:new 0 0 100 100;" xml:space="preserve">
<style type="text/css">
	.st0{fill:#E0A988;}
</style>
<path class="st0" d="M86.83,19.11c0.5,0.37,0,0.99,0,0.99S72.5,43.3,71.95,44.05C71.4,44.79,70.78,44,70.78,44s-4.45-3.94-8.44-7.47
	c-3.99-3.53-5.99,0.8-5.99,0.8S39.47,64.21,38.81,65.27s-1.85,0.08-1.85,0.08s-7.08-4.61-10.64-6.93c-3.56-2.32-5.51,1.68-5.51,1.68
	L7.65,82.05L0.2,94.24c0,0-1.11,3.17,1.84,4.97s5.26-0.63,5.26-0.63l7.37-12.06l10.4-17.64c0,0,0.58-0.78,1.31-0.37
	c0.72,0.42,9.45,5.7,9.45,5.7s3.59,3.16,5.98-0.34L60.3,45.42c0,0,0.39-0.71,1.24,0.25c0.88,1,7.77,6.69,7.77,6.69
	s3.53,2.5,6.61-1.9s17.41-27.38,17.41-27.38L86.83,19.11z"/>
<path class="st0" d="M90.08,22.24L82,17.3c-0.94-0.57-0.69-1.99,0.38-2.22l5.46-1.17l7.31-1.56c0.63-0.13,1.26,0.25,1.43,0.87
	l1.93,7.22l1.45,5.39c0.28,1.06-0.87,1.92-1.81,1.35L90.08,22.24z"/>
</svg>
