<?xml version="1.0" encoding="utf-8"?>
<!-- Generator: Adobe Illustrator 24.0.1, SVG Export Plug-In . SVG Version: 6.00 Build 0)  -->
<svg version="1.1" id="Lag_1" xmlns="http://www.w3.org/2000/svg" xmlns:xlink="http://www.w3.org/1999/xlink" x="0px" y="0px"
	 viewBox="0 0 100 100" style="enable-background:new 0 0 100 100;" xml:space="preserve">
<style type="text/css">
	.st0{fill:#9F8B77;}
</style>
<path class="st0" d="M82.96,15.48l-7.31-0.2V13c-0.29-4.02-4.5-4.08-4.5-4.08H27.29c-2.62,0.15-3.62,3.22-3.62,3.22v3.17
	c0,0-3.14,0.03-7.19,0.13c-4.05,0.1-5.72,4.61-5.72,5.52c0,0.91-0.29,2.03,1.8,8.66s9.08,13.13,10.65,14.44
	c1.57,1.31,5.16,3.55,5.16,3.55c4.81,13.24,14.82,16.9,14.82,16.9l-0.08,2.45c-1.05,5.91-5.91,7.49-7.39,7.94
	c-1.48,0.45-1.65,1.7-1.65,1.7l0.01,10.05h-5.26c-4.2,1.12-4.93,4.99-4.93,4.99s-0.06,5.14,0,6.62c0.06,1.48,1.87,1.74,1.87,1.74
	s46.38,0,48.05,0s1.84-1.56,1.84-1.56s0-2.3-0.06-6.5c-0.06-4.2-5.34-5.3-5.34-5.3h-4.74c0,0-0.07-7.12-0.12-9.32
	c-0.05-2.2-1-2.25-1-2.25c-9.22-2.68-7.94-10.79-7.94-10.79c9.87-3.55,14.87-17.09,14.87-17.09c3.72-1.66,7.55-5.52,9.51-7.68
	c1.96-2.17,7.41-10.29,7.78-16.86C89.02,16.09,82.96,15.48,82.96,15.48z M14.94,21.07c0,0-0.04-1.55,1.87-1.61s6.78,0,6.78,0
	s0.22,17.52,2.38,21.12C25.97,40.58,16.21,33.99,14.94,21.07z M73.05,40.58c2.16-3.6,2.38-21.12,2.38-21.12s4.88-0.05,6.78,0
	c1.9,0.05,1.87,1.61,1.87,1.61C82.81,33.99,73.05,40.58,73.05,40.58z"/>
</svg>
