<?xml version="1.0" encoding="utf-8"?>
<!-- Generator: Adobe Illustrator 24.0.1, SVG Export Plug-In . SVG Version: 6.00 Build 0)  -->
<svg version="1.1" id="Lag_1" xmlns="http://www.w3.org/2000/svg" xmlns:xlink="http://www.w3.org/1999/xlink" x="0px" y="0px"
	 viewBox="0 0 100 100" style="enable-background:new 0 0 100 100;" xml:space="preserve">
<style type="text/css">
	.st0{fill:#E0A988;}
</style>
<path class="st0" d="M85.79,7.2l-8.03-0.22v-2.5C77.45,0.06,72.82,0,72.82,0H24.65c-2.88,0.16-3.98,3.54-3.98,3.54v3.48
	c0,0-3.44,0.04-7.89,0.14c-4.45,0.11-6.28,5.06-6.28,6.06c0,1-0.32,2.22,1.97,9.51s9.97,14.42,11.7,15.86
	c1.72,1.44,5.66,3.9,5.66,3.9c5.28,14.54,16.27,18.56,16.27,18.56l-0.08,2.69c-1.16,6.49-6.49,8.22-8.11,8.71
	c-1.62,0.49-1.81,1.86-1.81,1.86l0.02,11.04h-5.77c-4.61,1.23-5.41,5.47-5.41,5.47s-0.07,5.64,0,7.27C21.01,99.71,23,100,23,100
	s50.93,0,52.76,0c1.82,0,2.02-1.71,2.02-1.71s0-2.52-0.07-7.13c-0.07-4.61-5.86-5.82-5.86-5.82h-5.2c0,0-0.08-7.82-0.13-10.23
	c-0.05-2.41-1.1-2.47-1.1-2.47c-10.13-2.94-8.72-11.85-8.72-11.85c10.83-3.9,16.33-18.77,16.33-18.77
	c4.09-1.82,8.29-6.06,10.44-8.44c2.16-2.38,8.14-11.3,8.55-18.51C92.44,7.87,85.79,7.2,85.79,7.2z M11.09,13.33
	c0,0-0.04-1.7,2.05-1.77c2.09-0.06,7.45,0,7.45,0s0.24,19.23,2.62,23.19C23.2,34.76,12.49,27.51,11.09,13.33z M74.91,34.76
	c2.37-3.96,2.62-23.19,2.62-23.19s5.36-0.06,7.45,0c2.09,0.06,2.05,1.77,2.05,1.77C85.62,27.51,74.91,34.76,74.91,34.76z"/>
</svg>
