<?xml version="1.0" encoding="utf-8"?>
<!-- Generator: Adobe Illustrator 24.0.1, SVG Export Plug-In . SVG Version: 6.00 Build 0)  -->
<svg version="1.1" id="Lag_1" xmlns="http://www.w3.org/2000/svg" xmlns:xlink="http://www.w3.org/1999/xlink" x="0px" y="0px"
	 viewBox="0 0 100 100" style="enable-background:new 0 0 100 100;" xml:space="preserve">
<style type="text/css">
	.st0{fill:#9F6442;}
	.st1{fill:#E0A988;}
</style>
<path class="st0" d="M2.92,18.09c0,0-2.92,0.32-2.92-4.1S0,2.53,0,2.53s0.51-2.51,2.45-2.51s13.08,0,13.08,0s2.62,0.64,2.59,2.83
	c-0.04,2.19-2.19,3.02-2.37,3.02s-9.92,0-9.92,0l-0.04,9.59C5.79,15.47,5.58,18.05,2.92,18.09z"/>
<path class="st0" d="M18.09,96.76c0,0,0.32,2.92-4.1,2.92s-11.46,0-11.46,0s-2.51-0.51-2.51-2.45s0-13.08,0-13.08
	s0.64-2.62,2.83-2.59c2.19,0.04,3.02,2.19,3.02,2.37s0,9.92,0,9.92l9.59,0.04C15.47,93.88,18.05,94.1,18.09,96.76z"/>
<path class="st0" d="M96.73,81.59c0,0,2.92-0.32,2.92,4.1c0,4.42,0,11.46,0,11.46s-0.51,2.51-2.45,2.51c-1.94,0-13.08,0-13.08,0
	s-2.62-0.64-2.59-2.83c0.04-2.19,2.19-3.02,2.37-3.02s9.92,0,9.92,0l0.04-9.59C93.86,84.21,94.07,81.62,96.73,81.59z"/>
<path class="st0" d="M81.56,2.92c0,0-0.32-2.92,4.1-2.92s11.46,0,11.46,0s2.51,0.51,2.51,2.45s0,13.08,0,13.08s-0.64,2.62-2.83,2.59
	c-2.19-0.04-3.02-2.19-3.02-2.37s0-9.92,0-9.92l-9.59-0.04C84.19,5.79,81.6,5.58,81.56,2.92z"/>
<path class="st1" d="M26.75,32h-9.89c-2.34,0-4.25-1.91-4.25-4.25v-9.5c0-2.34,1.91-4.25,4.25-4.25h9.89c2.34,0,4.25,1.91,4.25,4.25
	v9.5C31,30.08,29.09,32,26.75,32z"/>
<path class="st1" d="M26.75,85.67h-9.89c-2.34,0-4.25-1.91-4.25-4.25v-9.5c0-2.34,1.91-4.25,4.25-4.25h9.89
	c2.34,0,4.25,1.91,4.25,4.25v9.5C31,83.76,29.09,85.67,26.75,85.67z"/>
<path class="st1" d="M82.71,32h-9.89c-2.34,0-4.25-1.91-4.25-4.25v-9.5c0-2.34,1.91-4.25,4.25-4.25h9.89c2.34,0,4.25,1.91,4.25,4.25
	v9.5C86.96,30.08,85.05,32,82.71,32z"/>
<path class="st1" d="M12.81,38.36c0,0,0.15-2.98,2.4-3.05c2.25-0.06,22.46,0,22.46,0s2.58,0.15,2.52,3.05
	C40.13,41.25,37.33,41,37.33,41l-21.97,0.01C15.37,41.01,13.21,40.97,12.81,38.36z"/>
<path class="st1" d="M34.58,16.39c0,0,0.45-2.31,2.9-2.4c2.45-0.09,2.69,2.4,2.71,2.65s0,1.47,0,1.47h6.96v-1.8
	c0,0,0.23-2.39,2.67-2.32c2.43,0.07,3.01,1.87,3.01,2.28c0,0.41,0,10.94,0,10.94s-0.42,2.53-3.01,2.37
	c-2.59-0.16-2.87-2.53-2.79-2.69S47.08,24,47.08,24l-6.77-0.02c0,0,0.04,1.72-0.04,2.05s-0.84,2.29-2.74,2.17
	c-1.9-0.12-3.03-0.92-3.07-2.44S34.58,16.39,34.58,16.39z"/>
<path class="st1" d="M56.48,32.92v-16.5c0,0,0.53-2.54,2.8-2.37c2.27,0.17,2.98,1.56,2.99,2.26c0.01,0.7,0,16.36,0,16.36
	s-0.33,2.62-2.76,2.56C57.08,35.17,56.48,33.44,56.48,32.92z"/>
<path class="st1" d="M42.46,39.5v-3.43c0,0,0.36-2.59,2.83-2.54c2.47,0.05,2.95,1.96,2.95,2.18s0,3.79,0,3.79s-0.43,2.3-2.66,2.35
	C43.35,41.89,42.46,39.81,42.46,39.5z"/>
<path class="st1" d="M79.43,79.83c0,0-0.01,3.35,0,3.52c0.01,0.17,0.55,2.31,3,2.28c2.45-0.02,2.79-2.38,2.79-2.38s0-18.53,0-18.68
	c0-0.15-0.49-2.04-2.89-2.21c-2.4-0.17-2.9,2.45-2.9,2.45v9.24l-10.33-0.06c0,0-2.38,0.61-2.32,2.99c0.06,2.38,1.73,2.82,2.54,2.82
	C70.11,79.8,79.43,79.83,79.43,79.83z"/>
<path class="st1" d="M65.51,65.84h3.75c0,0,2.37,0.26,2.37,2.77c0,2.51-2.21,2.95-2.21,2.95h-3.91c0,0-2.35-0.68-2.26-2.86
	C63.33,66.52,65.28,65.84,65.51,65.84z"/>
<path class="st1" d="M55.41,79.86V67.24c0,0,0.56-2.41,2.98-2.41c2.41,0,2.88,2.41,2.88,2.41v16.03c0,0-0.18,2.34-2.49,2.37
	c-2.31,0.03-9.26,0-9.26,0s-2.91-0.21-2.81-2.88c0.1-2.67,2.08-2.96,2.69-2.96S55.41,79.86,55.41,79.86z"/>
<path class="st1" d="M33.49,77.14v-9.98c0,0,0.57-2.11,2.89-2.14s2.92,2.24,2.92,2.24v9.87c0,0-0.5,2.29-2.91,2.29
	S33.49,77.14,33.49,77.14z"/>
<path class="st1" d="M47.85,68.7h4.03c0,0,2.21,0.8,2.1,2.86c-0.11,2.06-1.56,2.81-2.15,2.92c-0.59,0.11-3.98,0-3.98,0
	s-2.26-0.57-2.15-2.92C45.81,69.21,47.85,68.7,47.85,68.7z"/>
<path class="st1" d="M35.08,56.07h15.97V38.64c0,0,0.45-2.29,2.94-2.22c2.49,0.08,2.87,2.06,2.87,2.45c0,0.38,0,20.41,0,20.41
	s-0.23,2.29-2.22,2.52s-19.57,0-19.57,0s-2.37-0.54-2.29-2.98S35.08,56.07,35.08,56.07z"/>
<path class="st1" d="M19.54,62.73v-9.98c0,0,0.57-2.11,2.89-2.14s2.92,2.24,2.92,2.24v9.87c0,0-0.5,2.29-2.91,2.29
	S19.54,62.73,19.54,62.73z"/>
<path class="st1" d="M67.76,61.96v-9.98c0,0,0.57-2.11,2.89-2.14c2.32-0.03,2.92,2.24,2.92,2.24v9.87c0,0-0.5,2.29-2.91,2.29
	C68.25,64.26,67.76,61.96,67.76,61.96z"/>
<path class="st1" d="M74.55,48.91v-9.98c0,0,0.57-2.11,2.89-2.14c2.32-0.03,2.92,2.24,2.92,2.24v9.87c0,0-0.5,2.29-2.91,2.29
	C75.04,51.2,74.55,48.91,74.55,48.91z"/>
<path class="st1" d="M74.55,41.29h-6.47c0,0-2.3-0.5-2.3-3.07c0-2.57,2.78-2.77,2.78-2.77h15.4c0,0,2.34,0.73,2.27,2.92
	c-0.07,2.18-1.9,2.89-2.44,2.92c-0.53,0.03-3.44,0-3.44,0H74.55z"/>
</svg>
