<?xml version="1.0" encoding="utf-8"?>
<!-- Generator: Adobe Illustrator 24.0.1, SVG Export Plug-In . SVG Version: 6.00 Build 0)  -->
<svg version="1.1" id="Lag_1" xmlns="http://www.w3.org/2000/svg" xmlns:xlink="http://www.w3.org/1999/xlink" x="0px" y="0px"
	 viewBox="0 0 100 100" style="enable-background:new 0 0 100 100;" xml:space="preserve">
<style type="text/css">
	.st0{fill:#756453;}
	.st1{fill:#9F8B77;}
</style>
<path class="st0" d="M3.13,18.56c0,0-2.92,0.32-2.92-4.1s0-11.48,0-11.48s0.51-2.51,2.45-2.51s13.1,0,13.1,0s2.63,0.64,2.59,2.83
	s-2.19,3.02-2.37,3.02c-0.18,0-9.93,0-9.93,0l-0.04,9.61C6.01,15.93,5.8,18.52,3.13,18.56z"/>
<path class="st0" d="M18.32,97.34c0,0,0.32,2.92-4.1,2.92s-11.48,0-11.48,0s-2.51-0.51-2.51-2.45s0-13.1,0-13.1s0.64-2.63,2.83-2.59
	s3.02,2.19,3.02,2.37c0,0.18,0,9.93,0,9.93l9.61,0.04C15.7,94.46,18.29,94.67,18.32,97.34z"/>
<path class="st0" d="M97.08,82.14c0,0,2.92-0.32,2.92,4.1c0,4.43,0,11.48,0,11.48s-0.51,2.51-2.45,2.51c-1.94,0-13.1,0-13.1,0
	s-2.63-0.64-2.59-2.83s2.19-3.02,2.37-3.02s9.93,0,9.93,0l0.04-9.61C94.2,84.77,94.42,82.18,97.08,82.14z"/>
<path class="st0" d="M81.89,3.37c0,0-0.32-2.92,4.1-2.92s11.48,0,11.48,0s2.51,0.51,2.51,2.45s0,13.1,0,13.1s-0.64,2.63-2.83,2.59
	c-2.19-0.04-3.02-2.19-3.02-2.37c0-0.18,0-9.93,0-9.93l-9.61-0.04C84.51,6.25,81.92,6.03,81.89,3.37z"/>
<path class="st1" d="M27.01,32.48h-9.92c-2.34,0-4.25-1.91-4.25-4.25v-9.52c0-2.34,1.91-4.25,4.25-4.25h9.92
	c2.34,0,4.25,1.91,4.25,4.25v9.52C31.26,30.57,29.34,32.48,27.01,32.48z"/>
<path class="st1" d="M27.01,86.23h-9.92c-2.34,0-4.25-1.91-4.25-4.25v-9.52c0-2.34,1.91-4.25,4.25-4.25h9.92
	c2.34,0,4.25,1.91,4.25,4.25v9.52C31.26,84.32,29.34,86.23,27.01,86.23z"/>
<path class="st1" d="M83.04,32.48h-9.92c-2.34,0-4.25-1.91-4.25-4.25v-9.52c0-2.34,1.91-4.25,4.25-4.25h9.92
	c2.34,0,4.25,1.91,4.25,4.25v9.52C87.29,30.57,85.38,32.48,83.04,32.48z"/>
<path class="st1" d="M13.04,38.86c0,0,0.15-2.99,2.4-3.05c2.25-0.06,22.49,0,22.49,0s2.59,0.15,2.53,3.05
	c-0.06,2.9-2.87,2.65-2.87,2.65l-22,0.01C15.6,41.51,13.44,41.47,13.04,38.86z"/>
<path class="st1" d="M34.84,16.86c0,0,0.45-2.31,2.9-2.4s2.69,2.4,2.72,2.65s0,1.47,0,1.47h6.97v-1.8c0,0,0.23-2.4,2.67-2.32
	s3.01,1.87,3.01,2.28s0,10.96,0,10.96s-0.42,2.53-3.01,2.37c-2.59-0.16-2.88-2.53-2.79-2.7c0.08-0.16,0.04-2.89,0.04-2.89
	l-6.77-0.02c0,0,0.04,1.72-0.04,2.06c-0.08,0.33-0.84,2.29-2.74,2.17s-3.03-0.92-3.07-2.45S34.84,16.86,34.84,16.86z"/>
<path class="st1" d="M56.77,33.41V16.88c0,0,0.53-2.54,2.81-2.37c2.27,0.17,2.98,1.56,2.99,2.26c0.01,0.7,0,16.38,0,16.38
	s-0.33,2.63-2.76,2.57C57.37,35.66,56.77,33.93,56.77,33.41z"/>
<path class="st1" d="M42.73,40v-3.43c0,0,0.36-2.59,2.83-2.54c2.47,0.05,2.95,1.97,2.95,2.18s0,3.79,0,3.79s-0.43,2.3-2.66,2.35
	C43.62,42.4,42.73,40.31,42.73,40z"/>
<path class="st1" d="M79.75,80.38c0,0-0.01,3.36,0,3.53c0.01,0.17,0.55,2.31,3,2.29c2.46-0.02,2.8-2.38,2.8-2.38s0-18.56,0-18.71
	c0-0.15-0.49-2.04-2.89-2.21c-2.41-0.17-2.91,2.46-2.91,2.46v9.25L69.4,74.54c0,0-2.38,0.61-2.32,2.99
	c0.06,2.38,1.74,2.83,2.54,2.83C70.42,80.36,79.75,80.38,79.75,80.38z"/>
<path class="st1" d="M65.81,66.38h3.76c0,0,2.37,0.26,2.37,2.77c0,2.51-2.21,2.95-2.21,2.95h-3.92c0,0-2.35-0.68-2.27-2.86
	C63.63,67.06,65.58,66.38,65.81,66.38z"/>
<path class="st1" d="M55.7,80.42V67.78c0,0,0.56-2.42,2.98-2.42c2.42,0,2.88,2.42,2.88,2.42v16.05c0,0-0.18,2.34-2.5,2.37
	c-2.31,0.03-9.27,0-9.27,0s-2.91-0.21-2.81-2.88c0.1-2.67,2.09-2.97,2.7-2.97S55.7,80.42,55.7,80.42z"/>
<path class="st1" d="M33.74,77.69V67.7c0,0,0.57-2.11,2.9-2.14s2.92,2.24,2.92,2.24v9.89c0,0-0.5,2.3-2.91,2.3
	S33.74,77.69,33.74,77.69z"/>
<path class="st1" d="M48.13,69.24h4.04c0,0,2.21,0.8,2.1,2.86c-0.11,2.06-1.56,2.82-2.16,2.92c-0.59,0.11-3.99,0-3.99,0
	s-2.26-0.57-2.15-2.92S48.13,69.24,48.13,69.24z"/>
<path class="st1" d="M35.34,56.59h16V39.14c0,0,0.45-2.3,2.94-2.22c2.49,0.08,2.88,2.07,2.88,2.45c0,0.38,0,20.44,0,20.44
	s-0.23,2.3-2.22,2.53c-1.99,0.23-19.59,0-19.59,0s-2.37-0.54-2.3-2.99C33.12,56.89,35.34,56.59,35.34,56.59z"/>
<path class="st1" d="M19.77,63.26v-9.99c0,0,0.57-2.11,2.9-2.14s2.92,2.24,2.92,2.24v9.89c0,0-0.5,2.3-2.91,2.3
	S19.77,63.26,19.77,63.26z"/>
<path class="st1" d="M68.06,62.5V52.5c0,0,0.57-2.11,2.9-2.14c2.32-0.03,2.92,2.24,2.92,2.24v9.89c0,0-0.5,2.3-2.91,2.3
	C68.56,64.79,68.06,62.5,68.06,62.5z"/>
<path class="st1" d="M74.86,49.42v-9.99c0,0,0.57-2.11,2.9-2.14c2.32-0.03,2.92,2.24,2.92,2.24v9.89c0,0-0.5,2.3-2.91,2.3
	C75.36,51.72,74.86,49.42,74.86,49.42z"/>
<path class="st1" d="M74.86,41.79h-6.47c0,0-2.3-0.5-2.3-3.07s2.79-2.77,2.79-2.77h15.42c0,0,2.34,0.73,2.27,2.92
	c-0.07,2.19-1.9,2.89-2.44,2.92c-0.53,0.03-3.44,0-3.44,0H74.86z"/>
</svg>
