<?xml version="1.0" encoding="utf-8"?>
<!-- Generator: Adobe Illustrator 23.0.6, SVG Export Plug-In . SVG Version: 6.00 Build 0)  -->
<svg version="1.1" id="Lag_1" xmlns="http://www.w3.org/2000/svg" xmlns:xlink="http://www.w3.org/1999/xlink" x="0px" y="0px"
	 viewBox="0 0 226.8 226.8" style="enable-background:new 0 0 226.8 226.8;" xml:space="preserve">
<style type="text/css">
	.st0{fill:#543F2D;}
	.st1{fill:#9F8B77;}
	.st2{fill:#EFEDDF;}
	.st3{fill:#FFFFFF;}
	.st4{fill-rule:evenodd;clip-rule:evenodd;fill:#543F2D;}
	.st5{fill:#F6E747;}
	.st6{fill:#C1D22E;}
	.st7{fill:#563F2C;}
</style>
<g>
	<path class="st0" d="M76.6,79.1c0.6-3.7,2.6-8.2,6-10.1c1.6-0.9,3.4-1.6,5.1-2.4c2.2-1,4.3-2.1,6.6-2.9c0.9-0.3,1.6-0.7,2.5-1.1
		c0.8-0.4,1.7-0.4,2.6-0.7c0.9-0.3,1.7-0.4,2.6-0.4c0.6,0,1.6-0.1,2.1,0.1c0.1-0.6,0.1-1.2,0.2-1.9c-0.6,0.1-1.3-0.5-1.8-0.7
		c-1-0.5-1.9-1.1-2.8-1.8c-0.9-0.7-1.8-1.3-2.7-2c-0.7-0.5-1.7-1-2.2-1.7c-0.5-0.8-1.9-0.2-1.7,0.8c0,0.1,0.1,0.3,0.1,0.4
		c0.2,1.2,2.1,0.9,1.9-0.3c0-0.1,0-0.3-0.1-0.4c-0.6,0.3-1.1,0.5-1.7,0.8c0.6,0.9,1.6,1.4,2.4,2c1.1,0.8,2.3,1.7,3.4,2.5
		c0.9,0.7,1.9,1.2,2.9,1.8c0.8,0.4,1.6,0.8,2.5,0.7c1-0.2,1.1-1.5,0.2-1.9c-0.6-0.3-1.2-0.2-1.8-0.2c-0.8,0-1.6-0.1-2.4,0
		c-0.8,0.1-1.6,0.4-2.4,0.6c-0.9,0.2-1.7,0.3-2.5,0.7c-1.7,0.9-3.5,1.5-5.2,2.2c-0.9,0.4-1.8,0.8-2.7,1.2c-1.9,0.9-3.9,1.7-5.8,2.7
		c-2.4,1.2-4.1,3.5-5.3,5.8c-1,1.9-1.7,3.9-2,6C74.5,80.2,76.4,80.4,76.6,79.1L76.6,79.1z"/>
	<path class="st0" d="M104.4,62.1c0.1,0,0.3,0,0.4-0.1c1.3-0.2,0.9-2-0.3-1.9c-0.5,0-1,0.3-1.5,0.6c-0.5,0.3-1.1,0.6-1.6,1
		c-0.5,0.4-0.9,0.8-1.4,1.2c-0.4,0.3-0.9,0.6-1.3,1c-0.8,0.9-1.5,2-2.1,3.1c-0.3,0.5-0.5,1-0.5,1.6c0,0.2,0,0.5-0.1,0.7
		c-0.1,0.3-0.2,0.5-0.2,0.8c-0.1,1.2,1.9,1.5,1.9,0.2c0-0.4,0.2-0.8,0.2-1.3c0-0.5,0.2-0.9,0.4-1.3c0.4-0.8,1-1.8,1.6-2.5
		c0.7-0.7,1.6-1.2,2.3-1.8c0.4-0.4,0.8-0.6,1.2-0.9c0.4-0.2,0.8-0.5,1.2-0.5c-0.1-0.6-0.2-1.3-0.3-1.9c-0.1,0-0.3,0-0.4,0.1
		C102.9,60.3,103.2,62.2,104.4,62.1L104.4,62.1z"/>
</g>
<g>
	<path class="st1" d="M115,65.1c0,1.8,0,3.7,0,5.5c0,2.9,0.8,5.5,0.9,8.3c0.1,2.1-0.1,4.2,0,6.4c0.1,2.9,1,5.3,0.9,8.3
		c0,2.3,0.8,4.2,0.9,6.4c0.2,2.4,0,4.9,0,7.4c0,5.3-0.2,9.9-2.1,14.9c-1.8,4.6-0.7,11.2-0.7,16.1c0,4.6,0,9.3,0,13.9
		c0,4.8,0,9.6,0,14.4c0,2.5,0,5.1,0,7.6c0,1.6-0.6,4.4,0,5.9c1.4,3.7,11.1,2.3,14.2,2.3c5.4,0,10.4,0.1,15.6,1
		c5.7,1,11.3,1.8,16.9,3.6c2.8,0.9,5.4,0.5,8.2,1.1c1.3,0.3,2.1,0.7,3.5,0.7c1.4,0,2.9-0.2,4.3-0.1c2.9,0.3,4.6,1.8,7.6,0.1
		c3.4-1.9,6.1-4.6,9.3-6.8c3-2.2,5.8-4.9,9.1-6.3c2.2-0.9,4.8-1.6,6.7-2.9c2.2-1.6,1.8-3,1.8-5.5c0-3.5,0-7.1,0-10.6
		c0-5.5,0-10.9,0-16.4c0-6.4,0-12.9,0-19.3c0-2,0.1-4,0-6c-0.1-1.8-0.8-3.4-1-5.2c-0.4-3.4,0-7.3,0-10.8c0-6.3-1-13.7,0.2-19.9
		c1.3-6.3,0.7-13,0.7-19.5"/>
	<path class="st0" d="M114.1,65.1c0,3-0.1,5.9,0.3,8.9c0.2,1.4,0.5,2.8,0.6,4.2c0.1,1.5,0.1,3,0,4.5c0,1.5-0.1,2.9,0.1,4.4
		c0.2,1.3,0.4,2.6,0.6,4c0.2,1.4,0.1,2.8,0.3,4.2c0.2,1.3,0.6,2.7,0.7,4c0.4,2.9,0.1,5.8,0.1,8.7c0,2.8-0.1,5.5-0.5,8.3
		c-0.2,1.3-0.5,2.7-0.9,4c-0.4,1.2-0.9,2.4-1.2,3.7c-0.5,2.4-0.5,5-0.4,7.4c0.1,2.5,0.3,5,0.3,7.5c0,3.1,0,6.3,0,9.4
		c0,6.2,0,12.4,0,18.7c0,2.9,0.2,5.8-0.1,8.6c-0.2,1.9-0.6,4.3,0.8,5.9c1,1.1,2.5,1.6,3.9,1.8c1.8,0.3,3.6,0.3,5.4,0.3
		c1.5,0,3-0.2,4.5-0.2c2.7-0.1,5.3,0,8,0.1c2.9,0.1,5.8,0.5,8.8,1c3,0.5,5.9,1,8.9,1.6c1.5,0.3,2.9,0.6,4.3,1c1.5,0.4,2.9,1,4.5,1.2
		c1.4,0.3,2.9,0.3,4.3,0.4c1.4,0.1,2.6,0.4,4,0.8c1.3,0.4,2.6,0.3,4,0.3c1.4-0.1,2.6,0,4,0.3c1.1,0.3,2.2,0.6,3.3,0.6
		c1.3,0,2.5-0.5,3.6-1.2c2.4-1.4,4.5-3.2,6.7-4.9c2.1-1.7,4.3-3.4,6.4-5c1.1-0.8,2.2-1.6,3.3-2.2c1.1-0.6,2.3-1,3.5-1.5
		c2.2-0.8,4.9-1.7,6.2-3.7c0.5-0.8,0.7-1.7,0.7-2.6c0-1.2,0-2.4,0-3.6c0-3,0-6.1,0-9.1c0-6.2,0-12.5,0-18.7c0-6.2-0.1-12.4,0-18.6
		c0-1.5,0.1-3,0-4.5c-0.1-1.4-0.5-2.8-0.8-4.2c-0.6-2.7-0.3-5.6-0.2-8.4c0.3-5.6-0.4-11.3-0.3-16.9c0-1.4,0.1-2.7,0.3-4.1
		c0.2-1.4,0.5-2.7,0.7-4.1c0.4-2.9,0.5-5.9,0.5-8.9c0-2.9-0.1-5.8-0.1-8.7c0-1.2-1.8-1.2-1.8,0c0,5.8,0.5,11.8-0.4,17.6
		c-0.2,1.4-0.5,2.7-0.7,4.1c-0.2,1.3-0.2,2.7-0.3,4c-0.1,2.8,0.1,5.5,0.2,8.3c0.1,2.7,0.2,5.5,0.1,8.2c-0.1,2.8-0.3,5.7,0.1,8.5
		c0.2,1.4,0.7,2.7,0.9,4.1c0.2,1.4,0.1,2.9,0.1,4.3c-0.1,3.1,0,6.1,0,9.2c0,12.2,0,24.4,0,36.6c0,1.4,0,2.7,0,4.1
		c0,0.8,0.1,1.6-0.2,2.3c-0.4,1-1.5,1.5-2.4,2c-1.2,0.6-2.4,1-3.6,1.5c-1.2,0.4-2.4,0.9-3.5,1.5c-1.1,0.6-2.2,1.4-3.2,2.2
		c-2.1,1.6-4.2,3.2-6.3,4.9c-2.2,1.7-4.3,3.5-6.6,4.9c-1,0.6-2.1,1.1-3.3,1c-1.1-0.1-2.1-0.5-3.1-0.7c-1.4-0.3-2.7-0.3-4.1-0.2
		c-0.7,0-1.3,0.1-2,0c-0.6-0.1-1.2-0.3-1.8-0.4c-2.8-0.8-5.7-0.4-8.5-1.2c-1.4-0.4-2.8-0.8-4.2-1.2c-1.4-0.4-2.9-0.7-4.3-1
		c-2.9-0.6-5.8-1-8.6-1.5c-5.4-1-11.1-1.3-16.6-1.1c-3.1,0.1-6.3,0.6-9.5,0.1c-0.7-0.1-1.4-0.3-2.1-0.6c-0.5-0.2-1-0.6-1.2-1
		c-0.1-0.3-0.2-0.6-0.3-1c-0.1-0.6,0-1.1,0-1.7c0.1-1.1,0.2-2.2,0.2-3.4c0-6.1,0-12.2,0-18.3c0-6.1,0.1-12.1,0-18.2
		c-0.1-4.7-1.1-9.9,0.4-14.5c0.4-1.3,0.9-2.5,1.2-3.8c0.3-1.3,0.5-2.6,0.7-3.9c0.4-2.7,0.4-5.5,0.4-8.3c0-2.9,0.3-5.8-0.2-8.7
		c-0.2-1.3-0.6-2.6-0.7-3.9c-0.1-1.4-0.1-2.7-0.3-4c-0.2-1.3-0.5-2.6-0.6-3.9c-0.2-1.5-0.1-3,0-4.4c0-1.5,0.1-2.9-0.1-4.3
		c-0.2-1.4-0.4-2.7-0.6-4.1c-0.4-2.8-0.2-5.7-0.2-8.5C115.9,63.9,114.1,63.9,114.1,65.1L114.1,65.1z"/>
</g>
<g>
	<path class="st0" d="M114.1,62.3c8.4,0,16.9-1.7,24.8-4.4c2-0.7,3.8-1.6,5.8-2.4c1.9-0.7,4-0.9,6.1-1.5c1.8-0.5,4.1-1,6-0.9
		c2,0.1,3.8,0.8,5.8,0.9c4.4,0.3,8.7,1.8,13.1,1.9c2.1,0,3.4,0.6,5.4,0.9c2.3,0.4,4.8-0.3,7.1,0.2c4.8,0.8,9.3,1.6,14.2,1.6
		c4.8,0,5.4,0.5,10.2,0.6c-5.4-0.2-6.2,2-11.4,3.3c-4.3,1.1-8.6,2.3-12.9,3.7c-4.1,1.3-8.8,3.3-13,3.4c-1.9,0.1-3.4-0.4-5.2-0.7
		c-2.5-0.5-5.1-0.1-7.7-0.2c-2.4-0.1-4.5-0.9-6.9-1c-2.3,0-4.6,0-7,0c-5.6,0-11.2,0-16.8,0c-4.8,0-8.8,0-13.4-1.6
		c-1.2-0.4-4.9-0.9-4.6-2.8c0.3-1.9,2.4-0.9,3.7-1.1c1.1-0.2,1.9-0.8,2.9-0.9"/>
	<path class="st0" d="M114.1,63.2c6.9,0,13.8-1.1,20.5-3c1.7-0.5,3.3-1,5-1.6c1.6-0.6,3.2-1.3,4.7-2c1.5-0.6,3.1-1,4.7-1.3
		c1.6-0.3,3.1-0.8,4.7-1.1c1.6-0.3,3.1-0.4,4.7-0.1c0.8,0.2,1.7,0.4,2.5,0.5c0.8,0.2,1.7,0.2,2.5,0.3c3.4,0.4,6.7,1.3,10.1,1.7
		c1.6,0.2,3.1,0.1,4.7,0.4c1.5,0.3,3,0.7,4.6,0.8c1.7,0,3.4-0.3,5.1,0c1.7,0.2,3.4,0.6,5.1,0.9c1.7,0.3,3.4,0.5,5.2,0.6
		c1.8,0.2,3.5,0.2,5.3,0.2c2.3,0,4.6,0.4,7,0.5c0.8,0,1.6,0.1,2.3,0.1c1.2,0,1.2-1.8,0-1.8c-1.6,0-3.2,0.1-4.7,0.6
		c-1.2,0.4-2.3,1-3.5,1.5c-1.6,0.7-3.2,1.2-4.8,1.6c-2,0.5-4,1.1-6,1.6c-2,0.6-3.9,1.2-5.9,1.8c-1.8,0.6-3.5,1.2-5.3,1.8
		c-1.8,0.6-3.6,1.1-5.5,1.4c-1.8,0.3-3.5,0.1-5.3-0.3c-1-0.2-1.9-0.4-2.9-0.5c-1-0.1-2-0.1-3.1,0c-2,0.1-3.9,0.1-5.8-0.3
		c-0.9-0.2-1.9-0.4-2.8-0.5c-1-0.1-2-0.1-3-0.1c-2.1,0-4.2,0-6.3,0c-4.2,0-8.4,0-12.6,0c-3.8,0-7.7,0.2-11.5-0.4
		c-1.8-0.3-3.5-0.7-5.2-1.3c-1-0.3-2.1-0.5-2.9-0.9c-0.1-0.1-0.2-0.1-0.3-0.2c-0.1-0.1-0.2-0.1-0.2-0.1c-0.1-0.1-0.1-0.1-0.2-0.2
		c0.1,0.1,0-0.1,0-0.1c0,0-0.1-0.2,0,0c0,0,0-0.1,0-0.1c0-0.2,0,0.2,0,0c0-0.1,0-0.2,0.1-0.2c0-0.1,0-0.1,0.1-0.1
		c0,0,0.2-0.1,0.1-0.1c0.2-0.1,0.3-0.1,0.6-0.1c0.3,0,0.6,0,0.9,0.1c0.6,0.1,1.3,0.1,1.9-0.1c0.8-0.3,1.6-0.7,2.4-0.8
		c0.5-0.1,0.8-0.7,0.6-1.1c-0.1-0.5-0.6-0.7-1.1-0.6c-0.9,0.1-1.7,0.6-2.6,0.9c-0.3,0.1-0.4,0.1-0.7,0.1c-0.3,0-0.6-0.1-0.9-0.1
		c-1.4-0.1-2.7,0.3-3,1.8c-0.5,2.8,3.1,3.3,5,3.9c1.8,0.5,3.6,1,5.5,1.3c1.9,0.3,3.9,0.3,5.8,0.4c4.2,0.1,8.5,0,12.7,0
		c4.3,0,8.7,0,13,0c1,0,1.9,0.1,2.9,0.3c1,0.2,1.9,0.4,2.9,0.5c2.1,0.3,4.2,0.1,6.4,0.1c1,0,2.1,0.1,3.1,0.3
		c0.9,0.2,1.8,0.4,2.7,0.5c2,0.3,3.9,0.1,5.8-0.3c3.8-0.8,7.5-2.3,11.2-3.5c2.1-0.6,4.2-1.2,6.2-1.8c2-0.6,4.1-1,6.1-1.6
		c1.5-0.4,2.9-1.1,4.2-1.7c1.2-0.6,2.3-1,3.6-1.2c0.8-0.1,1.7-0.1,2.5-0.1c0-0.6,0-1.2,0-1.8c-2.4,0-4.8-0.3-7.3-0.5
		c-1.6-0.1-3.1-0.1-4.7-0.1c-1.7-0.1-3.4-0.2-5.2-0.4c-1.7-0.2-3.4-0.5-5.1-0.8c-1.7-0.3-3.4-0.6-5.1-0.5c-1.7,0.1-3.3,0.2-4.9-0.2
		c-1.5-0.3-2.9-0.7-4.5-0.8c-1.7-0.1-3.3-0.2-5-0.5c-1.7-0.3-3.3-0.7-5-0.9c-1.7-0.3-3.4-0.4-5.1-0.7c-1.6-0.3-3.3-0.7-4.9-0.7
		c-1.6,0.1-3.2,0.4-4.8,0.8c-1.6,0.4-3.2,0.7-4.8,1c-1.7,0.4-3.2,1.1-4.8,1.8c-1.5,0.7-3.1,1.3-4.7,1.8c-6.6,2.1-13.4,3.5-20.2,3.7
		c-0.9,0-1.7,0.1-2.6,0.1C112.9,61.4,112.9,63.2,114.1,63.2L114.1,63.2z"/>
</g>
<path class="st0" d="M178.2,69.6c0,1.9,0.7,3.6,0.9,5.5c0.2,2.1,0,4.2,0,6.3c0,4.4,0,8.7,0,13.1c0,2.1,0.1,4.2,0,6.2
	c-0.1,1.9-0.5,3.8-0.9,5.7c-0.9,3.8-1.8,7.4-1.8,11.3c0,4.3,0,8.7,0,13c0,4-0.4,8,0.1,12c0.1,1,0.3,2,0.5,2.9
	c0.2,0.9,0.2,1.8,0.2,2.8c0,0.9,0,1.8,0.3,2.7c0.3,0.9,0.5,1.7,0.7,2.6c0.2,1.9,0.1,3.8,0,5.7c-0.1,2,0,4,0.1,6
	c0.3,4.1,1.3,8.1,2.5,12c0.6,1.9,0.8,4,1.1,6c0.3,1.8,1,3.4,1.5,5.2c0.2,0.8,0.4,1.7,0.3,2.5c0.6,0.1,1.2,0.2,1.8,0.2
	c0-1.1,0-2.3,0-3.4c0-1.2-1.8-1.2-1.8,0c0,1.1,0,2.3,0,3.4c0,1,1.6,1.3,1.8,0.2c0.3-1.9-0.3-3.6-0.9-5.3c-0.6-1.8-0.9-3.6-1.2-5.6
	c-0.3-2.1-0.9-4-1.4-6c-0.6-2-1-4-1.3-6c-0.3-2-0.5-4-0.5-6c-0.1-1.9,0.1-3.9,0.1-5.8c0-1.9,0-3.8-0.6-5.6c-0.3-0.9-0.5-1.7-0.5-2.6
	c0-0.9,0.1-1.9-0.1-2.8c-0.2-1-0.5-1.9-0.6-2.9c-0.1-1-0.2-2-0.2-2.9c-0.1-2,0-4,0-6.1c0.1-4.2,0-8.5,0-12.7c0-2.1-0.1-4.2,0.1-6.2
	c0.2-1.9,0.6-3.7,1-5.6c0.4-1.9,0.9-3.7,1.2-5.6c0.3-2,0.4-4,0.4-6c0-4.3,0-8.6,0-12.9c0-2.2,0-4.3,0-6.5c0-1.1,0-2.1-0.1-3.2
	c-0.1-0.9-0.3-1.9-0.5-2.8c-0.2-0.9-0.4-1.8-0.4-2.8C180,68.5,178.2,68.5,178.2,69.6L178.2,69.6z"/>
<g>
	<path class="st2" d="M112.2,50.4c0-2.4-0.8-6.6,0.5-8.7c1.9-3.1,8.2-5.1,11.5-6c7.3-1.9,14-5.6,21.1-8c1.8-0.6,3.4-0.9,5.3-1.1
		c1.4-0.1,2.5-0.7,3.8-1c3.3-0.6,7.9-0.2,11,0.7c1.8,0.5,3.7,0.8,5.5,1.4c2,0.6,3.7,0.5,5.7,0.9c1.8,0.3,3.2,0.7,5,0.7
		c2.9-0.1,4.8,0.8,7.6,1.6c2.9,0.9,5.1,1.1,8.2,1.1c4,0,8.8-0.8,12.6,0.6c3.5,1.3,5.6,3.9,5.7,7.6c0,1.7,0.1,2.2-0.3,3.8
		c-0.6,2.7-2.4,3.2-4.8,3.6c-3.8,0.6-8.1,2.3-11.6,3.8c-4.9,2-9.6,2.5-14.5,4.2c-3.6,1.2-6.9,1.1-10.7,1.1c-5.3,0-9-1-14.4-1
		c-4.8,0-11-0.3-15.8-0.3c-4.9,0-10,0.1-14.8-0.7c-3.5-0.5-7.6,0.8-13.9-0.7c-2.3-0.5-3.8-3.6-2.9-5.5"/>
	<path class="st0" d="M113.1,50.4c0-1.6-0.2-3.2-0.3-4.8c0-1.3,0-2.8,0.9-3.8c0.9-1.1,2.1-1.8,3.3-2.5c1.4-0.7,2.9-1.3,4.3-1.8
		c1.4-0.5,2.9-0.8,4.3-1.3c2-0.6,4.1-1.3,6-2.1c4-1.6,7.9-3.4,12-4.9c1.9-0.7,3.9-1.4,6-1.6c1-0.1,2-0.3,3-0.6
		c0.9-0.3,1.7-0.5,2.6-0.6c1.8-0.2,3.7-0.2,5.5,0c1.9,0.2,3.6,0.7,5.5,1.2c1.1,0.3,2.2,0.5,3.3,0.7c1,0.3,2,0.6,3,0.7
		c1,0.1,2,0.2,3,0.3c1,0.1,2,0.4,3,0.6c2,0.4,4,0.1,6,0.6c1.9,0.4,3.7,1.2,5.6,1.7c3.9,1,7.8,0.8,11.8,0.6c3.5-0.1,7.5-0.1,10.3,2.3
		c1.1,1,1.9,2.2,2.2,3.6c0.2,0.8,0.2,1.6,0.2,2.4c0,0.8,0,1.5-0.2,2.3c-0.3,1.4-0.8,2.5-2.1,3c-0.7,0.2-1.4,0.4-2.1,0.5
		c-1,0.2-2,0.4-3,0.7c-2,0.6-4,1.3-6,2.1c-2,0.8-3.9,1.6-6,2.3c-2.1,0.6-4.2,1.1-6.3,1.6c-1,0.3-2.1,0.5-3.1,0.8
		c-1.1,0.3-2.1,0.7-3.2,1c-2,0.5-4,0.6-6,0.7c-2.2,0-4.3,0-6.5-0.1c-1.9-0.1-3.9-0.4-5.8-0.6c-2-0.2-4-0.3-6.1-0.3
		c-4,0-7.9-0.2-11.8-0.3c-4.3-0.1-8.5,0.1-12.8-0.2c-1.1-0.1-2.2-0.2-3.3-0.3c-0.8-0.1-1.7-0.3-2.5-0.3c-1.4-0.1-2.9,0-4.3,0.1
		c-1.7,0.1-3.5,0.1-5.2-0.1c-1-0.1-2.1-0.3-3.1-0.5c-0.6-0.1-1.2-0.5-1.6-1c-0.7-0.8-1.3-2.2-0.9-3.3c0.2-0.4,0.1-1-0.3-1.2
		c-0.4-0.2-1-0.1-1.2,0.3c-0.7,1.5-0.4,3.2,0.5,4.5c0.4,0.7,1,1.3,1.7,1.8c0.8,0.5,1.7,0.7,2.7,0.8c2,0.3,4,0.5,6,0.4
		c1.6,0,3.1-0.2,4.7-0.2c1.8,0,3.6,0.4,5.4,0.5c2.3,0.2,4.6,0.3,6.9,0.3c4.2,0,8.4,0.1,12.6,0.2c2.1,0.1,4.1,0.1,6.2,0.2
		c2.1,0,4.2,0.1,6.3,0.3c2,0.2,4,0.5,6,0.6c2.2,0.2,4.4,0.2,6.7,0.1c2.2,0,4.3-0.2,6.4-0.7c1.1-0.3,2.2-0.7,3.3-1
		c1.1-0.3,2.2-0.6,3.3-0.9c2.2-0.5,4.4-1,6.5-1.7c2.1-0.7,4.1-1.6,6.2-2.4c2.1-0.8,4.1-1.5,6.3-2.1c1.6-0.4,3.4-0.5,5-1.2
		c1.5-0.8,2.3-2.2,2.6-3.8c0.3-1.7,0.4-3.6,0.1-5.3c-0.6-3.5-3.3-5.9-6.6-7c-3.9-1.3-8.1-0.6-12.1-0.5c-2,0-4-0.1-6-0.5
		c-2-0.4-4-1.2-6-1.7c-1-0.3-2-0.4-3-0.5c-1.1-0.1-2.1,0-3.2-0.2c-1-0.2-2.1-0.4-3.1-0.6c-1.1-0.2-2.1-0.2-3.2-0.4
		c-1.1-0.1-2.1-0.4-3.1-0.7c-1.1-0.3-2.2-0.5-3.3-0.8c-0.9-0.2-1.8-0.5-2.8-0.7c-1-0.2-2-0.4-3-0.5c-1.9-0.2-3.9-0.3-5.9,0
		c-1,0.1-1.9,0.3-2.8,0.6c-1,0.3-1.9,0.5-3,0.6c-4.4,0.6-8.5,2.5-12.6,4.3c-4.1,1.7-8.1,3.5-12.4,4.7c-3.1,0.8-6.1,1.8-8.9,3.4
		c-1.3,0.7-2.6,1.7-3.5,2.9c-0.9,1.3-1,3.1-1,4.6c0,1.6,0.2,3.2,0.3,4.8C111.3,51.6,113.2,51.6,113.1,50.4L113.1,50.4z"/>
</g>
<g>
	<path class="st2" d="M115,43.1c18.7,0,37.8-0.7,56.3,0.9c2.1,0.2,3.9,0.9,6,0.9c2,0,4,0,6,0c2.1,0,3.9-0.8,6-0.9
		c0.9-0.1,1.9,0.2,2.8,0c1.2-0.2,1.1-0.4,2-0.7c1.9-0.6,4-0.8,5.7-2.1c1.5-1.1,1.4-1.5,3.2-1.8c1.8-0.3,3.2-0.8,4.8-1.6
		c1.3-0.6,2.8-1.9,4.4-2.1"/>
	<path class="st0" d="M115,44c7,0,14.1-0.1,21.1-0.1c7,0,14,0,21,0.2c3.5,0.1,7,0.3,10.5,0.5c1.7,0.1,3.4,0.2,5,0.5
		c1.6,0.3,3.1,0.7,4.8,0.8c1.8,0,3.5,0,5.3,0c1.6,0,3.2-0.3,4.8-0.7c0.7-0.2,1.5-0.3,2.3-0.3c0.8,0,1.6,0.1,2.4,0
		c0.6-0.1,1.1-0.2,1.6-0.5c0.5-0.3,1.1-0.4,1.6-0.5c1.4-0.4,2.9-0.7,4.2-1.5c0.6-0.3,1.1-0.8,1.7-1.2c0.3-0.3,0.6-0.5,0.9-0.6
		c0.6-0.2,1.3-0.3,2-0.4c0.7-0.2,1.5-0.4,2.2-0.7c1.4-0.5,2.7-1.3,4-2c0.6-0.3,1.2-0.7,1.9-0.8c0.5-0.1,0.9-0.4,0.9-0.9
		c0-0.4-0.4-1-0.9-0.9c-1.6,0.2-2.8,1.1-4.2,1.8c-1.2,0.7-2.6,1.3-4,1.6c-1.2,0.3-2.5,0.4-3.5,1.2c-0.4,0.3-0.8,0.7-1.2,1
		c-0.6,0.4-1.2,0.7-1.9,1c-1.4,0.5-2.9,0.6-4.2,1.2c-0.2,0.1-0.3,0.2-0.5,0.3c0,0-0.1,0.1-0.1,0.1c0,0,0.1,0,0,0
		c-0.2,0.1-0.3,0.1-0.5,0.1c-0.8,0.1-1.6,0-2.4,0c-1.6,0-3.1,0.5-4.6,0.8c-1.6,0.3-3.3,0.2-5,0.2c-1.7,0-3.4,0-5-0.3
		c-1.6-0.3-3.2-0.6-4.8-0.8c-3.5-0.3-6.9-0.5-10.4-0.6c-7-0.3-14.1-0.3-21.1-0.3c-7,0-14,0.1-21,0.2c-0.9,0-1.8,0-2.7,0
		C113.8,42.2,113.8,44,115,44L115,44z"/>
</g>
<g>
	<path class="st2" d="M194.2,51.3c-1.7,0,1.1,127.1,2.1,129.9c1.1,0,6.9-5.5,7.9-6.2c1.4-0.9-1.6-114.5-1.3-116.3
		c0.5-2.7,0.3-6.8-0.1-9.4"/>
	<path class="st0" d="M194.2,50.4c-0.9,0.1-1,0.9-1.1,1.7c-0.1,0.8-0.1,1.6-0.2,2.4c-0.1,3-0.1,6.1-0.2,9.1c0,4.6,0,9.1,0,13.7
		c0,5.6,0.1,11.2,0.2,16.8c0.1,6.2,0.2,12.3,0.3,18.5c0.1,6.3,0.2,12.5,0.4,18.8c0.1,5.9,0.3,11.8,0.4,17.7c0.1,5,0.3,10.1,0.4,15.1
		c0.1,3.7,0.2,7.4,0.4,11c0.1,1.9,0.1,3.8,0.3,5.7c0,0.2,0,0.4,0.1,0.6c0.1,0.4,0.5,0.7,0.9,0.7c1.1,0,2.3-1.2,3.1-1.8
		c1.3-1,2.6-2.2,3.8-3.3c0.4-0.4,0.9-0.8,1.3-1.1c0.1-0.1-0.1,0.1,0.1,0c0.1-0.1,0.2-0.1,0.3-0.2c0.1-0.1,0.1-0.1,0.2-0.2
		c0.1-0.2,0.2-0.4,0.2-0.6c0.3-2.1,0.2-4.2,0.3-6.3c0-3.9,0-7.9,0-11.8c0-5.3-0.1-10.5-0.2-15.8c-0.1-6-0.2-12.1-0.3-18.1
		c-0.1-6.2-0.2-12.4-0.4-18.7c-0.1-5.8-0.2-11.6-0.4-17.5c-0.1-4.8-0.2-9.7-0.3-14.5c-0.1-3.3-0.1-6.6-0.2-9.9c0-0.9,0-1.8,0-2.7
		c0-0.2,0-0.5,0-0.7c0-0.2,0-0.1,0,0.1c0.3-0.9,0.3-2,0.3-3c0.1-2.3-0.1-4.6-0.4-6.9c-0.1-0.5-0.7-0.7-1.1-0.6
		c-0.5,0.1-0.7,0.6-0.6,1.1c0.4,2.3,0.5,4.7,0.3,7.1c0,0.8-0.2,1.5-0.3,2.3c0,0.6,0,1.2,0,1.8c0,2.8,0.1,5.6,0.1,8.4
		c0.1,4.5,0.2,8.9,0.3,13.4c0.1,5.6,0.2,11.1,0.3,16.7c0.1,6.1,0.2,12.2,0.4,18.3c0.1,6.1,0.2,12.2,0.3,18.2
		c0.1,5.5,0.2,11,0.2,16.5c0,4.4,0.1,8.7,0.1,13.1c0,2.7,0,5.3-0.2,8c0,0.3,0,0.7-0.1,1c0,0.3,0-0.2,0,0.1c0,0.1-0.1,0.2-0.1,0.2
		c0,0.1,0.1-0.3,0.1-0.2c0.1-0.1,0.5-0.4,0.1-0.2c-0.5,0.3-0.9,0.7-1.3,1.1c-1.2,1-2.4,2.1-3.6,3.1c-0.5,0.4-1,0.9-1.6,1.2
		c-0.2,0.1-0.4,0.3-0.6,0.4c-0.1,0.1-0.2,0.2-0.1,0.1c-0.1,0.1-0.2,0,0,0c0.3,0.2,0.6,0.4,0.9,0.7c0,0,0-0.1,0-0.2
		c-0.1-0.2,0,0.3,0,0c0-0.3-0.1-0.6-0.1-0.9c-0.1-1-0.1-1.9-0.2-2.9c-0.2-3.3-0.3-6.5-0.4-9.8c-0.2-4.7-0.3-9.4-0.4-14.1
		c-0.2-5.6-0.3-11.3-0.4-16.9c-0.1-6.1-0.3-12.3-0.4-18.4c-0.1-6.2-0.2-12.4-0.3-18.5c-0.1-5.8-0.2-11.5-0.2-17.3
		c0-4.9-0.1-9.8-0.1-14.6c0-3.5,0-7,0.1-10.6c0-1.1,0.1-2.2,0.1-3.4c0-0.4,0-0.8,0.1-1.1c0-0.1,0-0.1,0-0.2c0-0.3,0,0.1,0,0
		c0-0.1,0-0.2,0.1-0.3c0-0.2,0.1-0.2,0-0.1c-0.1,0.1-0.1,0.1,0,0.1c-0.2,0.3-0.4,0.4-0.7,0.4C195.3,52.1,195.4,50.3,194.2,50.4
		L194.2,50.4z"/>
</g>
<g>
	<path class="st2" d="M127.5,55.1c0,2.7,1,3.6,1.4,6.2c1-0.3,1.6-1.2,2.5-1.8c1.3-0.8,2.4-0.6,3.8-1.1c1.9-0.6,2.7-0.1,3.3-2"/>
	<path class="st0" d="M126.6,55.1c0,1.1,0.2,2.3,0.6,3.3c0.3,1,0.7,2,0.9,3.1c0.1,0.5,0.7,0.8,1.1,0.6c1.1-0.3,1.7-1.3,2.7-1.9
		c1.1-0.6,2.3-0.6,3.5-1c0.8-0.2,1.6-0.3,2.3-0.6c0.9-0.4,1.4-1.1,1.7-2c0.4-1.1-1.4-1.6-1.7-0.5c-0.1,0.2-0.1,0.3-0.2,0.5
		c0,0-0.1,0.2-0.1,0.1c0.1-0.1-0.1,0.1-0.1,0.1c-0.2,0.2,0.1-0.1,0,0c0,0-0.2,0.1,0,0c-0.1,0.1-0.2,0.1-0.4,0.1
		c-0.3,0.1-0.7,0.1-1,0.2c-0.5,0.1-1,0.3-1.5,0.4c-1.1,0.3-2.2,0.4-3.2,1c-0.5,0.3-0.9,0.6-1.3,1c-0.3,0.3-0.6,0.6-1.1,0.7
		c0.4,0.2,0.7,0.4,1.1,0.6c-0.2-1-0.5-2-0.8-3c-0.3-1-0.5-1.9-0.5-3C128.4,53.9,126.6,53.9,126.6,55.1L126.6,55.1z"/>
</g>
<g>
	<path class="st0" d="M119,85.9c-0.7,0.3,0,0.5-0.2,1.1c-0.2,0.9-0.3,1.7-0.2,2.6c0,1,0.5,1.4,1,2.2c0.3,0.4,0.4,0.6,0.9,0.7
		c0.7,0.2,1.7,0.2,2.4,0.3c2,0.3,4.2,0,6.3,0c0.9,0,2,0.1,2.9,0c0.9-0.2,1.7-1.3,1.9-2.1c0.5-1.9,0.3-3.9,0.3-5.8
		c0-1.9,0-8.8-0.3-10.7c-0.2-1.1-0.8-2-1.9-2.2c-1.6-0.3-3-0.4-4.6-0.4c-1,0-2,0-3,0c-1.1,0-2.2-0.3-3.2-0.3c-0.4,0-1.6,1.3-1.6,1.7
		c0,1.1-0.1,7.2-0.3,8.3c-0.2,1-0.6,1.9-0.6,3c0,1,0,2,0,3"/>
</g>
<g>
	<path class="st3" d="M120,85.7c-0.5,0.2,0,0.5-0.1,1c-0.2,0.7-0.2,1.4-0.2,2.2c0,0.9,0.4,1.2,0.8,1.9c0.2,0.3,0.3,0.5,0.7,0.7
		c0.6,0.2,1.4,0.2,2,0.3c1.7,0.2,3.5,0,5.1,0c0.8,0,1.6,0.1,2.4,0c0.8-0.1,1.4-1.1,1.6-1.9c0.4-1.6,0.2-3.4,0.2-5.1
		c0-1.7,0-7.7-0.2-9.3c-0.1-1-0.6-1.8-1.5-1.9c-1.3-0.3-2.5-0.3-3.8-0.3c-0.8,0-1.6,0-2.4,0c-0.9,0-1.8-0.2-2.6-0.2
		c-0.3,0-1.3,1.2-1.3,1.5c0,0.9,0,6.3-0.2,7.2c-0.2,0.9-0.5,1.7-0.5,2.6c0,0.9,0,1.7,0,2.6"/>
</g>
<g>
	<path class="st4" d="M124.7,82.6h-2.1v2.1h2.1V82.6L124.7,82.6z M125.9,83.2h0.3v-0.6H125v0.6h0.3v0.3h0.3v-0.3h-0.3v-0.3h0.6V83.2
		L125.9,83.2z M124.1,85.3h-0.3v0.3h0.6v0.3h-0.3v0.3h-0.3v-0.3h-0.3V85h-0.9v0.3h0.6v0.9h-0.3v-0.3h-0.3v0.3h0.3v0.6h-0.3v0.3h0.6
		v0.3h-0.6v0.3h0.6v-0.3h0.3v0.3h0.3v-0.3h-0.3v-0.3h0.3v-0.3h-0.6v-0.3h0.9v0.9h0.3v0.3h0.3v-0.3h-0.3v-0.3h0.6V88h0.3v0.3H125v0.3
		h0.3v0.3h0.3v0.3H125V90h0.6v-0.6h0.6v-0.3h-0.3v-0.6h0.6v0.6h0.6v-0.3h0.6v0.3h-0.3v0.3h-0.3v0.3h0.3V90h0.3v-0.3h0.3V90h0.3v-0.3
		h0.6V90h0.3v-0.3h-0.3v-0.6h0.6v0.3h0.6v-0.3h-0.3v-0.3h0.3v-1.2h-0.3v-0.3h-0.3v0.3h-0.3V88h-0.3v-0.6h-0.6v-0.3H128v0.3h-0.3
		v-0.3h-0.3v-0.3h0.3v-0.6h-0.3v0.3h-0.3v-0.6h0.3v-0.3h0.3v-0.3h0.3v0.3h0.3v0.3H128v0.9h0.6v0.3h0.9v-0.3h0.3v0.3h0.3v-0.9h-0.3
		v0.3h-0.3v0.3h-0.9v-0.3h-0.3v-0.6h0.3v-0.3h-0.3v-0.3h0.6v0.9h0.3v-0.3h0.3v-0.3h0.3v0.3h0.3V85h-0.6v0.6h-0.3v-0.3h-0.3V85h-1.2
		v-1.8h-0.3V85h-0.3v0.6h-0.6v-0.3h0.3v-0.6h0.3v-0.9h-0.3v0.3h-0.3v-0.6h0.3v-0.3h0.3v-0.6h-0.6v0.9h-0.6v0.6h-0.6v-0.3H125v1.8
		h0.3v0.3h-0.6v-0.3h-0.3v-0.3h0.3V85h-0.6V85.3L124.1,85.3z M130.1,82.6H128v2.1h2.1V82.6L130.1,82.6z M124.4,82.9h-1.5v1.5h1.5
		V82.9L124.4,82.9z M129.8,82.9h-1.5v1.5h1.5V82.9L129.8,82.9z M124.1,83.2h-0.9v0.9h0.9V83.2L124.1,83.2z M129.5,83.2h-0.9v0.9h0.9
		V83.2L129.5,83.2z M125.9,84.1h0.3v0.6h0.3V85h-0.6v0.3h0.3v0.6h-0.3v-0.3h-0.6v-0.3h0.3v-0.6h0.3V84.1L125.9,84.1z M125.3,84.4
		h0.3v0.3h-0.3V84.4L125.3,84.4z M126.5,84.7v-0.3h0.3v0.3H126.5L126.5,84.7z M127.4,85.3V85h0.3v0.3H127.4L127.4,85.3z M124.4,86.2
		v-0.3h0.3v0.3H124.4L124.4,86.2z M125.3,85.9h0.3v0.3h-0.3V85.9L125.3,85.9z M126.5,86.2v-0.3h0.3v0.3H126.5L126.5,86.2z
		 M126.5,87.7h0.3v-0.6h-0.3v0.3h-0.6v-0.3h0.3v-0.3h-0.3v-0.6h0.6v0.6h0.6v0.6h0.3v1.2h-0.3V88h-0.6V87.7L126.5,87.7z M124.7,86.5
		h-0.3v0.3h0.3V86.5L124.7,86.5z M125.6,86.8v0.3H125v-0.6h0.3v0.3H125.6L125.6,86.8z M126.2,87.7h-0.3v0.6h0.3V87.7L126.2,87.7z
		 M128.6,87.7h-0.9v0.9h0.9V87.7L128.6,87.7z M129.5,87.7h0.3v0.9h-0.3v0.3h-0.3v-0.3h-0.3v-0.3h0.3V88h0.3V87.7L129.5,87.7z
		 M124.7,90V88h-2.1V90H124.7L124.7,90z M128.3,88H128v0.3h0.3V88L128.3,88z M124.4,88.3h-1.5v1.5h1.5V88.3L124.4,88.3z M126.5,88.6
		v-0.3h0.3v0.3H126.5L126.5,88.6z M124.1,88.6h-0.9v0.9h0.9V88.6L124.1,88.6z M128.3,89.7H128v-0.9h0.3v0.3h0.3v0.3h-0.3V89.7
		L128.3,89.7z M126.5,89.7h-0.6V90h0.9v-0.6h-0.3V89.7L126.5,89.7z M130.1,89.7h-0.3V90h0.3V89.7L130.1,89.7z"/>
</g>
<g>
	<path class="st5" d="M125.4,77.1c0,0-0.3-1,0-2.1c0,0,0.2-0.5,0.4-0.5c0.2,0,0.5,0.1,0.9,0.5c0.4,0.4,0.6,0.6,0.8,0.9
		c0.2,0.3-0.3,0.8-0.5,1c-0.2,0.2-0.9,0.6-1.2,0.6C125.5,77.6,125.5,77.4,125.4,77.1"/>
	<path class="st5" d="M125.5,77.2c0,0,0.3-1.7,1.2-2.3c0,0,0.3-0.3,0.6,0.2c0.3,0.5,0.6,0.8,0.7,1.5c0,0,0,0.3-0.2,0.5
		c-0.2,0.2-0.7,0.5-1.7,0.6h-0.4C125.6,77.5,125.4,77.5,125.5,77.2"/>
	<path class="st6" d="M125.5,77.3c0,0,0-1.1,1.1-2.4c0,0,0.7,0.5,0.8,1c0,0,0.1,0.3-0.1,0.6c-0.3,0.3-0.7,0.7-1.4,1
		C125.8,77.5,125.4,77.7,125.5,77.3"/>
	<path class="st7" d="M127.2,76.1c0,0.1-0.1,0.1-0.1,0.1c-0.1,0-0.1-0.1-0.1-0.1c0-0.1,0.1-0.1,0.1-0.1
		C127.2,76,127.2,76,127.2,76.1"/>
	<path class="st7" d="M129.6,79.5c0-0.1,0-0.1,0-0.1c0-0.1,0-0.2-0.1-0.4c-0.1-0.2-0.4-0.4-0.7-0.4c-0.1,0-0.2,0-0.2,0l0,0l0,0
		c0,0-0.4,0.1-0.7,0.7c-0.2,0.5,0,0.9,0.1,1c0,0,0,0,0,0c0,0.1,0.4,0.3,0.6,0.3l0,0c0,0,0.1,0,0.1,0c0.2,0,0.3,0,0.6-0.2
		c0.1-0.1,0.3-0.3,0.3-0.4C129.6,79.7,129.6,79.6,129.6,79.5 M129.3,79.5c0,0.4-0.2,0.6-0.4,0.7c0,0-0.1,0-0.1,0.1c0,0-0.1,0-0.2,0
		c-0.2,0-0.4-0.1-0.5-0.3c-0.1-0.2-0.1-0.4,0-0.6c0.2-0.6,0.5-0.7,0.6-0.7c0,0,0,0,0,0c0,0,0,0,0,0c0.1,0,0.3,0.1,0.4,0.2
		C129.3,79.1,129.3,79.3,129.3,79.5"/>
	<path class="st7" d="M125.8,80C125.7,80,125.7,80,125.8,80c-0.1,0-0.1,0-0.1,0c0,0,0,0,0,0c-0.1,0-0.2,0.1-0.4,0.1
		c-0.1,0-0.1,0-0.2,0c-0.1,0-0.2-0.1-0.3-0.3c-0.1-0.1-0.1-0.2-0.1-0.2l0,0l0,0c0,0,0,0,0,0c0,0,0.1,0,0.4-0.1
		c0.3-0.1,0.7-0.3,0.8-0.3c0,0,0,0,0,0c0-0.1,0.1-0.3-0.3-0.6c-0.1-0.1-0.3-0.2-0.4-0.2c-0.2,0-0.4,0.1-0.4,0.1c0,0-0.1,0.1-0.2,0.2
		c-0.1,0.1-0.2,0.3-0.2,0.6c-0.1,0-0.2-0.1-0.3-0.3c0-0.2,0-0.3-0.1-0.5c0,0,0,0,0-0.1c0,0,0-0.1,0-0.1c0,0,0,0,0,0c0,0,0-0.1,0-0.2
		c0-0.1,0.1-0.2,0.1-0.3l0.2-0.2c0.1-0.1,0.2-0.2,0.6-0.2c-0.1,0.1-0.1,0.2,0,0.3c0.1,0.1,0.3,0.2,0.3,0.2c0.1,0,0.2,0.1,0.1,0
		c-0.1-0.1-0.1-0.2-0.1-0.4c0-0.1-0.1-0.1-0.2-0.2c0.2,0,0.4,0,0.6,0.1c0,0,0.3,0.1,0.4,0.3c0,0,0.1,0.1,0.1,0.1
		c0,0-0.2-0.1-0.2-0.1c0,0-0.1,0-0.1,0.1s0.1,0.1,0.1,0.1s0.4,0.1,0.5,0.2c0.1,0,0.1-0.1,0.1-0.1s0.1-0.2,0.1-0.3
		c0-0.1-0.1-0.1-0.1-0.1c0,0-0.1,0-0.1,0.1c0,0.1,0,0.2,0,0.2s0,0,0-0.1c0-0.1-0.1-0.2-0.1-0.2c-0.1,0-0.2-0.3-0.9-0.4
		c-0.3,0-0.5,0-0.7,0c0,0,0-0.1,0-0.2c0-0.1-0.1-0.3-0.1-0.4c0-0.1-0.1-0.2-0.1,0c0,0.1-0.1,0.2-0.1,0.4c0,0.1,0.1,0.2,0.1,0.2
		c-0.1,0.1-0.2,0.1-0.2,0.2c-0.1,0.1-0.2,0.4-0.2,0.7c-0.2-0.1-0.5-0.2-0.7-0.2l0,0c-0.3,0-0.3,0.1-0.3,0.2c0,0,0,0,0,0
		c0,0.1,0,0.3,0,0.6c0,0.3,0,0.6,0,0.8c0,0.2,0,0.3,0,0.4c0,0.1,0,0.1,0,0.2c0,0.2,0.1,0.2,0.1,0.2l0,0l0,0c0,0,0,0,0,0
		c0,0,0,0,0.1,0c0.1,0,0.1,0,0.1-0.1c0,0,0,0,0-0.1c0,0,0-0.2,0-0.3c0-0.1,0-0.2,0-0.3c0-0.1,0.3-0.1,0.3-0.1c0,0,0,0,0,0
		c0,0,0.1,0,0.1,0.2c0,0.1,0.1,0.2,0.1,0.2c0,0,0,0.1,0,0.1c0.1,0.1,0.1,0.3,0.2,0.4c0,0.1,0.1,0.1,0.2,0.1c0,0,0.1,0,0.1,0
		c0,0,0.1,0,0.1-0.1c0-0.1,0-0.2,0-0.2c0,0-0.3-0.5-0.4-0.7c-0.1-0.1-0.1-0.2-0.1-0.2c0,0,0-0.1,0.1-0.1c0.1-0.1,0.1-0.1,0.2-0.1
		c0.2,0.2,0.4,0.3,0.5,0.3c0.1,0.6,0.2,0.7,0.6,0.8c0.1,0,0.2,0.1,0.3,0.1c0.2,0,0.5-0.1,0.5-0.1c0,0,0,0,0,0
		C125.8,80.3,125.9,80.3,125.8,80C125.8,80,125.8,80,125.8,80 M123.6,79.1C123.6,79.1,123.6,79.1,123.6,79.1
		c-0.1,0.1-0.2,0.2-0.3,0.2c-0.1,0.1-0.1,0.1-0.2,0.1c0,0-0.1,0-0.1,0l0,0l0,0c0-0.1,0-0.8,0.1-0.9l0,0l0,0c0,0,0,0,0.1,0
		c0.1,0,0.2,0,0.4,0.1c0.1,0.1,0.1,0.2,0.1,0.3C123.6,79,123.6,79.1,123.6,79.1 M124.6,79.4C124.6,79.4,124.6,79.4,124.6,79.4
		c-0.1-0.1,0-0.3,0-0.3c0-0.1,0.4-0.3,0.6-0.3c0,0,0,0,0,0c0.2,0,0.3,0.3,0.3,0.3c0,0.1-0.2,0.2-0.3,0.2c0,0,0,0-0.1,0
		c0,0-0.1,0-0.2,0C124.9,79.4,124.7,79.4,124.6,79.4C124.6,79.4,124.6,79.4,124.6,79.4L124.6,79.4z"/>
	<path class="st7" d="M126.8,78.4c-0.2-0.1-0.3-0.1-0.4-0.1c0,0-0.1,0-0.1,0l0,0c0,0-0.2,0.1-0.1,0.3c0,0.2,0,0.4,0,0.5
		c0,0.1,0,0.2,0,0.2c0,0,0,0.2,0,0.4c0,0.2,0,0.4,0,0.5c0,0.1,0,0.1,0,0.1c0,0,0.1,0,0.1,0c0,0,0,0,0,0l0,0l0,0c0,0,0.1,0,0.1,0
		c0,0,0.1,0,0.1,0c0,0,0,0,0.1,0c0.1,0,0.1,0,0.4-0.2c0.4-0.2,0.4-0.5,0.4-0.5l0,0l0,0c0.1-0.3,0.1-0.6,0-0.9
		C127.3,78.7,127.1,78.5,126.8,78.4 M127.1,79.7c-0.1,0.1-0.2,0.3-0.3,0.4c-0.1,0.1-0.2,0.1-0.2,0.1c0,0,0,0,0,0l-0.1,0h0
		c0,0-0.1,0-0.1-0.2c0-0.1,0-0.3,0-0.4c0-0.1,0-0.3,0-0.4c0-0.1,0-0.5,0.1-0.5c0,0,0,0,0.1,0c0,0,0.1,0,0.1,0c0.1,0,0.4,0.1,0.5,0.4
		C127.3,79.4,127.2,79.6,127.1,79.7"/>
</g>
<g>
	<path class="st1" d="M31.2,97.6c-0.3-3-2.1-5.4-2.2-8.6c0-2.9-0.1-4.1,2.2-6.1c2.4,5.2,7.8,12,14.1,8.3c2.6-1.5,5.2-3.6,7.6-5.4
		c2-1.5,5.1-5.8,7.6-6c3,2.8-0.8,6.6-2.8,8.7c-1.1,1.1-5.7,7.2-6.8,6.9c1.3-1.8,4-2.2,5.7-3.7c1.1-1,4.8-5.5,6.5-4.3
		c3.8,2.8-3.9,9.4-5.7,10.9c2.8-2.1,5.9-2.8,7.6-6.1c5.6,5.3-9.5,10.7-8.9,15.9c1.1-0.8,2.6-2.8,4.2-1.7c0.2,0.9-0.1,1.4-1,1.6
		c-2.6-0.7,0.3-7.8,2.1-8.3c2.4-0.6,2.5,2.8,2,4.3c-0.5,1.8-2.7,4-4,5.2c-2.4,2.5-7.3,6.3-10.8,6.8c-3.4,0.5-7.5-0.1-10.9-0.1
		c-2.2,0-8.6,1.1-9.8-1c-1.3-2.1-0.1-7.7-0.1-10.1c0-3.8,0.3-6.9-4.6-5.5c-4,1.2-7.2,1.4-11.4,1.4c3.8,0.1,8.7-2.5,11.7,0
		c2.9,2.4,5.8,6.1,6.5,10c0.5,2.7,0.3,4.4-2.1,5.3c-1.8,0.6-3.6,1.2-5.5,1.8c-1.9,0.7-4.1,1.2-6.1,1.9c-2.1,0.7-5.5-0.4-6.9,1.6"/>
	<path class="st0" d="M32.6,97.6c-0.2-1.5-0.6-2.8-1.1-4.2c-0.5-1.3-1-2.7-1.1-4.1c0-0.6,0-1.3,0-1.9c0-0.3,0-0.5,0-0.8
		c0-0.1,0-0.2,0.1-0.5c0.1-0.5,0.2-0.6,0.4-1c0.3-0.5,0.7-0.9,1.2-1.3c-0.7-0.1-1.5-0.2-2.2-0.3c1,2.2,2.4,4.4,4.1,6.2
		c1.6,1.7,3.7,3.3,6.1,3.7c3,0.6,5.4-0.7,7.9-2.3c1.4-1,2.8-2,4.1-3c1-0.8,2-1.5,3-2.4c1-0.9,1.9-1.9,2.9-2.9
		c0.4-0.4,0.9-0.8,1.4-1.1c0.2-0.1,0.5-0.3,0.7-0.4c-0.1,0.1,0.7-0.2,0.4-0.1c-0.3-0.1-0.7-0.3-1-0.4c0.6,0.6,0.8,1.2,0.6,1.8
		c-0.2,0.9-0.7,1.7-1.3,2.4c-0.9,1.2-2,2.2-2.9,3.3c-1,1.2-2,2.5-3.1,3.6c-0.5,0.6-1,1.1-1.6,1.6c-0.1,0.1-0.2,0.2-0.3,0.3
		c0.3-0.3,0,0-0.1,0.1c-0.1,0.1-0.4,0.1,0,0c-0.3,0.1,0.4,0,0.5,0c0.2,0.8,0.4,1.6,0.6,2.4c0.8-1,1.9-1.5,3-2
		c1.1-0.5,2.1-1.1,2.9-1.9c1.2-1.2,2.5-2.7,3.8-3.5c0.2-0.1,0.4-0.2,0.5-0.3c-0.3,0.1,0.2,0,0.3-0.1c0.2,0-0.3,0,0,0
		c-0.1,0-0.2-0.1-0.1,0c-0.2-0.2-0.2-0.1-0.1,0c0.2,0.1-0.1-0.1,0.1,0.1c0,0,0.3,0.3,0.1,0.1c-0.1-0.1,0,0,0.1,0.1
		c0,0.1,0.1,0.2,0.1,0.2c0,0-0.1-0.3,0,0c0,0.1,0,0.1,0.1,0.2c-0.1-0.3,0-0.1,0,0c0,0.1,0,0.2,0,0.3c0,0.3,0.1-0.3,0,0.1
		c-0.3,1.5-1.4,2.8-2.5,4.1c-1.2,1.3-2.5,2.5-3.8,3.6c-1.2,1.1,0.4,3.2,1.7,2.2c1.4-1,3-1.8,4.4-2.7c1.6-1,2.9-2.3,3.7-3.9
		c-0.7,0.1-1.5,0.2-2.2,0.3c0.1,0.1,0.2,0.3,0.4,0.4c0.2,0.2,0-0.1,0.1,0.2c0.1,0.1,0.1,0.3,0.2,0.4c0.1,0.2,0-0.2,0,0.1
		c0,0.1,0.1,0.3,0.1,0.4c-0.1-0.4,0,0,0,0.1c0,0.1-0.1,0.5,0,0.1c0,0.1-0.1,0.3-0.1,0.4c0,0.1-0.1,0.2-0.1,0.3c0.1-0.3,0,0-0.1,0.1
		c-0.1,0.3-0.3,0.5-0.5,0.8c-0.2,0.3,0.1-0.1-0.1,0.2c-0.1,0.1-0.2,0.3-0.3,0.4c-0.2,0.3-0.5,0.5-0.8,0.8c-2.1,2.1-4.6,3.8-6.5,6.1
		c-0.9,1.2-1.8,2.6-1.6,4.1c0.1,0.9,1.2,2,2.1,1.2c0.6-0.4,1.1-1,1.7-1.4c0.2-0.1,0.5-0.3,0.6-0.4c0.1,0,0.2,0,0.1-0.1
		c0.2,0,0.2,0.1,0.3,0.2c-0.2-0.3-0.4-0.6-0.7-0.9c0.1,0.3,0.1,0.2,0.1,0c0-0.2,0.3-0.2-0.1-0.1c0.3,0,0.5,0,0.8,0c0,0-0.1,0-0.1,0
		c0.2,0.1,0.2,0.1,0.1,0c0,0,0.1,0.1,0.1,0.1c0,0-0.1-0.1-0.1-0.1c0,0,0.1,0.1,0.1,0.1c0-0.1-0.1-0.1-0.1-0.2c0,0,0.1,0.3,0,0
		c0-0.1-0.1-0.4,0,0c0-0.1,0-0.2,0-0.3c0-0.1,0.1-0.8,0-0.5c0.1-0.6,0.2-1.1,0.4-1.7c0.2-0.6,0.3-0.8,0.6-1.4
		c0.1-0.2,0.3-0.5,0.4-0.7c0.1-0.1,0.1-0.2,0.2-0.3c0.2-0.3-0.2,0.2,0.1-0.1c0.1-0.1,0.2-0.3,0.4-0.4c0.2-0.2-0.2,0,0,0
		c0,0,0.1-0.1,0.1-0.1c-0.2,0.1-0.3,0.1-0.1,0.1c0-0.1,0.1,0,0.2,0c0,0-0.1,0-0.1,0c0.2,0,0.2,0,0,0c0.1,0,0.1,0,0.1,0.1
		c0,0,0.1,0.2,0,0c0.1,0.1,0.1,0.3,0.1,0.4c0,0.1,0.1,0.3,0.1,0.4c0-0.3,0,0.3,0,0.3c0,0.3,0,0.6,0,0.8c0,0.4,0.1-0.3,0,0.1
		c0,0.1,0,0.2,0,0.2c-0.2,0.7-0.6,1.3-1,1.9c-0.9,1.2-2,2.3-3.1,3.4c-2.2,2.2-4.9,4.2-7.7,5.4c-1.5,0.6-3.1,0.7-4.7,0.7
		c-2,0-4-0.2-6.1-0.2c-2.6-0.1-5.2,0.3-7.9,0.2c-0.3,0-0.6,0-1-0.1c-0.1,0-0.2,0-0.5-0.1c-0.3-0.1-0.5-0.1-0.8-0.2
		c0.3,0.1,0,0-0.1-0.1c-0.1-0.1-0.1-0.1,0,0c-0.1,0-0.1-0.1-0.2-0.1c0,0,0-0.1-0.1-0.1c0.1,0.2,0.1,0.2,0,0c0,0,0-0.1-0.1-0.1
		c0.1,0.1,0.1,0.1,0,0c-0.1-0.2-0.1-0.5-0.2-0.7c0-0.2-0.1-0.4-0.1-0.8c0-0.4,0-0.8,0-1.3c0.1-2.7,0.5-5.4,0.5-8.2
		c0-1.3-0.1-2.7-0.8-3.9c-0.8-1.3-2.3-1.8-3.7-1.6c-1,0.1-2,0.4-3,0.7c-1.1,0.3-2.3,0.5-3.4,0.7c-2.2,0.3-4.4,0.4-6.6,0.4
		c-1.8,0-1.8,2.8,0,2.9c1.6,0,3.3-0.3,4.8-0.6c1.4-0.3,2.9-0.6,4.3-0.4c1.4,0.2,2.4,1.3,3.4,2.3c1.2,1.2,2.2,2.6,3,4.1
		c0.7,1.4,1.2,2.8,1.4,4.4c0.1,0.5,0.1,1.2,0,1.4c-0.1,0.5-0.2,0.7-0.5,0.9c-0.6,0.4-1.3,0.6-1.9,0.8c-1,0.3-2,0.6-3,1
		c-1.9,0.6-3.7,1.2-5.6,1.8c-0.7,0.2-1.7,0.6-2.4,0.7c-0.8,0.1-1.6,0.1-2.4,0.1c-1.6,0.1-3.4,0.3-4.5,1.7c-0.5,0.6-0.6,1.4,0,2
		c0.5,0.5,1.5,0.6,2,0c0.8-1,2.2-0.8,3.5-0.9c0.8,0,1.6-0.1,2.4-0.2c0.9-0.2,1.8-0.6,2.8-0.8c2.1-0.6,4.1-1.3,6.1-2
		c1.7-0.6,3.8-1,5.2-2.3c2.4-2.3,1.1-6.5,0-9c-0.8-1.8-1.9-3.4-3.2-4.9c-1.1-1.3-2.5-2.8-4-3.4c-3.7-1.6-7.5,0.6-11.3,0.5
		c0,1,0,1.9,0,2.9c2.5,0,4.9-0.1,7.4-0.5c1.2-0.2,2.4-0.4,3.5-0.7c0.9-0.2,1.8-0.6,2.7-0.6c0.1,0,0.4,0.1,0.2,0
		c0.1,0,0.4,0.1,0.3,0.1c-0.2-0.1,0.3,0.2,0,0c0.1,0.1,0.3,0.3,0.1,0.1c0.1,0.1,0.1,0.2,0.2,0.3c0.1,0.2-0.1-0.2,0,0
		c0,0.1,0,0.1,0.1,0.2c0,0.1,0.1,0.3,0.1,0.4c0.1,0.3,0,0,0,0.3c0.1,1.5,0.1,3,0,4.4c-0.2,1.8-0.4,3.5-0.4,5.3c0,1.5,0,3.6,1.2,4.7
		c1.1,1.1,2.8,1.3,4.3,1.4c1.6,0.1,3.2-0.1,4.7-0.2c4.3-0.3,8.5,0.6,12.8,0c1.9-0.3,3.7-1.2,5.3-2.1c1.8-1.1,3.5-2.4,5-3.8
		c1.4-1.2,2.7-2.6,3.9-4.1c1.1-1.5,1.9-2.9,2-4.8c0-1.5-0.4-3.3-1.8-4.1c-1.4-0.7-3-0.1-4,1.1c-0.9,1.2-1.6,2.5-2,3.9
		c-0.4,1.3-0.7,2.8-0.2,4.1c0.3,0.7,0.8,1.3,1.5,1.6c1.1,0.4,2.4-0.2,2.9-1.2c0.6-1.1,0.3-2.6-0.8-3.1c-1-0.5-2.2-0.4-3.2,0.2
		c-0.8,0.4-1.5,1.2-2.1,1.7c0.7,0.4,1.4,0.8,2.1,1.2c0-0.1,0-0.2,0-0.4c0-0.4-0.1,0.1,0-0.1c0-0.1,0.1-0.2,0.1-0.4
		c0-0.1,0-0.1,0.1-0.2c0.1-0.3-0.1,0.3,0,0c0.1-0.3,0.3-0.5,0.4-0.7c0.1-0.1,0.2-0.2,0.3-0.4c-0.2,0.2,0.1-0.2,0.2-0.2
		c1-1.2,2.2-2.1,3.3-3.1c1.2-1,2.4-2,3.5-3.2c0.9-1,1.9-2.2,2.2-3.6c0.4-1.8-0.3-3.4-1.6-4.6c-0.6-0.6-1.8-0.5-2.2,0.3
		c-1.5,2.8-4.7,3.8-7.1,5.6c0.6,0.7,1.2,1.5,1.7,2.2c1.3-1.2,2.6-2.3,3.8-3.6c1.4-1.5,2.9-3.4,3.3-5.5c0.4-2.2-1.1-4.9-3.6-4.4
		c-2.1,0.4-3.9,2.4-5.3,3.8c-0.8,0.8-1.5,1.4-2.6,2c-1.5,0.7-3.1,1.4-4.1,2.7c-0.6,0.8-0.5,2.1,0.6,2.4c1.5,0.3,2.6-1,3.6-2
		c1.2-1.2,2.2-2.5,3.3-3.8c0.9-1.1,1.9-2.1,2.9-3.2c1.3-1.6,2.8-3.6,2.7-5.8c-0.1-1.2-0.6-2.3-1.4-3.1c-0.9-0.9-2.4-0.3-3.4,0.2
		c-1.8,1-3.3,2.7-4.8,4.2c-1.7,1.7-3.7,3.1-5.7,4.6c-1.8,1.3-3.9,3-6.2,2.9c-2,0-3.9-1.4-5.3-2.9c-1.6-1.7-2.8-3.7-3.8-5.8
		c-0.4-0.9-1.6-0.9-2.2-0.3c-1,0.9-1.8,1.9-2.2,3.1c-0.4,1.2-0.4,2.4-0.3,3.6c0,1.6,0.4,3.2,0.9,4.7c0.5,1.4,1.1,2.8,1.3,4.3
		c0.1,0.8,0.6,1.4,1.4,1.4C31.9,99.1,32.7,98.4,32.6,97.6L32.6,97.6z"/>
</g>
<path class="st0" d="M35.8,89c0-2,0.5-4-0.4-5.8c-0.7-1.6-2.2-2.8-3.5-4c-3-2.9-6.5-5-10.1-7.1c-0.8-0.5-1.5-1-2.4-1.4
	c-0.7-0.3-1.5-0.6-2.3-1c-1.1-0.5-2.2-1.7-2-2.8c0.2-1.5,2.4-2,3.6-2.3c1.6-0.4,3.3-0.3,4.9,0.1c0.8,0.2,1.6,0.5,2.3,0.9
	c0.4,0.2,0.7,0.4,1.1,0.7c0.4,0.3,0.3,0.2,0.7,0.5c1,0.9,2,1.9,3,2.8c1.9,1.6,4.9,3.4,6.9,0.9c1.1-1.4,1.5-3.3,1.6-5
	c0-1.8-0.4-3.6-0.1-5.4c0.2-1.3,0.9-2.2,1.8-3.1c0.9-0.9,1.8-1.7,2.7-2.5c0.1-0.1,0.2-0.2,0.3-0.3c-0.2,0.2,0.2-0.1,0.2-0.1
	c0.1-0.1,0.2-0.1,0.3-0.2c0.3-0.2-0.1,0.1,0,0c-0.5,0.2,0.2-0.1-0.2,0c0.2,0,0.1,0,0,0c0.1,0.1,0.1,0.1,0,0c0.1,0.1,0.2,0.2,0.2,0.2
	c-0.2-0.2,0.1,0.2,0.1,0.2c0.2,0.4-0.1-0.2,0.1,0.2c0.1,0.2,0.1,0.4,0.2,0.6c0.1,0.3,0.2,0.7,0.2,1c0.1,0.6,0.2,1.2,0.3,1.8
	c0.2,0.9,0.3,1.8,0.4,2.7c0.1,1.2,0,2.3-0.1,3.5c-0.1,2.3-0.2,4.7,0.5,6.9c0.3,0.9,1.3,1.3,2.1,0.9c1.5-0.7,2.3-2.1,2.7-3.6
	c0.4-1.4,0.6-2.9,1.1-4.2c0.6-1.6,1.4-3.3,2.6-4.6c1.1-1.2,2.4-2.3,3.7-3.3c1.4-1,2.9-1.9,4.6-2.6c1.4-0.6,2.4-0.8,3.8-0.8
	c0.4,0,0.7,0,1.1,0c0.5,0.1-0.2,0,0.2,0c0,0,0.4,0.2,0.2,0c0.2,0.1,0.3,0.2,0.4,0.4c-0.1-0.1,0-0.1,0-0.2c0,0.1-0.1,0.2-0.2,0.4
	c-0.4,0.5-0.9,0.9-1.4,1.3c-0.8,0.7-1.5,1.5-2.3,2.3c-1.6,1.6-3.1,3.2-4.9,4.6c-1.5,1.2-3,2.5-3.8,4.3c-0.4,1,0.1,2.1,1.2,2.1
	c1.8,0.1,3.4-0.8,4.8-1.8c1.4-1,2.7-2,4.2-2.9c1.6-0.9,3.3-1.5,5.1-2.2c0.3-0.1,0.6-0.2,0.8-0.3c0.1,0,0.3-0.1,0.4-0.1
	c0.4-0.1-0.2-0.1,0.2,0c-0.2,0,0.4,0.1,0.4,0.1c0.4,0.1,0.8,0.4,1.1,0.6c1,0.8,2.1,2.3,1.9,3.6c-0.1,1-1.1,1.8-2,2.4
	c-1.1,0.7-2.4,1.3-3.5,2.1c-1.4,0.9-2.8,1.9-4.4,2.6c-3.6,1.8-7.3,3.7-10.3,6.5c-1.4,1.2,0.7,3.2,2,2c2.8-2.6,6.4-4.3,9.7-6
	c0.8-0.4,1.6-0.8,2.4-1.3c0.8-0.5,1.5-1,2.2-1.5c1.3-0.8,2.7-1.4,3.9-2.3c1.3-1,2.5-2.2,2.7-3.9c0.3-1.9-0.5-3.7-1.7-5.2
	c-1.1-1.3-2.8-2.6-4.6-2.6c-0.7,0-1.4,0.2-2,0.5c-1,0.4-2,0.8-3.1,1.2c-2,0.8-3.9,1.9-5.7,3.2c-1.4,1.1-2.9,2.5-4.8,2.5
	c0.4,0.7,0.8,1.4,1.2,2.1c0.8-1.7,2.1-2.8,3.5-3.9c1.7-1.3,3.2-2.9,4.7-4.4c0.7-0.8,1.5-1.6,2.3-2.3c0.6-0.6,1.3-1.2,1.8-1.9
	c1.1-1.7,0.3-3.8-1.5-4.6c-1.5-0.6-3.3-0.4-4.8-0.2c-1.7,0.3-3.3,1-4.8,1.8c-3.4,1.8-6.8,4.4-8.8,7.8c-1.1,1.8-1.9,3.8-2.4,5.9
	c-0.2,0.8-0.3,1.7-0.6,2.5c-0.2,0.7-0.5,1.1-1.2,1.4c0.7,0.3,1.4,0.6,2.1,0.9c-0.6-2-0.5-4-0.4-6c0.1-2.2,0.2-4.4-0.3-6.6
	c-0.5-2.2-0.6-5.9-3.4-6.5c-1.4-0.3-2.4,0.7-3.4,1.5c-1,0.8-1.9,1.8-2.9,2.7c-1.2,1.2-2,2.6-2.2,4.3c-0.3,1.9,0,3.8,0,5.7
	c0,0.9-0.1,1.8-0.4,2.6c-0.1,0.3-0.2,0.6-0.4,0.8c-0.1,0.1-0.2,0.3-0.3,0.3c-0.2,0.1,0.1,0,0.1,0c0,0-0.1,0.1-0.2,0
	c0,0,0.2-0.1-0.1,0c0,0-0.1,0-0.2,0c0,0,0.3,0,0.1,0c-0.1,0-0.3-0.1-0.4-0.1c-0.3-0.1-0.1,0,0,0c-0.1,0-0.1-0.1-0.2-0.1
	c-0.1-0.1-0.2-0.1-0.4-0.2c-0.1-0.1-0.2-0.2-0.4-0.2c-0.1,0-0.4-0.3-0.3-0.2c-1.1-0.9-2.1-1.9-3.2-2.9c-1.3-1.1-2.6-2-4.2-2.7
	c-3.6-1.4-8.1-1.3-11.4,0.8c-1.7,1.1-2.5,2.9-2.1,4.8c0.4,1.9,1.7,3.4,3.4,4.2c0.7,0.3,1.5,0.6,2.2,0.9c0.9,0.4,1.7,1,2.6,1.5
	c1.8,1.1,3.7,2.2,5.5,3.4c1.7,1.2,3.2,2.6,4.7,4c0.6,0.6,1.3,1.1,1.7,1.8c0.5,0.7,0.6,1.4,0.6,2.2c0,1-0.2,2-0.2,3
	C33,90.8,35.8,90.8,35.8,89L35.8,89z"/>
<path class="st0" d="M36.6,113.5c-1.9,0-3.8-0.2-5.6,0.2c-1.9,0.5-3.4,1.7-4.5,3.2c-1.1,1.4-1.9,2.9-3.1,4.3
	c-1.1,1.3-2.1,2.7-2.8,4.4c-1.4,3.2-1.6,6.8-1.7,10.2c0,3.5-0.3,7-0.4,10.4c-0.1,3.6,0,7.2,1.4,10.5c1.4,3.4,2.5,7,4.9,10
	c2.5,3.1,5.8,5.7,9,8.1c2.9,2.2,5.7,4.8,9,6.4c3.6,1.7,7.4,1.5,11.3,1.2c1.8-0.1,3.6,0,5.4-0.2c1.8-0.2,3.4-0.7,5.1-1.4
	c1.8-0.7,3.5-1.6,5.2-2.4c1.5-0.7,3-1.4,4.4-2.3c3.3-2.1,5.6-5.2,8.1-8.1c1.3-1.5,2.6-3.1,4.1-4.5c1.4-1.2,2.9-2.1,4-3.6
	c1.1-1.5,2-3.2,2.9-4.9c0.9-1.8,1.8-3.6,2.5-5.5c1.4-3.8,2.1-7.8,2.5-11.8c0.4-4,0.6-8.2,0.5-12.3c-0.1-3.7-1.2-7.3-3.6-10.2
	c-1.2-1.6-2.8-2.8-4.1-4.3c-1.1-1.4-2.2-2.6-3.7-3.7c-1.3-1-2.8-1.8-4.1-2.8c-1.4-1-2.6-2.3-3.9-3.5c-1.4-1.2-2.8-2.5-4.4-3.4
	c-0.8-0.5-1.7-0.8-2.6-1c-1.1-0.2-2.2-0.2-3.2-0.4c-1.7-0.3-3.2-1.2-5-1.1c-1.5,0-1.9,1.9-0.7,2.7c0,0,0-0.1,0-0.1
	c0.1,0.8,0.6,1.4,1.4,1.4c0.7,0,1.5-0.7,1.4-1.4c-0.1-1-0.5-1.8-1.4-2.4c-0.2,0.9-0.5,1.8-0.7,2.7c0.8,0,1.4,0.2,2.1,0.4
	c0.9,0.3,1.8,0.6,2.8,0.7c0.9,0.1,1.8,0.1,2.6,0.3c0.9,0.2,1.6,0.5,2.4,1c2.9,1.8,5.1,4.6,7.9,6.6c1.2,0.9,2.6,1.7,3.8,2.6
	c1.3,1,2.2,2.1,3.2,3.3c1.2,1.4,2.6,2.6,3.8,4c1,1.2,1.8,2.7,2.3,4.3c1.1,3.4,0.7,7.1,0.6,10.6c-0.1,3.8-0.4,7.6-1.2,11.3
	c-0.8,3.7-2.1,7.1-3.8,10.5c-0.8,1.6-1.7,3.3-2.8,4.8c-1,1.3-2.4,2.2-3.7,3.2c-2.9,2.5-5,5.9-7.6,8.7c-1.1,1.2-2.4,2.4-3.8,3.3
	c-1.3,0.9-2.7,1.6-4.2,2.3c-2.9,1.4-5.9,3.1-9.2,3.5c-1.6,0.2-3.3,0.1-4.9,0.2c-1.9,0.1-3.7,0.3-5.6,0.2c-1.6,0-3.1-0.3-4.5-0.9
	c-1.7-0.8-3.2-1.8-4.6-2.9c-2.8-2.1-5.7-4.3-8.4-6.6c-1.5-1.3-2.8-2.6-4.1-4c-1.1-1.3-1.9-2.7-2.6-4.2c-0.7-1.6-1.3-3.2-2-4.9
	c-0.6-1.4-1-2.8-1.2-4.3c-0.4-3.4-0.1-6.9,0.1-10.4c0.2-3.3,0-6.6,0.3-9.9c0.3-3,1.3-5.9,3.3-8.3c1.1-1.3,2-2.7,2.9-4
	c0.9-1.3,2-2.5,3.6-2.9c1.5-0.4,3.2-0.1,4.8-0.1C38.4,116.4,38.4,113.5,36.6,113.5L36.6,113.5z"/>
<path class="st0" d="M26,100.5c0,0.1,0-0.1,0-0.1c-0.2,0.4-0.5,0.8-0.7,1.2c0,0,0,0,0,0c-0.7-0.3-1.4-0.6-2.1-0.9
	c0.3,1.1,0.5,2.2,0.8,3.3c0.3,1.1,0.2,2.3,0.3,3.4c0.1,1.9,0.6,4.1-0.1,5.9c0.3-0.3,0.7-0.7,1-1c-0.2,0.1-0.3,0.1-0.5,0.2
	c-0.1,0-0.5,0.1-0.2,0.1c-0.1,0-0.5,0-0.3,0c0.2,0-0.2,0-0.2-0.1c0.3,0.1,0,0-0.1-0.1c-0.2-0.1,0.2,0.2,0,0c0,0-0.1-0.1-0.1-0.1
	c0-0.1-0.1-0.1-0.1-0.2c0,0,0.1,0.2,0.1,0.1c-0.1-0.1-0.2-0.3-0.2-0.4c0-0.1-0.2-0.4-0.1-0.2c-0.1-0.1-0.1-0.3-0.1-0.4
	c-0.1-0.3-0.2-0.6-0.2-0.9c0-0.2-0.1-0.3-0.1-0.5c0-0.2,0,0.1,0-0.2c0-0.3-0.1-0.7-0.1-1c-0.2-3,0.2-6-1-8.9
	c-0.9-2.1-2.4-3.5-4.5-4.3c-0.5-0.2-1,0.1-1.4,0.4c-3.1,2.6-1.5,7.8-0.6,11.1c0.4,1.4,0.8,2.7,1,4.1c0,0.1,0,0.3,0.1,0.4
	c0,0.1,0.1,0.4,0,0.3c0-0.2,0,0.3,0,0.3c0,0.2,0,0.4,0.1,0.6c0.1,0.7,0.1,1.4,0.1,2.2c0,0.3,0,0.6,0,1c0,0.2,0,0.3-0.1,0.5
	c0-0.3,0,0.2-0.1,0.3c-0.1,0.3-0.2,0.6-0.2,0.9c-0.1,0.3,0.1-0.1-0.1,0.1c-0.1,0.1-0.1,0.3-0.2,0.4c0.2-0.3,0,0-0.1,0.1
	c0,0.1-0.2,0.2,0.1,0c0,0-0.1,0.1-0.2,0.1c0,0-0.2,0.1-0.2,0.1c0,0,0.3-0.1,0.1-0.1c-0.1,0-0.5,0.1-0.2,0.1c-0.1,0-0.3,0-0.4,0
	c-0.3,0,0,0,0,0c-0.1,0-0.2,0-0.3-0.1c-0.2-0.1-0.4-0.1-0.5-0.2c0,0-0.3-0.1-0.1,0c-0.1,0-0.2-0.1-0.3-0.2c-0.2-0.1,0.1,0.1,0,0
	c-0.1-0.1-0.1-0.1-0.2-0.2c-0.2-0.2,0,0-0.2-0.2c-0.1-0.2-0.2-0.3-0.3-0.5c-0.2-0.3-0.1-0.2-0.2-0.5c-0.3-0.9-0.4-1.6-0.4-2.4
	c-0.1-1.7,0-3.1,0.9-4.6c0.5-1,1.2-2,1.4-3.2c0.2-1,0.3-2.1,0.3-3.2c0-2.2-0.9-4.6-3.5-4.5c-0.6,0-1.2,0.4-1.4,1
	c-1.1,3.5-0.3,7.3-0.2,10.9c0,0.9,0.1,1.8-0.1,2.7c-0.2,0.9-0.6,1.7-1,2.5c-0.4,0.7-0.8,1.4-1,2.2c-0.3,1-0.2,2,0,3
	c0.1,0.8,1.1,1.2,1.8,1c0.8-0.2,1.1-1,1-1.8c-0.3-1.6,0.5-2.5,1.2-3.9c0.9-1.9,1.1-3.7,1-5.8c-0.1-3.3-0.9-6.9,0.1-10.1
	c-0.5,0.3-0.9,0.7-1.4,1c0.1,0,0.2,0,0.3,0c-0.2,0,0,0,0,0c-0.3,0.1,0.1-0.1,0,0c0,0-0.1-0.2,0,0c-0.2-0.2,0.1,0.1,0.1,0.2
	c-0.1-0.2,0.1,0.3,0.1,0.4c0,0,0,0.3,0,0.1c0,0.1,0,0.2,0,0.3c0,0.2,0,0.4,0,0.6c0,0.4,0,0.8,0,1.2c-0.1,0.9-0.2,1.8-0.6,2.6
	c-0.5,1-1.1,1.9-1.4,2.9c-0.6,1.6-0.6,3.6-0.4,5.3c0.2,1.9,0.8,4,2.5,5.2c1.3,0.9,3.3,1.3,4.7,0.5c1.2-0.7,1.9-2.1,2.1-3.4
	c0.5-2.7,0.2-5.6-0.5-8.2c-0.5-2.1-1.2-4.1-1.6-6.2c-0.2-1-0.3-2-0.2-3c0-0.2,0-0.2,0.1-0.5c0.1-0.2,0.1-0.4,0.2-0.6
	c-0.1,0.2,0,0,0,0c0.1-0.1,0.1-0.2,0.2-0.4c0,0.1-0.1,0.2,0,0c0.1-0.1,0.2-0.2,0.3-0.3c-0.5,0.1-0.9,0.2-1.4,0.4
	c4.4,1.7,3.1,7.6,3.5,11.3c0.2,2,0.7,4.4,2.5,5.5c1,0.6,2.2,0.5,3.3,0.1c1.6-0.6,1.5-3,1.5-4.5c0-1.7-0.2-3.4-0.3-5.1
	c-0.1-1-0.3-2-0.5-3c-0.3-0.9-0.4-1.8-0.6-2.6c-0.2-0.8-1.3-1.4-2.1-0.9c-0.8,0.6-0.7,1.2-0.6,2.1c0.1,0.8,1.1,1.2,1.8,1
	C25.9,102,26.2,101.3,26,100.5L26,100.5z"/>
</svg>
