<?xml version="1.0" encoding="utf-8"?>
<!-- Generator: Adobe Illustrator 23.0.6, SVG Export Plug-In . SVG Version: 6.00 Build 0)  -->
<svg version="1.1" id="Lag_1" xmlns="http://www.w3.org/2000/svg" xmlns:xlink="http://www.w3.org/1999/xlink" x="0px" y="0px"
	 viewBox="0 0 226.8 226.8" style="enable-background:new 0 0 226.8 226.8;" xml:space="preserve">
<style type="text/css">
	.st0{fill:#543F2D;}
	.st1{fill:#9F8B77;}
	.st2{fill:#FFFFFF;}
</style>
<path class="st0" d="M127.5,48.5c-0.2-1.1,1.4-2.3,2.1-3c1.2-1.2,2.3-2.5,3.6-3.7c2.4-2.2,5.1-3.4,8.1-4.6c2.5-1,4.8-2.8,7.6-3.1
	c2.1-0.2,4.4-0.1,6.4,0.3c2,0.3,4.5,0.9,5.8,2.6c1.8,2.4,2.1,6.3,1.7,9.2c-0.4,3.3-1.8,6.3-3.4,9.2c-1.4,2.5-2.1,5-0.9,7.8
	c1.1,2.7,3.3,5.1,5.2,7.3c2,2.2,4.3,3.9,6.5,5.8c4,3.4,8.2,8.3,8.5,13.8c0.2,3.2-1.5,5.2-3.6,7.4c-2.1,2.1-4.3,4.1-6.5,6.2
	c-2.1,2.1-3.8,4.4-5.5,6.9c-1.4,2-3.8,2.7-6.1,3.1c-2.5,0.4-5,0.5-7.6,0.9c-3.2,0.5-6.5,0.5-9.8,0.1c-3.2-0.3-6.2-1-9.4-1.5
	c-1.6-0.2-3.2-0.5-4.8-0.5c-1.7-0.1-3.4,0.2-5.1-0.2c-1.4-0.3-2.6-0.8-4-0.8c-1.1-0.1-2.3,0-3.4-0.3c-2.1-0.6-4-3-4.5-5.1
	c-0.2-1.1-0.4-2.2-0.7-3.2c-0.5-1.5-1.3-2.9-2.1-4.2c-1.6-2.5-3.5-4.7-5.6-6.7c-2.2-2-4.6-3.7-7.2-5.2c-2.7-1.5-5.4-3.2-8.3-4.5
	c-2.7-1.3-5.6-2.4-8.6-2.8c-2.5-0.3-5.2-0.4-7.5,0.7c-2.4,1.1-3.4,3.5-4.2,5.9c-0.7,2.2-1.5,5.3-4.3,5.6c-2.5,0.3-5-1.5-6.4-3.5
	c-1.4-2.1-2.2-4.6-3.1-6.9c-1-2.6-2.2-5.3-0.1-7.7c2.1-2.4,4.9-4.2,7.7-5.8c2.8-1.6,5.7-3,8.5-4.6c3-1.7,5.9-3.5,9.1-4.8
	c3.1-1.2,6.4-2,9.6-3c3.3-1.1,6.7-1,10.1-1.4c6.9-0.8,13.7-2.8,20.7-2.9c1.7,0,3.5-0.2,5.3,0c1.5,0.1,2.9,0.7,4.4,1
	c1.6,0.2,2.3-2.2,0.7-2.4c-1.6-0.2-3-0.9-4.6-1c-1.9-0.2-3.8,0-5.7,0c-3.7,0-7.3,0.7-10.9,1.3c-3.8,0.7-7.7,1.4-11.5,1.7
	c-1.6,0.1-3.2,0.2-4.7,0.4c-1.9,0.2-3.7,0.8-5.6,1.4c-3.4,1-6.8,1.9-10,3.4c-3.3,1.5-6.4,3.4-9.5,5.2c-3,1.7-6.2,3.1-9.1,4.9
	c-2.5,1.6-5.7,3.7-7.2,6.4c-1.5,2.7-0.6,5.6,0.5,8.3c1,2.5,1.8,5.1,3.2,7.4c2.7,4.3,9.3,7.6,13.2,2.8c1.8-2.2,1.9-5.1,3.2-7.5
	c1.5-2.7,4.7-2.8,7.4-2.5c3.3,0.3,6.5,1.6,9.5,3.1c2.8,1.4,5.6,3,8.3,4.6c2.8,1.7,5.3,3.7,7.5,6.1c2.1,2.3,4.3,5.1,5.2,8.2
	c0.3,1.1,0.4,2.3,0.7,3.5c0.5,1.5,1.4,2.8,2.5,3.9c1.7,1.7,3.5,2.5,5.9,2.7c1.4,0.1,2.7,0.1,4,0.5c1.7,0.5,3.3,0.6,5.1,0.6
	c3.6-0.1,7.1,0.7,10.6,1.3c3.3,0.6,6.7,1,10.1,1c3.1,0,6.1-0.7,9.2-0.9c2.6-0.2,5.3-0.4,7.7-1.4c1.1-0.5,2-1.1,2.8-1.9
	c1-1.1,1.7-2.5,2.6-3.7c2-2.6,4.4-4.9,6.8-7.1c2.2-2.1,5-4.3,6.4-7c2.8-5.1,0-11.6-3.2-15.7c-1.9-2.4-4-4.5-6.5-6.4
	c-2.5-1.9-4.7-4.1-6.6-6.6c-2-2.6-4.5-5.2-3-8.7c0.6-1.4,1.4-2.6,2.1-4c0.8-1.7,1.5-3.5,1.9-5.3c1.2-5.2,0.7-12.9-4.8-15.5
	c-2.3-1-4.8-1.4-7.2-1.6c-2.6-0.2-5.1-0.1-7.5,0.9c-1.2,0.5-2.4,1.2-3.6,1.8c-1.6,0.8-3.3,1.3-4.9,2.1c-3.2,1.4-5.5,3.7-7.9,6.2
	c-1.8,1.9-4.5,3.8-3.9,6.7C125.4,50.8,127.8,50.1,127.5,48.5L127.5,48.5z"/>
<path class="st0" d="M130.2,57.6c0,0.2,0.1-0.2,0.2-0.4c0.2-0.4,0.4-0.7,0.7-1.1c0.6-0.9,1.2-1.7,1.8-2.5c1-1.4,1.9-2.8,2.9-4.1
	c0.7-1,1.9-1.5,3-1.9c1.2-0.5,2.5-1,3.8-1.5c3.2-1.3,6.8-2.6,10.3-1.8c-0.3-0.3-0.6-0.6-0.9-0.9c1.1,3.2-0.8,5.4-2.3,8
	c-0.7,1.3-1.4,2.7-2,4c-0.6,1.3-1.4,2.7-2.4,3.7c-0.9,0.8-2.4,0.5-3.4,0.2c-1.3-0.3-2.6-0.8-3.9-1c-1.5-0.3-3.2-0.3-4.6-1
	c-1.3-0.7-2.4-1.5-3.9-1.6c-1.6-0.1-1.6,2.4,0,2.5c1.2,0.1,2.4,1.2,3.4,1.7c1.4,0.6,3,0.6,4.4,0.9c2.3,0.4,4.6,1.5,7,1.4
	c2.6-0.2,3.9-2.4,5.1-4.4c1.3-2.4,2.5-4.8,3.9-7.2c1.3-2.2,2.2-4.5,1.5-7c-0.2-0.7-0.3-1.3-1-1.6c-0.6-0.3-1.5-0.3-2.2-0.4
	c-1.5-0.1-3.1,0.1-4.6,0.5c-2.8,0.7-5.5,1.9-8.1,2.9c-2.2,0.8-4.2,1.8-5.4,3.8c-0.9,1.5-2,2.8-3.1,4.2c-1,1.3-2.5,3-2.6,4.7
	C127.5,59.2,130.1,59.2,130.2,57.6L130.2,57.6z"/>
<g>
	<path class="st1" d="M70.4,101.8c0.3-0.1,3.5-2,3.7-2.1c0.8-2.6-1-6.6,2.2-8.5c2.3-1.3,5.9-0.4,8,0.9c1.7,1,3.3,1.8,5,2.7
		c1.9,1.1,3.3,2.9,5.2,3.9c3.3,1.7,6.8,2.2,7.7,6.6c0.5,2.2,1,7.2-1.9,7.7c-1.5,0.2-4.4-1.3-5.8-1.8c-1.7-0.6-3.2-1.5-4.8-2.3
		c-2.5-1.3-5.7-2.3-8.5-2.7c-2.2-0.4-10.4-0.5-10-4.2"/>
	<path class="st0" d="M70.7,103c0.8-0.3,1.5-0.8,2.3-1.2c0.4-0.2,0.8-0.5,1.2-0.7c0.1-0.1,0.3-0.1,0.4-0.2c-0.1,0-0.3,0.2,0,0
		c0.2-0.2,0.4-0.2,0.6-0.5c0.6-1,0.4-2.6,0.4-3.6c0-1.2-0.2-2.6,0.5-3.6c1.9-2.7,6.3-0.6,8.4,0.6c1.7,1,3.6,1.7,5.2,2.9
		c1.4,1.1,2.6,2.4,4.2,3.2c2.2,1.1,5.1,1.8,6.5,4c1.1,1.8,1.4,5,0.7,7c-0.8,2.3-4.3,0-5.8-0.6c-3.4-1.4-6.5-3.3-10-4.3
		c-2.6-0.8-5.1-1-7.8-1.4c-1.3-0.2-5.1-0.5-5-2.5c0.1-1.6-2.4-1.6-2.5,0c-0.4,4.9,7.3,5,10.5,5.4c3.5,0.5,7,1.8,10.2,3.5
		c1.5,0.8,3,1.4,4.6,2.1c1.4,0.6,2.7,1.3,4.2,1.4c6,0.7,4.8-9.2,2.7-12.2c-1.7-2.4-4.5-3.1-7-4.4c-1.7-0.9-3-2.3-4.6-3.4
		c-1.7-1.2-3.7-2-5.5-3c-2.9-1.7-7.3-2.8-10.1-0.5c-2.8,2.3-1.3,5.7-2.1,8.7c0.3-0.3,0.6-0.6,0.9-0.9c-0.7,0.2-1.3,0.7-1.9,1
		c-0.4,0.2-0.8,0.5-1.2,0.7c-0.2,0.1-0.9,0.5-0.6,0.4C68.5,101.1,69.2,103.5,70.7,103L70.7,103z"/>
</g>
<path class="st0" d="M46.4,77c0,5.4,1.7,10.4,3.2,15.6c1.7,5.7,2.3,11.4,3.2,17.2c0.5,3,1.3,6,1.8,9.1c0.6,3,1,6.1,1.6,9.1
	c0.6,2.9,1.5,5.7,2.2,8.6c0.6,2.7,0.6,5.6,1.5,8.2c0.9,2.8,2,5.4,2.5,8.3c0.5,2.8,0.5,5.7,0.5,8.6c0,5.1,0,10.3,0.9,15.4
	c0.5,2.5,1.2,4.9,2.2,7.2c1,2.4,2.5,4.4,3.9,6.5c0.6,1,1.2,2,2,2.8c0.8,0.9,1.9,1.5,2.9,2.1c2.1,1.4,3.1,3.8,4.6,5.8
	c1.6,2,3.6,3.3,6.1,4c1.2,0.4,2.5,0.7,3.7,1.1c1.3,0.4,2.6,1.1,3.9,1.6c2.6,1.1,5.1,1.5,7.9,1.4c2.9-0.1,5.7-0.2,8.6,0.3
	c2.9,0.5,5.6,0.7,8.5,0.6c3-0.1,6-0.3,9,0.4c1.4,0.3,2.8,0.6,4.2,0.7c1.5,0.1,3-0.2,4.5-0.1c1.4,0,2.7,0.5,4.1,0.9
	c1.3,0.3,2.6,0.4,3.9,0.3c5-0.2,10.1,0.3,15-0.5c1.9-0.3,3.8-0.9,5.3-2.1c1.8-1.3,2.7-3.2,3.5-5.2c1.9-5.2,3-10.5,2.9-16
	c0-6.2,0-12.3,0-18.5c0-3-0.2-6.1,0.2-9.1c0.4-2.8,1.3-5.6,1.8-8.4c0.5-2.9,0.9-5.8,1.6-8.7c0.6-2.8,1.4-5.6,2.2-8.4
	c0.8-2.8,1-5.5,1.4-8.3c0.3-3,1-5.9,1.6-8.9c0.6-2.8,1.1-5.7,1.2-8.6c0.1-3-0.3-6.1,0-9.1c0.2-2.9,1-5.7,1-8.6c0-1.6-2.5-1.6-2.5,0
	c0,2.9-0.8,5.7-1,8.6c-0.2,2.9,0.1,5.8,0,8.6c-0.1,5.8-2,11.3-2.7,17c-0.4,2.7-0.6,5.4-1.3,8.1c-0.8,2.8-1.6,5.5-2.2,8.4
	c-0.6,2.7-1,5.5-1.5,8.2c-0.5,2.8-1.3,5.5-1.8,8.2c-0.5,2.8-0.5,5.6-0.5,8.5c0,3,0,6,0,9c0,3,0,6,0,9c0,2.7,0.1,5.4-0.2,8.1
	c-0.4,2.7-1,5.4-1.9,7.9c-0.7,2.1-1.3,4.4-3.1,5.9c-3.1,2.6-7.9,2.1-11.7,2.1c-2.7,0-5.5,0.1-8.2,0.1c-2.8,0-5.3-1.3-8.1-1.2
	c-1.3,0-2.7,0.2-4,0.1c-1.5-0.1-3-0.6-4.4-0.8c-2.8-0.5-5.7-0.3-8.5-0.2c-2.9,0.1-5.6-0.1-8.5-0.6c-2.7-0.5-5.2-0.4-7.9-0.3
	c-1.4,0.1-2.8,0.1-4.1-0.1c-1.5-0.2-2.8-0.8-4.2-1.4c-2.3-1-4.6-1.7-7-2.4c-2.6-0.8-4.3-2.4-5.8-4.6c-1.3-2-2.6-3.9-4.6-5.2
	c-1-0.7-1.9-1.3-2.6-2.3c-0.7-0.9-1.3-2-2-2.9c-1.5-2.1-2.7-4.3-3.6-6.8c-1.7-4.8-2.1-9.8-2.1-14.8c-0.1-5.3,0.3-10.5-0.9-15.7
	c-0.6-2.8-1.9-5.3-2.6-8c-0.6-2.6-0.7-5.2-1.4-7.8c-0.7-2.9-1.6-5.7-2.1-8.6c-0.5-2.9-1-5.8-1.5-8.6c-0.5-3-1.3-5.9-1.8-8.8
	c-0.5-2.9-0.9-5.9-1.3-8.9c-0.8-5.3-2.7-10.2-4-15.4c-0.6-2.5-1-5.1-1-7.7C48.9,75.3,46.4,75.3,46.4,77L46.4,77z"/>
<path class="st0" d="M158.7,87c0.1-0.3,0.1-0.5,0.2-0.8c0-0.1,0-0.1,0.1-0.2c0.1-0.2-0.1,0.2,0,0c0.1-0.1,0.1-0.2,0.2-0.3
	c0.1-0.1,0.1-0.2,0.2-0.3c0.1-0.1,0.2-0.3,0-0.1c0.1-0.2,0.3-0.3,0.5-0.5c0.2-0.2-0.1,0,0.1-0.1c0.1-0.1,0.2-0.1,0.3-0.2
	c0.1,0,0.2-0.1,0.2-0.1c0,0,0.1,0,0.1-0.1c0.1-0.1-0.3,0.1,0,0c0.2,0,0.4-0.1,0.5-0.2c0.1,0,0.2,0,0.3-0.1c-0.3,0.1,0,0,0.1,0
	c0.2,0,0.4,0,0.6,0c0.1,0,0.2,0,0.3,0c0.2,0-0.3-0.1-0.1,0c0.1,0,0.1,0,0.2,0c0.2,0,0.4,0.1,0.6,0.1c0.1,0,0.2,0.1,0.3,0.1
	c0.1,0,0.1,0,0.2,0.1c0.2,0.1-0.2-0.1,0,0c0.4,0.2,0.8,0.4,1.1,0.6c0.1,0.1-0.2-0.2,0.1,0.1c0.1,0.1,0.1,0.1,0.2,0.2
	c0.1,0.1,0.1,0.1,0.2,0.2c0,0,0.3,0.3,0.2,0.2c-0.1-0.1,0.1,0.1,0.1,0.2c0.1,0.1,0.1,0.2,0.2,0.3c0.1,0.1,0.2,0.4,0.1,0.1
	c0,0.1,0.1,0.2,0.1,0.3c0,0.1,0.1,0.2,0.1,0.4c0,0,0,0.1,0,0.1c0.1,0.3,0-0.3,0,0c0,0.3,0,0.5,0,0.8c-0.1,0.7,0.6,1.2,1.2,1.2
	c0.7,0,1.2-0.6,1.2-1.2c0.4-4.8-6.1-8-9.8-5.3c-1.2,0.9-2,2.2-2.3,3.7c-0.1,0.7,0.2,1.4,0.9,1.5C157.8,88,158.6,87.6,158.7,87
	L158.7,87z"/>
<g>
	<path class="st1" d="M128.8,83.6c0-1.8-1.9-2-3.4-2.7c-2-1-3.1-2.2-3.4-4.4c-0.4-3.4,3.5-6.1-1.6-7.5c-3.9-1-8.4-0.5-12.5-0.5
		c-2.3,0-9.5,1-11.2-0.4c1-3.4,0.5-4-2.7-5.9c-2.5-1.5-4.5-3.1-7.1-0.2c-1.6,1.7-2.2,5.2-1.9,7.4c0.2,1.3,1.6,2.9,1.3,4.1
		c-0.2,1.3-9,4.6-9.2,5.8c2.8,2.3,9.2,2.4,11.8,5.5c2.3,2.7,4.7,2.1,6.6,4.5c1.7,2.1,7.1,2.1,9.7,2.2c3.6,0.1,6.5-0.1,7.9-3.7
		c0.7,2.3,3.4,2.6,4.9,4.2c0.8,0.8,0.7,2,2,2.4c1.2,0.4,4.4-0.8,5.5-1.1c1.4-0.5,2.6-1.3,4-1.7c0.9-0.3,1.9,0.3,2.6-0.4
		c1-1.1-3.6-6.8-3.6-8.2"/>
	<path class="st0" d="M130,83.6c-0.2-3.6-4.3-3-6.1-5.3c-1.8-2.4,0.5-4.6,0.4-7.1c-0.1-3.4-5.3-3.8-7.8-3.9
		c-3.5-0.2-7.2-0.1-10.8,0.2c-1.6,0.1-3.2,0.2-4.8,0.3c-1.1,0-2.7,0.1-3.7-0.6c0.2,0.5,0.4,0.9,0.6,1.4c0.4-1.3,0.7-2.8,0.2-4.1
		c-0.5-1.2-1.6-2-2.7-2.7c-1.4-0.9-2.9-2-4.6-2.4c-1.7-0.4-3.3,0.3-4.5,1.5c-2.3,2.2-3.5,6.9-2.3,9.9c0.3,0.6,0.6,1.7,1,2.3
		c0.1,0.1,0,0.6,0.1,0.1c0-0.1,0.2-0.2,0,0c-0.1,0.1-0.2,0.2-0.3,0.3c-0.9,0.7-2,1.2-3,1.7c-1.3,0.7-2.6,1.3-3.9,2
		c-0.8,0.5-1.8,1.1-2.1,2.1c-0.1,0.4,0,0.9,0.3,1.2c2.2,1.8,5.1,2.3,7.8,3.2c1.3,0.4,2.6,0.9,3.6,1.9c1.3,1.2,2.3,2.2,4,2.9
		c0.7,0.3,1.3,0.5,1.9,0.9c0.6,0.4,1,1,1.6,1.5c1,0.9,2.4,1.3,3.6,1.5c2.6,0.5,5.5,0.6,8.1,0.6c3.4-0.1,6.1-1.4,7.4-4.6
		c-0.8,0-1.6,0-2.4,0c0.6,1.7,1.9,2.6,3.4,3.5c0.7,0.4,1.5,0.8,2,1.4c0.5,0.6,0.6,1.4,1.2,1.9c1.2,1.1,3,0.8,4.4,0.4
		c1.5-0.4,3.1-1,4.5-1.6c1-0.5,1.9-1,2.9-1c0.9,0,1.8,0,2.4-0.8c0.8-0.9,0.5-2,0.1-2.9c-0.5-1.3-1.3-2.5-2-3.6
		c-0.3-0.6-0.7-1.1-1-1.7c-0.1-0.2-0.2-0.4-0.3-0.6c0-0.1-0.1-0.6-0.1-0.3c-0.1-1.6-2.6-1.6-2.5,0c0.1,1.8,1.7,3.7,2.5,5.2
		c0.3,0.5,0.6,1,0.8,1.6c0.1,0.2,0.2,0.8,0.4,1c0-0.1,0-0.1,0,0.1c0.2-0.2,0.1-0.4-0.1-0.4c-0.2-0.1-0.8-0.1-1,0
		c-0.8,0.1-1.6,0.4-2.4,0.8c-1.3,0.6-2.6,1.2-4,1.6c-0.9,0.3-2.6,1-3.3,0.2c-0.4-0.5-0.5-1.1-0.9-1.6c-0.4-0.5-1-0.9-1.6-1.3
		c-1.1-0.7-2.7-1.2-3.2-2.6c-0.4-1.2-1.9-1.1-2.4,0c-1.4,3.3-5,2.8-7.9,2.7c-1.6-0.1-3.3-0.1-4.9-0.5c-0.6-0.1-1.3-0.3-1.9-0.6
		c-0.7-0.4-1.1-1-1.7-1.5c-1.3-1.1-3-1.5-4.5-2.4c-0.8-0.6-1.4-1.4-2.2-2c-0.6-0.5-1.3-0.9-2-1.3c-1.5-0.7-3.1-1.1-4.6-1.6
		c-1.5-0.4-3.1-0.9-4.3-1.8c0.1,0.4,0.2,0.8,0.3,1.2c-0.1,0.4-0.1,0.2,0.1,0c0.4-0.3,0.8-0.5,1.2-0.7c0.9-0.5,1.9-1,2.9-1.5
		c1.5-0.8,3.5-1.5,4.6-2.8c0.8-0.9,0.5-2.1,0.1-3.1c-0.3-0.7-0.7-1.4-0.9-2.1c-0.2-0.7-0.1-1.4-0.1-2.1c0.2-2.7,1.9-6.9,5.2-5.2
		c1.3,0.7,2.9,1.5,3.9,2.5c0.9,0.9,0.4,2,0.1,3.1c-0.2,0.6,0.1,1.1,0.6,1.4c1.8,1.3,4.9,1,6.9,0.8c2.8-0.1,5.7-0.3,8.5-0.4
		c2-0.1,4.1-0.1,6.1,0.1c0.9,0.1,3.7,0.2,4.2,1.3c0.3,0.7-0.6,2.1-0.7,2.7c-0.4,1.3-0.5,2.7-0.1,4c0.5,1.5,1.5,2.7,2.9,3.6
		c0.7,0.5,1.5,0.8,2.3,1.1c0.5,0.2,1.3,0.4,1.4,1.1C127.6,85.2,130.1,85.2,130,83.6L130,83.6z"/>
</g>
<g>
	<path class="st1" d="M170.2,103.9c-3.8,0.4-2.3-3.8-5.3-5c-2-0.8-66.7-11.4-65.8-9.3c3.8,9.3,15.6,22.3,17.3,22.7
		c1.7,0.4,30.1,8.4,37.5,4.2C159.6,113.2,170.2,103.9,170.2,103.9z"/>
	<path class="st0" d="M170.2,102.7c-1.8,0.1-1.8-1.3-2.5-2.6c-0.6-1.1-1.5-2-2.7-2.4c-0.9-0.3-1.9-0.4-2.9-0.6
		c-4.5-0.9-9.1-1.6-13.7-2.4c-12.4-2-24.9-4-37.4-5.6c-3.6-0.5-7.4-1.1-11-1c-1.2,0-2.6,0.4-2.2,2c0.6,1.9,1.8,3.8,2.8,5.4
		c1.2,2,2.5,3.9,3.8,5.7c2.4,3.2,4.9,6.4,7.7,9.3c1.2,1.2,2.5,2.7,4.2,3.2c5.3,1.4,10.6,2.7,16,3.7c3.7,0.7,7.4,1.3,11.1,1.5
		c2.9,0.2,6,0.3,8.8-0.4c3.2-0.9,6-3.4,8.6-5.3c3-2.3,5.8-4.6,8.7-7c0.5-0.4,1-0.8,1.5-1.3c1.2-1.1-0.6-2.8-1.8-1.8
		c-4.6,4-9.4,8.1-14.5,11.4c-1.1,0.7-2,1.3-3.2,1.6c-1.2,0.3-2.5,0.4-3.7,0.4c-3.3,0.1-6.7-0.3-10-0.8c-6.2-0.9-12.4-2.3-18.5-3.9
		c-0.7-0.2-1.5-0.4-2.2-0.6c-0.2,0-0.3-0.1-0.5-0.1c-0.2-0.1,0.3,0.1,0,0c-0.1,0-0.4-0.3-0.3-0.2c-2.4-1.8-4.3-4.3-6.2-6.5
		c-2.7-3.3-5.3-6.8-7.5-10.5c-0.5-0.8-1-1.7-1.4-2.5c-0.2-0.5-0.5-0.9-0.7-1.4c-0.1-0.2-0.1-0.4-0.2-0.5c-0.3-0.4,0,0-0.1,0.4
		c-0.1,0.5-0.4,0.6-0.7,0.8c0,0,0.1,0,0.1,0c0.2-0.1-0.1,0-0.1,0c0.1,0,0.2,0,0.3,0c3.3,0,6.7,0.4,10,0.9
		c11.9,1.5,23.8,3.3,35.6,5.3c4.8,0.8,9.6,1.6,14.4,2.4c1.3,0.2,2.6,0.5,3.9,0.7c1.7,0.4,1.9,1.7,2.7,3.2c0.8,1.5,2.2,2.2,3.8,2.1
		C171.8,105,171.8,102.5,170.2,102.7z"/>
</g>
<g>
	<path class="st2" d="M71.7,50.9c-0.3-1.6-2.8-1.6-3.9-2.6c-1.3-1.1-1.6-3.5-3.3-4c-0.7-0.2-1.4,0.1-2.1,0c-1.2-0.2-1.8-0.9-2.9-1.4
		c-1.1-0.5-2.1-0.8-3.1-1.3c-2.1-1.1-4.1-1.9-5.7-3.7c-1.8-2-2.3-3.6-5.2-3.7c-1.7-0.1-2,0.3-2.1-1.3c0-0.8,0.5-1.8,0.7-2.5
		c0.7-2.3,1.9-4.4,2.7-6.7c0.5-1.3,1.3-5.3,2.7-5.5c0.8,1.5,1.5,2.1,1.6,3.7c2.1-0.8,2.7-0.6,3.4,1.2c0.5,1.4,1.2,2.7,1.9,4
		c0.4,0.7,1,1.4,1.2,2.2c0.2,0.6-0.1,1.6,0.2,2.2c0.5,1,2.1,2.7,3.2,2.7c0.4-1.5,2.1-5.8,1.4-6.9c-0.7-1-5.1,0.4-5.3-0.8
		c-0.5-3-0.8-4.4-3.4-6.2c-3.2-2.2,0.7-3.2,2.7-4c2.3-1,4.5-1.1,6.9-2.2c1.4-0.7,2.6-1.3,3.1,0.6c0.3,1.3,0,3,0,4.4
		c0,2.4,11.2,5.4,11.2,7.8c0,3.1-10.4,5.4-10.5,8.5c0,0.7,7.8-2.9,11.7-1.4c3.9,1.5-5.1,10.1,2.9,11.4
		C88.3,46.4,71.7,50.9,71.7,50.9z"/>
	<path class="st0" d="M71,52.1l-0.2-1.1c-0.1-0.4-0.7-0.7-1.6-1c-0.7-0.3-1.4-0.5-1.9-1c-0.7-0.6-1.1-1.3-1.5-2.1
		c-0.5-0.8-0.8-1.6-1.5-1.8c-0.2-0.1-0.5,0-0.8,0c-0.4,0-0.7,0.1-1.2,0c-1-0.1-1.7-0.6-2.3-1c-0.3-0.2-0.6-0.4-0.9-0.5
		c-0.5-0.2-0.9-0.4-1.4-0.6c-0.6-0.2-1.2-0.4-1.8-0.7c-0.3-0.2-0.6-0.3-0.9-0.5c-1.8-0.9-3.5-1.8-5.1-3.4c-0.4-0.5-0.8-0.9-1.1-1.3
		c-1.1-1.3-1.6-2-3.4-2.1c-0.3,0-0.6,0-0.8,0c-1.4,0-2.2-0.3-2.2-2.3c0-0.7,0.3-1.5,0.5-2.2c0.1-0.2,0.2-0.4,0.2-0.6
		c0.4-1.4,1-2.8,1.6-4c0.4-0.9,0.8-1.8,1.1-2.7c0.1-0.2,0.2-0.6,0.3-1c0.8-2.6,1.6-4.9,3.1-5.1l0.7-0.1l0.3,0.6
		c0.2,0.4,0.4,0.7,0.6,1c0.4,0.6,0.7,1.2,0.9,1.9c0.1,0,0.3-0.1,0.4-0.1c-0.5-0.5-0.9-1.1-0.8-2c0.2-1.5,2-2.2,3.7-2.8
		c0.3-0.1,0.6-0.2,0.9-0.3c1.1-0.5,2.3-0.8,3.4-1.1c1.2-0.3,2.3-0.6,3.4-1.1l0.2-0.1c1-0.5,2-0.9,3-0.5c0.6,0.3,1.1,0.9,1.3,1.9
		c0.3,1,0.2,2.2,0.1,3.3c0,0.5-0.1,0.9-0.1,1.3c0.2,0.7,3.2,2.1,5,3c3.8,1.9,6.1,3.1,6.1,4.8c0,2.2-2.8,3.6-5.8,5.2
		c-1,0.5-2.3,1.2-3.3,1.8c2.7-0.8,6.9-1.9,9.7-0.8c2.5,1,1.6,3.7,0.9,5.9c-0.5,1.6-1.1,3.3-0.5,4.3c0.3,0.6,1.1,0.9,2.4,1.1
		c0.6,0.1,2.3,0.4,2.4,1.7c0,0.7,0.1,2.4-12.3,5.8L71,52.1z M64,43.2c0.3,0,0.6,0,0.9,0.1c1.4,0.5,2.1,1.7,2.7,2.7
		c0.3,0.6,0.6,1.2,1,1.5c0.3,0.2,0.8,0.5,1.3,0.7c0.8,0.3,1.8,0.7,2.4,1.5c3.7-1,7.7-2.4,9.4-3.3c0,0,0,0-0.1,0
		c-1.9-0.3-3.1-1-3.8-2.1c-1.1-1.8-0.3-4,0.3-6c0.8-2.4,0.9-3.1,0.3-3.4c-2.3-0.9-6.4,0.3-8.9,1c-1.9,0.6-2.5,0.7-3.1,0.3l-0.4-0.3
		l0-0.6c0-2.1,2.8-3.6,5.8-5.1c1.9-1,4.7-2.4,4.7-3.4c-0.2-0.7-3.2-2.1-5-3c-3.8-1.9-6.1-3.1-6.1-4.8c0-0.5,0-0.9,0.1-1.4
		c0.1-1,0.1-1.9-0.1-2.7c-0.1-0.4-0.2-0.5-0.2-0.5c-0.2,0-0.9,0.3-1.3,0.5L63.6,15c-1.3,0.6-2.6,0.9-3.8,1.2c-1.1,0.3-2.1,0.5-3.1,1
		c-0.3,0.1-0.6,0.2-1,0.4c-0.7,0.3-2.2,0.8-2.4,1.2c0,0,0.2,0.3,0.8,0.7C57,21.4,57.5,23,58,26c0.4,0,1.1,0,1.6,0
		c1.5-0.1,2.9-0.2,3.6,0.8c0.8,1.1,0.1,3.3-0.8,6.1C62.2,33.5,62,34,62,34.4l-0.2,0.7l-0.7,0c-1.8,0.1-3.7-2.3-4.2-3.2
		c-0.3-0.6-0.3-1.1-0.2-1.7c0-0.3,0-0.5,0-0.7c-0.1-0.4-0.4-0.8-0.7-1.3c-0.2-0.2-0.3-0.5-0.4-0.7c-0.9-1.5-1.5-2.9-2-4.2
		c-0.3-0.9-0.5-1-0.5-1c-0.1,0-0.4-0.1-1.5,0.4l-1.3,0.5l-0.1-1.3c-0.1-1-0.4-1.5-0.8-2.3c-0.5,0.9-0.9,2.5-1.1,3.1
		c-0.1,0.5-0.3,0.9-0.4,1.1c-0.4,1-0.8,1.9-1.2,2.9c-0.6,1.3-1.1,2.5-1.5,3.8c-0.1,0.2-0.2,0.5-0.3,0.7c-0.2,0.5-0.4,1.1-0.4,1.5
		c0,0.1,0,0.2,0,0.3c0.1,0,0.1,0,0.2,0c0.2,0,0.5,0,0.9,0c2.7,0.1,3.7,1.4,4.8,2.8c0.3,0.4,0.6,0.8,1,1.2c1.3,1.4,2.8,2.1,4.5,3
		c0.3,0.2,0.6,0.3,1,0.5c0.5,0.3,1,0.5,1.6,0.7c0.5,0.2,1,0.4,1.5,0.6c0.4,0.2,0.8,0.4,1.1,0.7c0.5,0.3,0.9,0.6,1.5,0.7
		c0.2,0,0.4,0,0.7,0C63.4,43.2,63.7,43.2,64,43.2z M58.1,28c0.2,0.4,0.4,0.7,0.5,1.1c0.1,0.4,0.1,0.8,0.1,1.2c0,0.3,0,0.6,0.1,0.8
		c0.3,0.6,1,1.4,1.6,1.8c0.1-0.2,0.1-0.4,0.2-0.6c0.4-1.1,1.1-3.5,1-4.3c-0.4-0.1-1.3,0-1.8,0C59.2,28,58.6,28,58.1,28z"/>
</g>
<g>
	<path class="st2" d="M136.4,84.5c0.3-2.4,7.5-2.7,9.7-2.7c4.3,0,9.3,0.3,11.9,3.7c1.7,2.2,2.8,6.3,1.9,8.9c-0.9,2.6-4,3.3-5.8,5.3
		c-1.6,1.8-2.3,3.6-4.6,4.9c-1.3-2.7,5.8-8-0.1-10.3c-2.1-0.8-7.2-0.2-9.4,0c4.3-0.6,5-4,3.9-7.1c-2.4-0.3-3.5-0.2-5.1-1.9
		c-0.8-0.8,0.2-2.6-2.1-1.7c-0.6,1.5-0.1,3.2-0.2,4.8c-0.1,2.4-1.1,2.9-3.8,4c-1.8,0.8-3.8,1.2-5.6,1.9c-0.9,0.4-1.7,1.2-2.7,1.4
		c-1.4,0.4-2.6-0.1-4,0.2c-0.1,2.9,3.6,4.1,5.4,6.1c0.6,0.7,6.5,7.2,7.4,7.5c0.9,0.4-6.2-5.4-5.5-5.9c4.5-3.2,16.3-5.5,22.3-5.5"/>
	<path class="st0" d="M137.6,84.9c0.1-0.6,1.2-0.9,1.8-1.1c1.2-0.3,2.4-0.5,3.6-0.6c2.6-0.2,5.2-0.2,7.7,0.1
		c3.2,0.4,5.9,1.7,7.3,4.7c0.7,1.5,1.1,3.2,0.9,4.8c-0.1,1.6-1,2.5-2.3,3.4c-1.4,0.9-2.8,1.8-3.9,3.1c-1.3,1.5-2.2,3.2-4,4.3
		c0.6,0.2,1.2,0.5,1.8,0.7c-0.5-1.2,0.9-3,1.4-4c0.7-1.6,1.4-3.4,0.4-5.1c-2.3-4-8.9-2.5-12.6-2.2c0.1,0.8,0.2,1.6,0.3,2.5
		c2-0.3,3.8-1.3,4.7-3.2c0.8-1.7,0.7-3.7,0.1-5.4c-0.2-0.6-0.6-0.8-1.2-0.9c-1.3-0.2-2.7-0.2-3.7-1c-0.5-0.4-0.4-0.3-0.6-0.9
		c-0.1-0.4-0.1-0.7-0.4-1.1c-0.7-1-2.1-1-3.1-0.5c-1.4,0.8-1.1,3.3-1,4.6c0.1,1,0.2,2.3-0.6,3c-1.2,1-3,1.4-4.4,1.9
		c-1.6,0.5-3.3,0.9-4.8,1.8c-0.8,0.5-1.4,0.8-2.4,0.9c-1,0-2-0.1-3,0.1c-0.5,0.1-0.9,0.7-0.9,1.2c0,2.5,1.9,4,3.7,5.3
		c1.4,1,2.4,2.1,3.5,3.3c1.3,1.5,2.7,2.9,4.1,4.3c0.8,0.8,2.1,2.5,3.4,1.8c0.4-0.2,0.6-0.6,0.6-1.1c0-0.8-0.7-1.3-1.3-1.8
		c-0.8-0.7-1.6-1.4-2.4-2.2c-0.6-0.6-1.4-1.5-1.9-2c-0.3-0.3,0-0.2-0.1-0.1c-0.6,1-0.6,1.3-0.2,1c0.1-0.1,0.2-0.1,0.3-0.2
		c0.6-0.2,1.2-0.7,1.9-1c3-1.4,6.3-2.2,9.6-2.8c3.2-0.6,6.4-1.1,9.6-1.1c1.6,0,1.6-2.5,0-2.5c-5.6,0-11.4,1.1-16.7,2.8
		c-1.3,0.4-2.6,0.9-3.8,1.4c-0.9,0.4-2.1,0.9-2.7,1.6c-1.2,1.4,0.8,3.1,1.8,4c0.8,0.8,1.6,1.5,2.4,2.2c0.3,0.3,0.6,0.6,0.9,0.8
		c0.1,0.1,0.2,0.3,0.3,0.3c0.2,0.1-0.2-0.1-0.2-0.6c0.2-0.4,0.4-0.7,0.6-1.1c1.1,0.2,1.4,0.2,1.1-0.1c0,0,0,0-0.1,0
		c0-0.1,0.1,0.1-0.1-0.1c-0.2-0.2-0.4-0.4-0.6-0.6c-0.5-0.5-1.1-1-1.6-1.6c-1.2-1.2-2.3-2.4-3.5-3.7c-0.8-0.9-1.6-1.8-2.6-2.6
		c-1.3-1-3.7-2.1-3.7-4.1c-0.3,0.4-0.6,0.8-0.9,1.2c1.2-0.2,2.5,0.1,3.8-0.2c1-0.2,1.8-0.9,2.7-1.4c2.1-1.2,4.7-1.6,7-2.6
		c1.4-0.6,2.7-1.3,3.2-2.8c0.8-2.1-0.2-4.3,0.5-6.4c-0.3,0.3-0.6,0.6-0.9,0.9c0.1,0,0.6-0.2,0.7-0.2c-0.4-0.5-0.6-0.7-0.5-0.4
		c0,0.1,0,0.1,0,0.2c0,0.2,0.1,0.5,0.1,0.7c0.2,0.8,0.8,1.4,1.5,1.9c1.5,1.1,3.3,1.2,5.1,1.5c-0.4-0.3-0.8-0.6-1.2-0.9
		c0.4,1.1,0.6,2.4,0.1,3.5c-0.5,1.3-1.9,1.8-3.2,2c-1.4,0.2-1.1,2.6,0.3,2.5c2.1-0.2,4.2-0.4,6.4-0.4c1.3,0,4,0.1,4.2,1.8
		c0.2,1.3-0.9,2.7-1.5,3.8c-0.6,1.2-1.4,2.8-0.8,4.2c0.3,0.7,1.1,1.2,1.8,0.7c1.9-1.1,3-2.7,4.3-4.3c1.2-1.5,2.8-2.3,4.3-3.5
		c3.2-2.4,3.4-6.3,2.1-9.9c-1.3-3.7-4-6.1-7.9-6.9c-3.2-0.7-6.6-0.7-9.8-0.5c-2.3,0.2-7.3,0.4-7.9,3.5
		C134.9,85.8,137.4,86.4,137.6,84.9L137.6,84.9z"/>
</g>
<g>
	<path class="st2" d="M120.3,95.9c-2.1-0.5-1.8-3.1-2.2-4.7c-2.8,1.5-5.3,6-6.9,8.8c-1.2,2.1-1.7,5-0.4,7.4c1.5,2.7,5.5,4.3,8.4,4.6
		c1.6,0.2,3.2-0.2,4.9,0.2c1.6,0.4,11.4-1.6,9.8-2.3C120.1,103.5,120.3,95.9,120.3,95.9z"/>
	<path class="st0" d="M120.6,94.7c-1.3-0.4-1.1-2.8-1.3-3.8c-0.2-0.8-1.2-1.1-1.8-0.7c-2.6,1.5-4.4,4.3-6,6.8
		c-1.7,2.7-3.2,5.5-2.6,8.8c0.5,3.1,3,5.1,5.8,6.3c1.3,0.6,2.7,1,4.2,1.2c0.9,0.1,1.8,0.1,2.8,0.1c0.9,0,1.7,0.1,2.6,0.2
		c1.7,0.2,3.6-0.3,5.2-0.6c1.6-0.3,3.6-0.6,5-1.4c0.7-0.4,1.1-1.3,0.7-2.1c-0.3-0.5-0.7-0.6-1.2-0.8c-0.9-0.4-1.8-0.9-2.7-1.4
		c-2.5-1.4-4.8-3-6.7-5.1c-1.2-1.3-2.2-2.9-2.7-4.4c-0.1-0.3-0.2-0.5-0.2-0.8c0-0.1-0.1-0.8-0.1-0.4c0-0.2,0-0.3,0-0.5
		c0-1.6-2.5-1.6-2.5,0c0,1.6,0.7,3.3,1.5,4.7c2.2,3.9,6,6.7,9.8,8.8c0.7,0.4,1.5,0.8,2.2,1.1c0.2,0.1,0.6,0.4,0.9,0.4
		c-0.1-0.6-0.1-1.1-0.2-1.7c0.2-0.1,0.2-0.1,0.1-0.1c-0.2,0-0.3,0.1-0.5,0.2c-0.4,0.1-0.8,0.3-1.2,0.4c-1.7,0.5-3.4,0.8-5.1,1
		c-0.6,0.1-1.3,0.2-1.9,0.1c-0.4,0,0.2,0,0,0c-0.4,0-0.8-0.2-1.2-0.2c-1-0.1-2.1,0.1-3.1,0c-2.5-0.1-5.3-1-7.1-2.7
		c-2.7-2.5-1.5-6,0.1-8.7c1.5-2.5,3.1-5.5,5.7-7.1c-0.6-0.2-1.2-0.5-1.8-0.7c0.4,2.3,0.3,4.8,3,5.6
		C121.5,97.5,122.2,95.1,120.6,94.7z"/>
</g>
<g>
	<path class="st0" d="M80.7,23.6c0.6-0.2,1-0.5,1.5-0.9c0.6-0.5,1.3-0.9,2-1.3c1.4-0.8,3.1-1.7,4.7-2c1.5-0.2,3.7,0.3,5,1
		c1.4,0.7,2.7,1.7,3.7,2.9c1.1,1.4,2.1,3,3,4.5c0.4,0.7,0.7,1.4,1.2,2.1c0.4,0.6,1,1.2,1.4,1.8c0.4,0.7,0.5,1.4,0.8,2.1
		c0.3,0.8,0.8,1.6,1,2.4c0.3,0.8,0.3,1.7,0.4,2.5c0.1,0.5,0.4,1.3,0.2,1.7c0.8,0,1.6,0,2.4,0c-0.3-0.8,0.3-1.8,0.5-2.6
		c0.4-1.4,1.1-2.7,1.8-4c0.7-1.3,1.3-2.5,2-3.8c0.5-1,0.8-2.2,1.6-3c0.8-0.8,0-2.6-1.2-2.1c-0.2,0.1-0.3,0.1-0.5,0.2
		c-1.5,0.5-0.9,2.9,0.7,2.4c0.2,0,0.3-0.1,0.5-0.2c-0.4-0.7-0.8-1.4-1.2-2.1c-0.9,0.9-1.3,2.1-1.9,3.3c-0.8,1.6-1.7,3.2-2.5,4.8
		c-0.7,1.3-1.3,2.7-1.7,4.1c-0.4,1.1-0.8,2.4-0.4,3.5c0.4,1.1,2.1,1.2,2.4,0c0.2-0.7,0.1-1.3-0.1-2c-0.1-0.9-0.2-1.8-0.4-2.7
		c-0.2-1-0.6-1.9-1-2.8c-0.4-0.8-0.6-1.7-1-2.6c-0.4-0.8-0.9-1.4-1.5-2.1c-0.6-0.8-0.9-1.6-1.4-2.5c-1-1.7-2.1-3.5-3.4-5
		c-2.4-2.8-5.8-4.5-9.5-4.7c-1.9-0.1-3.8,0.8-5.5,1.6c-0.9,0.4-1.7,0.9-2.6,1.4c-0.3,0.2-0.7,0.4-1,0.7c-0.2,0.2-0.5,0.6-0.8,0.7
		C78.5,21.6,79.2,24,80.7,23.6L80.7,23.6z"/>
	<path class="st0" d="M105.2,41c0.1,0.2,0.1,0.3,0.2,0.5c0.5,1.5,2.8,0.9,2.4-0.7c-0.2-0.8-0.7-1.4-1.2-2c-0.5-0.6-0.9-1.2-1.6-1.7
		c-1.1-0.9-2-2-3.2-2.8c-1.2-0.9-2.7-1.5-4.1-1.9C97,32.2,96.1,32,95.3,32c-0.3,0-0.6,0.1-0.9,0.1c-0.4,0-0.8-0.1-1.2-0.1
		c-0.7,0.1-1.2,0.5-1.2,1.3c0,0.6,0.6,1.3,1.2,1.2c0.3,0,0.5,0,0.8,0.1c0.3,0,0.6,0,1,0c0.6-0.1,1.2,0.1,1.7,0.3
		c1.2,0.4,2.6,0.9,3.6,1.6c0.9,0.7,1.7,1.7,2.6,2.4c0.5,0.4,0.9,0.8,1.4,1.3c0.3,0.4,0.8,0.9,1,1.4c0.8-0.2,1.6-0.4,2.4-0.7
		c-0.1-0.2-0.1-0.3-0.2-0.5C107.1,38.9,104.7,39.5,105.2,41L105.2,41z"/>
</g>
</svg>
