<?xml version="1.0" encoding="utf-8"?>
<!-- Generator: Adobe Illustrator 23.0.6, SVG Export Plug-In . SVG Version: 6.00 Build 0)  -->
<svg version="1.1" id="Lag_1" xmlns="http://www.w3.org/2000/svg" xmlns:xlink="http://www.w3.org/1999/xlink" x="0px" y="0px"
	 viewBox="0 0 226.8 226.8" style="enable-background:new 0 0 226.8 226.8;" xml:space="preserve">
<style type="text/css">
	.st0{fill:#EFEDDF;stroke:#9F8B77;stroke-width:0.5;stroke-miterlimit:10;}
	.st1{fill:#FFFFFF;}
	.st2{opacity:0.4;}
	.st3{fill:#9F8B77;}
</style>
<g>
	
		<image style="overflow:visible;opacity:0.5;" width="582" height="336" xlink:href="463C7747DFB51455.png"  transform="matrix(0.24 0 0 0.24 43.9761 56.8561)">
	</image>
	<g>
		<g>
			<path class="st0" d="M51.7,70.3c1-3.2,3.6-5.7,6.9-6.6l5.2-1.4c0.7-0.2,1.4-0.3,2.1-0.3L96.9,60h36.7l22.1,2l7.4,1.5
				c1.8,0.4,3.5,1.2,4.8,2.5l0.2,0.2c1.8,1.7,2.9,4,3.1,6.5l0.6,8v19.4l-0.8,9.7c-0.1,0.8-0.2,1.5-0.4,2.2l-1.5,4.7
				c-0.6,2-2.1,3.6-4,4.4c-0.9,0.4-1.9,0.6-3,0.6h-10.8l-11.1,1.1c-0.7,0.1-1.3,0.1-2,0l-10.1-1c-0.7-0.1-1.3-0.1-2,0l-10.1,1
				c-0.6,0.1-1.1,0.1-1.7,0l-15.9-1.1c-0.5,0-1.1,0-1.6,0L84.6,123H72.5l-13.4-1.1c-0.8-0.1-1.6-0.3-2.4-0.6
				c-2.2-0.9-3.8-2.8-4.4-5.1l-2.1-8.4c-0.2-0.8-0.3-1.6-0.3-2.4V92.8v-9.5l0.8-9.3c0.1-0.7,0.2-1.5,0.4-2.2L51.7,70.3z"/>
		</g>
	</g>
</g>
<g>
	<path class="st1" d="M59.3,78.1c0.1-0.4,0.1-0.8,0.2-1.2c0-0.5,0.2-0.9,0.4-1.4c0.2-0.4,0.4-0.8,0.6-1.2c0.6-0.9,1.3-1.5,2.2-2
		c0.1-0.1,0.2-0.1,0.3-0.2c0,0,0.1,0,0.2,0c0.3,0.2,0.6,0.3,1,0.5c0.1,0.1,0.2,0.1,0.4,0c0.3-0.1,0.7-0.3,1-0.4
		c0.3-0.1,0.7-0.2,1-0.3c0.1,0,0.3,0,0.4,0c0.5,0,1,0,1.5,0c0.5,0,0.9,0.1,1.4,0.3c0.4,0.1,0.9,0.3,1.3,0.5c0.7,0.3,1.3,0.7,1.9,1.3
		c0.6,0.6,1.1,1.3,1.5,2c0.2,0.4,0.4,0.9,0.5,1.4c0.2,0.7,0.3,1.4,0.3,2.1c0,0.5,0,1-0.1,1.5c-0.1,0.5-0.3,1-0.5,1.5
		c-0.1,0.2,0,0.3,0.1,0.5c0.2,0.3,0.3,0.6,0.5,0.9c0.1,0.2-0.1,0.4-0.2,0.6c-0.4,0.7-0.9,1.3-1.5,1.8c-0.5,0.4-1,0.7-1.6,1
		C71,87.8,70.1,88,69.1,88c-0.5,0-1-0.1-1.5-0.2c-0.6-0.1-1.1-0.3-1.6-0.6c-0.9-0.5-1.7-1.1-2.2-2c-0.2-0.3-0.4-0.6-0.6-0.9
		c-0.1-0.1-0.2-0.2-0.4-0.3c-1.1-0.7-2.1-1.6-2.7-2.7c-0.3-0.6-0.6-1.2-0.7-1.9C59.4,79,59.3,78.5,59.3,78.1z M67.9,73
		c-0.9,0-1.8,0.1-2.7,0.5c-0.2,0.1-0.2,0.1,0,0.2c0.2,0.2,0.3,0.3,0.5,0.5c0.4,0.5,0.7,1,0.9,1.6c0.1,0.4,0.3,0.9,0.4,1.4
		c0.1,0.7,0.1,1.4,0,2.1c-0.1,0.4-0.2,0.9-0.4,1.3c0,0,0,0.1,0,0.1c0,0,0.1,0,0.1,0c0.1,0,0.2-0.1,0.3-0.1c0.3-0.1,0.6-0.2,1-0.2
		c0.2,0,0.4-0.1,0.6-0.1c0.7,0,1.4-0.1,2,0.1c0.3,0.1,0.7,0.2,1,0.3c0.2,0.1,0.5,0.2,0.7,0.3c0.5,0.2,0.9,0.5,1.3,0.9
		c0,0,0.1,0.1,0.2,0.1c0,0,0.1-0.1,0.1-0.1c0-0.1,0.1-0.3,0.1-0.4c0.1-0.3,0.2-0.6,0.2-0.9c0.1-0.6,0.1-1.2,0-1.8
		c0-0.5-0.2-1-0.4-1.5c-0.2-0.5-0.5-1.1-0.8-1.5c-0.8-1.1-1.9-1.9-3.2-2.4C69.3,73.1,68.6,73,67.9,73z M63.6,81
		C63.6,81,63.6,81,63.6,81c0,0.5,0,1,0,1.5c0,0,0,0.1,0.1,0.1c0,0,0.1,0,0.1,0c0.1-0.1,0.2-0.2,0.3-0.3c0.8-0.7,1.4-1.7,1.8-2.7
		c0.2-0.5,0.2-1,0.2-1.5c0-0.3,0-0.7-0.1-1c0-0.1-0.1-0.1-0.1-0.2c0,0-0.1,0-0.2,0.1c-0.7,0.7-1.3,1.5-2,2.2
		c-0.1,0.1-0.1,0.2-0.1,0.2C63.6,80,63.6,80.5,63.6,81z M66.3,83.5C66.3,83.5,66.3,83.5,66.3,83.5c0.5,0,0.9,0,1.4,0
		c0.1,0,0.2,0,0.2-0.1c0.3-0.2,0.7-0.5,1-0.8c0.5-0.4,0.9-0.7,1.4-1.1c0,0,0.1-0.1,0.1-0.1c0,0-0.1-0.1-0.1-0.1
		c-0.1,0-0.3-0.1-0.4-0.1c-1-0.1-2-0.1-3,0.4c-0.6,0.3-1.2,0.7-1.7,1.1c-0.2,0.2-0.3,0.3-0.5,0.5c0,0-0.1,0.1-0.1,0.1
		c0.1,0,0.1,0.1,0.2,0.1C65.4,83.5,65.9,83.5,66.3,83.5z M67.5,84.7C67.5,84.7,67.5,84.7,67.5,84.7c-0.1,0-0.1,0-0.1,0
		c0,0,0,0.1,0.1,0.1c0.1,0.1,0.2,0.1,0.3,0.2c0.9,0.6,1.7,1.2,2.6,1.8c0.1,0,0.1,0,0.2,0c0.5-0.1,1-0.3,1.4-0.6
		c0.1-0.1,0.1-0.1,0-0.2c-0.6-0.5-1.2-0.9-1.8-1.4c-0.1,0-0.2-0.1-0.2-0.1C69,84.7,68.3,84.7,67.5,84.7z M62.4,78.5
		C62.4,78.5,62.4,78.5,62.4,78.5c0-0.3,0-0.6,0-0.9c0-0.1,0-0.2-0.1-0.3c-0.4-0.5-0.9-0.9-1.3-1.4c-0.1-0.1-0.2-0.1-0.2,0
		c-0.1,0.1-0.1,0.2-0.1,0.3c-0.1,0.3-0.2,0.6-0.3,1c0,0.1,0,0.2,0.1,0.2c0.3,0.4,0.6,0.7,0.9,1.1c0.3,0.4,0.6,0.8,1,1.2
		c0,0,0.1,0,0.1,0.1c0,0,0.1-0.1,0.1-0.1C62.4,79.2,62.4,78.8,62.4,78.5z M63.7,73.6C63.6,73.6,63.6,73.6,63.7,73.6
		c-0.1,0.1-0.1,0.1-0.1,0.2c0,1.2,0,2.3,0,3.5c0,0,0,0.1,0,0.1c0,0,0.1,0,0.1-0.1c0.5-0.6,1-1.1,1.5-1.7c0,0,0-0.1,0-0.1
		c-0.3-0.5-0.6-1-1-1.4C64.1,73.9,63.9,73.8,63.7,73.6z M71.7,83.5C71.7,83.5,71.7,83.5,71.7,83.5c0.6,0,1.2,0,1.8,0
		c0,0,0.1,0,0.1-0.1c0,0,0-0.1,0-0.1c-0.1-0.1-0.2-0.2-0.2-0.2c-0.4-0.4-0.8-0.8-1.3-1c-0.1-0.1-0.3-0.1-0.4,0
		c-0.2,0.1-0.3,0.3-0.5,0.4c-0.4,0.3-0.8,0.6-1.2,0.9c0,0-0.1,0.1-0.1,0.1c0.1,0,0.1,0.1,0.2,0.1C70.6,83.5,71.2,83.5,71.7,83.5z
		 M64.9,84.7C64.9,84.7,64.9,84.7,64.9,84.7c0,0-0.1,0-0.1,0c0,0,0,0.1,0,0.1c0,0.1,0.1,0.1,0.1,0.1c0.8,0.9,1.8,1.6,3,1.9
		c0,0,0.1,0,0.2,0c0,0,0.1,0,0.1-0.1c0,0,0-0.1-0.1-0.1c-0.1-0.1-0.2-0.1-0.4-0.2c-0.8-0.6-1.5-1.1-2.3-1.7
		c-0.1-0.1-0.2-0.1-0.4-0.1C65.1,84.7,65,84.7,64.9,84.7z M60.6,79.6C60.6,79.6,60.6,79.6,60.6,79.6c0,0.2,0.1,0.4,0.2,0.6
		c0.2,0.4,0.3,0.7,0.6,1c0.3,0.4,0.6,0.8,0.9,1.2c0,0,0.1,0,0.1,0.1c0,0,0-0.1,0-0.1c0-0.2,0-0.4,0-0.5c0-0.1,0-0.2-0.1-0.2
		c-0.5-0.6-1-1.2-1.5-1.9C60.7,79.6,60.7,79.6,60.6,79.6z M62.4,74.7C62.4,74.7,62.4,74.7,62.4,74.7c0-0.2,0-0.4,0-0.6
		c0-0.1,0-0.1-0.1-0.2c-0.1,0-0.1,0-0.2,0.1c-0.2,0.2-0.3,0.3-0.5,0.5c-0.1,0.1-0.1,0.2,0,0.4c0.2,0.2,0.4,0.5,0.6,0.7
		c0,0,0.1,0,0.1,0.1c0,0,0.1-0.1,0.1-0.1C62.4,75.2,62.4,74.9,62.4,74.7z M72.2,84.7C72.2,84.7,72.2,84.7,72.2,84.7
		c-0.1,0-0.1,0-0.2,0c0,0,0,0.1,0.1,0.1c0.3,0.2,0.6,0.4,0.8,0.5c0,0,0.1,0,0.2,0c0.2-0.2,0.3-0.3,0.5-0.5c0.1-0.1,0.1-0.2-0.1-0.2
		C73.1,84.7,72.7,84.7,72.2,84.7z"/>
	<path class="st1" d="M100.8,81.2c0-1,0-2,0-3.1c0-0.3,0-0.3,0.3-0.3c0.3,0,0.7,0,1,0c0.2,0,0.2,0,0.2,0.2c0,0.1,0,0.1,0.1,0.2
		c0.1,0,0.1,0,0.2-0.1c0.5-0.4,1-0.5,1.6-0.3c0.3,0.1,0.5,0.2,0.7,0.4c0.1,0.1,0.1,0.1,0.2,0c0.3-0.3,0.7-0.4,1.1-0.4
		c0.4,0,0.8,0,1.1,0.1c0.6,0.2,1,0.6,1.2,1.2c0.1,0.5,0.1,0.9,0.1,1.4c0,1.3,0,2.6,0,3.9c0,0.1,0,0.2-0.2,0.2c-0.4,0-0.8,0-1.2,0
		c-0.3,0-0.3,0-0.3-0.3c0-0.6,0-1.2,0-1.9c0-0.8,0-1.6,0-2.3c0-0.4-0.2-0.7-0.6-0.8c-0.2-0.1-0.6,0.2-0.7,0.4c0,0.2-0.1,0.3-0.1,0.5
		c0,1.3,0,2.6,0,3.9c0,0.5,0.1,0.5-0.5,0.5c-0.3,0-0.6,0-0.9,0c-0.2,0-0.3-0.1-0.3-0.3c0-0.2,0-0.3,0-0.5c0-1.2,0-2.5,0-3.7
		c0-0.4-0.2-0.6-0.5-0.7c-0.4-0.1-0.8,0.2-0.8,0.6c0,1.4,0,2.9,0,4.3c0,0.3,0,0.3-0.3,0.3c-0.4,0-0.7,0-1.1,0c-0.2,0-0.2,0-0.2-0.2
		C100.8,83.3,100.8,82.3,100.8,81.2C100.8,81.2,100.8,81.2,100.8,81.2z"/>
	<path class="st1" d="M83,80.4c0,1.3,0,2.6,0,3.9c0,0.2-0.1,0.2-0.2,0.2c-0.5,0-1,0-1.5,0c-0.1,0-0.2-0.1-0.2-0.2c0-0.8,0-1.7,0-2.5
		c0-0.2,0-0.4,0-0.6c0-0.2,0-0.2-0.2-0.2c-0.5,0-1.1,0-1.6,0c-0.2,0-0.2,0.1-0.2,0.2c0,0.7,0,1.4,0,2.1c0,0.3,0,0.7,0,1
		c0,0.1,0,0.2-0.2,0.2c-0.5,0-0.9,0-1.4,0c-0.1,0-0.2,0-0.2-0.2c0-0.6,0-1.2,0-1.9c0-2,0-3.9,0-5.9c0-0.4,0-0.3,0.4-0.3
		c0.4,0,0.8,0,1.2,0c0.1,0,0.2,0,0.2,0.2c0,0.8,0,1.5,0,2.3c0,0.1,0,0.3,0,0.4c0,0.1,0,0.2,0.2,0.2c0.6,0,1.1,0,1.7,0
		c0.1,0,0.2-0.1,0.2-0.2c0-0.9,0-1.8,0-2.7c0-0.2,0-0.2,0.2-0.2c0.5,0,0.9,0,1.4,0c0.3,0,0.3,0,0.3,0.3C83,77.8,83,79.1,83,80.4
		C83,80.4,83,80.4,83,80.4z"/>
	<path class="st1" d="M86.8,81.9c-0.5,0-0.9,0-1.4,0c-0.1,0-0.2,0-0.2,0.2c0.1,0.3,0.1,0.7,0.4,0.9c0.2,0.1,0.6,0.1,0.8,0
		c0.2-0.2,0.3-0.3,0.4-0.6c0,0,0.1-0.1,0.1-0.1c0.4,0,0.8,0,1.3,0c0.2,0,0.2,0.1,0.2,0.2c0,0.3-0.1,0.6-0.3,0.9
		c-0.3,0.5-0.7,0.9-1.3,1.1c-0.8,0.3-1.5,0.3-2.2-0.2c-0.5-0.3-0.7-0.7-1-1.2c-0.4-0.9-0.4-1.8-0.3-2.7c0.1-0.7,0.4-1.4,0.9-1.9
		c0.4-0.5,1-0.7,1.6-0.7c0.6,0,1.2,0.1,1.7,0.6c0.3,0.3,0.5,0.7,0.7,1.2c0.2,0.7,0.2,1.4,0.2,2.1c0,0.2,0,0.3-0.3,0.3
		C87.7,81.9,87.3,81.9,86.8,81.9C86.8,81.9,86.8,81.9,86.8,81.9z M85.9,80.5C85.9,80.5,85.9,80.5,85.9,80.5c0.2,0,0.4,0,0.6,0
		c0.1,0,0.2,0,0.2-0.1c0-0.3,0-0.5-0.2-0.8c-0.1-0.2-0.3-0.4-0.6-0.4c-0.3,0-0.5,0.1-0.6,0.4c-0.1,0.2-0.2,0.5-0.2,0.7
		c0,0.1,0.1,0.2,0.2,0.2C85.5,80.5,85.7,80.5,85.9,80.5z"/>
	<path class="st1" d="M100.4,81.3c0,1,0,2,0,3.1c0,0.2,0,0.3-0.3,0.3c-0.3,0-0.7,0-1,0c-0.1,0-0.2,0-0.2-0.1c0-0.1-0.1-0.1-0.2,0
		c-0.2,0.2-0.5,0.3-0.8,0.3c-0.3,0-0.7,0-1-0.1c-0.5-0.2-0.8-0.5-1-0.9c-0.4-0.6-0.4-1.3-0.5-2c0-0.6,0-1.2,0.2-1.8
		c0.1-0.4,0.2-0.9,0.5-1.2c0.4-0.5,0.9-0.8,1.5-0.7c0.4,0,0.8,0.1,1.1,0.4c0,0,0.1,0,0.1,0.1c0-0.1,0-0.1,0-0.2c0-0.2,0-0.2,0.2-0.2
		c0.4,0,0.7,0,1.1,0c0.1,0,0.2,0.1,0.2,0.2c0,0.1,0,0.3,0,0.4C100.4,79.4,100.4,80.4,100.4,81.3C100.4,81.3,100.4,81.3,100.4,81.3z
		 M98.9,81.3C98.9,81.3,98.9,81.3,98.9,81.3c0-0.1,0-0.3,0-0.4c0-0.2,0-0.3,0-0.5c0-0.3-0.1-0.5-0.2-0.7c-0.2-0.3-0.6-0.5-1-0.2
		c-0.2,0.2-0.3,0.4-0.4,0.7c-0.1,0.4-0.1,0.8-0.1,1.2c0,0.4,0,0.9,0.3,1.3c0.2,0.3,0.4,0.5,0.7,0.5c0.4,0,0.8-0.5,0.8-0.8
		C98.9,82,98.9,81.6,98.9,81.3z"/>
	<path class="st1" d="M94.3,79.8c-0.2,0-0.4,0-0.7,0c-0.1,0-0.2,0-0.2-0.1c-0.1-0.4-0.7-0.6-1-0.3c-0.2,0.2-0.2,0.5,0,0.6
		c0.1,0.1,0.3,0.2,0.5,0.2c0.5,0.1,1,0.2,1.5,0.5c0.6,0.3,0.9,0.8,0.9,1.5c0,0.3,0,0.7-0.1,1c-0.2,0.5-0.6,0.9-1.1,1.2
		c-0.7,0.3-1.4,0.4-2.1,0.2c-0.4-0.1-0.8-0.3-1-0.7c-0.3-0.4-0.5-0.8-0.5-1.3c0-0.1,0-0.2,0.2-0.2c0.4,0,0.8,0,1.2,0
		c0.1,0,0.2,0,0.2,0.2c0.1,0.4,0.6,0.7,1,0.6c0.2,0,0.4-0.1,0.5-0.3c0.1-0.3,0-0.6-0.3-0.7c-0.3-0.1-0.7-0.2-1-0.3
		c-0.6-0.1-1.1-0.4-1.4-0.9c-0.2-0.3-0.2-0.7-0.2-1.1c0-0.8,0.4-1.4,1.1-1.7c0.6-0.3,1.3-0.4,2-0.2c0.7,0.2,1.1,0.6,1.4,1.3
		c0.1,0.2,0.1,0.4,0.1,0.6c0,0-0.1,0.1-0.2,0.1C94.7,79.8,94.5,79.8,94.3,79.8C94.3,79.8,94.3,79.8,94.3,79.8z"/>
	<path class="st1" d="M88.7,80.4c0-1.3,0-2.5,0-3.8c0-0.3,0-0.3,0.3-0.3c0.3,0,0.7,0,1,0c0.1,0,0.2,0,0.2,0.2c0,1.2,0,2.5,0,3.7
		c0,1.3,0,2.7,0,4c0,0.5,0,0.4-0.4,0.4c-0.3,0-0.6,0-0.9,0c-0.2,0-0.2,0-0.2-0.2C88.7,83,88.7,81.7,88.7,80.4
		C88.7,80.4,88.7,80.4,88.7,80.4z"/>
</g>
<g>
	<g>
		<path class="st1" d="M123.6,72.3c0.1,0.1,0.2,0.1,0.3,0.1c0.2,0,0.4,0,0.5,0c0.3,0.1,0.7,0.1,1,0.2c0.3,0.1,0.7,0.2,1,0.4
			c0.4,0.2,0.7,0.5,0.9,0.8c0.2,0.4,0.4,0.7,0.5,1.2c0,0.1,0,0.2,0,0.2c0.1,0.4,0.1,0.8,0,1.3c-0.1,0.4-0.2,0.8-0.5,1.2
			c-0.2,0.3-0.4,0.5-0.7,0.6c0,0-0.1,0-0.2,0.1c0.1,0,0.1,0.1,0.2,0.1c0.4,0.2,0.7,0.5,1,0.9c0.3,0.5,0.4,1.1,0.4,1.7
			c0,0.4,0,0.8-0.2,1.2c-0.1,0.4-0.4,0.8-0.7,1.1c-0.3,0.3-0.7,0.6-1.1,0.8c-0.3,0.1-0.7,0.2-1,0.3c-0.1,0-0.1,0-0.2,0
			c-0.1,0-0.2,0.1-0.4,0.1c-0.2,0-0.4,0.1-0.6,0.1c-0.1,0-0.2,0-0.3,0c-0.3,0-0.7,0.1-1,0.1c-0.8,0-1.7,0-2.5,0c-1.2,0-2.4,0-3.7,0
			c-0.3,0-0.3,0-0.3-0.3c0-0.1,0-0.2,0-0.2c0-4,0-8,0-11.9c0-0.1,0-0.1,0-0.2C118.5,72.3,121.1,72.3,123.6,72.3z M120.2,81
			C120.2,81,120.2,81,120.2,81c0,0.4,0,0.7,0,1.1c0,0.3,0,0.3,0.3,0.3c0,0,0.1,0,0.1,0c0.8,0,1.6,0.1,2.4-0.2
			c0.2-0.1,0.3-0.2,0.4-0.3c0.1-0.1,0.2-0.3,0.2-0.5c0.1-0.4,0-0.8-0.1-1.1c-0.1-0.4-0.5-0.5-0.9-0.6c-0.2-0.1-0.4-0.1-0.6-0.1
			c-0.6,0-1.2,0-1.7,0c-0.1,0-0.1,0-0.1,0.1C120.2,80.1,120.2,80.6,120.2,81z M121.1,77.3C121.1,77.3,121.1,77.3,121.1,77.3
			c0.3,0,0.7,0,1,0c0.4,0,0.7-0.1,1-0.2c0.3-0.1,0.4-0.4,0.4-0.6c0-0.3,0-0.5,0-0.8c0-0.3-0.1-0.5-0.3-0.6c-0.2-0.2-0.5-0.2-0.8-0.3
			c-0.7,0-1.3-0.1-2-0.1c-0.3,0-0.3,0-0.3,0.3c0,0,0,0.1,0,0.1c0,0.6,0,1.2,0,1.8c0,0.1,0,0.1,0,0.2c0,0.2,0,0.2,0.2,0.2
			C120.7,77.3,120.9,77.3,121.1,77.3z"/>
		<path class="st1" d="M145.8,72.3c0,0.1,0,0.2,0,0.3c0,1.9,0,3.9,0,5.8c0,0.2,0,0.4,0,0.6c0,0,0,0.1,0,0.1c0,0,0.1,0,0.1-0.1
			c0.2-0.3,0.4-0.7,0.7-1c0.2-0.4,0.5-0.7,0.7-1c0.3-0.4,0.6-0.8,0.9-1.3c0.2-0.3,0.4-0.5,0.5-0.8c0.1-0.1,0.1-0.1,0.3-0.1
			c0.7,0,1.4,0,2,0c0.5,0,1.1,0,1.6,0c0.1,0,0.2,0,0.3,0c0.1,0,0.2,0,0.2,0c0,0.1,0,0.1,0,0.2c-0.1,0.2-0.3,0.4-0.4,0.6
			c-0.3,0.4-0.6,0.8-0.8,1.2c-0.3,0.4-0.6,0.8-0.9,1.2c-0.4,0.5-0.7,1-1.1,1.5c-0.1,0.1-0.1,0.2,0,0.3c0.3,0.4,0.6,0.8,0.8,1.2
			c0.3,0.5,0.7,1,1,1.4c0.2,0.3,0.5,0.7,0.7,1c0.2,0.3,0.4,0.5,0.6,0.8c0.1,0.1,0.2,0.3,0.3,0.4c0.1,0.1,0,0.2-0.1,0.2
			c-1.4,0-2.8,0-4.1,0c-0.2,0-0.3,0-0.4-0.2c-0.3-0.5-0.7-1-1-1.5c-0.2-0.3-0.4-0.6-0.6-0.8c-0.3-0.4-0.6-0.9-0.8-1.3
			c-0.1-0.1-0.2-0.3-0.2-0.4c0,0-0.1-0.1-0.1-0.1c0,0.1,0,0.1,0,0.2c0,0.3,0,0.7,0,1c0,1,0,2.1,0,3.1c0,0.2-0.1,0.2-0.2,0.2
			c-1.1,0-2.1,0-3.2,0c-0.2,0-0.5,0-0.7,0c-0.1,0-0.2,0-0.2-0.2c0-0.9,0-1.9,0-2.8c0-3.1,0-6.2,0-9.4c0-0.1,0-0.2,0-0.2
			C143,72.3,144.4,72.3,145.8,72.3z"/>
		<path class="st1" d="M139.8,72.3c0,0.5,0,1,0,1.6c0,3.6,0,7.1,0,10.7c0,0.3,0.1,0.4-0.3,0.3c-1.2,0-2.4,0-3.5,0
			c-0.3,0-0.3,0-0.3-0.3c0-1.3,0-2.7,0-4c0-2.4,0-4.8,0-7.2c0-0.4,0-0.7,0-1.1C136.9,72.3,138.3,72.3,139.8,72.3z"/>
		<path class="st1" d="M133.7,72.3c0,0.3,0,0.6,0,0.9c0,0.9,0,1.7,0,2.6c0,0.1,0,0.2-0.2,0.2c-1.3,0-2.6,0-3.9,0
			c-0.2,0-0.2,0-0.2-0.2c0-0.6,0-1.3,0-1.9c0-0.5,0-1,0-1.6C130.9,72.3,132.3,72.3,133.7,72.3z"/>
		<path class="st1" d="M164,81.3c0,1.1,0,2.1,0,3.2c0,0.4,0,0.4-0.4,0.4c-1.1,0-2.1,0-3.2,0c-0.3,0-0.3,0-0.3-0.3c0,0,0,0,0,0
			c0-0.1,0-0.2,0-0.3c-0.1,0-0.1,0.1-0.2,0.1c-0.2,0.1-0.4,0.2-0.6,0.3c-0.2,0.1-0.4,0.1-0.6,0.2c-0.2,0.1-0.5,0.1-0.7,0.2
			c-0.5,0-1,0.1-1.5,0.1c-0.3,0-0.6,0-0.9-0.1c-0.2,0-0.4-0.1-0.6-0.2c-0.2-0.1-0.4-0.2-0.6-0.4c-0.3-0.3-0.5-0.6-0.7-1
			c-0.2-0.6-0.2-1.3-0.2-2c0-0.6,0.3-1.2,0.7-1.6c0.2-0.2,0.5-0.4,0.8-0.5c0.2-0.1,0.4-0.1,0.6-0.2c0.1,0,0.1,0,0.2,0
			c0,0,0.1,0,0.1,0c1.1-0.3,2.1-0.2,3.2-0.2c0.2,0,0.3,0,0.5,0c0.1,0,0.2-0.1,0.2-0.2c0-0.3,0-0.6-0.1-0.8c0-0.2-0.2-0.4-0.5-0.5
			c-0.4-0.1-0.9-0.1-1.3-0.1c-0.8,0-1.7,0-2.5,0.1c-0.3,0-0.6,0.1-0.9,0.1c-0.2,0-0.2,0-0.2-0.2c0-0.6,0-1.2,0-1.8
			c0-0.1,0-0.2,0.2-0.2c0.6-0.1,1.2-0.2,1.8-0.4c1.2-0.3,2.4-0.2,3.6-0.2c0.4,0,0.8,0,1.2,0.1c0.4,0.1,0.7,0.2,1,0.3
			c0.4,0.2,0.8,0.5,1.1,0.8c0.2,0.3,0.4,0.6,0.5,0.9c0.1,0.3,0.2,0.7,0.2,1c0,0.1,0,0.2,0,0.3C164,79.2,164,80.3,164,81.3
			C164,81.3,164,81.3,164,81.3z M160,81.6C160,81.6,160,81.6,160,81.6c0-0.3,0-0.5,0-0.8c0-0.2-0.1-0.2-0.2-0.2c-0.4,0-0.7,0-1.1,0
			c-0.3,0-0.5,0-0.8,0.1c-0.2,0.1-0.4,0.4-0.4,0.6c0,0.3,0,0.5,0,0.8c0,0.2,0.3,0.6,0.4,0.6c0.2,0,0.4,0.1,0.6,0
			c0.3,0,0.5,0,0.8-0.1c0.1-0.1,0.3-0.1,0.5-0.2c0.1,0,0.2-0.1,0.2-0.2C160,82.1,160,81.8,160,81.6z"/>
		<path class="st1" d="M133.7,81.1c0,1.1,0,2.3,0,3.4c0,0.4,0.1,0.4-0.4,0.4c-1.2,0-2.4,0-3.6,0c-0.2,0-0.2,0-0.2-0.2
			c0-0.2,0-0.3,0-0.5c0-2.2,0-4.4,0-6.6c0-0.3,0-0.3,0.3-0.3c0.5,0,1,0,1.5,0c0.7,0,1.4,0,2.1,0c0.1,0,0.2,0,0.2,0.2
			c0,0.8,0,1.7,0,2.5C133.7,80.3,133.7,80.7,133.7,81.1C133.7,81.1,133.7,81.1,133.7,81.1z"/>
		<path class="st1" d="M143.6,89.7c-0.2,0-0.3,0-0.5,0c0,0,0-0.1,0-0.1c0-0.7,0-1.4,0-2.1c0-0.1,0-0.1,0.1-0.1c0.2,0,0.4,0,0.5,0
			c0,0,0.1,0,0.1,0.1c0.1,0.1,0.1,0.3,0.1,0.4c0,0,0,0.1,0,0.1c0.1,0.2,0.1,0.5,0.2,0.7c0,0,0.1,0.1,0.1,0.1c0,0,0-0.1,0.1-0.1
			c0.1-0.2,0.1-0.5,0.2-0.7c0-0.1,0.1-0.3,0.1-0.4c0-0.1,0.1-0.2,0.2-0.2c0.2,0,0.3,0,0.5,0c0.1,0,0.2,0,0.2,0.1c0,0.1,0,0.2,0,0.3
			c0,0.6,0,1.1,0,1.7c0,0,0,0.1,0,0.2c-0.2,0-0.4,0-0.6,0c0-0.1,0-0.2,0-0.3c0-0.2,0-0.5,0-0.7c0,0,0-0.1-0.1-0.1
			c0,0-0.1,0.1-0.1,0.1c-0.1,0.4-0.1,0.7-0.2,1.1c-0.2,0-0.3,0-0.4,0c0,0-0.1,0-0.1-0.1c-0.1-0.2-0.1-0.5-0.2-0.7
			c-0.1-0.2-0.1-0.4-0.2-0.6c0,0,0,0-0.1,0c0,0.1,0,0.2,0,0.2c0,0.3,0,0.6,0,0.9C143.6,89.5,143.6,89.6,143.6,89.7z"/>
		<path class="st1" d="M158,88.5c0-0.3,0-0.7,0-1c0-0.1,0-0.2,0.1-0.2c0.4,0,0.8-0.1,1.2,0.1c0.3,0.1,0.7,0.6,0.7,0.9
			c0,0.1,0,0.2,0,0.3c0,0.4-0.2,0.7-0.6,0.9c-0.2,0.1-0.3,0.1-0.5,0.1c-0.3,0-0.5,0-0.8,0c-0.1,0-0.1,0-0.1-0.1
			C158,89.2,158,88.8,158,88.5C158,88.5,158,88.5,158,88.5z M158.7,88.5C158.7,88.5,158.7,88.5,158.7,88.5c0,0.1,0,0.3,0,0.4
			c0,0.1,0.1,0.2,0.1,0.2c0.1,0,0.2,0,0.4-0.1c0.2-0.1,0.2-0.3,0.2-0.5c0-0.4-0.2-0.6-0.5-0.6c-0.2,0-0.2,0-0.2,0.2
			C158.7,88.2,158.7,88.4,158.7,88.5z"/>
		<path class="st1" d="M120.2,89.7c0-0.1,0-0.1,0-0.2c0-0.6,0-1.3,0-1.9c0-0.1,0.1-0.2,0.2-0.2c0.2,0,0.4,0,0.6,0
			c0.5,0,0.9,0.2,1.1,0.7c0.2,0.4,0.1,1-0.2,1.3c-0.1,0.1-0.2,0.1-0.3,0.2c-0.2,0.2-0.4,0.1-0.6,0.1
			C120.8,89.7,120.5,89.7,120.2,89.7z M120.9,88.5C120.9,88.5,120.9,88.5,120.9,88.5c0,0.1,0,0.3,0,0.4c0,0.1,0,0.2,0.2,0.2
			c0.3,0,0.5-0.2,0.6-0.5c0.1-0.4-0.1-0.7-0.5-0.7c-0.1,0-0.2,0-0.2,0.2C120.9,88.2,120.9,88.4,120.9,88.5z"/>
		<path class="st1" d="M131,89.7c-0.2,0-0.4,0-0.6,0c0-0.2,0-0.5,0-0.7c0-0.2,0-0.2-0.2-0.2c-0.1,0-0.2,0-0.3,0
			c-0.2,0-0.2,0-0.2,0.2c0,0.2,0,0.5,0,0.7c-0.2,0-0.4,0-0.6,0c0,0-0.1-0.1-0.1-0.1c0-0.7,0-1.4,0-2.1c0-0.1,0-0.2,0.2-0.2
			c0.1,0,0.2,0,0.4,0c0.1,0,0.2,0.1,0.2,0.2c0,0.2,0,0.4,0,0.5c0,0.1,0,0.2,0.2,0.2c0.1,0,0.3,0,0.4,0c0.1,0,0.1,0,0.1-0.1
			c0-0.2,0-0.4,0-0.6c0-0.1,0-0.2,0.2-0.2c0.1,0,0.2,0,0.3,0c0.2,0,0.2,0,0.2,0.2c0,0.4,0,0.9,0,1.3C131,89.1,131,89.4,131,89.7z"/>
		<path class="st1" d="M141.4,88.9c0.1,0.1,0.2,0.2,0.3,0.3c0.1,0.1,0.2,0.2,0.2,0.4c-0.2,0-0.5,0-0.7,0c-0.1-0.2-0.2-0.4-0.4-0.5
			c0,0,0,0,0,0c0,0.2,0,0.3,0,0.5c-0.2,0-0.4,0-0.6,0c0,0,0-0.1,0-0.1c0-0.7,0-1.4,0-2c0-0.1,0-0.1,0.1-0.1c0.4,0,0.8,0,1.2,0.1
			c0.2,0,0.4,0.3,0.5,0.5c0,0.1,0,0.3,0,0.4c0,0.3-0.2,0.4-0.4,0.5C141.5,88.9,141.5,88.9,141.4,88.9z M140.8,88.2
			c0,0.3,0,0.3,0.2,0.3c0.2,0,0.3-0.1,0.3-0.2c0-0.1-0.2-0.3-0.4-0.3C140.7,87.9,140.8,88.1,140.8,88.2z"/>
		<path class="st1" d="M151,88.9c0.2,0.2,0.4,0.4,0.6,0.7c-0.3,0-0.5,0-0.7,0c0,0,0,0-0.1,0c-0.1-0.2-0.2-0.3-0.3-0.5
			c0,0-0.1-0.1-0.1-0.1c0,0,0,0,0,0c0,0.2,0,0.4,0,0.6c-0.2,0-0.4,0-0.6,0c0-0.1,0-0.3,0-0.4c0-0.6,0-1.1,0-1.7c0-0.2,0-0.2,0.2-0.2
			c0.2,0,0.5,0,0.7,0c0.4,0,0.7,0.2,0.9,0.6c0.1,0.3,0,0.8-0.3,0.9C151.2,88.8,151.1,88.9,151,88.9z M150.6,88.5c0.1,0,0.1,0,0.1,0
			c0.1,0,0.1-0.1,0.1-0.2c0-0.1,0-0.2-0.1-0.3c-0.1-0.1-0.2-0.1-0.3-0.1c0,0,0,0.2-0.1,0.2c0,0,0,0.1,0,0.1
			C150.4,88.5,150.4,88.5,150.6,88.5z"/>
		<path class="st1" d="M154.6,89.7c-0.3,0-0.5,0-0.7,0c-0.2-0.3-0.3-0.6-0.5-0.8c0,0,0,0-0.1,0c0,0.3,0,0.5,0,0.8
			c-0.2,0-0.4,0-0.6,0c0-0.1,0-0.1,0-0.1c0-0.6,0-1.3,0-1.9c0-0.2,0-0.2,0.2-0.2c0.1,0,0.2,0,0.2,0c0.1,0,0.2,0.1,0.2,0.2
			c0,0.2,0,0.3,0,0.5c0,0.1,0,0.1,0.1,0.2c0,0,0.1-0.1,0.1-0.1c0.1-0.2,0.2-0.3,0.3-0.5c0.1-0.3,0.4-0.2,0.6-0.2
			c0.1,0,0.1,0.1,0.1,0.2c-0.2,0.2-0.3,0.5-0.5,0.7c0,0,0,0,0,0c-0.2,0.2-0.2,0.2,0,0.5c0.2,0.2,0.4,0.5,0.5,0.7
			C154.5,89.5,154.6,89.6,154.6,89.7z"/>
		<path class="st1" d="M148.8,89.6c-0.2,0-0.5,0-0.7,0c0,0,0-0.1,0-0.1c0-0.1-0.1-0.2-0.2-0.2c-0.1,0-0.3,0-0.4,0
			c-0.2,0-0.2,0.1-0.3,0.3c-0.2,0-0.4,0-0.7,0c0-0.1,0-0.1,0-0.2c0.2-0.4,0.3-0.8,0.5-1.2c0.1-0.2,0.2-0.5,0.3-0.7
			c0.1-0.2,0.4-0.3,0.6-0.1c0,0,0,0.1,0.1,0.1c0.2,0.4,0.3,0.8,0.5,1.2c0.1,0.3,0.2,0.5,0.3,0.8C148.8,89.5,148.8,89.6,148.8,89.6z
			 M147.6,88.9c0.2,0,0.2,0,0.2-0.2c0-0.1-0.1-0.2-0.1-0.3c0,0-0.1,0-0.1-0.1c0,0,0,0.1,0,0.1c0,0.1,0,0.2,0,0.3
			C147.4,88.8,147.4,88.9,147.6,88.9z"/>
		<path class="st1" d="M135.6,89.6c-0.2,0-0.4,0-0.6,0c0-0.1,0-0.1,0-0.1c0-0.6,0-1.3,0-1.9c0-0.3,0-0.3,0.3-0.3c0.1,0,0.3,0,0.4,0
			c0.2,0,0.5,0.1,0.7,0.1c0.3,0.1,0.5,0.6,0.4,0.9c-0.2,0.4-0.5,0.7-1,0.6c-0.1,0-0.1,0.1-0.1,0.1C135.6,89.3,135.6,89.5,135.6,89.6
			z M135.6,88.1c0,0.3,0,0.3,0.3,0.3c0,0,0.1,0,0.1,0c0,0,0.1,0,0.1-0.1c0-0.1,0-0.3,0-0.3c-0.1-0.1-0.3-0.1-0.4-0.1
			c0,0,0,0.1,0,0.1C135.6,88.1,135.6,88.1,135.6,88.1z"/>
		<path class="st1" d="M156.9,89.6c-0.4,0-0.9,0-1.3,0c0-0.3,0-0.6,0-0.9c0-0.4,0-0.9,0-1.3c0-0.1,0-0.1,0.1-0.1c0.3,0,0.7,0,1,0
			c0.1,0,0.2,0,0.2,0.2c0,0,0,0.1,0,0.1c0,0.3,0,0.3-0.3,0.3c-0.1,0-0.2,0-0.2,0c-0.1,0-0.2,0-0.1,0.1c0,0.1,0.1,0.1,0.1,0.1
			c0.1,0,0.2,0,0.4,0c0.1,0,0.2,0,0.2,0.2c0,0.5,0,0.4-0.4,0.4c0,0-0.1,0-0.1,0c-0.1,0-0.2,0-0.2,0.1c0,0.1,0,0.2,0.1,0.2
			c0.1,0,0.2,0,0.3,0c0.2,0,0.2,0.1,0.2,0.2C156.9,89.4,156.9,89.5,156.9,89.6C156.9,89.6,156.9,89.6,156.9,89.6z"/>
		<path class="st1" d="M139.1,89.6c-0.5,0-0.9,0-1.3,0c0-0.2,0-0.3,0-0.5c0-0.5,0-1.1,0-1.6c0-0.1,0-0.2,0.2-0.2c0.3,0,0.7,0,1,0
			c0.1,0,0.2,0,0.2,0.2c0,0.1,0,0.1,0,0.2c0,0.2,0,0.3-0.2,0.3c-0.1,0-0.2,0-0.3,0c-0.1,0-0.2,0-0.2,0.1c0,0.1,0.1,0.1,0.2,0.1
			c0.1,0,0.2,0,0.4,0c0.1,0,0.2,0,0.2,0.2c0,0,0,0,0,0.1c0,0.4,0,0.4-0.4,0.4c0,0-0.1,0-0.1,0c-0.1,0-0.2,0-0.2,0.1
			c0,0.1,0,0.2,0.2,0.2c0.1,0,0.3,0,0.4,0c0.1,0,0.2,0,0.2,0.2C139.1,89.4,139.1,89.5,139.1,89.6z"/>
		<path class="st1" d="M133.3,89.7c-0.2,0-0.4,0-0.7,0c0-0.1,0-0.2,0-0.3c0-0.3,0-0.6-0.2-0.9c-0.2-0.3-0.3-0.6-0.4-0.9
			c-0.1-0.2,0-0.2,0.1-0.2c0.1,0,0.2,0,0.3,0c0.2,0,0.3,0.1,0.3,0.2c0,0.2,0.1,0.3,0.1,0.5c0,0,0,0.1,0.1,0.1c0,0,0.1,0,0.1-0.1
			c0.1-0.2,0.2-0.4,0.2-0.6c0-0.1,0.1-0.1,0.2-0.1c0.1,0,0.2,0,0.3,0c0.1,0,0.2,0.1,0.2,0.2c-0.1,0.2-0.2,0.4-0.3,0.6
			c-0.1,0.1-0.1,0.3-0.2,0.4c-0.2,0.3-0.1,0.6-0.1,0.8C133.3,89.5,133.3,89.6,133.3,89.7z"/>
		<path class="st1" d="M125.8,89.7c-0.2,0-0.4,0-0.5,0c-0.1,0-0.1-0.1-0.1-0.1c0-0.4,0-0.9,0-1.3c0,0,0-0.1,0-0.1
			c0-0.1-0.1-0.2-0.2-0.1c-0.2,0-0.2,0-0.2-0.2c0-0.4,0-0.4,0.4-0.4c0.3,0,0.6,0,0.9,0c0.1,0,0.2,0.1,0.2,0.2c0,0.1,0,0.1,0,0.2
			c0,0.2-0.1,0.2-0.2,0.2c-0.2,0-0.2,0-0.2,0.2c0,0.5,0,0.9,0,1.4C125.8,89.6,125.8,89.6,125.8,89.7z"/>
		<path class="st1" d="M123.8,89.7c-0.2,0-0.4,0-0.7,0c0-0.1,0-0.1,0-0.2c0-0.6,0-1.3,0-1.9c0-0.2,0-0.2,0.2-0.2c0.1,0,0.1,0,0.2,0
			c0.2,0,0.2,0,0.2,0.2c0,0.3,0,0.6,0,0.9c0,0.3,0,0.7,0,1C123.8,89.5,123.8,89.6,123.8,89.7z"/>
	</g>
</g>
<g>
	<g>
		<path class="st1" d="M78.4,102c0.1,0,0.2,0,0.2,0.1c0.6,0.2,1,0.7,1,1.4c0,1.6,0,3.3,0,4.9c0,0.7-0.5,1.2-1.1,1.4
			c-0.6,0.1-1.2-0.2-1.5-0.8c0,0,0,0,0-0.1c-0.3,0.5-0.7,0.9-1.3,0.9c-0.6,0-1-0.3-1.3-0.9c0,0,0,0.1-0.1,0.1
			c-0.3,0.5-0.7,0.8-1.3,0.8c-0.7,0-1.1-0.5-1.3-1.1c0-0.1,0-0.2,0-0.3c0-1.6,0-3.3,0-4.9c0-0.7,0.5-1.2,1.1-1.4c0,0,0.1,0,0.1,0
			c0.1,0,0.2,0,0.3,0c0,0,0,0,0.1,0c0.5,0.1,0.8,0.3,1,0.7c0.4,0.8,0.9,1.6,1.3,2.5c0,0,0,0,0.1,0.1c0,0,0-0.1,0.1-0.1
			c0.4-0.8,0.9-1.6,1.3-2.5c0.2-0.3,0.4-0.5,0.7-0.6c0.1,0,0.3-0.1,0.4-0.1C78.2,102,78.3,102,78.4,102z M75.6,106.1
			c0-0.1-0.1-0.1-0.1-0.1c-0.5-1-1.1-2-1.6-3c-0.2-0.4-0.7-0.6-1.2-0.5c-0.5,0.1-0.8,0.5-0.8,1c0,1.6,0,3.2,0,4.9c0,0.6,0.4,1,1,1.1
			c0.5,0,1-0.4,1.1-1c0-0.2,0-0.5,0-0.7c0,0,0-0.1,0-0.1c0,0,0,0,0.1,0.1c0.2,0.4,0.4,0.7,0.6,1.1c0.2,0.4,0.5,0.6,0.9,0.6
			c0.4,0,0.7-0.2,0.9-0.6c0.2-0.4,0.4-0.7,0.6-1.1c0,0,0,0,0-0.1c0,0.1,0,0.1,0,0.2c0,0.2,0,0.5,0,0.7c0.1,0.5,0.6,0.9,1.1,0.9
			c0.5,0,0.9-0.5,0.9-1c0-1.6,0-3.3,0-4.9c0-0.3-0.1-0.6-0.4-0.8c-0.5-0.4-1.3-0.3-1.6,0.3c-0.4,0.8-0.9,1.7-1.3,2.5
			C75.9,105.7,75.7,105.9,75.6,106.1z"/>
		<path class="st1" d="M69.7,102c0.1,0,0.1,0,0.2,0.1c0.6,0.1,1,0.6,1,1.2c0.1,0.7-0.4,1.4-1.2,1.6c0,0,0,0,0,0
			c0.6,0.7,0.6,1.4,0,2.1c0.1,0,0.1,0,0.2,0c0.6,0.1,1,0.6,1.1,1.2c0.1,0.7-0.4,1.4-1.1,1.6c-0.1,0-0.2,0-0.3,0c-1,0-2.1,0-3.1,0
			c-0.6,0-1.2-0.5-1.4-1.1c0-0.1,0-0.2,0-0.3c0-1.6,0-3.2,0-4.9c0-0.7,0.5-1.3,1.1-1.4c0,0,0.1,0,0.1,0C67.5,102,68.6,102,69.7,102z
			 M67.5,104.5C67.6,104.5,67.6,104.5,67.5,104.5c0.8,0,1.4,0,2.1,0c0.6,0,1.1-0.6,1-1.2c-0.1-0.5-0.5-0.9-1.1-0.9c-1,0-2,0-3,0
			c-0.1,0-0.1,0-0.2,0c-0.5,0.1-0.9,0.5-0.9,1.1c0,1.6,0,3.1,0,4.7c0,0.1,0,0.2,0,0.2c0,0.5,0.5,0.9,1,0.9c1.1,0,2.1,0,3.2,0
			c0.7,0,1.1-0.6,1-1.3c-0.1-0.5-0.5-0.8-1-0.8c-0.7,0-1.3,0-2,0c0,0-0.1,0-0.1,0c0-0.1,0-0.2,0-0.4c0,0,0.1,0,0.1,0
			c0.4,0,0.8,0,1.2,0c0.6,0,1.1-0.5,1-1.2c-0.1-0.5-0.5-0.9-1-0.9c-0.4,0-0.8,0-1.2,0c0,0-0.1,0-0.1,0
			C67.5,104.7,67.5,104.6,67.5,104.5z"/>
		<path class="st1" d="M61.9,102c0.1,0,0.2,0,0.3,0.1c1.1,0.2,1.9,1.1,2.1,2.1c0.1,0.9-0.1,1.6-0.7,2.3c0,0,0,0.1,0,0.1
			c0.2,0.3,0.4,0.6,0.6,0.9c0.6,0.9,0.1,2-0.9,2.2c-0.6,0.1-1.1-0.1-1.4-0.6c-0.2-0.4-0.5-0.7-0.7-1.1c0,0,0,0-0.1-0.1
			c0,0,0,0.1,0,0.1c0,0.2,0,0.4,0,0.6c-0.1,0.6-0.6,1-1.2,1.1c-0.7,0.1-1.4-0.4-1.6-1.1c0-0.1,0-0.2,0-0.3c0-1.6,0-3.2,0-4.9
			c0-0.7,0.5-1.3,1.1-1.4c0,0,0.1,0,0.1,0C60.3,102,61.1,102,61.9,102z M63,106.5C63,106.5,63.1,106.5,63,106.5
			c0.9-0.8,1.2-1.9,0.6-2.9c-0.4-0.7-1-1.1-1.9-1.2c-0.7,0-1.5,0-2.2,0c-0.6,0-1,0.5-1,1.1c0,0.4,0,0.9,0,1.3c0,1.2,0,2.3,0,3.5
			c0,0.6,0.4,1.1,1,1.1c0.6,0,1-0.5,1-1c0-0.4,0-0.9,0-1.3c0,0,0-0.1,0-0.1c0.1,0,0.2,0,0.2,0.1c0.4,0.6,0.8,1.2,1.3,1.9
			c0.2,0.4,0.6,0.5,1,0.5c0.8-0.1,1.1-1,0.7-1.6c-0.1-0.2-0.2-0.3-0.3-0.5C63.3,107,63.2,106.7,63,106.5z"/>
		<path class="st1" d="M83.5,102c0.1,0,0.1,0,0.2,0c0.5,0.1,0.8,0.4,1,0.9c0.5,1.3,0.9,2.5,1.4,3.8c0.1,0.4,0.3,0.7,0.4,1.1
			c0.3,0.8-0.2,1.7-1.1,1.9c-0.6,0.1-1.3-0.2-1.6-0.9c-0.1-0.2-0.1-0.2-0.2-0.2c-0.2,0-0.3,0-0.5,0c-0.1,0-0.1,0-0.1,0.1
			c-0.1,0.2-0.2,0.5-0.4,0.6c-0.4,0.4-0.9,0.5-1.4,0.3c-0.5-0.2-0.8-0.6-0.9-1.1c0-0.3,0-0.5,0.1-0.7c0.6-1.6,1.2-3.2,1.8-4.9
			c0.2-0.5,0.5-0.8,1.1-0.9c0,0,0.1,0,0.1,0C83.3,102,83.4,102,83.5,102z M83.4,108.3c0.2,0,0.4,0,0.6,0c0,0,0.1,0,0.1,0.1
			c0,0.1,0.1,0.2,0.1,0.4c0.2,0.5,0.8,0.8,1.3,0.6c0.5-0.2,0.8-0.8,0.6-1.3c-0.6-1.6-1.2-3.2-1.8-4.9c-0.2-0.4-0.5-0.7-1-0.7
			c-0.4,0-0.8,0.3-1,0.7c-0.6,1.6-1.2,3.3-1.8,4.9c-0.1,0.2-0.1,0.3,0,0.5c0.1,0.5,0.5,0.8,0.9,0.9c0.5,0,0.9-0.2,1.1-0.7
			c0-0.1,0.1-0.2,0.1-0.3c0-0.1,0-0.1,0.1-0.1C83,108.3,83.2,108.3,83.4,108.3z"/>
		<path class="st1" d="M110.2,107.3c0,0.1,0,0.2-0.1,0.3c-0.2,0.9-0.8,1.6-1.7,1.9c-0.3,0.1-0.7,0.2-1.1,0.2c-1.2-0.1-2.2-1-2.4-2.1
			c0-0.2-0.1-0.4-0.1-0.6c0-0.8,0-1.6,0-2.5c0-0.7,0.3-1.4,0.9-1.9c0.4-0.3,0.8-0.5,1.3-0.6c0.1,0,0.1,0,0.2,0c0.1,0,0.3,0,0.4,0
			c0.1,0,0.2,0,0.2,0c1.1,0.2,1.9,1,2.1,2.1c0,0.1,0,0.2,0.1,0.3C110.2,105.4,110.2,106.4,110.2,107.3z M105.3,105.9
			C105.3,105.9,105.3,105.9,105.3,105.9c0,0.4,0,0.8,0,1.2c0,0.1,0,0.3,0,0.4c0.2,1.2,1.3,2.1,2.6,1.8c1.1-0.2,1.9-1.1,1.9-2.3
			c0-0.8,0-1.6,0-2.4c0-0.1,0-0.3,0-0.4c-0.3-1.5-1.9-2.3-3.2-1.6c-0.8,0.4-1.2,1-1.3,1.9C105.3,105,105.3,105.4,105.3,105.9z"/>
		<path class="st1" d="M95.9,102c0.1,0,0.2,0,0.3,0.1c1.1,0.2,1.9,1.1,2.1,2.2c0,0.1,0,0.3,0,0.4c0,0.8,0,1.7,0,2.5
			c0,1.3-1,2.3-2.1,2.5c-1.4,0.3-2.8-0.7-3.1-2.1c0-0.2,0-0.3,0-0.5c0-0.8,0-1.6,0-2.4c0-1,0.5-1.7,1.3-2.2c0.3-0.2,0.7-0.3,1-0.3
			c0,0,0,0,0.1,0C95.7,102,95.8,102,95.9,102z M98,105.9C98,105.9,98,105.9,98,105.9c0-0.4,0-0.8,0-1.2c0-0.1,0-0.2,0-0.3
			c-0.2-1.2-1.3-2.1-2.6-1.9c-1.1,0.2-1.9,1.1-1.9,2.2c0,0.8,0,1.6,0,2.4c0,0.1,0,0.3,0,0.4c0.2,1,1,1.9,2.2,1.9
			c0.4,0,0.7-0.1,1-0.3c0.8-0.4,1.2-1,1.2-1.9C98,106.8,98,106.3,98,105.9z"/>
		<path class="st1" d="M101.8,102c0.1,0,0.3,0,0.4,0.1c1,0.2,1.8,1.1,2,2.1c0,0.2,0,0.3,0,0.5c0,0.8,0,1.7,0,2.5
			c0,0.6-0.2,1.2-0.7,1.7c-0.4,0.5-0.9,0.8-1.5,0.9c-0.8,0.1-1.5-0.1-2.1-0.5c-0.5-0.4-0.8-0.9-1-1.6c0-0.1,0-0.3,0-0.4
			c0-0.9,0-1.7,0-2.6c0-0.6,0.2-1.1,0.6-1.6c0.4-0.5,1-0.8,1.6-0.9c0.1,0,0.1,0,0.2,0C101.6,102,101.7,102,101.8,102z M99.4,105.9
			c0,0.4,0,0.8,0,1.2c0,0.1,0,0.3,0,0.4c0.2,1.1,1.3,2,2.6,1.8c1.1-0.2,1.9-1.1,1.9-2.3c0-0.8,0-1.6,0-2.4c0-0.1,0-0.3,0-0.4
			c-0.2-1.2-1.3-2-2.6-1.9c-1.1,0.2-1.9,1.1-1.9,2.2C99.4,105.1,99.4,105.5,99.4,105.9z"/>
		<path class="st1" d="M91.1,102c0.1,0,0.1,0,0.2,0c0.6,0.1,1,0.6,1.1,1.2c0,0.1,0,0.2,0,0.2c0,1.6,0,3.2,0,4.7
			c0,0.6-0.3,1.1-0.8,1.3c-0.8,0.4-1.8-0.1-2-1.1c0-0.1,0-0.1,0-0.2c0-1.2,0-2.3,0-3.5c0-0.1,0-0.1-0.1-0.1
			c-0.5-0.3-0.9-0.8-0.8-1.4c0.1-0.6,0.5-1.1,1.1-1.2c0,0,0.1,0,0.1,0C90.3,102,90.7,102,91.1,102z M89.9,104.5
			C89.9,104.5,89.9,104.6,89.9,104.5c0,1.3,0,2.6,0,3.8c0,0.6,0.4,1,1,1.1c0.5,0,1-0.4,1.1-1c0-0.2,0-0.5,0-0.7c0-1.4,0-2.8,0-4.2
			c0-0.6-0.4-1-1-1c-0.3,0-0.6,0-0.8,0c-0.1,0-0.2,0-0.3,0c-0.4,0.1-0.7,0.3-0.8,0.7c-0.1,0.4,0,0.8,0.3,1.1
			C89.5,104.4,89.7,104.5,89.9,104.5z"/>
		<path class="st1" d="M73.7,106.1C73.7,106.2,73.7,106.2,73.7,106.1c0,0.8,0,1.5,0,2.2c0,0.4-0.3,0.7-0.7,0.7
			c-0.3,0-0.6-0.3-0.6-0.6c0,0,0-0.1,0-0.1c0-1.6,0-3.2,0-4.8c0-0.4,0.3-0.7,0.7-0.7c0.3,0,0.4,0.1,0.6,0.4c0.5,1,1.1,2,1.6,3
			c0.1,0.2,0.2,0.4,0.3,0.7c0,0,0,0.1,0.1,0.1c0,0,0-0.1,0.1-0.1c0.7-1.2,1.3-2.5,2-3.7c0.1-0.2,0.4-0.4,0.7-0.4
			c0.3,0,0.5,0.2,0.6,0.5c0,0.1,0,0.1,0,0.2c0,1.6,0,3.2,0,4.8c0,0.4-0.3,0.7-0.7,0.7c-0.4,0-0.6-0.3-0.6-0.6c0-0.7,0-1.4,0-2.1
			c0,0,0-0.1,0-0.1c0,0,0,0,0,0c0,0,0,0,0,0.1c-0.3,0.6-0.7,1.3-1,1.9c-0.1,0.2-0.2,0.4-0.3,0.6c-0.1,0.2-0.3,0.4-0.6,0.4
			c-0.3,0-0.5-0.1-0.6-0.4c-0.3-0.6-0.7-1.3-1-1.9C73.9,106.5,73.8,106.4,73.7,106.1C73.7,106.2,73.7,106.1,73.7,106.1
			C73.7,106.1,73.7,106.1,73.7,106.1z"/>
		<path class="st1" d="M65.8,105.9c0-0.8,0-1.6,0-2.4c0-0.4,0.3-0.7,0.7-0.7c1,0,2.1,0,3.1,0c0.3,0,0.6,0.2,0.7,0.6
			c0,0.3-0.2,0.6-0.5,0.7c-0.1,0-0.1,0-0.2,0c-0.8,0-1.5,0-2.3,0c-0.1,0-0.1,0-0.1,0.1c0,0.3,0,0.6,0,0.9c0,0.1,0,0.1,0.1,0.1
			c0.5,0,1,0,1.6,0c0.3,0,0.6,0.2,0.6,0.5c0.1,0.4-0.2,0.8-0.6,0.8c-0.5,0-1.1,0-1.6,0c-0.1,0-0.1,0-0.1,0.1c0,0.3,0,0.6,0,0.9
			c0,0.1,0,0.1,0.1,0.1c0.8,0,1.6,0,2.4,0c0.3,0,0.6,0.2,0.7,0.5c0.1,0.3-0.1,0.6-0.4,0.7c-0.1,0-0.2,0.1-0.3,0.1c-1,0-2.1,0-3.1,0
			c-0.4,0-0.7-0.3-0.7-0.7C65.8,107.5,65.8,106.7,65.8,105.9z"/>
		<path class="st1" d="M62.5,106.4c0,0,0,0.1,0.1,0.1c0.3,0.5,0.7,1,1,1.4c0.3,0.4,0.1,0.9-0.4,1c-0.2,0.1-0.5-0.1-0.7-0.3
			c-0.2-0.3-0.4-0.7-0.7-1c-0.2-0.4-0.5-0.7-0.7-1.1c0,0-0.1-0.1-0.1-0.1c-0.2,0-0.4,0-0.6,0c-0.1,0-0.1,0-0.1,0.1
			c0,0.5,0,1.1,0,1.6c0,0.3-0.2,0.6-0.5,0.7c-0.4,0.1-0.8-0.2-0.8-0.6c0-1.6,0-3.3,0-4.9c0-0.3,0.3-0.6,0.6-0.6c0.7,0,1.5,0,2.2,0
			c0.9,0,1.6,0.7,1.7,1.5C63.7,105.1,63.3,105.9,62.5,106.4C62.5,106.3,62.5,106.4,62.5,106.4z M60.3,104.1
			C60.3,104.2,60.3,104.2,60.3,104.1c0,0.4,0,0.7,0,1c0,0.1,0,0.1,0.1,0.1c0.4,0,0.9,0,1.3,0c0,0,0,0,0.1,0c0.3-0.1,0.5-0.3,0.5-0.6
			c0-0.3-0.3-0.5-0.6-0.5C61.2,104.1,60.8,104.1,60.3,104.1C60.3,104.1,60.3,104.1,60.3,104.1z"/>
		<path class="st1" d="M85.8,108.3c0,0.3-0.2,0.6-0.5,0.6c-0.3,0.1-0.6-0.1-0.8-0.4c-0.1-0.2-0.2-0.4-0.2-0.6c0-0.1,0-0.1-0.1-0.1
			c-0.6,0-1.1,0-1.7,0c-0.1,0-0.1,0-0.1,0.1c-0.1,0.2-0.1,0.4-0.2,0.6c-0.1,0.3-0.4,0.5-0.7,0.4c-0.3,0-0.5-0.2-0.6-0.5
			c0-0.1,0-0.3,0-0.4c0.5-1.5,1.1-2.9,1.6-4.4c0.1-0.1,0.1-0.3,0.2-0.4c0.1-0.3,0.3-0.4,0.6-0.4c0.3,0,0.5,0.2,0.6,0.4
			c0.6,1.6,1.2,3.2,1.7,4.8C85.8,108.2,85.8,108.2,85.8,108.3z M82.9,106.6c0.3,0,0.6,0,0.9,0c-0.1-0.4-0.3-0.8-0.4-1.2c0,0,0,0,0,0
			C83.2,105.8,83.1,106.2,82.9,106.6z"/>
		<path class="st1" d="M105.7,105.9c0-0.4,0-0.8,0-1.2c0-0.8,0.4-1.4,1.1-1.7c1.1-0.5,2.4,0.2,2.6,1.4c0,0.1,0,0.2,0,0.4
			c0,0.8,0,1.6,0,2.4c0,0.9-0.6,1.7-1.5,1.9c-1,0.2-2.1-0.5-2.2-1.5c0-0.1,0-0.3,0-0.4C105.7,106.7,105.7,106.3,105.7,105.9
			C105.7,105.9,105.7,105.9,105.7,105.9z M108.1,105.9c0-0.4,0-0.8,0-1.2c0-0.3-0.2-0.5-0.4-0.5c-0.2-0.1-0.5,0.1-0.6,0.3
			c-0.1,0.1-0.1,0.2-0.1,0.4c0,0.7,0,1.5,0,2.2c0,0.1,0,0.1,0,0.2c0,0.2,0.2,0.5,0.6,0.5c0.3,0,0.6-0.3,0.6-0.6
			C108.1,106.7,108.1,106.3,108.1,105.9z"/>
		<path class="st1" d="M97.6,105.9c0,0.4,0,0.8,0,1.2c0,0.9-0.7,1.7-1.5,1.8c-1,0.2-2-0.5-2.2-1.5c0-0.1,0-0.2,0-0.3
			c0-0.8,0-1.6,0-2.4c0-0.9,0.6-1.6,1.4-1.8c1.1-0.3,2.1,0.4,2.3,1.5c0,0.1,0,0.2,0,0.3C97.6,105.1,97.6,105.5,97.6,105.9z
			 M95.2,105.9c0,0.4,0,0.8,0,1.2c0,0.3,0.2,0.5,0.5,0.6c0.3,0,0.6-0.1,0.6-0.4c0-0.1,0-0.2,0-0.2c0-0.7,0-1.4,0-2.1
			c0-0.1,0-0.1,0-0.2c0-0.3-0.3-0.5-0.6-0.5c-0.3,0-0.5,0.3-0.5,0.6C95.2,105.1,95.2,105.5,95.2,105.9z"/>
		<path class="st1" d="M99.8,105.9c0-0.4,0-0.8,0-1.2c0-0.6,0.3-1.1,0.7-1.5c0.4-0.3,0.8-0.4,1.3-0.4c1,0.1,1.6,0.8,1.7,1.6
			c0,0.1,0,0.2,0,0.2c0,0.8,0,1.7,0,2.5c0,0.9-0.7,1.7-1.5,1.8c-1,0.2-2-0.5-2.2-1.5c0-0.1,0-0.2,0-0.3
			C99.8,106.7,99.8,106.3,99.8,105.9z M102.2,105.9c0-0.4,0-0.8,0-1.2c0-0.4-0.3-0.6-0.7-0.5c-0.3,0.1-0.4,0.3-0.4,0.6
			c0,0.4,0,0.8,0,1.2c0,0.4,0,0.8,0,1.2c0,0.3,0.3,0.6,0.6,0.6c0.3,0,0.6-0.3,0.6-0.6C102.2,106.7,102.2,106.3,102.2,105.9z"/>
		<path class="st1" d="M90.3,104.1c-0.1,0-0.2,0-0.3,0c-0.3,0-0.5-0.3-0.5-0.6c0-0.3,0.2-0.6,0.5-0.6c0,0,0.1,0,0.1,0
			c0.3,0,0.6,0,0.9,0c0.4,0,0.7,0.3,0.7,0.7c0,1.6,0,3.2,0,4.9c0,0.3-0.2,0.6-0.6,0.7c-0.3,0-0.6-0.2-0.7-0.5c0-0.1,0-0.1,0-0.2
			c0-1.4,0-2.7,0-4.1C90.3,104.2,90.3,104.2,90.3,104.1z"/>
		<path class="st1" d="M60.7,104.5c0.3,0,0.7,0,1,0c0.1,0,0.2,0.1,0.2,0.2c0,0.1-0.1,0.2-0.2,0.2c0,0,0,0,0,0c-0.3,0-0.6,0-1,0
			c0,0,0,0,0,0C60.7,104.7,60.7,104.6,60.7,104.5z"/>
		<path class="st1" d="M107.4,105.9c0-0.4,0-0.8,0-1.2c0-0.1,0.1-0.2,0.2-0.2c0.1,0,0.2,0,0.2,0.1c0,0,0,0.1,0,0.1
			c0,0.8,0,1.6,0,2.3c0,0.1,0,0.2-0.1,0.2c-0.1,0-0.2,0-0.2-0.2C107.4,106.7,107.4,106.3,107.4,105.9
			C107.4,106,107.4,105.9,107.4,105.9z"/>
		<path class="st1" d="M95.5,105.9c0-0.4,0-0.8,0-1.1c0,0,0-0.1,0-0.1c0-0.1,0.1-0.2,0.2-0.2c0.1,0,0.2,0.1,0.2,0.2c0,0,0,0,0,0.1
			c0,0.8,0,1.5,0,2.3c0,0,0,0.1,0,0.1c0,0.1-0.1,0.1-0.2,0.1c-0.1,0-0.2-0.1-0.2-0.2c0,0,0-0.1,0-0.1
			C95.5,106.6,95.5,106.3,95.5,105.9z"/>
		<path class="st1" d="M101.8,105.9c0,0.4,0,0.8,0,1.1c0,0,0,0.1,0,0.1c0,0.1-0.1,0.2-0.2,0.2c-0.1,0-0.2-0.1-0.2-0.2c0,0,0,0,0-0.1
			c0-0.8,0-1.5,0-2.3c0-0.1,0-0.1,0.1-0.2c0-0.1,0.1-0.1,0.2-0.1c0.1,0,0.1,0.1,0.1,0.1c0,0,0,0.1,0,0.1
			C101.8,105.1,101.8,105.5,101.8,105.9z"/>
	</g>
</g>
<g>
	<g>
		<path class="st1" d="M119.1,104c-0.3,0-0.5,0.1-0.7,0.1c-0.2,0.1-0.5,0.1-0.7,0.3c-0.4,0.2-0.4,0.7,0,0.8c0.3,0.1,0.6,0.2,0.9,0.2
			c0.9,0.1,1.8,0.1,2.7,0.2c0.4,0,0.8,0.1,1.2,0.3c1.8,0.6,2.3,2.8,1,4.2c-0.7,0.7-1.6,1.1-2.6,1.2c-1,0.2-2.1,0-3-0.5
			c-0.9-0.5-1.5-1.2-1.7-2.2c-0.1-0.5,0.2-0.9,0.6-1.1c0.3-0.1,0.6,0,0.8,0.2c0.2,0.3,0.2,0.5-0.1,0.8c0,0-0.1,0.1-0.1,0.1
			c-0.3,0.4-0.3,0.7,0,1.1c0.5,0.5,1.1,0.8,1.7,1c1.2,0.3,2.3,0.1,3.3-0.6c0.5-0.3,0.8-0.8,0.7-1.4c-0.1-0.7-0.4-1.2-1-1.5
			c-0.7-0.3-1.4-0.4-2.2-0.5c-0.6-0.1-1.3-0.1-1.9-0.2c-0.4-0.1-0.8-0.3-1.1-0.6c-0.6-0.6-0.5-1.5,0.3-1.9c0.3-0.1,0.5-0.2,0.8-0.3
			c0,0,0.1,0,0.2,0C118.5,103.8,118.8,103.9,119.1,104z"/>
		<path class="st1" d="M120.1,103.8c0-0.1,0-0.1,0.1-0.2c0.7-0.6,0.7-1.5,0.6-2.3c-0.1-0.8-0.2-1.6-0.3-2.3c0-0.3,0-0.5,0-0.8
			c0-0.4,0.2-0.5,0.5-0.5c1.8,0.2,2.9,2.1,2.3,3.8c-0.5,1.3-1.6,2.2-2.9,2.2C120.3,103.8,120.2,103.8,120.1,103.8z"/>
		<path class="st1" d="M120.1,97.8c-1,1-0.7,2.1-0.6,3.3c0.1,0.7,0.2,1.3,0.2,2c0,0.1,0,0.3,0,0.4c-0.1,0.4-0.1,0.4-0.5,0.3
			c-1.3-0.3-2.3-1.3-2.5-2.5c-0.2-1.2,0.6-2.6,1.7-3.1c0.4-0.2,0.9-0.3,1.3-0.4C119.9,97.8,120,97.8,120.1,97.8z"/>
		<path class="st1" d="M122.3,98.2c-0.1-0.1-0.2-0.1-0.3-0.2c0.5-0.7,1-1.1,1.9-1.1c0.6,0,1,0.6,0.9,1.1c-0.1,0.2-0.3,0.4-0.5,0.5
			c-0.3,0-0.5-0.1-0.6-0.3c-0.1-0.2-0.2-0.5-0.6-0.5C122.7,97.8,122.6,98,122.3,98.2C122.4,98.2,122.4,98.2,122.3,98.2z"/>
		<path class="st1" d="M136.9,105.1c0-0.4,0-0.7,0-1.1c0-0.3-0.2-0.4-0.4-0.4c-0.4,0-0.8,0.3-0.8,0.7c0,0.2,0,0.5,0,0.7
			c0.1,0,0.2,0,0.2,0c0,0,0.1,0.1,0.1,0.1c0,0-0.1,0.1-0.1,0.1c-0.2,0-0.5,0-0.7,0c-0.1,0-0.1-0.1-0.2-0.1c0.1,0,0.1-0.1,0.2-0.1
			c0.1,0,0.1,0,0.2,0c0-0.5,0-0.9,0-1.4c-0.1,0-0.2,0-0.2,0c0,0-0.1-0.1-0.1-0.1c0,0,0.1-0.1,0.1-0.1c0.1,0,0.3,0,0.4,0
			c0,0.1,0,0.2,0,0.4c0.7-0.6,1.1-0.5,1.4,0c0.2-0.3,0.5-0.4,0.9-0.4c0.3,0,0.6,0.2,0.6,0.6c0,0.4,0,0.7,0,1.1c0.1,0,0.2,0,0.4,0
			c0,0,0,0,0,0.1c-0.1,0-0.1,0.1-0.2,0.1c-0.2,0-0.4,0-0.6,0c-0.1,0-0.1-0.1-0.2-0.1c0.1,0,0.1-0.1,0.2-0.1c0,0,0.1,0,0.2,0
			c0-0.4,0-0.8,0-1.2c0-0.1-0.2-0.3-0.3-0.3c-0.4-0.1-0.8,0.2-0.9,0.7c0,0.3,0,0.5,0,0.8c0,0,0.1,0,0.1,0c0.1,0,0.2,0.1,0.3,0.1
			c-0.1,0-0.2,0.1-0.3,0.1c-0.2,0-0.3,0-0.5,0c-0.1,0-0.1-0.1-0.2-0.1c0.1,0,0.1-0.1,0.2-0.1C136.7,105.1,136.8,105.2,136.9,105.1z"
			/>
		<path class="st1" d="M127,105.1c-0.6,0.4-1.2,0.4-1.5,0c-0.3-0.4-0.3-1,0.1-1.4c0.4-0.4,1-0.4,1.5,0.1c0-0.1,0-0.2,0-0.3
			c0.4-0.1,0.5-0.1,0.5,0.2c-0.1,0-0.2,0-0.3,0c0,0.1,0,0.2,0,0.3c0,0.5,0,1.1,0,1.6c0,0.4-0.2,0.8-0.6,1c-0.4,0.2-0.8,0.1-1.1-0.2
			c0,0,0-0.1,0-0.1c0.1,0,0.2,0,0.3,0c0.6,0.3,1.2,0.1,1.3-0.7C127,105.4,127,105.3,127,105.1z M126.2,103.7c-0.4,0-0.8,0.3-0.8,0.8
			c0,0.4,0.3,0.8,0.8,0.8c0.4,0,0.8-0.3,0.8-0.8C127,104,126.7,103.7,126.2,103.7z"/>
		<path class="st1" d="M155.2,101.9c-0.1-0.1-0.3-0.1-0.4-0.2c0.1,0,0.2-0.1,0.4-0.1c0.1,0,0.1,0,0.2,0c0,0.7,0,1.5,0,2.2
			c0.3-0.1,0.5-0.3,0.8-0.3c0.4-0.1,0.6,0.2,0.7,0.6c0,0.4,0,0.7,0,1.1c0.1,0,0.2,0,0.3,0c0.1,0.2,0,0.2-0.2,0.2
			c-0.7,0-0.8,0-0.8-0.2c0.1,0,0.2,0,0.4,0c0-0.4,0-0.8,0-1.1c0-0.2-0.2-0.3-0.4-0.4c-0.4,0-0.8,0.3-0.8,0.7c0,0.2,0,0.5,0,0.8
			c0.1,0,0.1,0,0.2,0c0.1,0,0.1,0.1,0.2,0.1c-0.1,0-0.1,0.1-0.2,0.1c-0.2,0-0.4,0-0.6,0c-0.1,0-0.1-0.1-0.2-0.1
			c0.1,0,0.1-0.1,0.2-0.1c0.1,0,0.1,0,0.2,0C155.2,104,155.2,102.9,155.2,101.9z"/>
		<path class="st1" d="M146.8,103.8c0-0.1,0-0.1,0-0.1c0-0.1,0.1-0.2,0.1-0.2c0,0.1,0.1,0.2,0.1,0.2c0,0.5,0,0.9,0,1.4
			c0.1,0,0.2,0,0.3,0c0,0.2,0,0.2-0.5,0.2c0-0.1,0-0.2,0-0.3c-0.3,0.3-0.6,0.4-1,0.3c-0.2-0.1-0.4-0.2-0.6-0.3
			c-0.3-0.4-0.3-1,0.1-1.3C145.7,103.3,146.3,103.3,146.8,103.8z M146,105.2c0.4,0,0.8-0.3,0.8-0.7c0-0.4-0.3-0.8-0.8-0.8
			c-0.4,0-0.8,0.3-0.8,0.8C145.2,104.9,145.6,105.2,146,105.2z"/>
		<path class="st1" d="M150.4,103.8c0.1-0.1,0.1-0.2,0.2-0.3c0,0,0.1,0,0.1,0c0,0.5,0,1.1,0,1.7c0.1,0,0.2,0,0.3,0
			c0.1,0.2,0,0.3-0.5,0.2c0-0.1,0-0.2,0-0.2c-0.3,0.1-0.5,0.2-0.8,0.2c-0.3,0-0.6-0.1-0.8-0.4c-0.3-0.4-0.3-1,0.1-1.3
			C149.3,103.3,149.8,103.3,150.4,103.8z M149.6,105.2c0.4,0,0.8-0.3,0.8-0.8c0-0.4-0.3-0.8-0.8-0.8c-0.4,0-0.8,0.3-0.8,0.8
			C148.8,104.8,149.2,105.2,149.6,105.2z"/>
		<path class="st1" d="M133.5,105.2c0.1,0,0.2,0,0.3,0c0,0.2,0,0.2-0.5,0.2c0-0.1,0-0.2,0-0.3c-0.2,0.1-0.5,0.3-0.7,0.3
			c-0.5,0.1-0.7-0.2-0.7-0.6c0-0.3,0-0.7,0-1.1c-0.1,0-0.2,0-0.4,0c0-0.2,0-0.2,0.6-0.2c0,0.4,0,0.7,0,1.1c0,0.5,0.1,0.6,0.4,0.6
			c0.4,0,0.8-0.2,0.8-0.6c0-0.3,0-0.6,0-0.9c-0.1,0-0.2,0-0.3,0c0-0.2,0-0.3,0.5-0.2C133.5,104,133.5,104.6,133.5,105.2z"/>
		<path class="st1" d="M160.3,105.4c0-0.1,0-0.2,0-0.4c-0.2,0.3-0.5,0.4-0.8,0.4c-0.4,0-0.6-0.2-0.6-0.6c0-0.4,0-0.7,0-1.1
			c-0.1,0-0.2,0-0.3,0c0-0.2,0-0.3,0.6-0.2c0,0.4,0,0.7,0,1.1c0,0.4,0.1,0.6,0.4,0.6c0.4,0,0.8-0.2,0.8-0.5c0-0.3,0-0.6,0-0.9
			c-0.1,0-0.2,0-0.3,0c0-0.2,0-0.3,0.5-0.2c0,0.5,0,1.1,0,1.6c0,0,0.1,0,0.1,0c0.1,0,0.2,0.1,0.3,0.1c-0.1,0-0.2,0.1-0.3,0.1
			C160.5,105.4,160.4,105.4,160.3,105.4z"/>
		<path class="st1" d="M162.2,104.9c0.1,0.1,0.2,0.3,0.3,0.3c0.2,0.1,0.4,0.1,0.5-0.2c0.1-0.2,0.1-0.3-0.1-0.4
			c-0.1-0.1-0.3-0.1-0.4-0.2c-0.2-0.1-0.3-0.2-0.3-0.4c0-0.2,0.1-0.4,0.3-0.5c0.2,0,0.4,0,0.6,0.1c0.1,0,0.1,0.2,0.1,0.4
			c0,0-0.1,0.1-0.2,0.2c0-0.3-0.1-0.5-0.3-0.4c-0.1,0-0.3,0.1-0.3,0.2c0,0.1,0.1,0.2,0.2,0.3c0.1,0.1,0.3,0.1,0.4,0.2
			c0.4,0.2,0.3,0.8,0,0.9c-0.2,0.1-0.7,0.1-0.9,0C162.2,105.2,162.1,105.1,162.2,104.9C162.1,104.9,162.2,104.9,162.2,104.9z"/>
		<path class="st1" d="M141.1,104.1c0-0.4-0.2-0.5-0.5-0.4c-0.1,0-0.2,0.1-0.2,0.2c0,0.1,0.1,0.2,0.1,0.2c0.1,0.1,0.3,0.1,0.5,0.2
			c0.2,0.1,0.4,0.3,0.3,0.6c0,0.3-0.2,0.4-0.5,0.5c-0.1,0-0.2,0-0.3,0c-0.4,0-0.4-0.1-0.4-0.6c0.1,0.1,0.2,0.1,0.2,0.2
			c0,0.2,0.2,0.2,0.4,0.2c0.2,0,0.4-0.1,0.4-0.3c0.1-0.2,0-0.3-0.2-0.4c-0.1-0.1-0.3-0.1-0.4-0.2c-0.2-0.1-0.3-0.2-0.3-0.4
			c0-0.2,0.1-0.4,0.3-0.5c0.2,0,0.4,0,0.6,0.1c0.1,0,0.1,0.2,0.1,0.4C141.3,103.9,141.2,104,141.1,104.1z"/>
		<path class="st1" d="M128.9,105.2c0.1,0,0.2,0,0.3,0c0-0.5,0-1,0-1.4c-0.1,0-0.2,0-0.3,0c0-0.2,0-0.3,0.5-0.2c0,0,0,0.1,0,0.2
			c0,0.1,0,0.1,0,0.1c0.2-0.1,0.5-0.3,0.7-0.4c0,0,0.1,0.1,0.1,0.1c-0.1,0.1-0.1,0.1-0.2,0.2c-0.5,0.1-0.6,0.3-0.6,0.8
			c0,0.2,0,0.4,0,0.7c0.1,0,0.2,0,0.4,0c-0.1,0.1-0.2,0.2-0.2,0.2c-0.2,0-0.5,0-0.7,0C128.9,105.4,128.9,105.3,128.9,105.2
			C128.8,105.2,128.9,105.2,128.9,105.2z"/>
		<path class="st1" d="M152.2,105.2c0.1,0,0.2,0,0.3,0c0-0.5,0-0.9,0-1.4c-0.1,0-0.2,0-0.3,0c0,0-0.1-0.1-0.1-0.1
			c0,0,0.1-0.1,0.1-0.1c0.1,0,0.3,0,0.4,0c0,0.1,0,0.2,0,0.3c0.2-0.1,0.5-0.3,0.7-0.4c0,0,0.1,0.1,0.1,0.1c-0.1,0.1-0.1,0.1-0.2,0.2
			c-0.5,0.2-0.6,0.3-0.6,0.8c0,0.2,0,0.4,0,0.6c0,0,0.1,0,0.1,0c0.1,0,0.2,0.1,0.3,0.1c-0.1,0-0.2,0.1-0.3,0.1c-0.2,0-0.3,0-0.5,0
			C152.3,105.4,152.2,105.3,152.2,105.2C152.2,105.2,152.2,105.2,152.2,105.2z"/>
	</g>
</g>
<g class="st2">
	<path class="st3" d="M106.8,102c-0.5-3.1-1.3-8.1-1.1-10.8c0.6-2.5,2.8-3.2,5.3-4.7c4.6-3.1,10.5-5,12.2-10.4
		c0.2-3.1-2.6-5.1-5.1-5.3c-4.8-0.3-9.9,5.9-11.3,8.5c-1.2,2.2-0.7,5.1-3.6,5.8c-2.4,0.5-5.5-1.6-5.9-3.2c-0.6-2.2,2.5-7.4,3.6-9
		c3.7-5.6,13.1-11.3,22.1-7.8c4.3,1.7,9.2,5.3,8.8,11.3c-0.6,9.6-11.5,12.6-16.5,17.7c-0.6,3.3,2.4,9.4-1.7,10.4
		C109.9,105.4,107.2,105.1,106.8,102z M115.5,116.4c-2.1,3-8.1,1.1-8.5-1.8c-0.3-2.4,1-3.4,2.9-4
		C114.3,109.6,117.8,113.2,115.5,116.4z"/>
</g>
</svg>
