<?xml version="1.0" encoding="utf-8"?>
<!-- Generator: Adobe Illustrator 23.0.6, SVG Export Plug-In . SVG Version: 6.00 Build 0)  -->
<svg version="1.1" id="Lag_1" xmlns="http://www.w3.org/2000/svg" xmlns:xlink="http://www.w3.org/1999/xlink" x="0px" y="0px"
	 viewBox="0 0 226.8 226.8" style="enable-background:new 0 0 226.8 226.8;" xml:space="preserve">
<style type="text/css">
	.st0{fill:#543F2D;}
	.st1{fill:none;stroke:#543F2D;stroke-miterlimit:10;}
	.st2{fill-rule:evenodd;clip-rule:evenodd;fill:#543F2D;}
</style>
<path class="st0" d="M67.1,28.3c0-0.1,0-0.3,0-0.4c0-3.2-4.9-3.2-5,0c-0.1,2.2,0.4,4.5,0.5,6.7c0.2,2.6,0.4,5,0.9,7.5
	c0.6,2.4,0.7,4.9,1.3,7.3c0.6,2.3,1.1,4.6,1.2,7c0.2,5.3,0.1,10.7,0,16.1c0,2.7-0.2,5.4-0.5,8.1c-0.3,2.5-0.2,5-0.2,7.5
	c0,2.4,0.3,4.9-0.2,7.2c-0.3,1-0.3,2-0.3,3.1c0,1.3-0.3,2.5-0.4,3.8c-0.3,2.6-0.2,5.3-0.6,7.9c-0.4,2.6-0.9,5.2-1.1,7.9
	c-0.5,5.4-0.8,10.7-1.3,16.1c-0.2,2.7-0.3,5.2,0,7.9c0.3,2.7,0.4,5.4,0.5,8c0.1,2.7,0.1,5.4,0.3,8.1c0.2,2.8,0.3,5.5,0.3,8.3
	c0,5.3,0,10.6-0.2,15.9c0,0.8-0.1,1.5,0,2.3c0,0.2,0.2,0.8,0.1,0.9c0-0.2,0-0.3-0.1-0.5c0,0,0,0,0,0c0,0-0.1,0.4-0.1,0.5
	c-0.1,1.2-0.2,2.4-0.1,3.5c0.1,1.6,0.4,3.4,1.6,4.6c1.3,1.4,3.6,1.9,5.3,2.4c2.2,0.6,4.4,1,6.6,1.1c2.6,0.1,5.1,0.8,7.8,0.8
	c2.5,0,5,0.3,7.5,0.3c2.6,0,5.2,0.3,7.9,0.5c1.3,0.1,2.6,0.3,3.9,0.4c1.5,0.1,2.9,0,4.4,0c2.6,0.1,5.3,0.3,7.9,0.5
	c2.6,0.2,5.3,0.5,7.9,0.5c2.7-0.1,5.4-0.3,8-0.4c2.7-0.1,5.4-0.3,8.1-0.4c2.7-0.1,5.3-0.5,8-0.5c1.2,0,2.4,0,3.7-0.1
	c0.5-0.1,1-0.2,1.5-0.1c-0.5,0-0.1,0,0,0c0.3,0.1,0.6,0.1,0.8,0.2c1.8,0.5,3.3,0.5,5.2,0.2c0.1,0,0.2,0,0.3-0.1c0.3-0.1-0.5,0-0.1,0
	c0.4,0,0.7,0,1.1,0c0.7,0,1.4,0,2,0c1.9-0.1,3.8-0.6,5.4-1.7c0.9-0.6,1.9-1.4,2.5-2.4c0.5-0.8,0.6-1.8,0.7-2.7
	c0.3-1.6,0.5-3.1,0.5-4.7c0-1.7-0.2-3.4-0.2-5.1c0-2.7,0.1-5.4,0.2-8.1c0.2-5.6,0.4-11.2,0.8-16.7c0.4-5.2,0.4-10.4,0.7-15.6
	c0.3-5.3,0-10.6,0-15.9c0.1-11,0-22.1,0-33.1c0-5.3-0.3-10.7,0.4-16c0.3-2.4,0.9-4.7,1.1-7.1c0.3-2.6,0.8-5.2,1-7.8
	c0.2-2.5,0.7-4.9,1-7.3c0.2-1.3,0.5-2.6,0.5-3.9c0.1-1.3,0-2.7,0-4c0-0.6,0-1.3-0.1-1.9c-0.1-0.4-0.3-0.7-0.4-1.1
	c-0.1-0.5,0-1.2-0.1-1.7c-0.1-0.7-0.1-1.4-0.1-2.1c0-1.2,0.2-2.4-0.2-3.5c-0.1-0.3-0.2-0.6-0.4-0.8c-0.2-0.3-0.1-0.3,0,0.2
	c0-0.7-0.3-1.3-0.5-2c-0.6-2-0.4-4.5-2-6c-1-0.9-2.1-1.7-3.1-2.5c-1.2-0.9-2.4-1.9-3.8-2.6c-1.8-0.9-3.4-0.8-5.3-0.9
	c-2.7-0.2-5.2-0.7-7.9-1c-2.7-0.3-5.3-0.5-8-0.7c-5.5-0.3-11.1-0.3-16.6-0.8c-5.4-0.5-10.6-1-16-1.1c-2.7,0-5.4-0.1-8,0
	c-2.4,0.1-4.9,0.4-7.3,0.3c-0.5,0-1-0.1-1.5-0.1c-0.5-0.1-0.1,0,0,0c-0.2,0-0.3,0-0.5-0.1c-0.4-0.1-0.9-0.1-1.3-0.2
	c-1.6-0.3-3.2-0.6-4.8-0.9c-2.3-0.4-4.8-1.2-7.2-1.2c-3.1,0-6.5,0.6-9.4,1.4c-2.8,0.7-6.4,2-7.4,5c-0.2,0.7-0.2,1.4-0.3,2.1
	c0,0.2-0.3,1.7-0.3,1.7c-0.2-0.2,1.1-0.7,0.8-0.5c1.3-0.6,0-0.2-0.4,0c-0.6,0.3-1.1,0.7-1.4,1.4c-0.2,0.5-0.2,1-0.2,1.6
	c0,0.2,0.1,0.4,0.1,0.6c0.1,0.3,0,0.5,0-0.2c1.3-0.7,2.5-1.4,3.8-2.2c0,0,0,0,0,0c-0.4,1.6-0.8,3.1-1.3,4.7c0,0,0.1,0,0.1,0
	c-0.4-0.1-0.8-0.2-1.3-0.3c0.4,0.3,1,0.5,1.5,0.4c1.3-0.1,2.5-1.1,2.5-2.5c0-1.3-1.1-2.6-2.5-2.5c0,0-0.1,0-0.1,0
	c0.4,0.1,0.8,0.2,1.3,0.3c-0.4-0.3-1-0.5-1.5-0.4c-1.1,0.1-2.1,0.7-2.4,1.8c-0.3,1,0.2,2.3,1.1,2.8c0,0,0,0,0,0
	c1.7,0.9,3.7-0.2,3.8-2.2c0-0.3,0-0.6-0.1-0.9c-0.1-0.5,0.1-0.8-0.1,0.5c-0.4,0.5-0.8,1-1.1,1.5c0,0,0,0,0.1,0
	c-0.4,0.1-0.8,0.2-1.3,0.3c2.1,0.1,3.3-1.9,3.7-3.7c0.2-0.8,0.2-1.6,0.3-2.5c0-0.1,0-0.3,0-0.5c0,0.5,0,0.3,0,0.1
	c0,0.2-0.3,0.4-0.1,0.1c0.3-0.3-0.2,0.3,0,0c0.1-0.1,0.2-0.2,0.3-0.3c0.3-0.2-0.3,0.2,0,0c0.2-0.2,0.4-0.3,0.7-0.4
	c0.8-0.4,0.9-0.5,1.8-0.8c1.5-0.5,3-0.8,4.6-1.1c1.4-0.3,2.3-0.4,3.9-0.5c0.4,0,0.8,0,1.2-0.1c0.2,0,0.8,0.1-0.1,0
	c0.2,0,0.4,0.1,0.7,0.1c2.9,0.5,5.7,1.1,8.6,1.6c3.2,0.6,6.3,0.9,9.5,0.7c5.1-0.3,10.3-0.3,15.4-0.1c5.2,0.2,10.4,1,15.6,1.3
	c5.3,0.3,10.6,0.3,15.8,0.7c5.1,0.4,10.2,1.5,15.4,1.6c0.2,0,0.5,0,0.7,0c-0.4,0-0.6-0.1-0.3,0c0.1,0,0.3,0.1,0.3,0.1
	c-0.4-0.3-0.2-0.1-0.1,0c0.6,0.4,1.2,0.7,1.8,1.1c1.3,0.9,2.1,1.5,3.3,2.5c0.3,0.3,0.6,0.6,1,0.8c0.1,0,0.1,0.1,0.1,0.1
	c-0.1-0.1-0.1-0.4-0.2-0.1c-0.1,0.5,0.3,1.4,0.4,1.8c0.2,1,0.5,2,0.8,2.9c0.2,0.6,0.1,1.1,0.5,1.7c0,0.1,0.4,0.6,0.2,0.2
	c-0.2-0.4,0,0.5,0,0.7c0,2.3-0.1,4.7,0.5,6.9c0.3,0.9,0.1,1.9,0.2,2.9c0,1.2,0.1,2.5-0.1,3.7c-0.4,2.5-0.9,5-1.2,7.5
	c-0.3,2.5-0.5,4.9-0.8,7.4c-0.3,2.4-0.7,4.7-1.1,7c-0.4,2.4-0.8,4.8-0.8,7.2c-0.1,10.6,0,21.3,0,31.9c0,5.2,0,10.5,0,15.7
	c0,5.1,0.1,10.2-0.1,15.3c-0.1,2.5,0,5.1-0.2,7.6c-0.1,2.5-0.3,5.1-0.5,7.6c-0.3,5.2-0.5,10.5-0.7,15.7c-0.1,2.7-0.2,5.4-0.2,8.1
	c0,1.5,0.2,3,0.2,4.4c0,0.4,0,0.8,0,1.2c0,0.2,0,0.4,0,0.6c-0.1,0.5,0.1-0.3,0,0.1c-0.1,0.7-0.2,1.4-0.4,2.1c0,0.2-0.1,0.4-0.1,0.6
	c0,0.2-0.2,0.4,0,0c0,0-0.5,0.5-0.6,0.5c-0.7,0.5-1.4,0.8-2.2,1c-0.5,0.1-0.8,0.1-1.6,0.1c-0.7,0-1.4,0-2.1,0c-0.7,0-1.3,0.1-2,0.3
	c-0.1,0-0.4,0.1,0,0c-0.2,0-0.5,0.1-0.7,0.1c-0.2,0-0.4,0-0.6,0c0.4,0,0.1,0-0.1-0.1c-0.7-0.2-1.4-0.4-2.1-0.5
	c-1.2-0.2-2.2-0.1-3.3,0.1c-1.2,0.1-2.3,0-3.5,0c-1.4,0-2.8,0.2-4.2,0.3c-5.2,0.4-10.4,0.5-15.6,0.9c-2.5,0.2-4.9,0.2-7.4,0
	c-2.6-0.2-5.3-0.4-7.9-0.6c-2.5-0.2-5-0.3-7.5-0.3c-2.6,0-5.3-0.4-8-0.5c-2.5-0.2-5.1-0.2-7.6-0.3c-1.2-0.1-2.3-0.2-3.5-0.3
	c-1.2,0-2.4,0-3.6-0.1c-1.3-0.1-2.5-0.4-3.7-0.6c-1.1-0.1-2.1-0.1-3.2-0.3c-2-0.3-4-0.8-5.9-1.5c-0.3-0.1-0.6-0.3-1-0.4
	c-0.4-0.1-0.1,0,0.1,0.2c-0.1-0.1-0.2-0.3-0.2-0.3c0.2,0.5,0,0.1,0,0c0-0.2-0.2-1.1-0.2-0.7c-0.1-1.2-0.1-2.4,0.1-3.6
	c0-0.3,0.1-0.5,0.1-0.8c0-0.1,0-0.1,0-0.4c-0.1-1.1,0,0.4,0-0.2c0-0.4,0-0.9,0-1.3c0.1-2.2,0.1-4.5,0.1-6.7c0.1-5.3,0.3-10.7,0-16
	c-0.1-2.7-0.4-5.3-0.4-8.1c0-2.6-0.2-5.1-0.3-7.7c-0.2-2.5-0.6-5-0.4-7.5c0.1-2.5,0.4-5,0.6-7.4c0.5-5.1,0.6-10.3,1.4-15.4
	c0.4-2.6,0.9-5.2,1-7.8c0.1-1.2,0.1-2.4,0.2-3.7c0.1-1.2,0.4-2.4,0.5-3.7c0-0.9-0.1-1.7,0.2-2.6c0.3-1.2,0.5-2.4,0.5-3.6
	c0-2.5,0-5.1-0.1-7.6c0-2.5,0.3-5,0.5-7.4c0.2-2.6,0.3-5.3,0.3-7.9c0-2.5,0-5.1,0-7.6c0-2.5,0.2-5-0.1-7.5c-0.3-2.4-0.8-4.8-1.4-7.2
	c-0.5-2.4-0.7-4.9-1.3-7.3c-0.5-2.3-0.6-4.6-0.8-6.9c-0.1-0.9-0.2-1.9-0.2-2.8c0-1-0.2-2-0.2-3c-1.7,0-3.3,0-5,0c0,0.1,0,0.3,0,0.4
	C62.1,31.6,67.1,31.6,67.1,28.3L67.1,28.3z"/>
<path class="st1" d="M167,195.4"/>
<path class="st1" d="M167,195.4"/>
<path class="st0" d="M114,170.2c-2.1,0-4-0.1-5.8,1c-1.3,0.8-2.6,1.8-3.6,3c-1.3,1.6-1.9,3.6-1.4,5.7c0.4,1.7,1.6,3.3,2.9,4.4
	c1.2,1.1,2.7,2.1,4.3,2.5c1.5,0.4,3.2,0.3,4.7-0.1c1.5-0.4,2.9-1.2,3.9-2.3c1.2-1.4,1.7-3.1,1.7-5c0-0.9-0.1-1.8-0.2-2.8
	c-0.1-0.9-0.1-1.8-0.2-2.7c-0.1-0.9-0.6-1.8-1.2-2.5c-0.9-0.9-2.1-1.2-3.4-1.3c0.8,0.6,1.6,1.2,2.4,1.8c0-0.2-0.1-0.3-0.1-0.5
	c-0.3-1.3-1.8-2.1-3.1-1.7c-1.4,0.4-2,1.7-1.7,3.1c0,0.2,0.1,0.3,0.1,0.5c0.2,1.1,1.4,1.8,2.4,1.8c0.6,0-0.5-0.1,0,0
	c0.5,0.1-0.4-0.2-0.1-0.1c0.2,0.1,0.4,0.3-0.1-0.2c0.1,0.1,0.3,0.4,0,0c-0.3-0.3-0.1-0.1,0,0c-0.3-0.7-0.1-0.3-0.1-0.1
	c0,0.1,0,0.2,0.1,0.3c0.1,0.4,0-0.7,0-0.1c0,1.3,0.2,2.5,0.2,3.7c0,0.3,0,0.6,0,0.9c0,0.1,0,0.2,0,0.4c0,0.1,0,0.1,0,0.2
	c0,0.3,0,0.2,0-0.2c0,0-0.2,0.7-0.2,0.7c0-0.4,0.2-0.5,0.1-0.1c-0.1,0.1-0.2,0.3-0.2,0.4c-0.2,0.4,0.3-0.3,0.1-0.1
	c-0.1,0.1-0.2,0.2-0.2,0.3c-0.1,0.1-0.2,0.2-0.3,0.3c-0.2,0.2-0.2,0,0.2-0.1c-0.2,0.1-0.4,0.3-0.6,0.4c-0.1,0.1-0.3,0.1-0.4,0.2
	c0.4-0.3,0.4-0.1,0.1,0c-0.2,0.1-0.5,0.1-0.7,0.2c-0.1,0-0.3,0.1-0.4,0.1c-0.4,0.1,0.2,0,0.2,0c-0.2,0-0.5,0-0.8,0
	c-0.3,0-0.5-0.1-0.8,0c0.6,0,0.4,0.1,0.1,0c-0.1,0-0.2,0-0.3-0.1c-0.1,0-0.8-0.3-0.4-0.1c0.4,0.2,0,0-0.1,0
	c-0.1-0.1-0.3-0.1-0.4-0.2c-0.3-0.2-0.6-0.4-0.9-0.6c-0.1-0.1-0.4-0.2,0.1,0.1c-0.1-0.1-0.3-0.2-0.4-0.3c-0.2-0.2-0.4-0.4-0.6-0.6
	c-0.1-0.1-0.2-0.2-0.2-0.3c-0.4-0.4,0.3,0.4,0,0c-0.1-0.1-0.6-0.8-0.5-0.9c0,0,0.2,0.5,0.1,0.1c0-0.2-0.1-0.3-0.1-0.5
	c-0.2-0.5,0,0.4,0,0.1c0-0.1,0-0.3,0-0.4c0-0.1,0-0.1,0-0.2c0-0.2,0-0.2,0,0c-0.2,0.3,0.1-0.1,0.1-0.2c0.1-0.6-0.3,0.4,0,0
	c0.1-0.1,0.1-0.2,0.2-0.3c0.2-0.4-0.3,0.3-0.1,0.1c0.1-0.1,0.2-0.3,0.4-0.4c0.2-0.2,0.5-0.5,0.7-0.7c0.1-0.1,0.2-0.2,0.3-0.2
	c0.1-0.1,0.2-0.1,0.3-0.2c0.2-0.2,0.2-0.1-0.1,0.1c0.1-0.2,0.6-0.4,0.8-0.5c0.2-0.1,0.4-0.3,0.7-0.4c-0.1,0.1-0.4,0.1,0,0
	c0.1,0,0.3-0.1,0.4-0.1c0.3-0.1,0.3-0.1-0.1,0c0.3-0.1,0.8,0,1.1,0c0.5,0,0.9,0,1.4,0c1.3,0,2.6-1.2,2.5-2.5
	C116.5,171.3,115.4,170.2,114,170.2L114,170.2z"/>
<path class="st0" d="M92.9,75.9c0-3.3,0-6.6-0.1-9.8c-0.1-1.4-0.1-3,0.1-4.1c0-0.2,0.1-0.4,0.1-0.5c0.1-0.3,0.1-0.2,0,0.1
	c0.4-0.5-0.4,0.4,0,0c0.2-0.2,0.2-0.2-0.1,0.1c0.1-0.1,0.2-0.1,0.3-0.2c-0.5,0.3,0,0,0.3-0.1c0.1,0,1-0.2,0.3-0.1
	c0.3,0,0.5,0,0.8-0.1c0.5,0,0.9,0,1.4,0c0.5,0,1,0,1.5,0.1c0.2,0,0.7,0.1,0.3,0c0.3,0,0.5,0.1,0.7,0.2c0.8,0.3,1.7,0.4,2.5,0.4
	c0.8,0,0.8-0.1,1.5,0.2c1.5,0.5,2.7,1.2,4.4,1.1c1.3-0.1,2.5-1.1,2.5-2.5c0-1.3-1.1-2.6-2.5-2.5c-0.1,0-0.8,0-0.4,0.1
	c-0.3,0-0.6-0.1-0.9-0.2c-0.5-0.2-1-0.4-1.6-0.6c-0.7-0.2-1.4-0.4-2.1-0.4c-0.5,0-1.3,0-1.6,0c-0.5-0.1-0.9-0.3-1.3-0.4
	c-0.6-0.1-1.2-0.2-1.9-0.2c-0.8,0-1.7-0.1-2.5,0c-2.2,0.1-4.6,0.6-5.9,2.5c-0.8,1.1-0.9,2.6-1.1,3.9c-0.1,1.3-0.1,2.6,0,3.9
	c0.1,3.1,0.1,6.3,0.1,9.4c0,1.4,1.1,2.5,2.5,2.5C91.8,78.4,92.9,77.3,92.9,75.9L92.9,75.9z"/>
<path class="st0" d="M136.4,64.3c3.2,0,6.5,0.1,9.7-0.1c1.1-0.1,2.2-0.2,3.4-0.1c0.2,0,0.3,0,0.5,0c-0.2,0-0.3,0-0.1,0
	c0.3,0.1,0.5,0.1,0.8,0.2c0.3,0.1,0.3,0.1,0,0c0.1,0,0.2,0.1,0.3,0.2c0.1,0.1,0.1,0.1-0.1-0.1c0.2,0.2,0.2,0.2,0,0
	c0.3,0.4,0.3,0.4,0.3,1.1c0,0.7,0,1.4-0.1,2.1c-0.1,1.7,0,3.5,0,5.2c0,2.4,0.6,5.3-0.9,7.1c1.4,0.4,2.8,0.7,4.2,1.1
	c0-0.1-0.1-0.3-0.1-0.4c-0.4-1.3-1.7-2.1-3.1-1.7c-1.2,0.3-2.2,1.8-1.7,3.1c0,0.1,0.1,0.3,0.1,0.4c0.6,1.6,2.9,2.6,4.2,1.1
	c2-2.3,2.5-5.1,2.4-8.1c0-2.8-0.1-5.7,0-8.5c0.1-2.7-0.4-5.6-3.1-6.9c-2.1-1-4.4-0.9-6.6-0.8c-3.3,0.2-6.6,0.1-9.9,0.1
	C133.2,59.3,133.2,64.3,136.4,64.3L136.4,64.3z"/>
<path class="st0" d="M92.9,110.2c0-0.1,0-0.3,0-0.4c0-1.3-1.1-2.6-2.5-2.5c-1.4,0.1-2.5,1.1-2.5,2.5c0,1.2-0.1,2.5-0.1,3.7
	c0,1.4,0.2,2.8,0.5,4.1c0.1,0.6,0.2,0.8,0.2,1.2c0,0.6-0.1,1.2-0.1,1.8c-0.1,1.2,0,2.5,0.5,3.6c1.7,3.1,6.5,3.5,9.6,3.1
	c1.3-0.2,2.4-0.4,3.7-0.5c1.6-0.1,3.1-0.1,4.7-0.1c1.3,0,2.6-1.2,2.5-2.5c-0.1-1.4-1.1-2.5-2.5-2.5c-1.7,0-3.3,0-5,0.1
	c-0.8,0.1-1.7,0.2-2.5,0.3c-0.3,0.1-0.7,0.1-1,0.2c-0.6,0.1,0.5,0,0,0c-0.8,0-1.7,0.1-2.5,0c-0.2,0-0.5,0-0.7-0.1
	c-0.3,0-0.2,0,0.1,0c-0.1,0-0.2,0-0.4-0.1c-0.4-0.1-0.9-0.3-1.3-0.3c-0.2-0.1-0.1,0,0.2,0.1c-0.1,0-0.2-0.1-0.3-0.1
	c-0.1,0-0.2-0.1-0.3-0.2c-0.2-0.1-0.2-0.1,0.2,0.1c-0.2,0-0.6-0.8-0.1,0c-0.1-0.2-0.1-0.1,0.1,0.2c0-0.1-0.1-0.2-0.1-0.3
	c0,0.3,0,0.3,0,0c0-0.2,0-0.3,0-0.5c0-0.3,0-0.5,0-0.8c0-0.7,0.1-1.4,0.1-2.1c-0.1-0.9-0.2-1.7-0.4-2.5c-0.1-0.3-0.1-0.5-0.2-0.8
	c0.1,0.3-0.1-0.6-0.1-0.7c-0.1-1.5,0.1-3.1,0.1-4.6c-1.7,0-3.3,0-5,0c0,0.1,0,0.3,0,0.4c0,1.3,1.1,2.6,2.5,2.5
	C91.8,112.6,92.9,111.6,92.9,110.2L92.9,110.2z"/>
<path class="st0" d="M133.5,126.2c1.9,0,3.8,0.1,5.7,0c1.7-0.1,3.3-0.6,5-0.6c1.1,0,2-0.1,3-0.5c0.5-0.2,1-0.3,1.7-0.3
	c0.9-0.1,1.9-0.1,2.7-0.4c1-0.4-0.2,0,0.3-0.1c0.6-0.1,0.9-0.1,1.5-0.4c1.6-0.9,2.2-2.7,2.2-4.4c0-1.4-0.6-2.6-0.7-3.9
	c-0.1-1-0.2-1.9-0.2-2.9c0-0.3,0-0.6,0-0.9c0,0.6,0,0,0-0.1c0-0.1,0.1-0.2,0.1-0.4c-0.1,0.3-0.2,0.4,0,0.1c-0.1,0.2-0.3,0.3-0.5,0.4
	c0.2-0.1,0.2-0.1-0.2,0.1c3.1-0.9,1.8-5.7-1.3-4.8c-2.8,0.8-3.3,3.8-3.2,6.3c0,0.9,0.1,1.7,0.2,2.6c0.1,0.9,0.2,1.7,0.5,2.6
	c0.1,0.3,0.2,0.5,0.2,0.8c0,0.2,0,0.3,0,0.5c0,0.3,0,0.3,0,0.1c-0.1,0,1.3-0.7,1.3-0.7c-0.1,0.1-1,0.1-1.2,0.2
	c-0.7,0.2-1.3,0.3-2.1,0.3c-0.9,0.1-1.8,0.1-2.7,0.5c-0.1,0.1-0.7,0.3-0.9,0.4c-0.4,0-0.8,0-1.1-0.1c-1.6,0-3.2,0.5-4.8,0.6
	c-1.8,0.1-3.7,0-5.5,0C130.3,121.2,130.3,126.2,133.5,126.2L133.5,126.2z"/>
<g>
	<path class="st2" d="M112.3,70.9h-11.8v11.8h11.8V70.9L112.3,70.9z M119,74.3h1.7v-3.4h-6.7v3.4h1.7V76h1.7v-1.7h-1.7v-1.7h3.4
		V74.3L119,74.3z M108.9,86.1h-1.7v1.7h3.4v1.7h-1.7v1.7h-1.7v-1.7h-1.7v-5.1h-5.1v1.7h3.4v5.1h-1.7v-1.7h-1.7v1.7h1.7v3.4h-1.7v1.7
		h3.4v1.7h-3.4v1.7h3.4v-1.7h1.7v1.7h1.7v-1.7h-1.7v-1.7h1.7v-1.7h-3.4v-1.7h5.1v5.1h1.7v1.7h1.7v-1.7h-1.7v-1.7h3.4v5.1h1.7v1.7
		h-1.7v1.7h1.7v1.7h1.7v1.7h-3.4v5.1h3.4v-3.4h3.4v-1.7H119v-3.4h3.4v3.4h3.4v-1.7h3.4v1.7h-1.7v1.7h-1.7v1.7h1.7v1.7h1.7v-1.7h1.7
		v1.7h1.7v-1.7h3.4v1.7h1.7v-1.7h-1.7v-3.4h3.4v1.7h3.4v-1.7h-1.7v-1.7h1.7v-6.7h-1.7v-1.7h-1.7v1.7h-1.7v1.7h-1.7v-3.4h-3.4v-1.7
		h-1.7v1.7h-1.7v-1.7h-1.7v-1.7h1.7v-3.4h-1.7v1.7h-1.7v-3.4h1.7v-1.7h1.7v-1.7h1.7v1.7h1.7v1.7h-1.7v5.1h3.4v1.7h5.1v-1.7h1.7v1.7
		h1.7v-5.1h-1.7v1.7h-1.7v1.7h-5.1v-1.7h-1.7v-3.4h1.7v-1.7h-1.7v-1.7h3.4v5.1h1.7v-1.7h1.7v-1.7h1.7v1.7h1.7v-5.1h-3.4v3.4h-1.7
		v-1.7h-1.7v-1.7h-6.7V74.3h-1.7v10.1h-1.7v3.4h-3.4v-1.7h1.7v-3.4h1.7v-5.1h-1.7v1.7h-1.7V76h1.7v-1.7h1.7v-3.4h-3.4V76H119v3.4
		h-3.4v-1.7h-1.7v10.1h1.7v1.7h-3.4v-1.7h-1.7v-1.7h1.7v-1.7h-3.4V86.1L108.9,86.1z M142.6,70.9h-11.8v11.8h11.8V70.9L142.6,70.9z
		 M110.6,72.6h-8.4v8.4h8.4V72.6L110.6,72.6z M140.9,72.6h-8.4v8.4h8.4V72.6L140.9,72.6z M108.9,74.3h-5.1v5.1h5.1V74.3L108.9,74.3z
		 M139.2,74.3h-5.1v5.1h5.1V74.3L139.2,74.3z M119,79.4h1.7v3.4h1.7v1.7H119v1.7h1.7v3.4H119v-1.7h-3.4v-1.7h1.7v-3.4h1.7V79.4
		L119,79.4z M115.6,81.1h1.7v1.7h-1.7V81.1L115.6,81.1z M122.4,82.7v-1.7h1.7v1.7H122.4L122.4,82.7z M127.4,86.1v-1.7h1.7v1.7H127.4
		L127.4,86.1z M110.6,91.2v-1.7h1.7v1.7H110.6L110.6,91.2z M115.6,89.5h1.7v1.7h-1.7V89.5L115.6,89.5z M122.4,91.2v-1.7h1.7v1.7
		H122.4L122.4,91.2z M122.4,99.6h1.7v-3.4h-1.7v1.7H119v-1.7h1.7v-1.7H119v-3.4h3.4v3.4h3.4v3.4h1.7v6.7h-1.7v-3.4h-3.4V99.6
		L122.4,99.6z M112.3,92.9h-1.7v1.7h1.7V92.9L112.3,92.9z M117.3,94.6v1.7h-3.4v-3.4h1.7v1.7H117.3L117.3,94.6z M120.7,99.6H119v3.4
		h1.7V99.6L120.7,99.6z M134.2,99.6h-5.1v5.1h5.1V99.6L134.2,99.6z M139.2,99.6h1.7v5.1h-1.7v1.7h-1.7v-1.7h-1.7V103h1.7v-1.7h1.7
		V99.6L139.2,99.6z M112.3,113.1v-11.8h-11.8v11.8H112.3L112.3,113.1z M132.5,101.3h-1.7v1.7h1.7V101.3L132.5,101.3z M110.6,103
		h-8.4v8.4h8.4V103L110.6,103z M122.4,104.7V103h1.7v1.7H122.4L122.4,104.7z M108.9,104.7h-5.1v5.1h5.1V104.7L108.9,104.7z
		 M132.5,111.4h-1.7v-5.1h1.7v1.7h1.7v1.7h-1.7V111.4L132.5,111.4z M122.4,111.4H119v1.7h5.1v-3.4h-1.7V111.4L122.4,111.4z
		 M142.6,111.4h-1.7v1.7h1.7V111.4L142.6,111.4z"/>
</g>
<path class="st0" d="M75.1,30c2.9,0,5.7,0.7,8.5,0.9c2.9,0.2,5.7,1.2,8.6,1.1c1.3-0.1,2.7-0.2,4-0.1c1.6,0.2,3.1,0.5,4.7,0.7
	c3,0.3,6,0.4,9,0.4c12.5,0,25-0.1,37.4-0.1c3.2,0,6.4-0.2,9.5-0.1c1.1,0,1.7,0.5,2.4,1.2c0.4,0.4,0.8,0.8,1.2,1.2
	c0.1,0.1,0.2,0.3,0.3,0.4c0.1,0.2,0.2,0.6,0.2,0.2c0.1,1.4,1.1,2.5,2.5,2.5c0.3,0,0.4,0,0.4,0.1c0.1,0,0.1,0.1,0.2,0.1
	c0.3,0.2,0.4,0.4,0.4,0.9c0,0,0,0.2,0.1,0.5c0,0.1,0,0.7,0,0.4c-0.1,0.7-0.2,0.9-0.4,1.4c-1,2.2-1.4,4.6-1.7,6.9
	c-0.2,1.2-0.4,2.3-0.5,3.5c-0.1,1.2,0.4,2.4,0.6,3.6c0.3,2,0,4.4-0.2,6.5c-0.2,2.8-0.5,5.6-0.6,8.4c-0.1,2.3-0.2,4.8,0.3,7
	c0.4,1.6,1,3,1.2,4.6c0.2,2,0.1,4.1,0.1,6.1c-0.1,4.3,0,8.5-0.7,12.8c-0.4,2.2-0.5,4.3-0.4,6.5c0.1,1.9,0.3,3.9-0.1,5.8
	c-0.4,1.9-1.1,3.6-1.3,5.5c-0.3,2.1-0.4,4.1-0.3,6.2c0.1,4,0.3,7.9,0.2,11.9c0,2-0.1,4.1-0.4,6.1c-0.3,2.2-0.4,4.2-0.4,6.4
	c0,2-0.4,3.9-0.7,5.8c-0.2,1.5-0.2,3.2-0.5,4.7c-0.1,0.3-0.4,1.6-0.5,1.5c-0.1,0,0.5-0.1,0.2-0.2c-0.2-0.1-0.8,0-1-0.1
	c-2-0.1-3.7,0.7-5.7,1c-4.2,0.6-8.3,1.1-12.6,1c-2.2,0-4.3-0.1-6.5-0.1c-2.3,0-4.6,0.2-6.9,0c-2.1-0.2-4.1-0.7-6.1-0.9
	c-2.2-0.2-4.4-0.1-6.6-0.1c-4.5,0-9,0-13.6,0.1c-4.3,0-8.7,0.2-13,0c-1.9-0.1-3.7-0.7-5.5-0.9c-1.9-0.2-3.7,0-5.6,0.1
	c-1.8,0.1-3.5,0.3-5.2-0.2c0.6,0.6,1.2,1.2,1.7,1.7c-0.8-4.4-0.2-9,0-13.4c0.2-5,0-10.1,0-15.1c0-5.2,0.1-10.4,0-15.5
	c0-2.1-0.3-4.2-0.2-6.3c0-2.2,0.7-4.2,1.4-6.2c0.8-2.2,1.5-4.4,1.7-6.8c0.2-2.4,0-4.8,0-7.1c0-4.8,1.2-9.4,1.7-14.1
	c0.3-2.6,0.2-5.1,0.2-7.7c0-2.5,0.1-5.1-0.3-7.6c-0.3-2.2-1-4.4-1.5-6.6c-0.4-2.3-0.3-4.6-0.2-6.9c0.1-2.5,0-5-0.3-7.4
	c-0.3-2.4-1.1-4.9-0.7-7.2c0.3-1.7,1.1-2.8,2.4-3.7c0.5-0.4,1.4-0.8,1.7-0.9c0.7-0.1,0.6-0.1,1.2,0.6c0.8,1.1,2.7,0.9,3.5,0
	c1-1,0.8-2.5,0-3.5c-2.8-3.6-7.5-1.9-10.4,0.6c-3.7,3.3-3.8,8-3,12.5c0.4,2.2,0.6,4.3,0.6,6.6c0,2.5-0.2,5,0,7.6
	c0.2,2.5,0.9,4.9,1.4,7.4c0.6,2.5,0.5,5,0.5,7.6c0,2.6,0.1,5.2-0.1,7.8c-0.2,2.6-0.8,5.1-1.2,7.6c-0.4,2.5-0.6,5.1-0.6,7.6
	c0,2.5,0.3,5.1,0,7.6c-0.3,2.3-1.4,4.4-2.1,6.6c-0.8,2.3-1,4.6-1,7c0.1,5.1,0.2,10.2,0.2,15.3c0,6.2,0,12.4,0,18.7
	c0,5.5-0.8,11,0.2,16.4c0.2,0.8,1,1.5,1.7,1.7c4,1.1,7.9-0.4,11.8,0.2c2,0.3,3.9,0.9,5.9,0.9c2.2,0.1,4.4,0,6.6,0
	c4.7,0,9.4-0.1,14-0.1c2.4,0,4.8,0,7.1,0c2.2,0,4.4-0.1,6.5,0.3c2.3,0.4,4.5,0.8,6.9,0.8c2.4,0,4.7-0.1,7.1,0
	c4.6,0.1,9.1,0.2,13.7-0.5c2.1-0.3,4.2-0.4,6.2-1c0.9-0.2,1.6-0.5,2.5-0.4c0.9,0,1.7,0.1,2.6-0.1c4-1.1,3.8-5.8,4.1-9.1
	c0.2-2,0.8-4,0.9-6c0.2-2.2-0.1-4.3,0.2-6.4c0.7-4.4,0.8-8.9,0.6-13.4c-0.1-4-0.6-8,0.1-12c0.3-2.1,1.2-4,1.4-6
	c0.3-2.2,0.1-4.3,0.1-6.5c-0.1-2.2,0.2-4.3,0.5-6.4c0.3-2.3,0.5-4.6,0.6-6.9c0.1-4.4,0.4-9-0.3-13.3c-0.3-1.5-0.9-2.9-1.2-4.4
	c-0.1-0.5,0,0.4,0-0.1c0-0.3,0-0.5-0.1-0.8c0-0.6,0-1.3,0-1.9c0-2.9,0.2-5.8,0.4-8.6c0.2-2.2,0.4-4.5,0.5-6.7c0-1-0.1-2-0.2-2.9
	c-0.1-0.4-0.1-0.8-0.2-1.1c0-0.2-0.1-0.4-0.1-0.5c0-0.1-0.3-1.3-0.2-0.5c0.1,0.6,0.1-0.4,0.1-0.6c0-0.2,0-0.5,0.1-0.7
	c0,0,0-0.4,0-0.1c0,0.3,0.1-0.4,0.1-0.4c0.2-1.3,0.4-2.6,0.7-3.9c0.1-0.6,0.3-1.2,0.4-1.8c0.1-0.2,0.1-0.4,0.2-0.6
	c0.1-0.3,0.3-0.8,0-0.2c1.3-2.8,1.6-6.4-0.6-8.9c-1.1-1.3-2.7-1.8-4.4-1.9c0.8,0.8,1.7,1.7,2.5,2.5c-0.1-2.5-2-4.5-3.9-6.1
	c-2.4-2-4.9-2-7.8-1.9c-6.6,0.1-13.2,0-19.8,0c-6.7,0-13.4-0.1-20.1,0.1c-3.2,0.1-6.4,0.1-9.5,0c-1.6-0.1-3.1-0.2-4.7-0.4
	c-1.5-0.2-3-0.6-4.6-0.7c-1.7-0.1-3.5,0.2-5.2,0.1c-1.7-0.1-3.3-0.7-5-0.9c-1.6-0.2-3.1-0.2-4.7-0.5c-1.9-0.3-3.7-0.5-5.6-0.5
	C71.9,25,71.9,30,75.1,30L75.1,30z"/>
</svg>
