<?xml version="1.0" encoding="utf-8"?>
<!-- Generator: Adobe Illustrator 23.0.6, SVG Export Plug-In . SVG Version: 6.00 Build 0)  -->
<svg version="1.1" id="Lag_1" xmlns="http://www.w3.org/2000/svg" xmlns:xlink="http://www.w3.org/1999/xlink" x="0px" y="0px"
	 viewBox="0 0 226.8 226.8" style="enable-background:new 0 0 226.8 226.8;" xml:space="preserve">
<style type="text/css">
	.st0{fill:#9F8B77;}
	.st1{fill:#543F2D;}
	.st2{fill:#EFEDDF;}
	.st3{fill:#FFFFFF;}
	.st4{fill-rule:evenodd;clip-rule:evenodd;fill:#543F2D;}
	.st5{fill:#F6E747;}
	.st6{fill:#C1D22E;}
	.st7{fill:#563F2C;}
</style>
<g>
	<path class="st0" d="M75.5,58.5c0,2.3,0,4.6,0,6.9c0,3.7,1,6.9,1.2,10.4c0.1,2.7-0.1,5.3-0.1,8c0.1,3.6,1.2,6.7,1.2,10.4
		c0,2.9,0.9,5.2,1.2,8c0.3,3,0,6.2,0,9.2c0,6.7-0.2,12.5-2.6,18.7c-2.2,5.8-0.8,14.1-0.8,20.2c0,5.8,0,11.7,0,17.5
		c0,6,0,12.1,0,18.1c0,3.2,0,6.4,0,9.6c0,2.1-0.7,5.6,0,7.5c1.8,4.7,14,2.8,17.8,2.8c6.7,0,13.1,0.1,19.6,1.3
		c7.2,1.3,14.2,2.2,21.3,4.5c3.5,1.1,6.8,0.6,10.3,1.4c1.6,0.4,2.6,0.9,4.3,0.9c1.8,0,3.6-0.3,5.4-0.1c3.6,0.4,5.8,2.3,9.6,0.1
		c4.2-2.4,7.7-5.7,11.6-8.6c3.7-2.7,7.2-6.2,11.4-7.9c2.7-1.1,6-1.9,8.4-3.7c2.8-2,2.3-3.8,2.2-6.9c0-4.4,0-8.9,0-13.3
		c0-6.9,0-13.7,0-20.6c0-8.1,0-16.2,0-24.2c0-2.5,0.1-5,0-7.5c-0.1-2.3-1-4.3-1.3-6.6c-0.5-4.3,0.1-9.2,0.1-13.5
		c0-7.9-1.3-17.2,0.3-25c1.6-7.9,0.9-16.4,0.9-24.5"/>
	<path class="st1" d="M74.3,58.5c0,3.7-0.2,7.5,0.4,11.2c0.3,1.8,0.6,3.5,0.8,5.3c0.2,1.9,0.1,3.8,0,5.7c-0.1,1.8-0.1,3.7,0.2,5.5
		c0.2,1.7,0.6,3.3,0.8,5c0.2,1.8,0.1,3.6,0.3,5.3c0.2,1.7,0.7,3.3,0.9,5c0.5,3.6,0.1,7.3,0.1,11c0,3.5-0.1,7-0.7,10.4
		c-0.3,1.7-0.7,3.3-1.2,5c-0.5,1.5-1.1,3-1.5,4.6c-0.6,3.1-0.6,6.2-0.5,9.4c0.1,3.1,0.4,6.3,0.4,9.4c0,3.9,0,7.9,0,11.8
		c0,7.8,0,15.6,0,23.4c0,3.6,0.2,7.2-0.1,10.8c-0.2,2.4-0.7,5.4,0.9,7.4c1.2,1.4,3.2,2,4.9,2.3c2.2,0.4,4.5,0.4,6.8,0.3
		c1.9-0.1,3.8-0.2,5.7-0.3c3.3-0.1,6.7,0,10,0.1c3.7,0.2,7.3,0.6,11,1.2c3.7,0.6,7.4,1.2,11.1,2c1.8,0.4,3.6,0.8,5.4,1.2
		c1.9,0.5,3.7,1.2,5.6,1.6c1.8,0.3,3.6,0.4,5.4,0.5c1.7,0.1,3.3,0.5,5,1c1.7,0.5,3.3,0.4,5,0.3c1.7-0.1,3.3,0,5,0.4
		c1.4,0.3,2.7,0.8,4.1,0.7c1.6,0,3.1-0.6,4.5-1.5c3-1.8,5.7-4,8.4-6.2c2.7-2.1,5.4-4.2,8.1-6.3c1.3-1,2.7-2,4.2-2.8
		c1.4-0.8,2.9-1.3,4.4-1.8c2.8-1,6.1-2.1,7.8-4.7c0.7-1,0.9-2.1,0.9-3.3c0-1.5,0-3,0-4.6c0-3.8,0-7.6,0-11.4c0-7.8,0-15.6,0-23.5
		c0-7.8-0.1-15.6,0-23.4c0-1.9,0.1-3.8,0-5.6c-0.1-1.8-0.6-3.5-1-5.3c-0.7-3.4-0.4-7.1-0.3-10.6c0.3-7.1-0.5-14.1-0.4-21.2
		c0-1.7,0.1-3.4,0.3-5.1c0.2-1.7,0.6-3.4,0.8-5.1c0.5-3.7,0.6-7.4,0.6-11.2c0-3.6-0.1-7.3-0.1-10.9c0-1.5-2.3-1.5-2.3,0
		c0,7.3,0.6,14.8-0.5,22.1c-0.3,1.7-0.6,3.4-0.8,5.1c-0.2,1.7-0.3,3.3-0.3,5c-0.1,3.5,0.1,7,0.3,10.4c0.2,3.4,0.3,6.9,0.1,10.3
		c-0.2,3.5-0.4,7.1,0.1,10.6c0.3,1.7,0.9,3.4,1.1,5.1c0.2,1.8,0.1,3.6,0.1,5.4c-0.1,3.8,0,7.7,0,11.5c0,15.3,0,30.6,0,45.9
		c0,1.7,0,3.4,0,5.1c0,0.9,0.1,2-0.3,2.9c-0.6,1.2-1.9,1.9-3,2.5c-1.4,0.8-3,1.3-4.5,1.8c-1.5,0.5-3,1.1-4.4,1.9
		c-1.4,0.8-2.8,1.8-4.1,2.8c-2.6,2-5.3,4.1-7.9,6.1c-2.7,2.1-5.4,4.4-8.3,6.2c-1.3,0.8-2.6,1.4-4.2,1.2c-1.3-0.1-2.6-0.6-3.9-0.9
		c-1.7-0.4-3.4-0.3-5.1-0.2c-0.8,0-1.7,0.1-2.5,0c-0.8-0.1-1.5-0.3-2.3-0.6c-3.5-1-7.2-0.5-10.7-1.5c-1.8-0.5-3.5-1.1-5.3-1.5
		c-1.8-0.5-3.6-0.8-5.4-1.2c-3.6-0.7-7.2-1.3-10.8-1.9c-6.8-1.2-13.9-1.6-20.9-1.3c-3.9,0.1-8,0.7-11.9,0.1
		c-0.9-0.1-1.8-0.3-2.6-0.7c-0.7-0.3-1.2-0.7-1.5-1.2c-0.2-0.3-0.3-0.8-0.3-1.3c-0.1-0.7,0-1.4,0-2.1c0.1-1.4,0.3-2.8,0.3-4.2
		c0-7.7,0-15.3,0-23c0-7.6,0.1-15.2,0-22.8c-0.1-6-1.3-12.4,0.5-18.2c0.5-1.6,1.1-3.2,1.6-4.8c0.4-1.6,0.7-3.2,0.9-4.9
		c0.4-3.4,0.5-6.9,0.5-10.4c0-3.6,0.4-7.3-0.2-10.9c-0.3-1.6-0.7-3.2-0.9-4.9c-0.1-1.7-0.1-3.4-0.3-5.1c-0.2-1.6-0.6-3.3-0.8-4.9
		c-0.2-1.9-0.1-3.7-0.1-5.6c0.1-1.8,0.1-3.6-0.1-5.5c-0.2-1.7-0.5-3.4-0.8-5.1c-0.5-3.5-0.3-7.1-0.3-10.7
		C76.6,57.1,74.3,57.1,74.3,58.5L74.3,58.5z"/>
</g>
<g>
	<path class="st1" d="M74.3,55.1c10.6,0,21.2-2.1,31.1-5.5c2.6-0.9,4.8-2.1,7.3-3c2.4-0.9,5.1-1.2,7.6-1.8c2.3-0.6,5.2-1.3,7.6-1.2
		c2.5,0.1,4.8,1,7.3,1.2c5.5,0.4,10.9,2.3,16.5,2.4c2.7,0,4.3,0.8,6.8,1.2c2.9,0.5,6-0.3,9,0.2c6,1,11.7,2,17.9,2
		c6,0,6.8,0.7,12.8,0.7c-6.8-0.2-7.8,2.5-14.4,4.2c-5.4,1.4-10.8,2.9-16.2,4.6c-5.1,1.6-11,4.1-16.4,4.3c-2.4,0.1-4.2-0.5-6.6-0.9
		c-3.2-0.6-6.4-0.1-9.6-0.2c-3-0.1-5.6-1.2-8.6-1.2c-2.9,0-5.8,0-8.8,0c-7,0-14.1,0-21.1,0c-6.1,0-11.1,0-16.8-2
		c-1.6-0.5-6.2-1.1-5.8-3.5c0.4-2.4,3-1.1,4.6-1.4c1.3-0.2,2.4-1,3.7-1.2"/>
	<path class="st1" d="M74.3,56.2c8.7,0,17.4-1.4,25.7-3.8c2.1-0.6,4.2-1.2,6.3-2c2-0.7,4-1.7,5.9-2.5c1.9-0.8,3.9-1.2,5.9-1.6
		c2-0.4,4-1,6-1.4c2-0.4,3.9-0.4,5.9-0.1c1.1,0.2,2.1,0.4,3.1,0.6c1.1,0.2,2.1,0.3,3.2,0.4c4.3,0.5,8.4,1.7,12.7,2.1
		c2,0.2,3.9,0.1,5.9,0.6c1.9,0.4,3.8,0.9,5.8,0.9c2.1,0,4.3-0.3,6.4,0c2.2,0.3,4.3,0.7,6.4,1.1c2.2,0.3,4.3,0.6,6.5,0.8
		c2.2,0.2,4.4,0.2,6.7,0.3c2.9,0,5.8,0.5,8.7,0.6c1,0.1,2,0.1,2.9,0.1c1.5,0,1.5-2.2,0-2.3c-2,0-4,0.1-5.9,0.7
		c-1.5,0.5-2.9,1.3-4.4,1.9c-2,0.9-4,1.5-6.1,2c-2.5,0.7-5,1.3-7.5,2.1c-2.5,0.7-4.9,1.4-7.4,2.2c-2.2,0.7-4.4,1.5-6.6,2.2
		c-2.3,0.7-4.6,1.4-6.9,1.7c-2.3,0.3-4.4,0.1-6.6-0.3c-1.2-0.3-2.4-0.5-3.7-0.6c-1.3-0.1-2.6-0.1-3.8,0c-2.5,0.1-4.9,0.1-7.3-0.4
		c-1.2-0.2-2.4-0.5-3.6-0.6c-1.2-0.2-2.5-0.1-3.8-0.1c-2.6,0-5.3,0-7.9,0c-5.3,0-10.6,0-15.9,0c-4.8,0-9.7,0.2-14.4-0.4
		c-2.3-0.3-4.4-0.9-6.6-1.6c-1.2-0.4-2.6-0.6-3.7-1.1c-0.1-0.1-0.3-0.2-0.4-0.2c-0.1-0.1-0.2-0.2-0.2-0.2c-0.1-0.1-0.2-0.2-0.3-0.3
		c0.1,0.1,0-0.1,0-0.1c0,0-0.1-0.2,0,0c0,0,0-0.1,0-0.2c0-0.2,0,0.2,0-0.1c0-0.1,0-0.2,0.1-0.3c0-0.1,0.1-0.1,0.1-0.1
		c0,0,0.2-0.1,0.1-0.1c0.2-0.1,0.3-0.1,0.7-0.1c0.4,0,0.7,0.1,1.1,0.1c0.8,0.1,1.6,0.1,2.4-0.2c1-0.3,2-0.9,3.1-1
		c0.6-0.1,0.9-0.9,0.8-1.4c-0.2-0.7-0.8-0.9-1.4-0.8c-1.2,0.2-2.1,0.8-3.3,1.1C78.4,54,78.3,54,77.9,54c-0.4,0-0.7-0.1-1.1-0.1
		c-1.7-0.2-3.4,0.3-3.8,2.3c-0.7,3.5,4,4.1,6.3,4.8c2.3,0.7,4.5,1.3,6.9,1.6c2.4,0.3,4.8,0.4,7.3,0.5c5.3,0.1,10.7,0,16,0
		c5.5,0,10.9-0.1,16.4,0c1.2,0,2.4,0.1,3.7,0.3c1.2,0.2,2.4,0.5,3.6,0.7c2.7,0.4,5.3,0.1,8,0.1c1.3,0,2.6,0.1,3.9,0.3
		c1.1,0.2,2.3,0.5,3.4,0.7c2.5,0.4,4.9,0.2,7.3-0.3c4.8-1,9.4-2.9,14.1-4.4c2.6-0.8,5.2-1.6,7.8-2.3c2.5-0.7,5.1-1.3,7.6-2.1
		c1.8-0.6,3.6-1.4,5.3-2.2c1.5-0.7,2.9-1.3,4.5-1.5c1-0.2,2.1-0.2,3.1-0.1c0-0.8,0-1.5,0-2.3c-3.1,0-6.1-0.4-9.1-0.6
		c-2-0.1-3.9-0.1-5.9-0.1c-2.2-0.1-4.3-0.3-6.5-0.5c-2.2-0.3-4.3-0.6-6.4-1c-2.2-0.4-4.3-0.7-6.5-0.6c-2.1,0.1-4.1,0.2-6.1-0.2
		c-1.9-0.4-3.7-0.9-5.6-1c-2.1-0.1-4.2-0.3-6.3-0.6c-2.1-0.4-4.2-0.8-6.3-1.2c-2.1-0.4-4.3-0.5-6.4-0.9c-2.1-0.4-4.1-0.9-6.2-0.9
		c-2,0.1-4,0.5-6,1c-2,0.5-4,0.9-6,1.3c-2.1,0.5-4,1.4-6,2.3c-1.9,0.9-3.9,1.6-5.9,2.2c-8.2,2.6-16.8,4.3-25.4,4.7
		c-1.1,0-2.2,0.1-3.3,0.1C72.8,54,72.8,56.2,74.3,56.2L74.3,56.2z"/>
</g>
<path class="st1" d="M154.9,64.3c0,2.4,0.9,4.6,1.1,6.9c0.2,2.6,0,5.2,0,7.9c0,5.5,0,10.9,0,16.4c0,2.6,0.1,5.2,0,7.8
	c-0.2,2.4-0.6,4.8-1.2,7.1c-1.1,4.7-2.2,9.3-2.2,14.2c0,5.4,0,10.9,0,16.3c0,5-0.4,10.1,0.2,15.1c0.2,1.2,0.4,2.5,0.7,3.6
	c0.3,1.2,0.3,2.3,0.3,3.5c0,1.2,0.1,2.3,0.4,3.4c0.3,1.1,0.7,2.1,0.8,3.3c0.3,2.4,0.1,4.8,0,7.2c-0.1,2.5-0.1,5,0.2,7.5
	c0.4,5.2,1.6,10.1,3.1,15.1c0.7,2.4,1,5,1.4,7.5c0.4,2.3,1.3,4.3,1.9,6.5c0.3,1,0.5,2.1,0.4,3.1c0.7,0.1,1.5,0.2,2.2,0.3
	c0-1.4,0-2.8,0-4.3c0-1.5-2.3-1.5-2.3,0c0,1.4,0,2.8,0,4.3c0,1.2,2,1.6,2.2,0.3c0.3-2.3-0.4-4.5-1.1-6.7c-0.8-2.3-1.2-4.6-1.5-7
	c-0.4-2.6-1.1-5-1.8-7.5c-0.7-2.5-1.3-5-1.7-7.6c-0.4-2.5-0.6-5-0.7-7.6c-0.1-2.4,0.1-4.8,0.2-7.3c0-2.4-0.1-4.8-0.8-7
	c-0.4-1.1-0.6-2.1-0.6-3.3c0-1.2,0.1-2.4-0.1-3.5c-0.3-1.2-0.6-2.4-0.8-3.6c-0.2-1.2-0.2-2.5-0.3-3.7c-0.1-2.5,0-5.1,0.1-7.6
	c0.1-5.3,0.1-10.6,0.1-15.9c0-2.6-0.1-5.2,0.1-7.8c0.2-2.4,0.7-4.7,1.3-7c0.5-2.3,1.1-4.7,1.5-7c0.4-2.5,0.5-5,0.5-7.5
	c0-5.4,0-10.8,0-16.3c0-2.7,0-5.4,0.1-8.1c0-1.3,0-2.7-0.1-4c-0.1-1.2-0.4-2.3-0.6-3.5c-0.3-1.1-0.5-2.3-0.5-3.5
	C157.1,62.8,154.9,62.8,154.9,64.3L154.9,64.3z"/>
<g>
	<path class="st2" d="M72,40.1c0-3.1-1-8.3,0.6-10.9c2.4-3.8,10.3-6.4,14.4-7.5c9.1-2.4,17.6-7,26.5-10.1c2.2-0.8,4.3-1.2,6.6-1.4
		c1.8-0.2,3.1-0.9,4.8-1.2c4.1-0.8,9.9-0.2,13.8,0.9c2.3,0.7,4.7,1,6.9,1.7c2.5,0.8,4.6,0.6,7.2,1.1c2.2,0.4,4,0.9,6.3,0.9
		c3.7-0.1,6.1,1,9.5,2c3.6,1.1,6.5,1.4,10.3,1.4c5.1,0,11.1-1,15.8,0.8c4.4,1.6,7,5,7.2,9.5c0.1,2.1,0.1,2.7-0.3,4.8
		c-0.8,3.4-3,4.1-6,4.6c-4.8,0.8-10.1,2.9-14.6,4.8c-6.1,2.5-12.1,3.2-18.3,5.2c-4.6,1.5-8.7,1.4-13.4,1.4c-6.7,0-11.3-1.3-18-1.3
		c-6,0-13.8-0.4-19.8-0.4c-6.2,0-12.5,0.1-18.6-0.9c-4.4-0.7-9.6,1-17.5-0.8c-2.9-0.7-4.8-4.6-3.7-6.9"/>
	<path class="st1" d="M73.1,40.1c0-2-0.3-4-0.3-6c0-1.6,0-3.5,1.1-4.8c1.1-1.4,2.7-2.3,4.2-3.1c1.7-0.9,3.6-1.6,5.5-2.3
		c1.8-0.6,3.6-1.1,5.5-1.6c2.6-0.8,5.1-1.7,7.6-2.7c5-2,10-4.3,15-6.2c2.4-0.9,4.9-1.7,7.5-2c1.3-0.2,2.5-0.3,3.8-0.7
		c1.1-0.3,2.2-0.7,3.3-0.8c2.3-0.3,4.7-0.2,6.9,0.1c2.4,0.3,4.6,0.9,6.9,1.5c1.4,0.3,2.7,0.6,4.1,0.9c1.3,0.3,2.5,0.7,3.8,0.9
		c1.3,0.2,2.5,0.2,3.8,0.4c1.3,0.2,2.5,0.5,3.7,0.7c2.5,0.5,5.1,0.2,7.6,0.7c2.4,0.5,4.7,1.5,7.1,2.1c4.9,1.2,9.8,1,14.8,0.8
		c4.4-0.2,9.4-0.2,12.9,2.8c1.4,1.2,2.4,2.7,2.8,4.5c0.2,1,0.3,2,0.3,3c0,1,0,1.9-0.2,2.9c-0.3,1.7-1,3.1-2.7,3.7
		c-0.9,0.3-1.8,0.5-2.6,0.6c-1.3,0.2-2.5,0.5-3.8,0.8c-2.6,0.7-5.1,1.6-7.5,2.6c-2.5,1-4.9,2-7.5,2.8c-2.6,0.8-5.3,1.4-7.9,2
		c-1.3,0.3-2.6,0.6-3.9,1c-1.3,0.4-2.7,0.9-4,1.2c-2.5,0.6-5,0.8-7.6,0.8c-2.7,0-5.4,0-8.1-0.2c-2.4-0.2-4.9-0.5-7.3-0.8
		c-2.5-0.3-5.1-0.3-7.6-0.4c-5,0-9.9-0.3-14.9-0.4c-5.4-0.1-10.7,0.1-16.1-0.3c-1.4-0.1-2.8-0.2-4.2-0.4c-1.1-0.1-2.1-0.3-3.2-0.4
		c-1.8-0.1-3.6,0-5.4,0.1c-2.2,0.1-4.4,0.1-6.6-0.1c-1.3-0.1-2.6-0.3-3.9-0.6c-0.8-0.2-1.5-0.6-2-1.2c-0.9-1-1.7-2.8-1.1-4.1
		c0.2-0.6,0.2-1.2-0.4-1.6c-0.5-0.3-1.3-0.2-1.6,0.4c-0.8,1.9-0.5,4,0.6,5.7c0.5,0.9,1.3,1.6,2.1,2.2c1,0.7,2.2,0.8,3.4,1.1
		c2.5,0.4,5,0.6,7.5,0.6c2,0,3.9-0.2,5.9-0.2c2.3,0,4.5,0.5,6.8,0.7c2.9,0.3,5.8,0.3,8.7,0.4c5.3,0,10.6,0.1,15.9,0.2
		c2.6,0.1,5.2,0.2,7.8,0.2c2.7,0,5.3,0.1,7.9,0.3c2.5,0.2,5,0.6,7.5,0.8c2.8,0.2,5.6,0.2,8.4,0.2c2.7,0,5.4-0.2,8.1-0.9
		c1.4-0.3,2.7-0.8,4.1-1.2c1.4-0.4,2.7-0.7,4.1-1.1c2.7-0.7,5.5-1.3,8.1-2.1c2.7-0.8,5.2-2,7.8-3c2.6-1,5.2-1.9,7.9-2.6
		c2.1-0.5,4.3-0.6,6.2-1.6c1.9-0.9,2.9-2.8,3.3-4.8c0.4-2.2,0.5-4.5,0.1-6.6c-0.8-4.3-4.2-7.4-8.3-8.7c-4.9-1.6-10.2-0.7-15.2-0.7
		c-2.5,0-5.1-0.1-7.5-0.6c-2.5-0.5-5-1.5-7.5-2.2c-1.2-0.3-2.5-0.5-3.7-0.6c-1.3-0.1-2.7,0-4-0.2c-1.3-0.2-2.6-0.5-3.9-0.8
		c-1.3-0.2-2.7-0.3-4-0.5c-1.3-0.2-2.6-0.6-3.9-0.9c-1.4-0.4-2.8-0.6-4.2-1c-1.2-0.3-2.3-0.6-3.5-0.9c-1.2-0.3-2.5-0.5-3.8-0.6
		c-2.4-0.3-4.9-0.4-7.4-0.1c-1.2,0.2-2.4,0.4-3.5,0.8c-1.2,0.4-2.4,0.6-3.7,0.7c-5.5,0.7-10.7,3.2-15.8,5.4
		c-5.1,2.2-10.2,4.4-15.6,5.9c-3.8,1.1-7.7,2.2-11.2,4.2c-1.6,0.9-3.2,2.1-4.4,3.6c-1.2,1.7-1.3,3.9-1.3,5.8c0,2,0.3,4,0.3,6
		C70.9,41.6,73.1,41.6,73.1,40.1L73.1,40.1z"/>
</g>
<g>
	<path class="st2" d="M75.5,30.9C99,30.9,123,30,146.2,32c2.6,0.2,4.8,1.1,7.5,1.2c2.5,0.1,5,0.1,7.5,0c2.7,0,4.9-1,7.5-1.2
		c1.1-0.1,2.4,0.2,3.5,0.1c1.5-0.2,1.3-0.5,2.5-0.9c2.4-0.7,5.1-1.1,7.2-2.6c1.8-1.3,1.8-1.9,4.1-2.3c2.3-0.4,4-1,6.1-2
		c1.7-0.8,3.6-2.4,5.5-2.6"/>
	<path class="st1" d="M75.5,32.1c8.8,0,17.7-0.1,26.5-0.2c8.8-0.1,17.6,0,26.4,0.3c4.4,0.1,8.8,0.4,13.1,0.7
		c2.1,0.1,4.3,0.2,6.3,0.6c2,0.4,3.9,0.9,6,0.9c2.2,0.1,4.4,0.1,6.6,0c2.1,0,4-0.4,6-0.9c0.9-0.2,1.9-0.4,2.8-0.4c1,0,2,0.2,3,0
		c0.7-0.1,1.4-0.3,2-0.6c0.6-0.3,1.4-0.5,2.1-0.7c1.8-0.5,3.7-0.9,5.3-1.9c0.7-0.4,1.4-1,2.1-1.6c0.4-0.3,0.7-0.6,1.1-0.8
		c0.8-0.3,1.7-0.4,2.5-0.5c0.9-0.2,1.8-0.5,2.7-0.8c1.8-0.7,3.4-1.6,5-2.5c0.7-0.4,1.5-0.9,2.3-1c0.6-0.1,1.1-0.5,1.1-1.1
		c0-0.6-0.5-1.2-1.1-1.1c-2,0.2-3.5,1.3-5.2,2.3c-1.6,0.9-3.3,1.6-5,2c-1.6,0.4-3.1,0.5-4.4,1.5c-0.5,0.4-1,0.9-1.5,1.2
		c-0.7,0.5-1.6,0.9-2.4,1.2c-1.7,0.6-3.6,0.8-5.2,1.5c-0.2,0.1-0.4,0.2-0.6,0.3c-0.1,0-0.1,0.1-0.2,0.1c0,0,0.1-0.1,0,0
		c-0.2,0.1-0.4,0.1-0.6,0.1c-1,0.2-2-0.1-3-0.1c-2,0-3.9,0.6-5.8,1c-2,0.4-4.2,0.3-6.2,0.3c-2.1,0-4.2,0-6.3-0.4
		c-2-0.4-4-0.8-6.1-0.9c-4.4-0.4-8.7-0.6-13.1-0.8c-8.8-0.4-17.6-0.4-26.5-0.4c-8.8,0-17.6,0.2-26.4,0.2c-1.1,0-2.2,0-3.3,0
		C74,29.8,74,32.1,75.5,32.1L75.5,32.1z"/>
</g>
<g>
	<path class="st2" d="M174.9,41.3c-2.2,0,1.4,159.7,2.6,163.1c1.3,0,8.6-6.9,9.9-7.8c1.8-1.2-2-143.9-1.6-146.1
		c0.7-3.4,0.4-8.6-0.1-11.8"/>
	<path class="st1" d="M174.9,40.1c-1.2,0.1-1.3,1.2-1.4,2.1c-0.1,1-0.2,2-0.2,3c-0.2,3.8-0.2,7.7-0.2,11.5c0,5.7,0,11.5,0,17.2
		c0.1,7,0.1,14,0.2,21.1c0.1,7.7,0.2,15.5,0.4,23.2c0.1,7.9,0.3,15.7,0.5,23.6c0.2,7.4,0.3,14.8,0.5,22.2c0.2,6.3,0.3,12.6,0.6,18.9
		c0.1,4.6,0.3,9.2,0.5,13.9c0.1,2.4,0.2,4.8,0.4,7.1c0,0.3,0,0.5,0.1,0.8c0.2,0.5,0.6,0.9,1.1,0.8c1.4,0,2.8-1.5,3.9-2.3
		c1.6-1.3,3.2-2.7,4.8-4.1c0.6-0.5,1.1-1,1.7-1.4c0.2-0.1-0.1,0.1,0.1-0.1c0.1-0.1,0.2-0.2,0.3-0.2c0.1-0.1,0.2-0.2,0.2-0.3
		c0.1-0.3,0.2-0.5,0.2-0.8c0.4-2.6,0.3-5.3,0.3-7.9c0.1-4.9,0-9.9,0-14.8c0-6.6-0.1-13.3-0.2-19.9c-0.1-7.6-0.2-15.2-0.4-22.7
		c-0.1-7.8-0.3-15.6-0.4-23.4c-0.1-7.3-0.3-14.6-0.4-21.9c-0.1-6.1-0.2-12.1-0.4-18.2c-0.1-4.2-0.2-8.3-0.2-12.5c0-1.1,0-2.2,0-3.4
		c0-0.3,0-0.6,0-0.9c0-0.3,0.1-0.2,0,0.1c0.4-1.1,0.4-2.5,0.4-3.7c0.1-2.9-0.1-5.8-0.5-8.7c-0.1-0.6-0.9-0.9-1.4-0.8
		c-0.6,0.2-0.9,0.8-0.8,1.4c0.5,2.9,0.6,5.9,0.4,8.9c-0.1,1-0.3,1.9-0.3,2.9c0,0.8,0,1.5,0,2.3c0,3.5,0.1,7.1,0.2,10.6
		c0.1,5.6,0.2,11.2,0.3,16.8c0.1,7,0.3,14,0.4,21c0.2,7.7,0.3,15.3,0.4,23c0.1,7.6,0.3,15.3,0.4,22.9c0.1,6.9,0.2,13.8,0.3,20.7
		c0.1,5.5,0.1,10.9,0.1,16.4c0,3.3,0,6.7-0.2,10c0,0.4-0.1,0.8-0.1,1.3c0,0.4,0-0.3,0,0.1c0,0.1-0.1,0.2-0.1,0.3
		c0,0.1,0.2-0.3,0.1-0.2c0.1-0.1,0.6-0.5,0.2-0.2c-0.6,0.4-1.1,0.9-1.7,1.4c-1.5,1.3-3,2.7-4.6,3.9c-0.7,0.5-1.3,1.1-2,1.6
		c-0.3,0.2-0.5,0.3-0.8,0.5c-0.1,0.1-0.2,0.2-0.1,0.1c-0.1,0.1-0.3,0,0,0c0.4,0.3,0.7,0.6,1.1,0.8c0-0.1,0-0.2,0-0.2
		c-0.2-0.3,0,0.3,0,0c0-0.4-0.1-0.7-0.1-1.1c-0.1-1.2-0.2-2.4-0.2-3.6c-0.2-4.1-0.3-8.2-0.5-12.3c-0.2-5.9-0.4-11.8-0.5-17.7
		c-0.2-7.1-0.4-14.2-0.5-21.3c-0.2-7.7-0.3-15.4-0.5-23.2c-0.2-7.8-0.3-15.5-0.4-23.3c-0.1-7.2-0.2-14.5-0.3-21.7
		c-0.1-6.1-0.1-12.2-0.1-18.4c0-4.4,0-8.8,0.1-13.3c0-1.4,0.1-2.8,0.2-4.2c0-0.5,0.1-0.9,0.1-1.4c0-0.1,0-0.2,0-0.2c0-0.3,0,0.1,0,0
		c0-0.1,0-0.3,0.1-0.4c0-0.2,0.1-0.2,0-0.1c-0.1,0.1-0.1,0.2,0,0.1c-0.2,0.3-0.5,0.5-0.9,0.5C176.4,42.3,176.4,40,174.9,40.1
		L174.9,40.1z"/>
</g>
<g>
	<path class="st2" d="M91.2,46c0,3.5,1.2,4.5,1.8,7.8c1.2-0.3,2-1.5,3.1-2.2c1.6-1,3-0.8,4.7-1.4c2.4-0.8,3.4-0.2,4.2-2.5"/>
	<path class="st1" d="M90.1,46c0,1.4,0.2,2.8,0.7,4.2c0.4,1.3,0.9,2.6,1.1,3.9c0.1,0.6,0.9,1,1.4,0.8c1.4-0.4,2.2-1.6,3.4-2.3
		c1.3-0.8,2.9-0.8,4.4-1.2c1-0.3,2-0.4,2.9-0.8c1.2-0.5,1.8-1.4,2.1-2.6c0.5-1.4-1.7-2-2.2-0.6c-0.1,0.2-0.1,0.4-0.3,0.6
		c0,0-0.2,0.3-0.1,0.2c0.1-0.1-0.1,0.1-0.1,0.1c-0.2,0.2,0.2-0.1-0.1,0c0,0-0.3,0.2-0.1,0c-0.1,0.1-0.3,0.1-0.5,0.1
		c-0.4,0.1-0.9,0.2-1.3,0.3c-0.6,0.1-1.3,0.4-1.9,0.5c-1.4,0.3-2.8,0.5-4.1,1.2c-0.6,0.3-1.1,0.8-1.6,1.2c-0.4,0.4-0.8,0.7-1.3,0.9
		c0.5,0.3,0.9,0.5,1.4,0.8c-0.2-1.3-0.6-2.5-1.1-3.8c-0.4-1.2-0.6-2.4-0.7-3.7C92.3,44.6,90.1,44.6,90.1,46L90.1,46z"/>
</g>
<g>
	<path class="st1" d="M80.5,84.6c-0.8,0.3,0,0.7-0.2,1.4C80,87.1,80,88.2,80,89.3c0,1.3,0.6,1.8,1.3,2.7c0.4,0.5,0.5,0.8,1.1,0.9
		c0.9,0.2,2.1,0.3,3,0.4c2.5,0.3,5.3,0,7.9,0c1.2,0,2.5,0.2,3.7,0c1.2-0.2,2.1-1.6,2.4-2.7c0.6-2.3,0.3-4.9,0.3-7.3
		c0-2.4,0-11.1-0.3-13.4c-0.2-1.4-1-2.5-2.4-2.8c-2-0.4-3.8-0.5-5.8-0.5c-1.2,0-2.5,0-3.7,0c-1.4,0-2.7-0.3-4.1-0.4
		c-0.4,0-2.1,1.7-2.1,2.1c0,1.4-0.1,9.1-0.3,10.4c-0.2,1.3-0.7,2.4-0.7,3.7c0,1.2,0,2.5,0,3.7"/>
</g>
<g>
	<path class="st3" d="M81.7,84.5c-0.7,0.3,0,0.6-0.2,1.2c-0.2,0.9-0.3,1.8-0.3,2.8c0,1.1,0.5,1.6,1.1,2.4c0.3,0.4,0.4,0.7,0.9,0.8
		c0.7,0.2,1.7,0.2,2.5,0.3c2.1,0.3,4.4,0,6.4,0c1,0,2.1,0.1,3,0c0.9-0.2,1.7-1.4,1.9-2.3c0.5-2,0.3-4.3,0.3-6.4
		c0-2.1,0-9.7-0.3-11.7c-0.2-1.2-0.8-2.2-1.9-2.4c-1.6-0.3-3.1-0.4-4.8-0.4c-1,0-2,0-3,0c-1.1,0-2.2-0.3-3.3-0.3
		c-0.4,0-1.7,1.5-1.7,1.8c0,1.2-0.1,7.9-0.3,9.1c-0.2,1.1-0.6,2.1-0.6,3.3c0,1.1,0,2.2,0,3.2"/>
</g>
<g>
	<path class="st4" d="M87.7,80.5h-2.6v2.6h2.6V80.5L87.7,80.5z M89.2,81.3h0.4v-0.7h-1.5v0.7h0.4v0.4h0.4v-0.4h-0.4v-0.4h0.7V81.3
		L89.2,81.3z M86.9,83.9h-0.4v0.4h0.7v0.4h-0.4V85h-0.4v-0.4h-0.4v-1.1h-1.1v0.4h0.7V85h-0.4v-0.4h-0.4V85h0.4v0.7h-0.4v0.4h0.7v0.4
		h-0.7v0.4h0.7v-0.4h0.4v0.4h0.4v-0.4h-0.4v-0.4h0.4v-0.4h-0.7v-0.4h1.1v1.1h0.4v0.4h0.4v-0.4h-0.4v-0.4h0.7v1.1h0.4v0.4h-0.4V88
		h0.4v0.4h0.4v0.4h-0.7v1.1h0.7v-0.7h0.7v-0.4h-0.4V88h0.7v0.7h0.7v-0.4h0.7v0.4h-0.4v0.4h-0.4v0.4h0.4v0.4h0.4v-0.4h0.4v0.4h0.4
		v-0.4h0.7v0.4h0.4v-0.4h-0.4v-0.7h0.7v0.4h0.7v-0.4h-0.4v-0.4h0.4v-1.5h-0.4v-0.4h-0.4v0.4h-0.4v0.4h-0.4v-0.7h-0.7v-0.4h-0.4v0.4
		h-0.4v-0.4h-0.4v-0.4h0.4V85h-0.4v0.4h-0.4v-0.7h0.4v-0.4h0.4v-0.4h0.4v0.4h0.4v0.4h-0.4v1.1h0.7v0.4h1.1v-0.4h0.4v0.4h0.4V85h-0.4
		v0.4h-0.4v0.4h-1.1v-0.4h-0.4v-0.7h0.4v-0.4h-0.4v-0.4h0.7V85h0.4v-0.4h0.4v-0.4h0.4v0.4h0.4v-1.1h-0.7v0.7h-0.4v-0.4h-0.4v-0.4
		h-1.5v-2.2h-0.4v2.2h-0.4v0.7h-0.7v-0.4h0.4v-0.7h0.4V82h-0.4v0.4h-0.4v-0.7h0.4v-0.4h0.4v-0.7h-0.7v1.1h-0.7v0.7h-0.7V82h-0.4v2.2
		h0.4v0.4h-0.7v-0.4h-0.4v-0.4h0.4v-0.4h-0.7V83.9L86.9,83.9z M94.4,80.5h-2.6v2.6h2.6V80.5L94.4,80.5z M87.3,80.9h-1.9v1.9h1.9
		V80.9L87.3,80.9z M94.1,80.9h-1.9v1.9h1.9V80.9L94.1,80.9z M86.9,81.3h-1.1v1.1h1.1V81.3L86.9,81.3z M93.7,81.3h-1.1v1.1h1.1V81.3
		L93.7,81.3z M89.2,82.4h0.4v0.7h0.4v0.4h-0.7v0.4h0.4v0.7h-0.4v-0.4h-0.7v-0.4h0.4v-0.7h0.4V82.4L89.2,82.4z M88.4,82.8h0.4v0.4
		h-0.4V82.8L88.4,82.8z M89.9,83.2v-0.4h0.4v0.4H89.9L89.9,83.2z M91.1,83.9v-0.4h0.4v0.4H91.1L91.1,83.9z M87.3,85v-0.4h0.4V85
		H87.3L87.3,85z M88.4,84.7h0.4V85h-0.4V84.7L88.4,84.7z M89.9,85v-0.4h0.4V85H89.9L89.9,85z M89.9,86.9h0.4v-0.7h-0.4v0.4h-0.7
		v-0.4h0.4v-0.4h-0.4V85h0.7v0.7h0.7v0.7h0.4V88h-0.4v-0.7h-0.7V86.9L89.9,86.9z M87.7,85.4h-0.4v0.4h0.4V85.4L87.7,85.4z
		 M88.8,85.8v0.4h-0.7v-0.7h0.4v0.4H88.8L88.8,85.8z M89.6,86.9h-0.4v0.7h0.4V86.9L89.6,86.9z M92.6,86.9h-1.1V88h1.1V86.9
		L92.6,86.9z M93.7,86.9h0.4V88h-0.4v0.4h-0.4V88h-0.4v-0.4h0.4v-0.4h0.4V86.9L93.7,86.9z M87.7,89.9v-2.6h-2.6v2.6H87.7L87.7,89.9z
		 M92.2,87.3h-0.4v0.4h0.4V87.3L92.2,87.3z M87.3,87.7h-1.9v1.9h1.9V87.7L87.3,87.7z M89.9,88v-0.4h0.4V88H89.9L89.9,88z M86.9,88
		h-1.1v1.1h1.1V88L86.9,88z M92.2,89.5h-0.4v-1.1h0.4v0.4h0.4v0.4h-0.4V89.5L92.2,89.5z M89.9,89.5h-0.7v0.4h1.1v-0.7h-0.4V89.5
		L89.9,89.5z M94.4,89.5h-0.4v0.4h0.4V89.5L94.4,89.5z"/>
</g>
<g>
	<path class="st5" d="M88.5,73.6c0,0-0.4-1.3,0-2.7c0,0,0.2-0.6,0.5-0.6c0.2,0,0.6,0.1,1.1,0.6c0.5,0.5,0.8,0.7,1,1.1
		c0.2,0.4-0.4,1-0.7,1.2c-0.3,0.3-1.1,0.7-1.4,0.8C88.6,74.2,88.6,74.1,88.5,73.6"/>
	<path class="st5" d="M88.6,73.7c0,0,0.4-2.1,1.5-2.9c0,0,0.4-0.4,0.8,0.2c0.4,0.6,0.7,1,0.8,1.9c0,0,0,0.4-0.2,0.6
		c-0.3,0.2-0.9,0.6-2.1,0.7h-0.5C88.8,74.2,88.5,74.2,88.6,73.7"/>
	<path class="st6" d="M88.6,73.9c0,0,0-1.4,1.4-3c0,0,0.8,0.6,1.1,1.2c0,0,0.2,0.3-0.2,0.7c-0.3,0.4-0.9,0.9-1.8,1.3
		C89.1,74.1,88.6,74.3,88.6,73.9"/>
	<path class="st7" d="M90.8,72.4c0,0.1-0.1,0.2-0.2,0.2c-0.1,0-0.2-0.1-0.2-0.2c0-0.1,0.1-0.2,0.2-0.2
		C90.8,72.2,90.8,72.3,90.8,72.4"/>
	<path class="st7" d="M93.8,76.6c0-0.1,0-0.1,0-0.2c0-0.2,0-0.3-0.2-0.5c-0.2-0.3-0.5-0.5-0.9-0.5c-0.1,0-0.2,0-0.3,0l0,0l0,0
		c0,0-0.5,0.1-0.9,0.8c-0.3,0.6,0,1.1,0.1,1.3c0,0,0,0,0,0.1c0,0.1,0.6,0.4,0.8,0.4l0,0c0,0,0.1,0,0.1,0c0.2,0,0.4,0,0.7-0.3
		c0.2-0.1,0.3-0.3,0.4-0.5C93.8,77,93.8,76.8,93.8,76.6 M93.5,76.7c0,0.6-0.3,0.7-0.5,0.8c0,0-0.1,0-0.1,0.1c0,0-0.1,0-0.2,0
		c-0.2,0-0.5-0.1-0.7-0.3c-0.1-0.2-0.2-0.5-0.1-0.7c0.3-0.8,0.7-0.9,0.8-0.9c0,0,0,0,0,0c0,0,0,0,0,0c0.2,0,0.3,0.1,0.5,0.2
		C93.4,76.2,93.5,76.4,93.5,76.7"/>
	<path class="st7" d="M89,77.3c0,0-0.1,0-0.1,0c0,0,0,0-0.1,0c0,0,0,0-0.1,0c-0.1,0-0.3,0.1-0.5,0.1c-0.1,0-0.1,0-0.2,0
		c-0.2,0-0.3-0.1-0.4-0.3c-0.1-0.1-0.1-0.3-0.1-0.3l0,0l0,0c0,0,0,0,0,0c0.1,0,0.2,0,0.5-0.1c0.4-0.1,0.9-0.3,0.9-0.4c0,0,0,0,0-0.1
		c0-0.2,0.1-0.4-0.3-0.8c-0.2-0.1-0.4-0.2-0.6-0.2c-0.3,0-0.5,0.1-0.5,0.1c0,0-0.2,0.1-0.3,0.3c-0.1,0.1-0.2,0.4-0.2,0.7
		c-0.1,0-0.3-0.1-0.4-0.4c0.1-0.2,0-0.4-0.1-0.6c0,0,0,0,0-0.1c0,0,0-0.1,0-0.1c0,0,0,0,0-0.1c0,0,0-0.2,0-0.2
		c0-0.2,0.1-0.3,0.2-0.4l0.2-0.2c0.1-0.1,0.3-0.2,0.7-0.3c-0.1,0.1-0.1,0.2,0,0.3c0.1,0.1,0.3,0.2,0.4,0.3c0.1,0.1,0.2,0.1,0.1,0
		c-0.1-0.1-0.1-0.2-0.2-0.5c0-0.1-0.1-0.2-0.2-0.2c0.2,0,0.5,0,0.8,0.1c0,0,0.3,0.2,0.5,0.4c0,0,0.1,0.1,0.1,0.1
		c0,0-0.2-0.1-0.3-0.1c-0.1,0-0.1,0-0.1,0.1c0,0.1,0.1,0.1,0.1,0.1s0.5,0.2,0.6,0.2c0.1,0,0.1-0.1,0.1-0.1s0.1-0.3,0.1-0.4
		c0-0.1-0.1-0.1-0.1-0.1c0,0-0.1,0-0.1,0.1c0,0.1-0.1,0.2-0.1,0.2s0,0,0-0.1c0-0.1-0.2-0.2-0.2-0.2c-0.1,0-0.3-0.4-1.2-0.5
		c-0.4,0-0.7,0-0.9,0.1c0-0.1,0-0.1,0-0.2c0-0.1-0.1-0.4-0.2-0.5c0-0.1-0.1-0.2-0.1,0c0,0.1-0.1,0.3-0.1,0.5c0,0.2,0.1,0.2,0.2,0.3
		c-0.1,0.1-0.2,0.2-0.3,0.3c-0.2,0.2-0.3,0.5-0.3,0.8c-0.2-0.1-0.6-0.2-0.8-0.2l0,0c-0.3,0-0.3,0.1-0.4,0.3c0,0,0,0,0,0
		c0,0.1,0,0.4,0,0.8c0,0.3,0,0.7,0,1c0,0.3,0,0.4-0.1,0.5c0,0.1,0,0.2,0,0.3c0,0.2,0.1,0.2,0.1,0.2l0,0l0,0c0,0,0,0,0.1,0
		c0,0,0.1,0,0.1,0c0.1,0,0.1-0.1,0.1-0.1c0,0,0-0.1,0-0.1c0-0.1,0-0.2,0-0.4c0-0.2,0-0.3,0-0.4c0.1-0.2,0.4-0.2,0.4-0.2c0,0,0,0,0,0
		c0,0,0.1,0,0.2,0.2c0.1,0.1,0.1,0.2,0.1,0.3c0,0,0,0.1,0.1,0.1c0.1,0.1,0.2,0.3,0.2,0.4c0.1,0.1,0.1,0.2,0.2,0.2c0,0,0.1,0,0.1,0
		c0,0,0.1,0,0.1-0.1c0-0.1,0-0.2,0-0.2c0,0-0.4-0.7-0.5-0.9c-0.1-0.1-0.1-0.2-0.1-0.3c0,0,0.1-0.1,0.1-0.1c0.1-0.1,0.2-0.1,0.2-0.2
		c0.2,0.2,0.5,0.3,0.6,0.4c0.1,0.7,0.3,0.8,0.8,1c0.1,0.1,0.3,0.1,0.4,0.1c0.3,0,0.6-0.1,0.6-0.1c0,0,0,0,0,0
		c0.1-0.1,0.2-0.1,0.2-0.3C89.1,77.4,89,77.3,89,77.3 M86.2,76.2C86.2,76.2,86.2,76.2,86.2,76.2c-0.1,0.1-0.2,0.2-0.3,0.3
		c-0.2,0.1-0.2,0.1-0.3,0.1c0,0-0.1,0-0.1,0l0,0l0,0c0-0.2,0-1,0.1-1.1l0,0l0,0c0,0,0,0,0.1,0c0.1,0,0.3,0,0.5,0.1
		c0.1,0.1,0.2,0.2,0.2,0.4C86.3,76,86.3,76.2,86.2,76.2 M87.5,76.5C87.5,76.5,87.5,76.5,87.5,76.5c-0.1-0.1,0-0.3,0-0.4
		c0.1-0.1,0.4-0.4,0.7-0.4c0,0,0,0,0,0c0.3,0,0.4,0.3,0.4,0.4c0,0.1-0.3,0.3-0.4,0.3c0,0,0,0-0.1,0c0,0-0.1,0-0.3,0.1
		C87.9,76.5,87.7,76.5,87.5,76.5C87.6,76.5,87.5,76.5,87.5,76.5L87.5,76.5z"/>
	<path class="st7" d="M90.2,75.3c-0.2-0.1-0.4-0.1-0.5-0.1c-0.1,0-0.1,0-0.1,0l0,0c0,0-0.2,0.1-0.2,0.4c0,0.2,0,0.5,0,0.7
		c0,0.1,0,0.3,0,0.3c0,0,0,0.2,0,0.5c0,0.2-0.1,0.5-0.1,0.7c0,0.1,0,0.1,0,0.2c0,0,0.1,0,0.1,0c0,0,0,0,0,0l0,0l0,0c0,0,0.1,0,0.2,0
		c0.1,0,0.1,0,0.2,0c0,0,0,0,0.1,0c0.1,0,0.2,0,0.6-0.2c0.4-0.2,0.6-0.7,0.6-0.7l0,0l0,0c0.1-0.4,0.1-0.7,0-1.1
		C90.9,75.6,90.7,75.4,90.2,75.3 M90.7,77c-0.1,0.2-0.2,0.4-0.4,0.5c-0.2,0.1-0.3,0.1-0.3,0.1c0,0,0,0,0,0l-0.1,0h0
		c0,0-0.1,0-0.1-0.3c0-0.1,0-0.3,0-0.5c0-0.2,0-0.4,0-0.4c0-0.1,0-0.6,0.1-0.6c0,0,0.1,0,0.1,0c0,0,0.1,0,0.1,0
		c0.1,0,0.4,0.2,0.6,0.5C90.9,76.6,90.8,76.8,90.7,77"/>
</g>
<g>
	<path class="st1" d="M38.6,70.6c2.6-2.3,6.7-4.4,10.2-3.8c1.7,0.3,3.4,0.8,5,1.2c2.1,0.5,4.4,1,6.4,1.7c0.8,0.3,1.6,0.4,2.4,0.6
		c0.8,0.2,1.5,0.7,2.2,1c0.8,0.3,1.5,0.7,2.1,1.3c0.4,0.4,1.2,0.8,1.4,1.3c0.4-0.4,0.8-0.8,1.2-1.2c-0.5-0.3-0.7-1.1-0.9-1.6
		c-0.4-0.9-0.7-1.9-1-2.9c-0.3-1-0.5-2-0.8-3c-0.2-0.8-0.6-1.7-0.6-2.5c0.1-0.9-1.3-1.3-1.7-0.5c-0.1,0.1-0.1,0.2-0.2,0.3
		c-0.6,1,1,1.9,1.5,0.9c0.1-0.1,0.1-0.2,0.2-0.3c-0.6-0.2-1.1-0.3-1.7-0.5c-0.1,1,0.4,1.9,0.6,2.8c0.3,1.3,0.7,2.5,1,3.8
		c0.3,1,0.6,2,1.1,3c0.3,0.7,0.7,1.5,1.4,2c0.8,0.5,1.6-0.4,1.2-1.2c-0.3-0.5-0.7-0.8-1.2-1.1c-0.6-0.5-1.1-1-1.7-1.4
		c-0.7-0.4-1.4-0.6-2-1c-0.8-0.4-1.4-0.8-2.2-0.9c-1.7-0.3-3.3-1-5-1.4c-0.9-0.2-1.8-0.5-2.7-0.7c-1.9-0.5-3.8-1-5.7-1.4
		c-2.4-0.5-4.9,0.1-7.2,1.1c-1.8,0.8-3.5,1.8-4.9,3.1C36.4,70.1,37.7,71.4,38.6,70.6L38.6,70.6z"/>
	<path class="st1" d="M68.4,74.4c0.1,0.1,0.2,0.1,0.3,0.2c1,0.6,1.8-0.9,0.9-1.5c-0.4-0.3-0.9-0.4-1.4-0.5c-0.5-0.1-1.1-0.2-1.7-0.2
		c-0.6,0-1.1,0.1-1.7,0c-0.5,0-1-0.1-1.6,0c-1.1,0.1-2.2,0.6-3.3,1c-0.5,0.2-0.9,0.5-1.3,0.9c-0.2,0.2-0.3,0.4-0.5,0.5
		c-0.2,0.2-0.5,0.3-0.6,0.5c-0.8,0.9,0.5,2.1,1.3,1.3c0.3-0.3,0.6-0.5,0.9-0.8c0.3-0.3,0.6-0.5,1.1-0.7c0.8-0.4,1.7-0.7,2.6-0.8
		c0.9-0.1,1.8,0.1,2.7,0c0.5,0,0.9,0,1.4,0.1c0.4,0.1,0.8,0.1,1.2,0.3c0.3-0.5,0.6-1,0.9-1.5c-0.1-0.1-0.2-0.1-0.3-0.2
		C68.3,72.3,67.4,73.8,68.4,74.4L68.4,74.4z"/>
</g>
</svg>
