<?xml version="1.0" encoding="utf-8"?>
<!-- Generator: Adobe Illustrator 23.0.6, SVG Export Plug-In . SVG Version: 6.00 Build 0)  -->
<svg version="1.1" id="Lag_1" xmlns="http://www.w3.org/2000/svg" xmlns:xlink="http://www.w3.org/1999/xlink" x="0px" y="0px"
	 viewBox="0 0 226.8 226.8" style="enable-background:new 0 0 226.8 226.8;" xml:space="preserve">
<style type="text/css">
	.st0{fill:#FFFFFF;}
	.st1{fill:#543F2D;}
	.st2{fill:#9F8B77;}
</style>
<rect x="52" y="64" class="st0" width="144" height="108"/>
<path class="st1" d="M61.4,29c0-0.2,0-0.3,0-0.5c0-3.4-5.2-3.4-5.3,0c-0.1,2.3,0.4,4.7,0.6,7c0.2,2.7,0.4,5.3,1,7.9
	c0.6,2.5,0.7,5.1,1.4,7.7c0.6,2.4,1.2,4.9,1.3,7.4c0.2,5.6,0.1,11.3,0,16.9c-0.1,2.9-0.3,5.7-0.6,8.5c-0.3,2.7-0.2,5.3-0.2,7.9
	c0,2.5,0.4,5.2-0.3,7.6c-0.3,1.1-0.4,2.1-0.3,3.3c0,1.4-0.3,2.7-0.4,4c-0.3,2.8-0.2,5.6-0.7,8.4c-0.4,2.8-0.9,5.5-1.2,8.3
	c-0.6,5.6-0.9,11.3-1.4,17c-0.3,2.8-0.3,5.5,0,8.3c0.3,2.8,0.4,5.6,0.5,8.5c0.1,2.8,0.1,5.7,0.3,8.5c0.2,2.9,0.3,5.8,0.3,8.7
	c0,5.6,0,11.2-0.2,16.8c0,0.8-0.1,1.6,0,2.4c0,0.2,0.2,0.8,0.1,0.9c0-0.2,0-0.3-0.1-0.5c0,0,0,0,0,0c0,0-0.1,0.4-0.1,0.5
	c-0.1,1.2-0.2,2.5-0.1,3.7c0.1,1.7,0.4,3.6,1.7,4.9c1.3,1.5,3.8,2,5.6,2.5c2.3,0.6,4.6,1.1,7,1.2c2.8,0.1,5.4,0.8,8.2,0.8
	c2.6,0,5.2,0.3,7.9,0.3c2.8,0,5.5,0.3,8.3,0.5c1.4,0.1,2.7,0.3,4.1,0.4c1.5,0.1,3.1,0,4.6,0c2.8,0.1,5.6,0.4,8.4,0.6
	c2.7,0.2,5.6,0.5,8.3,0.5c2.8-0.1,5.6-0.3,8.5-0.5c2.8-0.1,5.7-0.3,8.5-0.4c2.8-0.2,5.6-0.6,8.4-0.5c1.3,0,2.6,0,3.9-0.1
	c0.5-0.1,1.1-0.2,1.6-0.1c-0.5,0-0.1,0,0,0c0.3,0.1,0.6,0.1,0.9,0.2c1.9,0.5,3.5,0.5,5.5,0.2c0.1,0,0.2,0,0.4-0.1
	c0.4-0.1-0.5,0-0.1,0c0.4,0,0.8,0,1.2,0c0.7,0,1.4,0,2.2,0c2-0.1,4-0.7,5.7-1.8c0.9-0.6,2-1.5,2.6-2.5c0.5-0.9,0.6-1.9,0.8-2.8
	c0.3-1.7,0.5-3.3,0.5-5c0-1.8-0.2-3.5-0.2-5.3c0-2.9,0.1-5.7,0.2-8.6c0.2-5.9,0.4-11.7,0.8-17.6c0.4-5.5,0.4-11,0.7-16.5
	c0.3-5.6,0-11.1,0-16.7c0.1-11.6,0-23.3,0-34.9c0-5.6-0.3-11.3,0.4-16.8c0.3-2.5,0.9-5,1.2-7.5c0.3-2.7,0.8-5.4,1-8.2
	c0.2-2.6,0.7-5.1,1.1-7.7c0.2-1.4,0.5-2.7,0.5-4.1c0.1-1.4,0-2.8,0-4.2c0-0.7,0-1.4-0.1-2c-0.1-0.4-0.4-0.8-0.4-1.2
	c-0.1-0.5,0-1.2-0.1-1.8c-0.1-0.7-0.2-1.4-0.1-2.2c0-1.2,0.2-2.5-0.2-3.7c-0.1-0.3-0.2-0.6-0.4-0.9c-0.3-0.3-0.1-0.3,0,0.2
	c-0.1-0.8-0.4-1.4-0.6-2.1c-0.6-2.1-0.4-4.8-2.1-6.4c-1-1-2.2-1.8-3.3-2.6c-1.3-1-2.6-2-4-2.7c-1.9-1-3.6-0.9-5.6-1
	c-2.8-0.2-5.5-0.7-8.3-1c-2.8-0.3-5.6-0.5-8.4-0.7c-5.8-0.4-11.7-0.3-17.5-0.9c-5.6-0.5-11.2-1.1-16.9-1.2c-2.8,0-5.7-0.1-8.5,0
	c-2.6,0.1-5.1,0.4-7.7,0.3c-0.5,0-1.1-0.1-1.6-0.1c-0.5-0.1-0.1,0,0,0c-0.2,0-0.3,0-0.5-0.1c-0.5-0.1-0.9-0.1-1.4-0.2
	c-1.7-0.3-3.3-0.6-5-0.9c-2.4-0.5-5.1-1.2-7.6-1.3c-3.3,0-6.8,0.7-9.9,1.5c-2.9,0.8-6.8,2.1-7.8,5.3c-0.2,0.7-0.2,1.4-0.3,2.2
	c0,0.2-0.3,1.8-0.3,1.8c-0.2-0.2,1.2-0.7,0.8-0.6c1.4-0.6,0-0.2-0.4,0c-0.7,0.3-1.2,0.7-1.5,1.4c-0.2,0.5-0.3,1.1-0.2,1.7
	c0,0.2,0.1,0.4,0.1,0.7c0.1,0.3,0,0.6,0-0.2c1.3-0.8,2.6-1.5,4-2.3c0,0,0,0,0,0c-0.4,1.6-0.9,3.3-1.3,4.9c0,0,0.1,0,0.1,0
	c-0.4-0.1-0.9-0.2-1.3-0.4c0.5,0.3,1,0.5,1.6,0.5c1.4-0.1,2.6-1.1,2.6-2.6c0-1.3-1.2-2.8-2.6-2.6c0,0-0.1,0-0.1,0
	c0.4,0.1,0.9,0.2,1.3,0.4c-0.5-0.3-1-0.5-1.6-0.5c-1.2,0.1-2.2,0.7-2.5,1.9c-0.3,1.1,0.2,2.5,1.2,3c0,0,0,0,0,0
	c1.8,0.9,3.9-0.2,4-2.3c0-0.3,0-0.6-0.1-0.9c-0.1-0.5,0.1-0.9-0.1,0.5c-0.4,0.5-0.8,1-1.2,1.6c0,0,0,0,0.1,0
	c-0.4,0.1-0.9,0.2-1.3,0.4c2.3,0.1,3.5-2,3.9-3.9c0.2-0.9,0.3-1.7,0.3-2.6c0-0.1,0.1-0.3,0-0.5c0,0.5,0,0.3,0,0.2
	c0,0.2-0.3,0.4-0.1,0.1c0.3-0.3-0.2,0.3,0,0c0.1-0.1,0.2-0.2,0.3-0.3c0.3-0.3-0.4,0.2,0,0c0.2-0.2,0.5-0.3,0.7-0.4
	c0.8-0.5,1-0.5,1.9-0.8c1.6-0.5,3.2-0.9,4.8-1.2c1.5-0.3,2.5-0.4,4.1-0.5c0.4,0,0.9,0,1.3-0.1c0.2,0,0.8,0.1-0.1,0
	c0.2,0,0.5,0.1,0.7,0.1c3,0.5,6,1.1,9,1.7c3.4,0.6,6.6,1,10,0.8c5.4-0.3,10.8-0.3,16.2-0.1c5.5,0.2,10.9,1,16.4,1.3
	c5.6,0.3,11.1,0.4,16.7,0.8c5.4,0.4,10.8,1.5,16.2,1.7c0.3,0,0.5,0,0.8,0c-0.4,0-0.6-0.1-0.3,0c0.1,0,0.3,0.1,0.3,0.1
	c-0.4-0.3-0.2-0.1-0.1,0c0.6,0.4,1.3,0.7,1.9,1.2c1.3,0.9,2.2,1.6,3.4,2.6c0.3,0.3,0.7,0.6,1,0.9c0.1,0,0.1,0.1,0.2,0.1
	c-0.1-0.1-0.1-0.4-0.2-0.1c-0.1,0.5,0.3,1.4,0.4,1.9c0.2,1.1,0.5,2.1,0.8,3.1c0.2,0.6,0.1,1.2,0.5,1.8c0.1,0.1,0.4,0.6,0.2,0.2
	c-0.2-0.4,0,0.5,0,0.7c-0.1,2.4-0.1,4.9,0.6,7.3c0.3,1,0.2,2,0.2,3c0,1.3,0.1,2.6-0.1,3.9c-0.4,2.6-1,5.3-1.3,7.9
	c-0.3,2.6-0.5,5.2-0.9,7.8c-0.3,2.5-0.7,4.9-1.2,7.4c-0.4,2.5-0.8,5.1-0.8,7.6c-0.1,11.2,0,22.4,0,33.6c0,5.5,0,11,0,16.5
	c0,5.4,0.1,10.7-0.1,16.1c-0.1,2.7-0.1,5.4-0.2,8c-0.1,2.7-0.3,5.3-0.5,8c-0.4,5.5-0.5,11.1-0.7,16.6c-0.1,2.8-0.2,5.7-0.2,8.5
	c0,1.6,0.2,3.1,0.2,4.7c0,0.4,0,0.8,0,1.2c0,0.2,0,0.4,0,0.6c-0.1,0.5,0.1-0.3,0,0.1c-0.1,0.7-0.3,1.5-0.4,2.2
	c0,0.2-0.1,0.4-0.1,0.6c0,0.2-0.2,0.4,0,0c0,0-0.6,0.5-0.7,0.6c-0.7,0.5-1.5,0.8-2.3,1c-0.6,0.1-0.8,0.1-1.6,0.2c-0.7,0-1.4,0-2.2,0
	c-0.7,0-1.4,0.2-2.1,0.3c-0.1,0-0.4,0.1,0,0c-0.2,0-0.5,0.1-0.7,0.1c-0.2,0-0.4,0-0.6,0c0.4,0,0.1,0-0.1-0.1
	c-0.7-0.2-1.5-0.4-2.2-0.6c-1.2-0.2-2.3-0.1-3.5,0.1c-1.2,0.1-2.4,0-3.6,0c-1.5,0-3,0.2-4.4,0.3c-5.5,0.4-10.9,0.6-16.4,0.9
	c-2.6,0.2-5.2,0.3-7.8,0c-2.8-0.2-5.6-0.4-8.3-0.6c-2.6-0.2-5.3-0.3-7.9-0.3c-2.8,0-5.6-0.4-8.4-0.6c-2.7-0.2-5.3-0.2-8-0.4
	c-1.2-0.1-2.5-0.3-3.7-0.3c-1.3,0-2.5,0-3.8-0.1c-1.3-0.1-2.6-0.4-3.9-0.6c-1.1-0.1-2.2-0.1-3.3-0.3c-2.1-0.3-4.2-0.8-6.2-1.6
	c-0.3-0.1-0.7-0.3-1-0.4c-0.4-0.1-0.1,0,0.1,0.3c-0.1-0.1-0.2-0.3-0.2-0.4c0.2,0.5,0,0.1,0,0c0-0.2-0.2-1.2-0.2-0.8
	c-0.1-1.3-0.1-2.6,0.1-3.8c0-0.3,0.1-0.6,0.1-0.8c0-0.1,0-0.1,0-0.4c-0.1-1.1,0,0.4,0-0.2c0-0.5,0-0.9,0-1.4
	c0.1-2.4,0.1-4.7,0.1-7.1c0.1-5.6,0.3-11.2,0-16.8c-0.2-2.8-0.4-5.6-0.4-8.5c0-2.7-0.2-5.4-0.3-8.1c-0.2-2.6-0.6-5.3-0.5-7.9
	c0.1-2.6,0.4-5.2,0.7-7.8c0.5-5.4,0.6-10.9,1.5-16.3c0.4-2.7,0.9-5.5,1.1-8.2c0.1-1.3,0.1-2.6,0.2-3.9c0.1-1.3,0.5-2.6,0.5-3.9
	c0.1-1-0.1-1.8,0.2-2.8c0.3-1.3,0.5-2.5,0.5-3.8c0-2.7,0-5.3-0.1-8c0-2.6,0.3-5.2,0.5-7.8c0.2-2.8,0.3-5.5,0.3-8.3c0-2.7,0-5.3,0-8
	c0-2.6,0.2-5.3-0.1-7.9c-0.3-2.6-0.9-5-1.4-7.5c-0.6-2.5-0.8-5.1-1.4-7.7c-0.6-2.4-0.6-4.8-0.9-7.2c-0.1-1-0.2-2-0.2-2.9
	c-0.1-1.1-0.2-2.1-0.2-3.1c-1.8,0-3.5,0-5.3,0c0,0.2,0,0.3,0,0.5C56.1,32.4,61.4,32.4,61.4,29L61.4,29z"/>
<path class="st1" d="M110.8,178.4c-2.2,0-4.2-0.1-6.1,1c-1.4,0.8-2.7,1.9-3.8,3.1c-1.4,1.7-2,3.8-1.4,6c0.4,1.8,1.7,3.5,3.1,4.7
	c1.3,1.1,2.8,2.2,4.5,2.6c1.6,0.4,3.3,0.4,4.9-0.1c1.5-0.4,3.1-1.2,4.1-2.5c1.3-1.5,1.8-3.3,1.8-5.3c0-1-0.1-1.9-0.2-2.9
	c-0.1-1-0.1-1.9-0.2-2.9c-0.2-1-0.6-1.9-1.3-2.6c-1-1-2.2-1.3-3.5-1.4c0.8,0.6,1.7,1.3,2.5,1.9c0-0.2-0.1-0.3-0.1-0.5
	c-0.3-1.3-1.9-2.3-3.2-1.8c-1.4,0.5-2.1,1.8-1.8,3.2c0,0.2,0.1,0.3,0.1,0.5c0.3,1.2,1.4,1.8,2.5,1.9c0.6,0.1-0.6-0.2,0,0
	c0.5,0.2-0.4-0.3-0.1-0.1c0.2,0.1,0.4,0.3-0.1-0.2c0.1,0.1,0.3,0.4,0,0c-0.3-0.4-0.1-0.1,0,0c-0.3-0.7-0.1-0.4-0.1-0.1
	c0,0.1,0,0.2,0.1,0.3c0.1,0.5,0-0.7,0-0.1c0,1.3,0.2,2.6,0.2,3.9c0,0.3,0,0.7,0,1c0,0.1,0,0.3,0,0.4c0,0.1,0,0.1,0,0.2
	c0,0.3,0,0.2,0-0.2c0,0-0.2,0.7-0.2,0.8c0-0.4,0.2-0.5,0.1-0.2c-0.1,0.1-0.2,0.3-0.3,0.4c-0.3,0.4,0.4-0.3,0.1-0.1
	c-0.1,0.1-0.2,0.2-0.2,0.3c-0.1,0.1-0.2,0.2-0.3,0.3c-0.2,0.2-0.2,0,0.2-0.1c-0.2,0.1-0.4,0.3-0.6,0.4c-0.1,0.1-0.3,0.1-0.4,0.2
	c0.4-0.3,0.4-0.2,0.1,0c-0.2,0.1-0.5,0.2-0.7,0.2c-0.1,0-0.3,0.1-0.4,0.1c-0.4,0.1,0.2,0,0.3,0c-0.3,0-0.6,0-0.8,0
	c-0.3,0-0.5-0.1-0.8,0c0.7,0,0.4,0.1,0.1,0c-0.1,0-0.2-0.1-0.3-0.1c-0.1,0-0.9-0.3-0.4-0.1c0.4,0.2,0,0-0.1,0
	c-0.1-0.1-0.3-0.2-0.4-0.2c-0.3-0.2-0.6-0.4-0.9-0.6c-0.1-0.1-0.4-0.3,0.1,0.1c-0.2-0.1-0.3-0.2-0.4-0.4c-0.2-0.2-0.5-0.4-0.7-0.7
	c-0.1-0.1-0.2-0.2-0.3-0.3c-0.4-0.4,0.3,0.5,0-0.1c-0.1-0.2-0.6-0.8-0.6-0.9c0,0,0.2,0.5,0.1,0.1c-0.1-0.2-0.1-0.3-0.2-0.5
	c-0.2-0.5,0,0.5,0,0.1c0-0.1,0-0.3,0-0.4c0-0.1,0-0.1,0-0.2c0-0.2,0-0.2,0,0c-0.2,0.3,0.1-0.1,0.1-0.2c0.1-0.6-0.3,0.4,0,0
	c0.1-0.1,0.1-0.2,0.2-0.3c0.3-0.4-0.3,0.4-0.1,0.1c0.1-0.1,0.3-0.3,0.4-0.4c0.2-0.3,0.5-0.5,0.8-0.7c0.1-0.1,0.2-0.2,0.3-0.2
	c0.1-0.1,0.2-0.2,0.3-0.2c0.2-0.2,0.2-0.1-0.1,0.1c0.1-0.2,0.7-0.5,0.8-0.6c0.2-0.1,0.5-0.3,0.7-0.4c-0.1,0.1-0.5,0.1,0,0
	c0.1,0,0.3-0.1,0.4-0.1c0.3-0.1,0.3-0.1-0.1,0c0.3-0.1,0.9,0,1.2,0c0.5,0,1,0,1.5,0c1.4,0,2.7-1.2,2.6-2.6
	C113.4,179.6,112.3,178.4,110.8,178.4L110.8,178.4z"/>
<path class="st1" d="M69.8,30.8c3,0,6,0.7,9,0.9c3.1,0.2,6,1.3,9.1,1.1c1.4-0.1,2.8-0.3,4.2-0.1c1.7,0.2,3.3,0.6,4.9,0.7
	c3.1,0.3,6.3,0.4,9.5,0.4c13.1,0,26.3-0.1,39.4-0.1c3.3,0,6.7-0.2,10-0.1c1.1,0,1.7,0.5,2.5,1.2c0.4,0.4,0.9,0.8,1.2,1.3
	c0.1,0.1,0.2,0.3,0.3,0.5c0.2,0.2,0.2,0.7,0.2,0.2c0.1,1.5,1.1,2.6,2.6,2.6c0.3,0,0.4,0,0.5,0.1c0.1,0,0.1,0.1,0.2,0.1
	c0.4,0.3,0.4,0.5,0.5,0.9c0,0,0.1,0.2,0.1,0.5c0,0.1,0,0.8,0,0.4c-0.1,0.7-0.2,1-0.4,1.4c-1,2.3-1.4,4.9-1.8,7.3
	c-0.2,1.2-0.4,2.5-0.5,3.7c-0.1,1.3,0.5,2.5,0.7,3.8c0.3,2.1,0,4.6-0.2,6.8c-0.2,2.9-0.5,5.9-0.6,8.8c-0.1,2.4-0.2,5,0.3,7.4
	c0.4,1.6,1.1,3.2,1.2,4.9c0.2,2.1,0.1,4.3,0.1,6.4c-0.1,4.5,0,9-0.8,13.4c-0.4,2.3-0.5,4.6-0.4,6.9c0.1,2,0.3,4.1-0.1,6.1
	c-0.4,2-1.1,3.8-1.4,5.8c-0.3,2.2-0.4,4.4-0.3,6.6c0.1,4.2,0.3,8.3,0.2,12.5c0,2.1-0.1,4.3-0.4,6.4c-0.4,2.3-0.5,4.4-0.4,6.7
	c0,2.1-0.5,4.1-0.8,6.1c-0.2,1.6-0.2,3.4-0.5,4.9c-0.1,0.3-0.4,1.7-0.5,1.6c-0.1,0,0.5-0.1,0.3-0.2c-0.2-0.1-0.8,0-1.1-0.1
	c-2.1-0.1-3.9,0.8-6,1.1c-4.4,0.7-8.8,1.2-13.3,1.1c-2.3,0-4.5-0.1-6.8-0.1c-2.4,0-4.8,0.2-7.2,0c-2.2-0.2-4.3-0.8-6.4-1
	c-2.3-0.2-4.6-0.1-6.9-0.1c-4.8,0-9.5,0-14.3,0.1c-4.5,0-9.1,0.2-13.7,0c-2-0.1-3.9-0.7-5.8-1c-2-0.2-3.9,0-5.9,0.1
	c-1.8,0.2-3.7,0.3-5.5-0.2c0.6,0.6,1.2,1.2,1.8,1.8c-0.9-4.6-0.2-9.5,0-14.1c0.2-5.3,0-10.6,0-15.9c0-5.4,0.1-10.9,0-16.3
	c0-2.2-0.3-4.4-0.2-6.6c0-2.3,0.7-4.4,1.5-6.6c0.9-2.3,1.6-4.6,1.8-7.1c0.2-2.5,0-5,0-7.5c0-5,1.2-9.9,1.8-14.8
	c0.3-2.7,0.3-5.4,0.2-8.1c0-2.7,0.1-5.3-0.3-8c-0.3-2.4-1.1-4.6-1.5-7c-0.5-2.4-0.3-4.8-0.3-7.2c0.1-2.6,0-5.2-0.3-7.8
	c-0.3-2.5-1.1-5.1-0.7-7.6c0.3-1.8,1.2-3,2.5-3.9c0.6-0.4,1.5-0.9,1.8-0.9c0.7-0.1,0.7-0.1,1.2,0.7c0.9,1.1,2.8,0.9,3.7,0
	c1.1-1.1,0.9-2.6,0-3.7c-3-3.7-7.9-2-11,0.6c-3.9,3.4-4,8.4-3.1,13.2c0.4,2.3,0.6,4.6,0.6,6.9c0,2.7-0.2,5.3,0,8
	c0.2,2.7,0.9,5.2,1.5,7.8c0.6,2.7,0.5,5.3,0.6,8c0,2.7,0.1,5.5-0.1,8.2c-0.2,2.7-0.9,5.4-1.3,8c-0.4,2.7-0.7,5.3-0.6,8
	c0,2.6,0.3,5.4,0,8c-0.3,2.4-1.4,4.7-2.2,7c-0.8,2.4-1.1,4.9-1,7.4c0.1,5.4,0.2,10.7,0.2,16.1c0,6.5,0,13.1,0,19.6
	c0,5.8-0.9,11.5,0.2,17.3c0.2,0.9,1,1.6,1.8,1.8c4.2,1.2,8.3-0.4,12.4,0.2c2.1,0.3,4.1,0.9,6.2,1c2.3,0.1,4.6,0,7,0
	c4.9,0,9.8-0.1,14.8-0.1c2.5,0,5,0,7.5,0c2.3,0,4.6-0.1,6.9,0.3c2.4,0.4,4.8,0.8,7.3,0.9c2.5,0,5-0.1,7.5,0
	c4.8,0.1,9.6,0.2,14.4-0.6c2.2-0.3,4.4-0.5,6.6-1.1c0.9-0.2,1.7-0.5,2.6-0.5c0.9,0,1.8,0.1,2.7-0.1c4.2-1.2,4-6.1,4.4-9.6
	c0.2-2.1,0.8-4.2,1-6.3c0.2-2.3-0.1-4.5,0.2-6.7c0.8-4.6,0.8-9.4,0.7-14.1c-0.1-4.2-0.6-8.5,0.1-12.6c0.3-2.2,1.2-4.2,1.5-6.4
	c0.3-2.3,0.1-4.6,0.1-6.9c-0.1-2.3,0.2-4.5,0.5-6.8c0.3-2.4,0.5-4.9,0.6-7.3c0.1-4.6,0.4-9.5-0.3-14c-0.3-1.6-0.9-3-1.2-4.6
	c-0.1-0.5,0,0.4,0-0.1c0-0.3,0-0.5-0.1-0.8c0-0.7-0.1-1.3,0-2c0-3,0.2-6.1,0.5-9.1c0.2-2.3,0.5-4.7,0.5-7.1c0-1-0.1-2.1-0.2-3.1
	c-0.1-0.4-0.1-0.8-0.2-1.2c0-0.2-0.1-0.4-0.1-0.6c0-0.1-0.3-1.3-0.2-0.6c0.1,0.6,0.1-0.5,0.1-0.7c0-0.2,0.1-0.5,0.1-0.7
	c0,0,0.1-0.4,0-0.1c0,0.3,0.1-0.5,0.1-0.4c0.2-1.4,0.5-2.7,0.7-4.1c0.1-0.6,0.3-1.2,0.4-1.9c0.1-0.2,0.1-0.4,0.2-0.7
	c0.1-0.3,0.3-0.8,0-0.2c1.4-3,1.7-6.7-0.7-9.3c-1.2-1.3-2.9-1.9-4.6-2c0.9,0.9,1.8,1.8,2.6,2.6c-0.1-2.7-2.1-4.8-4.1-6.4
	c-2.5-2.1-5.1-2.1-8.2-2c-6.9,0.1-13.9,0-20.8,0c-7,0-14.1-0.1-21.1,0.1c-3.3,0.1-6.7,0.1-10,0c-1.6-0.1-3.3-0.2-4.9-0.4
	c-1.6-0.2-3.2-0.6-4.8-0.7c-1.8-0.1-3.6,0.3-5.5,0.1c-1.8-0.1-3.5-0.8-5.2-1c-1.7-0.2-3.3-0.3-5-0.5c-2-0.3-3.9-0.5-5.9-0.6
	C66.5,25.5,66.5,30.7,69.8,30.8L69.8,30.8z"/>
<g>
	<path class="st1" d="M81.9,58.3c0.2,0.2,0.4,0.8,0.4,0.9c0.1,0.4-0.3,1.2-0.8,1.2c-0.4,0-0.6-0.6-0.8-0.9c-0.2-0.3-0.5-0.8-1-0.7
		c-0.7,0.1-1.3,0.8-1.2,1.3c0.3,1.5,1.9,1.5,2.8,2c0.6,0.4,1.2,1.3,1.1,2.3c0,0.4-0.3,1.1-0.5,1.5c-0.4,0.6-1.1,1.2-2.2,1.4
		c-0.6,0-1.6,0.3-2.1-0.2c-0.2-0.3-0.2-0.6-0.2-0.8c0-0.3,0.3-0.5,0.7-0.6c0.7-0.2,1.5,0,2-0.4c0.3-0.2,0.6-0.7,0.4-1.3
		c-0.2-0.4-1.1-0.7-1.5-0.8c-1-0.3-1.8-1-2.1-1.9c-0.5-1.5,0-2.7,0.9-3.4c0.4-0.3,0.7-0.5,1.2-0.7C79.7,56.8,81.4,57.1,81.9,58.3z"
		/>
	<path class="st1" d="M84.3,67.2c-0.5,0.5-1.3,0.2-1.4-0.3c0-0.3,0.2-0.9,0.4-1.4c0.7-2.1,1.5-4.2,2.3-6.2c0.4-1,0.6-2.5,1.6-2.6
		c0.8-0.1,0.8,0.5,0.9,1.4c0.3,2.3,0.8,4.1,1.1,6.2c0.1,0.7,0.4,1.7,0.5,2.4c0,0.5-0.7,0.7-1,0.7c-0.9-0.1-0.6-2.6-1.2-3.3
		c-0.6,0.1-1.6,0.1-2.1,0.4C85.2,65.3,84.7,66.6,84.3,67.2z M86.7,60.4c-0.3,0.5-0.7,1.9-0.8,2.6c0.3,0.1,1.1,0,1.3-0.2
		c0-0.6-0.2-2-0.4-2.4C86.8,60.4,86.7,60.4,86.7,60.4z"/>
	<path class="st1" d="M97.5,62.1c-0.3,0.8-0.5,1.2-0.9,1.9c-0.3,0.6-0.5,1.6-1.2,1.6c-0.6-0.1-1-1-1.2-1.7c-0.4-0.8-1.1-2.4-1.4-3.1
		c0,0.5-0.1,1.9-0.2,2.5c-0.1,0.5-0.2,1.1-0.3,1.7c-0.4,2.2-0.3,2.7-1.4,2.6c-0.7-0.1-0.7-0.8-0.6-1.7c0.3-2,0.6-3.7,1-5.8
		c0-0.9,0.3-2.2,0.7-2.8c0.2-0.3,0.8-0.4,1.2-0.1c0.2,0.1,0.5,0.9,0.7,1.3c0.4,1,0.6,1.6,0.9,2.6c0.1,0.4,0.4,1.3,0.6,1.7
		c0.3-0.4,0.6-1.4,0.8-1.8c0.4-1,0.7-1.7,1.1-2.6c0.2-0.4,0.5-1,0.7-1.3c0.3-0.3,1.1-0.6,1.4-0.1c0.1,0.2,0.3,1.1,0.3,1.4
		c0.1,1.7,0.3,2.8,0.4,4.5c0.1,0.9,0.1,1.8,0.2,2.7c0.1,0.6,0.2,1.3,0,1.8c-0.1,0.3-1.1,0.4-1.4,0.2c-0.3-0.2-0.4-0.9-0.4-2
		c0-0.6-0.1-1.1-0.1-1.6c0-1.1,0-2.7-0.1-3.5C98,60.9,97.7,61.7,97.5,62.1z"/>
	<path class="st1" d="M103.6,57.3c0.3,0.6-0.2,2.5-0.2,3.2c-0.1,0.8-0.3,1.9-0.3,2.9c0,0.6-0.2,2.2-0.1,2.4c0.3,0.1,1.2,0,1.5,0
		c0.8-0.1,1.5-0.3,1.8,0.1c0.5,0.4,0.1,1.2-0.4,1.2c-1.2,0.2-2.2,0.2-3.7,0.3c-0.4,0-0.6,0.1-0.8,0c-0.5-0.2-0.4-1-0.3-1.8
		c0.1-1.5,0.4-3.9,0.5-5.1c0.1-1.3,0.2-3.3,1.2-3.3C103.3,57.1,103.5,57.1,103.6,57.3z"/>
	<path class="st1" d="M116.9,58.3c0.2,0.2,0.4,0.8,0.4,0.9c0.1,0.4-0.3,1.2-0.8,1.2c-0.4,0-0.6-0.6-0.8-0.9c-0.2-0.3-0.5-0.8-1-0.7
		c-0.7,0.1-1.3,0.8-1.2,1.3c0.3,1.5,1.9,1.5,2.8,2c0.6,0.4,1.2,1.3,1.1,2.3c0,0.4-0.3,1.1-0.5,1.5c-0.4,0.6-1.1,1.2-2.2,1.4
		c-0.6,0-1.6,0.3-2.1-0.2c-0.2-0.3-0.2-0.6-0.2-0.8c0-0.3,0.3-0.5,0.7-0.6c0.7-0.2,1.5,0,2-0.4c0.3-0.2,0.6-0.7,0.4-1.3
		c-0.2-0.4-1.1-0.7-1.5-0.8c-1-0.3-1.8-1-2.1-1.9c-0.5-1.5,0-2.7,0.9-3.4c0.4-0.3,0.7-0.5,1.2-0.7C114.8,56.8,116.5,57.1,116.9,58.3
		z"/>
	<path class="st1" d="M122.9,58.1c0.3-0.2,0.6-0.6,0.9-0.6c0.6-0.1,1,0.2,1,0.6c0,0.4-0.5,0.8-0.8,1c-1,0.8-2,1.7-2.8,2.6
		c0,0.2,0.2,0.4,0.4,0.7c0.9,0.8,1.7,1.8,2.4,2.8c0.3,0.3,0.8,0.8,0.8,1.3c0,0.5-0.5,0.9-1,0.9c-0.4,0-0.7-0.5-1-0.8
		c-0.6-0.9-1-1.3-1.6-2.1c-0.2-0.3-0.7-0.8-1.1-1.2c-0.2,0.7,0.1,2.4-0.1,3.2c-0.1,0.4-0.5,0.8-1.1,0.7c-0.3-0.1-0.5-0.6-0.6-1.1
		c0-1.2,0.1-2.5,0.2-4.3c0.1-1.1,0-3.3,0.4-4.3c0.3-0.5,1-0.7,1.4-0.2c0.2,0.8-0.2,2.4-0.3,3.3C121,60.1,121.9,58.7,122.9,58.1z"/>
	<path class="st1" d="M129.3,56.9c1.2,0.4,2.6,0.7,2.8,2.4c0.2,1.5-0.4,2.2-0.9,2.6c-0.2,0.2-0.7,0.4-0.7,0.6c0,0.3,0.4,0.9,0.6,1.2
		c0.5,0.9,0.7,1.4,1.3,2.3c0.2,0.4,0.6,0.8,0.5,1.3c-0.1,0.6-1,0.8-1.5,0.5c-0.3-0.1-0.5-0.7-0.7-1c-0.4-0.7-0.6-1.4-1.1-2.2
		c-0.3-0.3-0.3-0.7-0.7-0.9c-0.3-0.1-0.9,0.2-1,0.4c-0.2,0.8-0.1,2.4-0.5,3.1c-0.2,0.3-0.8,0.7-1.3,0.4c-0.5-0.3-0.2-1.3-0.2-1.9
		c0.1-0.9,0.2-2.1,0.2-3.1c0-1.1,0.1-2.1,0.1-3c0-0.8-0.1-1.9,0.2-2.5c0.2-0.4,0.7-0.6,1.1-0.6C127.7,56.6,128.8,56.7,129.3,56.9z
		 M130.4,60.3c0.1-0.4,0-1.1-0.5-1.4c-0.4-0.3-1.7-0.5-2-0.3c-0.3,0.9-0.2,2.6-0.1,3.5c0.5,0,0.9-0.4,1.4-0.7
		C129.5,61.2,130.3,60.8,130.4,60.3z"/>
	<path class="st1" d="M134.7,67.2c-0.5,0.5-1.3,0.2-1.4-0.3c0-0.3,0.2-0.9,0.4-1.4c0.7-2.1,1.5-4.2,2.3-6.2c0.4-1,0.6-2.5,1.6-2.6
		c0.8-0.1,0.8,0.5,0.9,1.4c0.3,2.3,0.8,4.1,1.1,6.2c0.1,0.7,0.4,1.7,0.5,2.4c0,0.5-0.7,0.7-1,0.7c-0.9-0.1-0.6-2.6-1.2-3.3
		c-0.6,0.1-1.6,0.1-2.1,0.4C135.6,65.3,135.1,66.6,134.7,67.2z M137.2,60.4c-0.3,0.5-0.7,1.9-0.8,2.6c0.3,0.1,1.1,0,1.3-0.2
		c0-0.6-0.2-2-0.4-2.4C137.2,60.4,137.2,60.4,137.2,60.4z"/>
	<path class="st1" d="M143.4,57.3c0.3,0.6-0.2,2.5-0.2,3.2c-0.1,0.8-0.3,1.9-0.3,2.9c0,0.6-0.2,2.2-0.1,2.4c0.3,0.1,1.2,0,1.5,0
		c0.8-0.1,1.5-0.3,1.8,0.1c0.5,0.4,0.1,1.2-0.4,1.2c-1.2,0.2-2.2,0.2-3.7,0.3c-0.4,0-0.6,0.1-0.8,0c-0.5-0.2-0.4-1-0.3-1.8
		c0.1-1.5,0.4-3.9,0.5-5.1c0.1-1.3,0.2-3.3,1.2-3.3C143.1,57.1,143.2,57.1,143.4,57.3z"/>
	<path class="st1" d="M149.7,57.2c1.1,0.3,2.2,0.6,2.9,1.3c0.2,0.2,0.5,0.5,0.7,0.9c0.7,1.1,1,2.7,0.6,4.3c-0.4,1.5-1,2.1-2.2,2.8
		c-1.1,0.6-1.9,0.8-3.5,0.7c-0.6-0.1-0.8-0.2-0.8-0.6c0.2-2,0.3-3.6,0.4-5.8c0.1-1.7-0.3-3.6,1.2-3.7
		C149.1,57.1,149.5,57.2,149.7,57.2z M149.1,63.9c0,0.6-0.1,1.4,0.1,1.5c1.8,0.3,3.2-1.1,3.3-3.2c0-1-0.4-1.9-1-2.5
		c-0.4-0.4-1.4-0.9-2-0.7c-0.3,0.1-0.2,1-0.3,1.5C149.2,61.8,149.2,62.7,149.1,63.9z"/>
</g>
<g>
	<path class="st2" d="M86.5,77.5c2.2,0,4.5,0,6.7,0c6.1,0,12.2-0.2,18.3-0.2c5.7,0,11.5,0,17.2,0c1.9,0,3.7-0.2,5.6-0.3
		c3-0.2,5.9-0.1,8.9-0.1c3.3,0,6.6-0.2,9.8,0.4c0.9,0.2,3.2,0.4,3.4,1.3c0.1,0.3-1.4,2.4-1.8,2.6c-1.3,0.8-2.5-0.2-4,0.4
		c-3.8,1.5-11.5,0.8-15.9,1.4c-5.2,0.6-20.6,0-24.8,0.5c-2.4,0.3-11.1,0-13-0.3c-2.4-0.4-9.4,0.7-11.3-0.1c-1.1-0.5-4,0.2-4.7-0.4
		c-0.5-0.4-0.8-0.9-1.3-1.3c-0.6-0.5-1.8-2.2-0.9-2.8c0.3-0.2,1.5-0.4,1.9-0.5c0.5-0.1,1,0,1.6,0c0.7,0,1.3-0.1,2-0.3
		c1-0.2,1.9-0.1,3-0.1"/>
</g>
<g>
	<path class="st1" d="M99,114c0.3,0.6-0.2,1.8-0.3,2.7c-0.2,1.9-0.4,4.4-0.6,6.1c-0.1,0.9,0.1,2.3-0.3,3c-0.2,0.5-1,1-1.6,1
		c-1.1-0.2-0.7-2-0.6-3c0.4-2.5,0.5-4.9,0.7-7.2c0.1-1.1,0-2.8,0.9-3.1C97.7,113.2,98.7,113.2,99,114z"/>
	<path class="st1" d="M110.5,116.3c1.2,2.2,0.6,9-4.2,10c-1.8,0.4-3.2-0.3-4.1-0.9c-1.4-0.8-1.3-3.6-1-4.8c0.3-2.9,1.3-6.4,5.1-7
		C108.4,113.2,109.9,115.1,110.5,116.3z M103.7,123c0.3,0.7,1.6,1.2,2.4,1c2-0.4,2.8-3.7,2.5-5.5c-0.1-0.8-1.3-2.3-2.4-2.3
		c-0.8,0-1.8,1.1-2.1,1.7C103.4,119.3,103.2,122,103.7,123z"/>
	<path class="st1" d="M122.8,116.3c1.2,2.2,0.6,9-4.2,10c-1.8,0.4-3.2-0.3-4.1-0.9c-1.4-0.8-1.3-3.6-1-4.8c0.3-2.9,1.3-6.4,5.1-7
		C120.7,113.2,122.2,115.1,122.8,116.3z M116,123c0.3,0.7,1.6,1.2,2.4,1c2-0.4,2.8-3.7,2.5-5.5c-0.1-0.8-1.3-2.3-2.4-2.3
		c-0.8,0-1.8,1.1-2.1,1.7C115.6,119.3,115.5,122,116,123z"/>
	<path class="st1" d="M131.9,115.5c0.6,2.4-2.5,5.1-5.5,3.1c-1-0.6-1.1-2.7-0.5-3.8c0.4-0.7,1.5-1.4,2.6-1.5
		C129.8,113,131.6,114.3,131.9,115.5z M128.4,115.5c-1.4,1.1,1.1,2.5,1.3,1C129.7,115.8,129.1,115.4,128.4,115.5z M137.5,113.5
		c0.3,0.8-0.9,2.7-1.3,3.4c-0.9,1.8-1.7,3.6-2.4,5.1c-0.4,0.9-1,2.6-2,3c-0.9,0.4-1.8,0.1-1.8-0.8c0-0.8,0.7-1.7,1-2.4
		c0.5-1,0.9-1.8,1.3-2.8c0.7-1.6,1.4-2.9,2.2-4.4c0.5-0.9,0.7-1.5,1.8-1.7C136.9,112.9,137.4,113,137.5,113.5z M141.1,123.1
		c-0.1,0.6-1,1.5-1.6,1.9c-0.8,0.5-2.5,0.8-3.5,0.4c-1-0.4-1.5-2.3-0.8-3.7c0.4-0.9,1.9-1.9,3.1-2
		C139.4,119.6,141.5,121.1,141.1,123.1z M137.4,123.5c0.7,0.3,1.4-0.1,1.4-0.9C138.8,121,135.9,122.9,137.4,123.5z"/>
</g>
<path class="st1" d="M116,106.2c0-0.3,0-0.6,0-0.9c0-0.1,0.1-0.3,0-0.4c0,0.1,0,0.3,0,0.1c0-0.1,0-0.1,0-0.2c0-0.1,0.1-0.3,0.1-0.4
	c0.1-0.2-0.1,0.2,0,0c0-0.1,0.1-0.1,0.1-0.2c0.1-0.2,0.2-0.4,0.3-0.6c0.7-1.1,1.4-2.2,1.1-3.5c-0.1-0.7-1-1.1-1.6-0.9
	c-0.7,0.2-1.1,0.9-0.9,1.6c0,0.2,0-0.3,0-0.1c0,0,0,0.1,0,0.2c0-0.1,0.1-0.3,0-0.1c0,0.1,0,0.1,0,0.2c0,0,0,0.1,0,0.1
	c-0.1,0.2,0.1-0.2,0-0.1c-0.1,0.1-0.1,0.2-0.2,0.4c-0.2,0.4-0.5,0.9-0.8,1.3c-0.3,0.5-0.5,1.1-0.7,1.6c-0.1,0.7-0.1,1.3-0.1,2
	c0,0.7,0.6,1.3,1.3,1.3C115.4,107.5,116,107,116,106.2L116,106.2z"/>
<path class="st1" d="M135.5,107c0-0.1,0.1-0.2,0.1-0.2C135.5,107,135.4,107.1,135.5,107c0-0.1,0.1-0.2,0.1-0.2
	c0.1-0.1,0.3-0.3,0.3-0.4c-0.1,0.2-0.1,0.2,0,0.1c0,0,0.1-0.1,0.1-0.1c0.1-0.1,0.2-0.2,0.2-0.3c0.1-0.2,0.3-0.3,0.4-0.5
	c0.3-0.3,0.6-0.6,0.9-0.8c0.1-0.1,0.2-0.2,0.3-0.3c0.2-0.2-0.2,0.2,0,0c0.1-0.1,0.2-0.1,0.2-0.2c1.5-1.1,3.6-2.2,3.7-4.3
	c0-0.7-0.6-1.3-1.3-1.3c-0.8,0-1.3,0.6-1.3,1.3c0,0.2,0.1-0.4,0,0c-0.1,0.3,0.1-0.2,0,0c0,0.1-0.1,0.1-0.1,0.2c-0.2,0.3,0.1-0.1,0,0
	c-0.1,0.1-0.3,0.3-0.4,0.4c-0.1,0.1-0.3,0.4-0.5,0.4c0.3-0.1,0.1-0.1,0,0c-0.1,0.1-0.2,0.1-0.3,0.2c-0.2,0.1-0.3,0.2-0.5,0.3
	c-0.4,0.3-0.8,0.5-1.1,0.8c-0.6,0.5-1.1,1-1.6,1.5c-0.6,0.7-1.3,1.4-1.5,2.3c-0.2,0.7,0.2,1.5,0.9,1.6
	C134.5,108.1,135.3,107.7,135.5,107L135.5,107z"/>
<path class="st1" d="M146.4,118.9c0.4-0.2,0.6-0.3,0.9-0.4c0.3-0.1,0.6-0.2,1-0.4c0.8-0.3,1.5-0.5,2.2-0.8c0.6-0.3,1.2-0.6,1.8-0.9
	c0,0,0.4-0.2,0.2-0.1c0.2-0.1,0.3-0.1,0.5-0.2c0.3-0.1,0.7-0.2,1-0.2c0.7-0.1,1.1-1,0.9-1.6c-0.2-0.7-0.9-1-1.6-0.9
	c-1.5,0.2-2.7,1-4.1,1.6c-0.1,0-0.1,0.1-0.2,0.1c0.1,0,0.1,0-0.1,0c-0.2,0.1-0.3,0.1-0.5,0.2c-0.4,0.1-0.8,0.2-1.1,0.4
	c-0.8,0.3-1.6,0.6-2.3,1c-0.6,0.3-0.8,1.2-0.5,1.8C145,119.1,145.7,119.2,146.4,118.9L146.4,118.9z"/>
<path class="st1" d="M132.9,133.3c0,1,0,1.9,0.1,2.9c0.1,0.7,0.2,1.4,0.3,2.1c0.2,1.2,0.5,2.8,1.6,3.5c0.6,0.3,1.3,0.2,1.7-0.3
	c0.4-0.5,0.3-1.2-0.1-1.7c-0.4-0.4-0.9-0.6-1.4-0.6c-0.7-0.1-1.3,0.7-1.3,1.3c0,0.8,0.6,1.2,1.3,1.3c-0.1,0-0.2,0-0.3-0.1
	c-0.2-0.1-0.2-0.1-0.1,0c0.5-0.7,1.1-1.4,1.6-2.1c-0.2-0.1,0.2,0.2,0.1,0.1c0,0-0.1-0.2,0,0c0.1,0.2,0-0.1-0.1-0.1c0,0-0.1-0.3,0,0
	c0.1,0.2,0,0,0-0.1c0-0.1-0.1-0.2-0.1-0.4c-0.1-0.5-0.2-1-0.3-1.6c0-0.2-0.1-0.4-0.1-0.6c0-0.1-0.1-0.3-0.1-0.4c0,0,0-0.3,0-0.1
	c0-0.1,0-0.2,0-0.3c-0.1-0.9,0-1.8,0-2.7c0-0.7-0.6-1.3-1.3-1.3C133.5,132,132.9,132.5,132.9,133.3L132.9,133.3z"/>
<path class="st1" d="M104.1,136C104,136.3,104.2,135.9,104.1,136c0,0.1-0.1,0.1-0.1,0.2c-0.1,0.1-0.1,0.2-0.2,0.4
	c-0.2,0.2-0.4,0.5-0.5,0.7c-0.4,0.6-0.7,1.2-0.9,1.9c-0.3,1.4-1,2.7-1,4.2c0,0.7,0.6,1.3,1.3,1.3c0.7,0,1.3-0.6,1.3-1.3
	c0-0.1,0-0.2,0-0.3c0-0.7-0.6-1.3-1.3-1.3c-0.7,0-1.3,0.6-1.3,1.3c0,0.1,0,0.2,0,0.3c0.9,0,1.8,0,2.6,0c0-0.1,0-0.3,0-0.4
	c0-0.2,0,0.3,0,0c0-0.1,0-0.1,0-0.2c0.1-0.3,0.2-0.7,0.3-1c0.2-0.6,0.4-1.3,0.5-1.9c0-0.1,0-0.1,0.1-0.2c0,0,0.1-0.3,0-0.1
	c-0.1,0.2,0,0,0-0.1c0-0.1,0.1-0.1,0.1-0.2c0.1-0.2,0.3-0.5,0.5-0.7c0.4-0.6,0.8-1.1,1-1.7c0.2-0.6-0.3-1.5-0.9-1.6
	C105,134.9,104.4,135.3,104.1,136L104.1,136z"/>
<path class="st1" d="M86.4,130.7c-2.5,1-5,2-7.6,2.6c-2.3,0.6-4.7,0.9-6.8,2.2c-1.4,0.9-0.2,3,1.3,2.3c0.1-0.1,0.3-0.1,0.5-0.1
	c0.7-0.1,1.1-1,0.9-1.6c-0.2-0.7-0.9-1.1-1.6-0.9c-0.4,0.1-0.7,0.2-1.1,0.4c0.4,0.8,0.9,1.5,1.3,2.3c1.9-1.2,4.2-1.4,6.3-2
	c2.5-0.6,5-1.6,7.4-2.6c0.7-0.3,1.1-0.9,0.9-1.6C87.9,131,87.1,130.4,86.4,130.7L86.4,130.7z"/>
<path class="st1" d="M87.1,113.4c-0.8-0.1-1.4-0.4-2-0.7c-0.7-0.3-1.5-0.6-2.2-0.8c-1.5-0.4-3-1-4.6-0.8c-0.7,0.1-1.4,0.6-1.3,1.3
	c0,0.7,0.6,1.4,1.3,1.3c1.3-0.1,2.6,0.4,4,0.8c0.3,0.1,0.7,0.2,1,0.3c0.4,0.1,0.5,0.2,0.8,0.3c0.7,0.3,1.5,0.7,2.3,0.8
	c0.7,0.1,1.5-0.2,1.6-0.9C88.2,114.4,87.9,113.5,87.1,113.4L87.1,113.4z"/>
<path class="st1" d="M98.7,105.8c0-0.9-0.5-1.6-1-2.3c-0.1-0.1-0.1-0.1,0,0c-0.1-0.1-0.1-0.2-0.1-0.3c-0.1-0.2-0.1-0.4-0.2-0.6
	c-0.2-0.5-0.4-0.9-0.6-1.4c-0.8-1.6-1.7-3-2.9-4.3c-0.5-0.5-1.4-0.5-1.9,0c-0.5,0.5-0.5,1.3,0,1.9c0.5,0.6,0.8,1,1.3,1.6
	c0.4,0.6,0.8,1.3,1.1,2c0.2,0.4,0.2,0.5,0.4,0.9c0.1,0.4,0.3,0.7,0.4,1.1c0.2,0.4,0.3,0.7,0.6,1c0.1,0.1,0.2,0.3,0.3,0.4
	c0,0,0.1,0.2,0.1,0.1c-0.1-0.2,0,0.3,0-0.1c0,0.7,0.6,1.3,1.3,1.3C98.1,107.1,98.8,106.5,98.7,105.8L98.7,105.8z"/>
</svg>
